<svg width="360" height="277" viewBox="0 0 360 277" fill="none" xmlns="http://www.w3.org/2000/svg">
<path d="M196.864 148.035L168.336 147.893L182.728 133.545L196.864 148.035Z" fill="#50E6C9"/>
<path d="M159.435 148.04L130.89 147.887L145.282 133.54L159.435 148.04Z" fill="#50E6C9"/>
<path d="M160.126 105.868L131.581 105.716L145.973 91.3686L160.126 105.868Z" fill="#50E6C9"/>
<path d="M121.987 148.037L93.4592 147.896L107.851 133.548L121.987 148.037Z" fill="#50E6C9"/>
<path d="M84.539 148.035L56.0111 147.893L70.4028 133.546L84.539 148.035Z" fill="#50E6C9"/>
<path d="M47.1084 148.043L18.5634 147.891L32.9551 133.543L47.1084 148.043Z" fill="#50E6C9"/>
<path d="M9.6603 148.041L-18.8848 147.889L-4.49303 133.541L9.6603 148.041Z" fill="#50E6C9"/>
<path d="M176.177 126.978L147.649 126.836L162.023 112.478L176.177 126.978Z" fill="#50E6C9"/>
<path d="M138.729 126.976L110.201 126.834L124.592 112.486L138.729 126.976Z" fill="#50E6C9"/>
<path d="M101.28 126.974L72.7523 126.832L87.1441 112.484L101.28 126.974Z" fill="#50E6C9"/>
<path d="M63.8498 126.982L35.3047 126.83L49.6964 112.482L63.8498 126.982Z" fill="#50E6C9"/>
<path d="M26.4014 126.979L-2.14368 126.827L12.2481 112.479L26.4014 126.979Z" fill="#50E6C9"/>
<path d="M119.703 108.211L91.1858 108.052L105.567 93.7215L119.703 108.211Z" fill="#50E6C9"/>
<path d="M82.2722 108.219L53.7272 108.066L68.1189 93.7187L82.2722 108.219Z" fill="#50E6C9"/>
<path d="M44.8345 108.199L16.2894 108.047L30.6706 93.7167L44.8345 108.199Z" fill="#50E6C9"/>
<path d="M7.38665 108.197L-21.1412 108.055L-6.76005 93.7252L7.38665 108.197Z" fill="#50E6C9"/>
<path d="M384.199 148.499L355.654 148.346L370.046 133.999L384.199 148.499Z" fill="#50E6C9"/>
<path d="M384.89 106.327L356.345 106.175L370.737 91.8276L384.89 106.327Z" fill="#50E6C9"/>
<path d="M346.751 148.496L318.223 148.354L332.615 134.007L346.751 148.496Z" fill="#50E6C9"/>
<path d="M309.303 148.494L280.775 148.352L295.167 134.005L309.303 148.494Z" fill="#50E6C9"/>
<path d="M271.872 148.502L243.327 148.35L257.719 134.002L271.872 148.502Z" fill="#50E6C9"/>
<path d="M234.424 148.5L205.879 148.348L220.271 134L234.424 148.5Z" fill="#50E6C9"/>
<path d="M196.976 148.498L168.448 148.356L182.84 134.008L196.976 148.498Z" fill="#50E6C9"/>
<path d="M159.528 148.496L131 148.354L145.392 134.006L159.528 148.496Z" fill="#50E6C9"/>
<path d="M363.492 127.435L334.964 127.293L349.356 112.945L363.492 127.435Z" fill="#50E6C9"/>
<path d="M326.044 127.432L297.516 127.291L311.908 112.943L326.044 127.432Z" fill="#50E6C9"/>
<path d="M288.613 127.441L260.068 127.289L274.46 112.941L288.613 127.441Z" fill="#50E6C9"/>
<path d="M251.165 127.438L222.62 127.286L237.012 112.938L251.165 127.438Z" fill="#50E6C9"/>
<path d="M213.717 127.436L185.189 127.294L199.581 112.947L213.717 127.436Z" fill="#50E6C9"/>
<path d="M176.268 127.434L147.741 127.292L162.132 112.945L176.268 127.434Z" fill="#50E6C9"/>
<path d="M344.467 108.67L315.949 108.511L330.331 94.1805L344.467 108.67Z" fill="#50E6C9"/>
<path d="M307.036 108.678L278.491 108.525L292.883 94.1777L307.036 108.678Z" fill="#50E6C9"/>
<path d="M269.598 108.658L241.053 108.506L255.434 94.1757L269.598 108.658Z" fill="#50E6C9"/>
<path d="M232.15 108.656L203.622 108.514L218.004 94.1841L232.15 108.656Z" fill="#50E6C9"/>
<path d="M194.702 108.654L166.174 108.512L180.566 94.1644L194.702 108.654Z" fill="#50E6C9"/>
</svg>
