<svg width="233" height="165" viewBox="0 0 233 165" fill="none" xmlns="http://www.w3.org/2000/svg">
<path d="M65.1402 122.891L66.5269 121.351C70.0705 117.314 76.3721 113.308 81.6105 113.508C82.6806 113.513 83.7345 113.769 84.6873 114.256C85.6401 114.744 86.465 115.448 87.0954 116.313C87.3707 116.674 87.7775 116.913 88.2275 116.976C88.6776 117.039 89.1344 116.923 89.499 116.651C89.6811 116.519 89.8349 116.351 89.9513 116.157C90.0677 115.964 90.1444 115.75 90.1769 115.527C90.2409 115.075 90.1247 114.615 89.8533 114.248C88.9141 112.974 87.6919 111.935 86.2829 111.213C84.874 110.491 83.3167 110.106 81.7338 110.088C75.1395 109.826 67.8673 114.571 63.9385 119.101L62.5518 120.642C57.1593 126.897 51.0427 133.985 43.7243 132.66C43.3095 132.584 42.8815 132.663 42.521 132.882C42.1605 133.1 41.8925 133.443 41.7676 133.846V134.046C41.6868 134.492 41.7866 134.952 42.0449 135.325C42.3065 135.698 42.7053 135.953 43.1542 136.034C52.3677 137.698 59.1623 129.84 65.1402 122.891Z" fill="#FCC905"/>
<path d="M232.633 50.8939C232.362 50.5292 231.96 50.2838 231.512 50.2091C231.063 50.1344 230.604 50.2363 230.229 50.4933C222.525 56.0245 212.727 53.3128 202.388 50.4933C197.492 48.9748 192.478 47.8668 187.397 47.1808C181.813 46.6415 176.179 47.312 170.877 49.1465C165.576 50.981 160.732 53.9365 156.675 57.8117C156.511 57.9661 156.38 58.1523 156.29 58.3589C156.2 58.5654 156.153 58.7882 156.151 59.0135C156.143 59.2406 156.182 59.4669 156.264 59.6788C156.346 59.8906 156.47 60.0836 156.629 60.2461C156.788 60.4125 156.979 60.5448 157.191 60.6349C157.403 60.725 157.631 60.7709 157.862 60.7699C158.082 60.7722 158.301 60.7297 158.505 60.645C158.709 60.5602 158.894 60.435 159.048 60.2769C162.751 56.7515 167.169 54.0631 172.001 52.3938C176.834 50.7244 181.969 50.1131 187.058 50.6012C191.939 51.2715 196.757 52.3381 201.464 53.7905C212.126 56.7795 223.142 59.8609 232.278 53.3745C232.468 53.2375 232.628 53.0638 232.749 52.8636C232.87 52.6635 232.949 52.441 232.982 52.2095C233.015 51.9779 233.001 51.7421 232.941 51.5161C232.881 51.2901 232.776 51.0785 232.633 50.8939Z" fill="#FCC905"/>
<path d="M99.2212 77.8719C94.4856 71.2887 88.7701 65.4693 82.2733 60.6159C82.0876 60.4779 81.8756 60.3793 81.6504 60.3263C81.4251 60.2733 81.1914 60.267 80.9637 60.3077C80.7347 60.3456 80.5157 60.4292 80.3198 60.5536C80.1239 60.6781 79.9551 60.8407 79.8235 61.0319L65.8184 81.6159C65.6448 81.8929 65.5527 82.2133 65.5527 82.5403C65.5527 82.8673 65.6448 83.1876 65.8184 83.4647C65.9812 83.725 66.2087 83.9385 66.4788 84.0843C66.7489 84.2302 67.0523 84.3034 67.3592 84.2967H67.5594L98.1735 80.5836C98.4698 80.5511 98.7521 80.4396 98.9906 80.2607C99.2291 80.0818 99.4151 79.8421 99.5293 79.5667C99.6341 79.2825 99.6608 78.9753 99.6066 78.6772C99.5524 78.3792 99.4193 78.1011 99.2212 77.8719ZM94.599 77.5176L70.7025 80.4141L81.4875 64.4677C86.3961 68.2622 90.8202 72.6449 94.6606 77.5176H94.599Z" fill="#FCC905"/>
<path d="M143.162 137.159C135.602 131.738 126.838 128.236 117.624 126.953C108.411 125.671 99.0232 126.645 90.2697 129.794C81.2565 133.107 73.2293 138.653 65.4795 144.03C56.8361 150.008 47.9154 156.202 37.8391 158.991C25.96 162.245 13.2746 160.649 2.57207 154.553C2.17712 154.329 1.70979 154.27 1.27141 154.388C0.83303 154.507 0.458929 154.793 0.230188 155.185C0.117236 155.38 0.0439573 155.596 0.0145823 155.819C-0.0147927 156.043 0.000308969 156.27 0.0590152 156.487C0.117721 156.705 0.218872 156.909 0.356657 157.087C0.494442 157.266 0.666142 157.415 0.861875 157.527C6.55669 160.772 12.8353 162.863 19.3388 163.68C25.8423 164.497 32.443 164.024 38.7635 162.288C49.3944 159.345 58.5617 153.043 67.4362 146.881C75.0166 141.642 82.8434 136.219 91.4406 133.014C99.6741 130.109 108.484 129.22 117.132 130.421C125.78 131.622 134.014 134.878 141.144 139.917C141.436 140.139 141.794 140.259 142.161 140.259C142.528 140.259 142.886 140.139 143.178 139.917C143.318 139.823 143.438 139.702 143.532 139.562C143.8 139.194 143.912 138.734 143.843 138.284C143.773 137.834 143.529 137.429 143.162 137.159Z" fill="#FCC905"/>
<path d="M60.3723 29.7413L5.40775 0.337039C4.94678 0.0972328 4.43354 -0.0180054 3.91679 0.00228238C3.40005 0.0225702 2.89695 0.177707 2.45529 0.45295C2.01364 0.728194 1.64809 1.11441 1.39338 1.5749C1.13867 2.0354 1.00326 2.55487 1 3.08399V61.8924C0.999319 62.4267 1.13344 62.9521 1.38939 63.4178C1.64534 63.8834 2.01444 64.2736 2.46098 64.5506C2.90751 64.8275 3.41636 64.9818 3.93825 64.9985C4.46015 65.0152 4.97743 64.8938 5.44002 64.646L60.3723 35.2417C60.8632 34.9791 61.2744 34.5839 61.5614 34.0991C61.8483 33.6143 62 33.0583 62 32.4915C62 31.9247 61.8483 31.3687 61.5614 30.8839C61.2744 30.3991 60.8632 30.0039 60.3723 29.7413Z" fill="#FCC905"/>
</svg>
