<svg width="225" height="223" viewBox="0 0 225 223" fill="none" xmlns="http://www.w3.org/2000/svg">
<path d="M15.8233 94.1576L202.913 19.6336C204.323 19.0774 205.852 18.894 207.354 19.1011C208.856 19.3082 210.279 19.8988 211.485 20.8156C212.691 21.7324 213.639 22.9444 214.238 24.334C214.836 25.7237 215.065 27.2438 214.901 28.7472L195.953 213.921C195.796 215.418 195.256 216.85 194.384 218.079C193.512 219.308 192.338 220.292 190.974 220.938C189.611 221.583 188.103 221.867 186.597 221.763C185.091 221.659 183.637 221.17 182.375 220.343L14.2449 109.583C12.9114 108.699 11.8452 107.47 11.1612 106.026C10.4772 104.583 10.2016 102.98 10.3641 101.392C10.5266 99.8042 11.121 98.2909 12.0832 97.0159C13.0453 95.7408 14.3386 94.7525 15.8233 94.1576Z" fill="#2AA8E0"/>
<path d="M223 112.5C223 161.367 183.164 201 134 201C84.8363 201 45 161.367 45 112.5C45 63.6332 84.8363 24 134 24C183.164 24 223 63.6332 223 112.5Z" fill="#333033" stroke="#333033" stroke-width="4"/>
<g opacity="0.3">
<path d="M106.884 139.422C106.285 139.159 105.671 138.931 105.045 138.741C104.367 138.56 103.715 138.291 103.107 137.941C102.883 137.825 102.694 137.652 102.559 137.439C102.424 137.226 102.347 136.982 102.337 136.73C102.323 136.346 102.445 135.969 102.681 135.666C102.917 135.362 103.252 135.152 103.628 135.07C104.054 134.951 104.499 134.919 104.938 134.976C105.376 135.033 105.799 135.178 106.18 135.402C106.433 135.573 106.711 135.706 107.003 135.794C107.197 135.842 107.4 135.829 107.585 135.756C107.77 135.682 107.928 135.553 108.036 135.386C108.137 135.213 108.176 135.012 108.148 134.814C108.12 134.616 108.025 134.434 107.88 134.297C107.674 134.069 107.423 133.887 107.143 133.762C106.052 133.277 104.842 133.122 103.664 133.318C103.032 133.393 102.426 133.611 101.892 133.956C101.357 134.301 100.909 134.764 100.581 135.309C100.185 135.949 100.046 136.715 100.19 137.454C100.335 138.192 100.753 138.849 101.361 139.292C101.698 139.54 102.063 139.746 102.449 139.906C103.196 140.238 103.983 140.444 104.753 140.706C105.218 140.848 105.663 141.045 106.081 141.294C106.316 141.421 106.517 141.605 106.663 141.829C106.809 142.054 106.896 142.311 106.917 142.578C106.955 143.121 106.808 143.661 106.499 144.11C106.19 144.558 105.739 144.889 105.218 145.048C104.265 145.348 103.234 145.27 102.337 144.832C101.985 144.676 101.673 144.474 101.308 144.318C101.122 144.215 100.905 144.184 100.698 144.23C100.491 144.276 100.308 144.395 100.182 144.566C100.051 144.753 99.9871 144.979 100.002 145.207C100.017 145.435 100.11 145.65 100.265 145.818C100.486 146.046 100.75 146.228 101.042 146.352C102.004 146.756 103.039 146.957 104.082 146.943H104.388C105.931 146.873 107.299 146.409 108.275 145.131C109.848 143.069 109.217 140.507 106.874 139.422" fill="white"/>
<path d="M130.014 140.032C129.996 139.247 129.711 138.491 129.207 137.888C128.703 137.285 128.01 136.871 127.24 136.713C126.567 136.59 125.878 136.59 125.205 136.713C124.521 136.854 123.891 137.184 123.386 137.666C123.316 137.165 123.194 136.713 122.626 136.64C122.423 136.607 122.215 136.607 122.012 136.64C121.827 136.661 121.656 136.748 121.53 136.885C121.404 137.023 121.333 137.201 121.328 137.387C121.328 140.308 121.328 143.229 121.328 146.15C121.337 146.335 121.41 146.511 121.535 146.647C121.66 146.784 121.828 146.872 122.012 146.897C122.214 146.938 122.423 146.938 122.626 146.897C122.753 146.877 122.874 146.83 122.981 146.76C123.159 146.629 123.278 146.434 123.313 146.216C123.348 146.031 123.364 145.843 123.359 145.655V142.004C123.359 141.519 123.359 141.031 123.359 140.547C123.335 140.064 123.478 139.588 123.764 139.199C124.05 138.809 124.462 138.53 124.929 138.409C126.181 138.041 128.013 138.602 127.983 140.693C127.96 142.422 127.983 144.148 127.983 145.878C127.983 146.462 128.182 146.75 128.67 146.9C128.89 146.938 129.114 146.938 129.334 146.9C129.522 146.868 129.693 146.773 129.819 146.631C129.879 146.554 129.925 146.468 129.955 146.375C129.993 146.251 130.01 146.121 130.005 145.99C130.005 144.175 130.005 140.182 130.005 140.049" fill="white"/>
<path d="M117.221 143.774C117.025 144.217 116.702 144.593 116.293 144.852C115.883 145.112 115.405 145.244 114.921 145.231C114.43 145.263 113.942 145.142 113.523 144.886C113.103 144.63 112.773 144.251 112.577 143.8C112.258 143.159 112.093 142.452 112.097 141.736C112.101 141.02 112.274 140.315 112.601 139.678C112.795 139.252 113.111 138.893 113.509 138.646C113.907 138.4 114.37 138.277 114.838 138.294C115.312 138.264 115.785 138.375 116.198 138.61C116.611 138.846 116.945 139.198 117.161 139.621C117.499 140.256 117.674 140.964 117.672 141.683C117.684 142.405 117.533 143.121 117.231 143.777L117.221 143.774ZM119.495 146.489C119.504 146.474 119.511 146.458 119.518 146.442C119.566 146.35 119.6 146.25 119.617 146.147C119.617 143.226 119.617 140.305 119.617 137.384C119.608 137.33 119.592 137.276 119.571 137.225C119.548 137.148 119.516 137.074 119.475 137.006V137.006C119.388 136.868 119.265 136.756 119.121 136.682C118.976 136.607 118.814 136.572 118.652 136.581C118.071 136.581 117.782 136.913 117.656 137.69C116.992 137.158 116.328 136.694 115.462 136.641C115.079 136.582 114.69 136.582 114.307 136.641C113.363 136.698 112.468 137.077 111.771 137.716C109.564 139.668 109.494 143.601 111.598 145.682C112.996 147.066 115.877 147.647 117.609 145.788C117.609 145.788 117.649 145.788 117.669 145.788C117.752 146.602 118.001 146.933 118.592 146.967C118.753 146.985 118.916 146.961 119.065 146.897C119.214 146.833 119.344 146.731 119.442 146.602V146.602C119.442 146.575 119.475 146.552 119.488 146.525" fill="white"/>
<path d="M158.1 133.384C157.994 133.384 152.882 133.384 152.67 133.384C152.58 133.389 152.491 133.405 152.404 133.43C152.309 133.455 152.22 133.499 152.143 133.56C152.065 133.622 152.002 133.698 151.956 133.786C151.872 134.019 151.838 134.268 151.857 134.516C151.857 134.731 151.857 134.947 151.857 135.163C151.857 135.78 151.857 136.398 151.857 137.015V142.571C151.857 143.189 151.857 143.806 151.857 144.424V145.612C151.849 145.812 151.861 146.012 151.89 146.209C151.914 146.397 152.004 146.569 152.143 146.697C152.282 146.825 152.461 146.9 152.65 146.91C152.817 146.942 152.989 146.937 153.153 146.894C153.317 146.851 153.47 146.771 153.599 146.661C153.695 146.555 153.762 146.427 153.795 146.289C153.866 145.944 153.89 145.591 153.868 145.24V144.334C153.868 143.717 153.868 143.099 153.868 142.482C153.868 142.01 153.868 141.533 153.891 141.061C153.891 140.889 154.1 140.912 154.223 140.912C155.219 140.912 156.879 140.912 157.576 140.912C158.22 140.872 158.555 140.46 158.395 139.846C158.346 139.639 158.222 139.457 158.047 139.334C157.872 139.212 157.658 139.158 157.446 139.183C156.341 139.183 155.232 139.183 154.127 139.183C153.954 139.183 153.861 139.163 153.861 138.95C153.861 137.762 153.861 136.576 153.861 135.392C153.861 135.176 153.954 135.166 154.127 135.163L158.173 135.107C158.688 135.107 158.92 134.725 158.907 134.22C158.911 134.111 158.893 134.002 158.855 133.899C158.816 133.797 158.757 133.703 158.682 133.624C158.606 133.544 158.516 133.481 158.415 133.438C158.315 133.394 158.206 133.371 158.097 133.371" fill="white"/>
<path d="M162.686 135.614C162.914 135.601 163.139 135.55 163.35 135.462C163.932 135.24 164.511 135.019 165.089 134.798C165.421 134.672 165.753 134.552 166.058 134.4C166.209 134.344 166.336 134.24 166.421 134.103C166.505 133.966 166.541 133.806 166.523 133.646C166.507 133.471 166.442 133.303 166.336 133.162C166.23 133.021 166.086 132.913 165.922 132.849C165.719 132.772 165.494 132.772 165.291 132.849C164.266 133.198 163.247 133.563 162.258 134.001C162.083 134.061 161.938 134.185 161.852 134.348C161.767 134.51 161.747 134.7 161.796 134.878C161.843 135.083 161.956 135.267 162.118 135.401C162.28 135.536 162.482 135.613 162.692 135.621" fill="white"/>
<path d="M135.196 136.71C135.017 136.683 134.836 136.677 134.655 136.69C134.42 136.713 134.35 136.634 134.353 136.395C134.353 135.794 134.377 135.193 134.353 134.596C134.351 134.36 134.256 134.134 134.09 133.967C133.924 133.8 133.699 133.704 133.464 133.699C133.224 133.649 132.974 133.694 132.766 133.823C132.558 133.953 132.408 134.159 132.348 134.396C132.317 134.565 132.295 134.736 132.282 134.908C132.282 135.382 132.266 135.86 132.282 136.335C132.282 136.607 132.236 136.727 131.95 136.69C131.769 136.674 131.587 136.683 131.409 136.717C131.216 136.746 131.04 136.842 130.91 136.988C130.781 137.133 130.706 137.32 130.7 137.515C130.693 137.71 130.755 137.901 130.874 138.055C130.993 138.209 131.162 138.317 131.353 138.36C131.55 138.411 131.755 138.424 131.957 138.399C132.222 138.373 132.289 138.456 132.289 138.731C132.289 139.345 132.289 139.959 132.289 140.573C132.289 142.117 132.289 143.657 132.289 145.2C132.281 145.497 132.296 145.793 132.335 146.087C132.351 146.291 132.427 146.486 132.554 146.648C132.682 146.781 132.85 146.867 133.032 146.893C133.236 146.923 133.443 146.923 133.646 146.893C134.177 146.827 134.363 146.266 134.383 145.801C134.403 145.337 134.383 144.839 134.383 144.357V138.98C134.383 138.416 134.383 138.416 134.934 138.403C135.045 138.403 135.157 138.393 135.266 138.373C135.464 138.337 135.642 138.231 135.768 138.075C135.894 137.919 135.96 137.722 135.954 137.522C135.948 137.321 135.87 137.129 135.735 136.981C135.6 136.832 135.416 136.738 135.216 136.713" fill="white"/>
<path d="M161.418 140.773C161.574 139.266 162.596 138.3 164.057 138.29C165.623 138.29 166.712 139.216 166.888 140.726C166.915 140.955 166.888 141.018 166.639 141.012C165.813 141.012 164.98 141.012 164.163 141.012C163.347 141.012 162.487 141.012 161.65 141.012C161.468 141.012 161.398 140.985 161.418 140.773V140.773ZM161.72 142.475C163.712 142.475 167.419 142.475 168.027 142.475C168.763 142.475 168.992 142.22 168.999 141.48C169.016 140.465 168.725 139.47 168.163 138.625C167.81 138.049 167.324 137.565 166.747 137.214C166.17 136.863 165.517 136.655 164.843 136.607C164.459 136.572 164.073 136.572 163.688 136.607C163.119 136.631 162.561 136.771 162.048 137.018C161.534 137.264 161.076 137.612 160.701 138.041C159.42 139.468 159.088 141.164 159.45 143.02C159.782 144.679 160.648 146.007 162.301 146.578C164.346 147.301 166.284 146.96 168.08 145.765C168.319 145.61 168.518 145.401 168.661 145.154C168.755 144.992 168.794 144.803 168.771 144.616C168.749 144.43 168.665 144.256 168.534 144.122C168.412 143.993 168.247 143.912 168.07 143.893C167.893 143.874 167.716 143.919 167.569 144.019C167.306 144.171 167.064 144.351 166.808 144.527C166.29 144.881 165.698 145.112 165.076 145.202C164.455 145.292 163.821 145.239 163.224 145.048C162.689 144.886 162.223 144.553 161.898 144.099C161.572 143.645 161.406 143.096 161.425 142.538C161.504 142.445 161.611 142.475 161.71 142.475" fill="white"/>
<path d="M143.308 143.773C143.114 144.217 142.791 144.592 142.382 144.852C141.973 145.111 141.496 145.243 141.012 145.23C140.521 145.262 140.032 145.141 139.612 144.885C139.193 144.629 138.862 144.25 138.665 143.8C138.346 143.159 138.182 142.452 138.186 141.736C138.19 141.02 138.362 140.315 138.688 139.677C138.882 139.251 139.198 138.892 139.597 138.646C139.995 138.399 140.457 138.277 140.925 138.293C141.4 138.264 141.873 138.374 142.286 138.609C142.698 138.845 143.033 139.197 143.249 139.621C143.586 140.255 143.762 140.963 143.76 141.682C143.772 142.404 143.621 143.12 143.318 143.776L143.308 143.773ZM145.582 146.488L145.609 146.442C145.656 146.349 145.689 146.249 145.708 146.146C145.695 143.225 145.695 140.305 145.708 137.384C145.697 137.329 145.681 137.276 145.658 137.224C145.636 137.148 145.604 137.074 145.562 137.005V137.005C145.476 136.868 145.354 136.756 145.21 136.681C145.066 136.606 144.905 136.572 144.742 136.58C144.162 136.58 143.869 136.912 143.747 137.689C143.083 137.158 142.419 136.693 141.553 136.64C141.17 136.582 140.78 136.582 140.398 136.64C139.454 136.696 138.558 137.076 137.862 137.716C135.651 139.667 135.581 143.601 137.686 145.682C139.086 147.066 141.968 147.647 143.697 145.788C143.697 145.788 143.737 145.788 143.757 145.788C143.84 146.601 144.088 146.933 144.679 146.966C144.84 146.985 145.004 146.961 145.153 146.897C145.302 146.833 145.432 146.731 145.529 146.601C145.546 146.575 145.562 146.551 145.575 146.525" fill="white"/>
<path d="M129.401 122.756C128.599 123.411 127.652 123.864 126.639 124.076C125.626 124.289 124.576 124.255 123.579 123.977C122.958 123.82 122.381 123.524 121.89 123.113C121.399 122.701 121.008 122.184 120.744 121.601C120.691 121.494 120.647 121.383 120.612 121.269C120.56 121.122 120.565 120.96 120.626 120.817C120.688 120.674 120.801 120.559 120.944 120.495C121.019 120.461 121.1 120.442 121.183 120.44C121.266 120.438 121.348 120.453 121.425 120.484C121.502 120.515 121.572 120.562 121.63 120.621C121.688 120.68 121.733 120.75 121.763 120.827C122.487 122.583 124.196 123.263 126.258 122.859C127.109 122.726 127.91 122.371 128.581 121.83C129.092 121.429 129.474 120.887 129.678 120.27C129.881 119.654 129.898 118.99 129.726 118.364C129.683 118.175 129.613 117.993 129.57 117.807C129.535 117.656 129.557 117.498 129.632 117.362C129.707 117.227 129.83 117.125 129.976 117.075C130.122 117.025 130.282 117.031 130.424 117.092C130.566 117.153 130.681 117.264 130.745 117.405C131.017 117.91 131.512 121.166 129.398 122.759" fill="white"/>
<path d="M121.438 116.503C121.435 116.386 121.455 116.27 121.498 116.162C121.54 116.053 121.604 115.954 121.685 115.871C121.767 115.788 121.864 115.722 121.972 115.677C122.079 115.632 122.195 115.609 122.311 115.609C122.438 115.612 122.564 115.641 122.68 115.692C122.796 115.744 122.901 115.819 122.988 115.911C123.075 116.004 123.143 116.113 123.187 116.232C123.232 116.352 123.252 116.478 123.247 116.606C123.251 116.722 123.23 116.838 123.188 116.946C123.146 117.055 123.082 117.153 123.001 117.237C122.92 117.32 122.823 117.387 122.716 117.432C122.609 117.478 122.494 117.502 122.378 117.502C122.123 117.488 121.884 117.376 121.709 117.191C121.535 117.006 121.437 116.761 121.438 116.506" fill="white"/>
<path d="M126.899 114.607C127.025 114.607 127.151 114.631 127.268 114.68C127.385 114.728 127.491 114.8 127.579 114.891C127.668 114.981 127.737 115.089 127.784 115.206C127.83 115.324 127.852 115.45 127.848 115.577C127.855 115.693 127.838 115.81 127.798 115.919C127.758 116.029 127.696 116.129 127.615 116.213C127.535 116.297 127.438 116.364 127.331 116.41C127.224 116.455 127.108 116.478 126.992 116.477C126.743 116.472 126.507 116.37 126.333 116.193C126.159 116.016 126.06 115.779 126.059 115.531C126.051 115.414 126.067 115.298 126.105 115.188C126.144 115.078 126.204 114.977 126.282 114.89C126.361 114.804 126.456 114.735 126.562 114.686C126.668 114.638 126.782 114.611 126.899 114.607" fill="white"/>
<path d="M143.724 124.8C143.041 124.827 142.361 124.714 141.724 124.467C141.087 124.219 140.508 123.844 140.023 123.363C139.244 122.584 138.673 121.622 138.363 120.565C138.327 120.482 138.309 120.392 138.311 120.301C138.312 120.21 138.333 120.12 138.371 120.038C138.41 119.956 138.466 119.883 138.535 119.824C138.604 119.765 138.684 119.721 138.772 119.695C138.859 119.669 138.95 119.662 139.041 119.673C139.131 119.684 139.218 119.713 139.296 119.759C139.375 119.805 139.443 119.867 139.497 119.941C139.55 120.014 139.588 120.098 139.608 120.187C139.79 120.765 140.06 121.313 140.408 121.81C141.43 123.247 142.841 123.781 144.584 123.396C145.276 123.228 145.945 122.975 146.575 122.643C146.688 122.575 146.819 122.542 146.951 122.548C147.083 122.555 147.209 122.6 147.315 122.679C147.411 122.747 147.485 122.841 147.528 122.95C147.572 123.059 147.583 123.178 147.561 123.293C147.545 123.39 147.506 123.482 147.449 123.561C147.391 123.641 147.316 123.706 147.229 123.751C146.15 124.35 144.954 124.708 143.724 124.8" fill="white"/>
<path d="M142.946 116.051C142.951 116.179 142.93 116.306 142.885 116.426C142.84 116.545 142.772 116.655 142.684 116.748C142.596 116.84 142.491 116.915 142.374 116.966C142.257 117.017 142.131 117.045 142.004 117.047C141.739 117.047 141.486 116.942 141.299 116.756C141.113 116.569 141.008 116.316 141.008 116.051C141.008 115.787 141.113 115.534 141.299 115.347C141.486 115.161 141.739 115.056 142.004 115.056C142.133 115.057 142.261 115.085 142.38 115.138C142.499 115.19 142.605 115.266 142.694 115.361C142.782 115.456 142.851 115.568 142.895 115.69C142.938 115.812 142.957 115.942 142.95 116.071" fill="white"/>
<path d="M146.384 118.983C146.135 118.94 145.914 118.799 145.769 118.592C145.624 118.385 145.566 118.13 145.61 117.881C145.64 117.708 145.717 117.546 145.832 117.414C145.947 117.282 146.097 117.184 146.264 117.131C146.432 117.078 146.61 117.073 146.781 117.115C146.951 117.157 147.107 117.245 147.231 117.369C147.354 117.494 147.441 117.65 147.482 117.82C147.523 117.991 147.516 118.17 147.462 118.337C147.409 118.504 147.31 118.653 147.177 118.767C147.044 118.882 146.882 118.958 146.709 118.987C146.599 119.009 146.486 119.009 146.377 118.987" fill="white"/>
<path d="M143.275 103.933C141.844 103.818 140.513 103.152 139.564 102.075C138.907 101.38 138.462 100.513 138.279 99.5753C138.247 99.4113 138.232 99.2445 138.233 99.0774C138.227 98.9206 138.282 98.7675 138.388 98.6514C138.493 98.5352 138.64 98.4653 138.797 98.4567C138.877 98.4425 138.96 98.4444 139.039 98.4623C139.119 98.4802 139.194 98.5137 139.26 98.561C139.327 98.6083 139.383 98.6683 139.426 98.7376C139.469 98.8069 139.498 98.884 139.511 98.9645C139.565 99.3463 139.663 99.7205 139.803 100.08C140.042 100.642 140.399 101.146 140.85 101.558C141.301 101.97 141.834 102.281 142.415 102.47C142.996 102.659 143.611 102.721 144.218 102.652C144.824 102.583 145.41 102.385 145.933 102.071C146.654 101.66 147.291 101.116 147.809 100.468C147.862 100.382 147.934 100.309 148.019 100.255C148.105 100.201 148.202 100.168 148.302 100.157C148.403 100.146 148.505 100.158 148.6 100.192C148.695 100.227 148.781 100.283 148.851 100.355C148.955 100.447 149.02 100.574 149.035 100.712C149.05 100.849 149.013 100.987 148.931 101.099C147.693 102.719 146.129 103.814 143.992 103.93C143.726 103.93 143.491 103.93 143.285 103.93" fill="white"/>
<path d="M143.306 95.1337C143.312 95.3951 143.216 95.6485 143.037 95.8392C142.858 96.03 142.611 96.1427 142.35 96.1531C142.108 96.1504 141.877 96.0528 141.707 95.8813C141.537 95.7098 141.441 95.4782 141.44 95.2366C141.436 95.1028 141.459 94.9696 141.508 94.8447C141.556 94.7198 141.628 94.6058 141.721 94.5091C141.814 94.4125 141.925 94.3351 142.047 94.2816C142.17 94.2281 142.302 94.1994 142.436 94.1973C142.677 94.2059 142.905 94.3089 143.071 94.4841C143.237 94.6592 143.327 94.8925 143.323 95.1337" fill="white"/>
<path d="M147.976 96.7174C147.976 96.9711 147.88 97.2153 147.707 97.4004C147.533 97.5855 147.296 97.6975 147.043 97.7136C146.919 97.7119 146.797 97.6856 146.684 97.6362C146.571 97.5868 146.469 97.5153 146.384 97.4259C146.299 97.3365 146.233 97.231 146.189 97.1156C146.145 97.0002 146.125 96.8773 146.13 96.754C146.123 96.4982 146.218 96.2501 146.393 96.0637C146.569 95.8772 146.81 95.7673 147.066 95.7578C147.189 95.7577 147.311 95.7826 147.424 95.831C147.538 95.8794 147.64 95.9503 147.725 96.0394C147.81 96.1285 147.876 96.2339 147.919 96.3494C147.962 96.4648 147.982 96.5877 147.976 96.7108" fill="white"/>
<path d="M124.164 104.554C122.551 104.491 121.077 103.594 120.012 102.011C119.954 101.941 119.913 101.859 119.889 101.771C119.866 101.684 119.861 101.592 119.875 101.502C119.89 101.413 119.923 101.327 119.973 101.251C120.023 101.175 120.088 101.111 120.164 101.062C120.243 101.008 120.332 100.971 120.426 100.954C120.52 100.938 120.616 100.941 120.708 100.965C120.801 100.989 120.887 101.033 120.961 101.093C121.035 101.153 121.095 101.229 121.137 101.314C121.983 102.516 123.092 103.272 124.639 103.242C125.527 103.217 126.381 102.892 127.062 102.321C127.744 101.75 128.212 100.966 128.393 100.096C128.393 100.02 128.416 99.9432 128.436 99.8669C128.468 99.6994 128.562 99.5505 128.701 99.451C128.839 99.3515 129.011 99.3091 129.179 99.3325C129.267 99.3424 129.351 99.3702 129.427 99.4141C129.504 99.4581 129.57 99.5172 129.622 99.5879C129.674 99.6586 129.712 99.7393 129.731 99.825C129.751 99.9106 129.753 99.9995 129.737 100.086C129.606 101.171 129.115 102.18 128.343 102.954C127.347 103.949 125.933 104.557 124.164 104.564" fill="white"/>
<path d="M127.15 96.7336C127.159 96.8564 127.142 96.9796 127.1 97.0955C127.059 97.2114 126.994 97.3175 126.91 97.4075C126.826 97.4974 126.725 97.5691 126.612 97.6182C126.499 97.6673 126.377 97.6927 126.254 97.6929C125.989 97.6835 125.738 97.5725 125.552 97.3827C125.367 97.193 125.262 96.9392 125.259 96.6739C125.254 96.551 125.273 96.4284 125.316 96.3131C125.359 96.1979 125.424 96.0922 125.508 96.0024C125.592 95.9126 125.693 95.8403 125.805 95.7897C125.917 95.7392 126.038 95.7114 126.161 95.708C126.428 95.7158 126.681 95.8273 126.867 96.0188C127.053 96.2103 127.157 96.4667 127.157 96.7336" fill="white"/>
<path d="M121.71 97.155C121.957 97.2123 122.173 97.3617 122.314 97.5726C122.454 97.7835 122.509 98.0401 122.467 98.2901C122.438 98.51 122.328 98.7115 122.16 98.8559C121.992 99.0004 121.776 99.0779 121.554 99.0735C121.306 99.0657 121.07 98.9693 120.887 98.8018C120.704 98.6343 120.588 98.4068 120.558 98.1607C120.525 97.9351 120.579 97.7054 120.708 97.5176C120.837 97.3298 121.033 97.1979 121.255 97.1483C121.408 97.0977 121.574 97.0977 121.727 97.1483" fill="white"/>
<path d="M166.901 86.9618C166.429 92.7605 166.197 122.431 166.569 127.861C166.645 128.953 166.094 128.824 165.716 128.727C165.122 128.578 157.043 126.991 156.067 126.971C155.751 126.971 155.649 126.829 155.655 126.543C155.678 124.85 155.688 120.765 155.695 119.072C155.695 115.809 155.778 103.956 155.785 102.492C155.785 99.5051 155.811 92.3057 155.808 89.3085C155.808 89.0131 155.898 88.9102 156.196 88.8471C159.044 88.2563 165.238 86.8125 165.872 86.6332C166.061 86.5801 167.03 86.1719 166.901 86.9652V86.9618ZM154.165 87.1477C153.169 87.1477 151.4 87.1477 151.101 87.1477H117.869C117.601 87.1477 116.18 87.1477 115.214 87.1477C114.686 87.1477 114.613 86.9685 115.214 86.8822C119.639 86.2515 132.676 81.286 134.064 80.2936C134.19 80.2148 134.337 80.1755 134.485 80.1807V80.1807C134.634 80.1715 134.782 80.2111 134.907 80.2936C136.138 81.2694 150.603 86.3843 154.158 86.9652C154.58 87.0315 154.54 87.1477 154.158 87.1477H154.165ZM153.514 107.116C151.825 107.08 145.801 107.016 144.808 107.033C144.752 107.033 144.702 107.033 144.712 106.98C144.722 106.927 144.815 106.914 144.868 106.91C145.087 106.887 145.645 106.804 145.837 106.754C146.03 106.704 146.232 106.645 146.428 106.582C146.812 106.449 147.187 106.29 147.55 106.107C147.911 105.921 148.262 105.716 148.602 105.493C148.838 105.34 149.067 105.181 149.292 105.015C150.456 104.194 151.399 103.097 152.036 101.823C152.673 100.549 152.985 99.1367 152.943 97.7127C152.943 95.4291 152.001 93.4509 150.62 91.6552C150.234 91.1521 149.817 90.6733 149.372 90.2213C149.318 90.1472 149.248 90.0852 149.169 90.0392C149.089 89.9933 149 89.9644 148.909 89.9544C148.818 89.9444 148.725 89.9535 148.637 89.9812C148.55 90.0089 148.469 90.0545 148.399 90.1151C148.107 90.374 148.111 90.7225 148.399 91.071L148.804 91.4959C150.487 93.3015 151.662 95.3495 151.682 97.8588C151.713 98.8234 151.543 99.7839 151.181 100.679C150.82 101.574 150.276 102.384 149.584 103.057C148.346 104.275 146.929 105.241 145.183 105.609C144.087 105.86 142.947 105.838 141.861 105.546C140.776 105.253 139.778 104.7 138.956 103.933C137.194 102.393 136.155 100.471 136.248 98.1011C136.361 95.1337 137.884 92.5879 140.589 91.4892C142.156 90.8486 143.739 90.9681 145.316 91.4892C146.038 91.7172 146.727 92.0374 147.367 92.4418C147.478 92.5353 147.614 92.5926 147.759 92.6063C147.903 92.6199 148.048 92.5892 148.174 92.5182C148.298 92.446 148.395 92.3342 148.449 92.2007C148.502 92.0671 148.509 91.9195 148.469 91.7813V91.7813C148.389 91.6193 148.263 91.4843 148.107 91.393C146.162 90.2744 144.098 89.6338 141.801 89.9026C139.902 90.125 137.818 91.2934 136.732 92.8136C135.647 94.3338 135.574 95.4689 135.574 95.4689C135.574 95.4689 135.67 90.9382 135.66 89.3052C135.66 89.0397 135.73 88.9567 135.992 88.9733C141.701 89.0031 147.802 89.0264 153.511 89.043C153.757 89.043 153.82 89.1193 153.82 89.3517C153.82 90.4437 153.82 102.097 153.866 106.774C153.866 107.086 153.787 107.159 153.481 107.153L153.514 107.116ZM153.86 109.114C153.86 109.758 153.78 124.137 153.816 126.613C153.816 126.892 153.461 126.945 153.461 126.945H148.705C148.705 126.945 148.433 126.895 148.619 126.809C151.088 125.451 152.207 123.49 152.625 120.854C153.148 117.535 152.635 114.135 151.154 111.119C150.96 110.716 150.73 110.33 150.467 109.967C150.391 109.822 150.267 109.707 150.115 109.643C149.964 109.579 149.795 109.569 149.638 109.615C149.482 109.662 149.35 109.765 149.265 109.903C149.18 110.041 149.148 110.206 149.176 110.366H149.09H149.176C150.388 112.025 150.962 113.94 151.31 115.902C151.728 117.998 151.62 120.164 150.998 122.208C150.172 124.801 148.386 126.377 145.654 126.829C144.272 127.081 142.85 126.998 141.506 126.588C140.163 126.178 138.937 125.453 137.931 124.472C136.298 122.949 135.796 120.954 135.939 118.8C135.99 117.779 136.186 116.771 136.523 115.806C137.39 113.356 139.179 112.078 141.764 111.803C142.73 111.704 143.704 111.751 144.655 111.942C145.113 112.028 145.445 111.856 145.528 111.501C145.628 111.092 145.412 110.79 144.918 110.684C144.586 110.611 144.227 110.561 143.879 110.502C142.729 110.417 141.573 110.49 140.443 110.721C139.46 110.927 138.534 111.346 137.73 111.95C136.927 112.555 136.267 113.328 135.796 114.216L135.717 114.349C135.707 114.359 135.696 114.368 135.684 114.375C135.564 114.345 135.624 114.252 135.624 114.189C135.624 112.48 135.624 110.774 135.624 109.064C135.624 108.799 135.69 108.713 135.956 108.713C138.455 108.713 140.958 108.713 143.46 108.713C143.676 108.713 143.792 108.713 143.703 108.995C143.659 109.146 143.675 109.309 143.747 109.449C143.819 109.589 143.942 109.696 144.091 109.748C144.884 109.902 145.638 110.215 146.308 110.666C146.978 111.118 147.551 111.7 147.991 112.377C148.247 112.751 148.418 113.175 148.492 113.622C148.491 113.719 148.512 113.816 148.553 113.905C148.593 113.993 148.653 114.072 148.728 114.135C148.802 114.198 148.89 114.244 148.984 114.269C149.078 114.294 149.177 114.299 149.273 114.282C149.369 114.264 149.46 114.226 149.54 114.17C149.619 114.114 149.685 114.04 149.734 113.955C149.782 113.871 149.811 113.776 149.818 113.679C149.826 113.582 149.812 113.484 149.777 113.393C149.583 112.454 149.142 111.584 148.499 110.873C148.501 110.86 148.501 110.847 148.499 110.834C147.649 109.934 146.623 109.22 145.485 108.736C148.21 108.736 150.882 108.736 153.587 108.779C153.883 108.779 153.876 108.988 153.876 109.058L153.86 109.114ZM135.551 100.856C136.819 104.408 138.907 106.299 142.558 106.924C142.594 106.924 142.644 106.924 142.667 106.963C142.672 106.967 142.676 106.972 142.679 106.978C142.681 106.984 142.683 106.99 142.683 106.997C142.683 107.003 142.681 107.009 142.679 107.015C142.676 107.021 142.672 107.026 142.667 107.03C142.572 107.063 142.471 107.073 142.372 107.06C142.252 107.06 141.89 107.06 141.768 107.06L135.916 107.023C135.644 107.023 135.674 106.631 135.674 106.631C135.674 106.631 135.557 100.952 135.561 100.856H135.551ZM136.384 126.895C136.115 126.895 135.777 126.932 135.63 126.703C135.535 126.459 135.505 126.195 135.544 125.936C135.544 124.98 135.544 124.021 135.544 123.065C136.413 124.779 137.866 126.127 139.64 126.865C138.512 126.865 137.449 126.918 136.384 126.895V126.895ZM133.987 126.679C133.841 126.912 133.503 126.869 133.237 126.875C132.175 126.898 130.728 126.842 129.606 126.842C131.329 125.946 133.075 124.704 134.074 123.008C134.074 123.973 134.074 124.939 134.074 125.906C134.115 126.167 134.087 126.434 133.991 126.679H133.987ZM121.829 107.033C121.136 107.056 119.081 107.07 118.942 107.063C118.855 107.063 118.892 106.993 118.968 106.904C119.204 106.595 119.388 106.25 119.512 105.881C120.12 106.366 121.172 106.718 121.836 107.036L121.829 107.033ZM133.868 104.64V106.99C133.856 107.012 133.838 107.031 133.815 107.043C133.793 107.054 133.767 107.059 133.742 107.056C132.922 107.056 129.221 107.03 128.146 107.03C129.863 106.307 131.281 105.019 132.165 103.379C132.557 103.868 133.106 104.208 133.719 104.341C133.905 104.381 133.878 104.517 133.878 104.643L133.868 104.64ZM132.985 101.387C133.121 100.59 133.201 99.7852 133.224 98.9773C133.271 96.7833 132.819 94.7354 131.282 93.036C130.691 92.3502 129.948 91.8127 129.111 91.4668C128.275 91.1209 127.369 90.9762 126.466 91.0445H126.27C124.806 91.366 123.432 92.0126 122.251 92.9364C121.573 93.4529 120.792 93.8164 119.961 94.0019C119.791 94.0476 119.612 94.0464 119.442 93.9984C119.273 93.9505 119.12 93.8575 119 93.7294C118.879 93.6014 118.795 93.443 118.758 93.2712C118.72 93.0994 118.73 92.9206 118.786 92.7538C118.909 92.3692 119.118 92.0173 119.396 91.7243C119.674 91.4313 120.014 91.2046 120.392 91.061C121.647 90.5233 122.925 90.6461 124.189 91.061C124.717 91.2303 124.949 91.1341 125.208 90.6495C125.208 90.1516 125.099 89.9856 124.631 89.8263C123.992 89.5934 123.319 89.4645 122.639 89.4446C122.326 89.428 122.013 89.428 121.7 89.4446C119.914 89.5309 118.547 90.3043 117.694 91.8543C117.152 92.8501 117.332 93.7828 118.025 94.6491H118.006C118.029 94.6491 118.138 94.7686 118.158 94.7852C118.178 94.8018 118.264 94.8781 118.321 94.9213C118.445 95.0273 118.583 95.1146 118.732 95.1802C119.097 95.3164 119.487 95.3697 119.874 95.3362C120.285 95.2996 120.688 95.2011 121.069 95.0441H121.092C121.348 94.9379 121.6 94.8217 121.849 94.7122L121.935 94.669C122.423 94.4195 122.888 94.1286 123.326 93.7994C123.897 93.3881 124.51 93.0397 125.155 92.7605C126.07 92.3647 127.092 92.289 128.056 92.5456C129.019 92.8021 129.868 93.376 130.466 94.1745C131.335 95.3024 131.828 96.6746 131.876 98.0978C131.963 99.7839 131.76 101.417 130.934 102.914C129.815 104.952 127.973 105.934 125.723 106.26C120.996 106.924 118.045 103.604 117.372 100.149C117.094 98.7299 117.161 97.265 117.567 95.8772C117.611 95.7561 117.627 95.6266 117.614 95.4984C117.601 95.3702 117.559 95.2466 117.491 95.137V95.137C116.92 94.7221 116.436 94.8814 116.273 95.5685C115.539 98.6454 115.845 101.566 117.76 104.222C118.012 104.552 118.157 104.952 118.175 105.367C118.163 105.727 118.016 106.07 117.762 106.326C117.509 106.582 117.167 106.733 116.807 106.748C116.521 106.729 116.252 106.603 116.055 106.394C115.858 106.185 115.747 105.909 115.745 105.622C115.775 105.29 116.044 105.075 116.475 105.091C116.611 105.11 116.75 105.089 116.874 105.03C116.998 104.971 117.102 104.877 117.172 104.759C117.223 104.662 117.249 104.553 117.248 104.443C117.246 104.333 117.217 104.225 117.164 104.129C117.11 104.033 117.033 103.951 116.94 103.892C116.847 103.833 116.741 103.798 116.631 103.79C116.179 103.74 115.721 103.809 115.304 103.989C115.304 103.432 115.274 93.6998 115.257 89.0065C115.294 88.9036 115.387 88.9301 115.456 88.9334H115.695H116.197H116.923C122.095 88.96 133.739 88.9102 133.818 88.9102C133.834 88.907 133.849 88.907 133.865 88.9102C133.974 88.9534 133.934 89.2421 133.934 89.3218C133.934 91.6452 133.895 102.907 133.895 102.967C133.231 102.778 132.869 102.154 132.995 101.364L132.985 101.387ZM122.483 126.128C121.556 125.864 120.7 125.395 119.977 124.757C119.254 124.119 118.682 123.328 118.304 122.441C117.59 120.992 117.248 119.388 117.309 117.774C117.451 115.328 118.636 113.459 120.717 112.131C122.117 111.184 123.749 110.639 125.437 110.555C126.355 110.494 127.273 110.664 128.108 111.049C128.943 111.435 129.668 112.024 130.217 112.762C130.549 113.2 130.901 113.313 131.239 113.067C131.578 112.822 131.571 112.467 131.239 112.048L131.15 111.935C129.291 109.761 126.924 108.915 124.09 109.473C121.102 110.06 118.669 111.517 117.119 114.159C116.151 115.817 115.81 117.768 116.16 119.656C116.492 121.78 117.189 123.765 118.779 125.342C119.379 125.934 120.047 126.452 120.77 126.885C119.041 126.885 115.596 126.885 115.596 126.885C115.556 126.89 115.515 126.886 115.477 126.872C115.439 126.859 115.404 126.838 115.375 126.809C115.347 126.781 115.325 126.746 115.311 126.708C115.298 126.67 115.293 126.63 115.297 126.59C115.297 124.548 115.237 111.438 115.207 109.33C115.207 108.998 115.274 108.869 115.656 108.865C118.845 108.865 132.534 108.723 133.719 108.713C133.888 108.713 133.908 108.942 133.908 108.942L133.944 113.18C133.944 113.18 133.546 112.105 133.4 111.823C133.254 111.541 133.022 111.275 132.63 111.351C132.238 111.428 132.139 111.703 132.132 112.042V112.062C132.663 113.005 133.06 114.019 133.31 115.072C133.76 117.195 133.681 119.397 133.078 121.482C132.861 122.282 132.478 123.027 131.955 123.67C131.432 124.313 130.78 124.84 130.041 125.216C127.661 126.474 125.122 126.875 122.506 126.122L122.483 126.128ZM112.947 126.962C111.968 126.981 103.892 128.568 103.298 128.717C102.92 128.814 102.369 128.943 102.442 127.851C102.817 122.421 102.581 92.7505 102.11 86.9519C101.98 86.1619 102.95 86.5702 103.139 86.62C103.769 86.7992 109.963 88.243 112.811 88.8339C113.11 88.8969 113.203 88.9998 113.203 89.2952C113.203 92.2825 113.203 99.4819 113.226 102.479C113.226 103.943 113.299 115.796 113.316 119.075C113.316 120.768 113.316 124.854 113.355 126.547C113.355 126.832 113.259 126.968 112.944 126.975L112.947 126.962ZM168.252 110.641V110.339C168.252 110.236 168.252 110.133 168.252 110.027C168.252 109.775 168.252 109.522 168.252 109.264C168.351 98.8313 168.769 86.8357 168.965 84.8807C169.022 84.3065 168.378 83.8584 167.697 84.0874C164.444 85.1494 161.134 86.0281 157.783 86.7195V86.7195L157.248 86.8324C157.209 86.6402 157.111 86.4649 156.968 86.331C156.825 86.1971 156.643 86.1113 156.449 86.0856C151.432 84.8534 146.507 83.2763 141.708 81.3657V81.3657C139.427 80.4652 137.216 79.3968 135.093 78.1693C134.912 78.0622 134.706 78.0039 134.495 78C134.284 78.0043 134.077 78.0626 133.895 78.1693C131.772 79.3976 129.561 80.466 127.279 81.3657V81.3657C122.479 83.2765 117.553 84.8535 112.535 86.0856C111.985 86.225 111.692 86.4606 111.732 86.8955C111.558 86.8249 111.38 86.7661 111.198 86.7195V86.7195C107.846 86.0281 104.536 85.1494 101.283 84.0874C100.62 83.8584 99.9557 84.3065 100.015 84.8807C100.205 86.7959 100.626 98.7118 100.726 109.091C100.795 116.201 100.58 122.388 100.58 129.039C100.58 129.673 100.557 130.168 100.732 130.453C101.025 130.931 101.652 130.935 102.239 130.785C109.449 129.059 114.52 128.621 114.666 128.618C116.011 128.575 152.947 128.575 154.321 128.618C154.387 128.618 155.39 128.704 157.106 128.95H157.149L157.481 128.993L157.61 129.013L157.862 129.049L158.028 129.076L158.264 129.109L158.45 129.139L158.682 129.175L158.888 129.209L159.124 129.245L159.343 129.282L159.579 129.321L159.811 129.361L160.05 129.401L160.299 129.444L160.541 129.487L160.8 129.534L161.049 129.58L161.318 129.627L161.583 129.677L161.849 129.726L162.144 129.786L162.393 129.833L162.845 129.922L163.094 129.975L163.528 130.062L163.744 130.108L164.122 130.188L164.358 130.238L164.733 130.321L164.976 130.374C165.557 130.502 166.155 130.639 166.768 130.785C167.352 130.928 167.979 130.925 168.271 130.453C168.447 130.168 168.424 129.673 168.424 129.039C168.424 127.712 168.424 126.384 168.401 125.096C168.384 123.49 168.361 121.893 168.338 120.287C168.298 117.505 168.258 114.694 168.262 111.746V111.697C168.262 111.365 168.262 110.996 168.262 110.641" fill="white"/>
<path d="M109.891 108.451C110.223 108.451 110.581 108.451 110.923 108.451C111.037 108.453 111.151 108.432 111.257 108.391C111.363 108.349 111.46 108.286 111.542 108.206C111.623 108.127 111.689 108.032 111.733 107.927C111.778 107.821 111.802 107.709 111.803 107.594C111.805 107.48 111.783 107.367 111.74 107.262C111.696 107.157 111.631 107.061 111.55 106.982C111.468 106.903 111.37 106.841 111.264 106.801C111.157 106.761 111.043 106.743 110.93 106.748C108.938 106.748 106.947 106.768 104.955 106.858C104.838 106.857 104.721 106.88 104.614 106.926C104.506 106.973 104.408 107.04 104.328 107.126C104.247 107.211 104.185 107.312 104.145 107.422C104.105 107.533 104.088 107.65 104.095 107.767C104.129 108.262 104.53 108.574 105.108 108.56L109.874 108.451" fill="white"/>
<path d="M111.607 117.764C111.6 117.953 111.529 118.134 111.404 118.277C111.28 118.42 111.11 118.515 110.923 118.547C109.084 118.844 107.244 119.132 105.403 119.413C105.299 119.431 105.192 119.425 105.09 119.397C104.988 119.369 104.893 119.319 104.812 119.25C104.732 119.181 104.667 119.096 104.623 119C104.579 118.904 104.556 118.799 104.557 118.693C104.52 118.474 104.57 118.249 104.698 118.066C104.825 117.884 105.019 117.758 105.237 117.717C105.921 117.598 106.611 117.502 107.298 117.385C108.43 117.206 109.559 117.024 110.691 116.851C110.815 116.824 110.945 116.829 111.067 116.865C111.189 116.901 111.301 116.966 111.392 117.056C111.483 117.145 111.55 117.256 111.587 117.378C111.625 117.499 111.631 117.629 111.607 117.754" fill="white"/>
<path d="M111.607 97.5131C111.6 97.3237 111.529 97.1425 111.404 96.9998C111.28 96.8571 111.11 96.7617 110.923 96.7297C109.084 96.4332 107.244 96.1444 105.403 95.8634C105.298 95.846 105.191 95.8516 105.089 95.8801C104.987 95.9085 104.892 95.9589 104.811 96.0279C104.731 96.0969 104.666 96.1827 104.622 96.2792C104.578 96.3758 104.556 96.4809 104.557 96.587C104.52 96.8063 104.57 97.0314 104.698 97.2139C104.825 97.3963 105.019 97.5216 105.237 97.5628C105.921 97.6823 106.611 97.7786 107.298 97.8948C108.43 98.074 109.559 98.2566 110.691 98.4292C110.815 98.4558 110.945 98.451 111.067 98.4153C111.189 98.3796 111.301 98.314 111.392 98.2245C111.483 98.135 111.55 98.0244 111.587 97.9025C111.625 97.7807 111.631 97.6514 111.607 97.5263" fill="white"/>
<path d="M159.096 108.451C158.764 108.451 158.405 108.451 158.063 108.451C157.949 108.453 157.836 108.432 157.729 108.391C157.623 108.349 157.526 108.286 157.445 108.206C157.363 108.127 157.298 108.032 157.253 107.927C157.208 107.821 157.185 107.709 157.184 107.594C157.182 107.48 157.203 107.367 157.247 107.262C157.29 107.157 157.355 107.061 157.437 106.982C157.519 106.903 157.616 106.841 157.722 106.801C157.829 106.761 157.943 106.743 158.057 106.748C160.048 106.748 162.04 106.768 164.031 106.858C164.148 106.857 164.265 106.88 164.372 106.926C164.48 106.973 164.577 107.04 164.657 107.126C164.738 107.211 164.8 107.312 164.839 107.422C164.879 107.533 164.895 107.65 164.888 107.767C164.854 108.262 164.456 108.574 163.892 108.56L159.096 108.438" fill="white"/>
<path d="M157.383 117.764C157.391 117.954 157.463 118.135 157.588 118.277C157.713 118.42 157.883 118.515 158.07 118.548C159.909 118.844 161.749 119.133 163.59 119.414C163.694 119.432 163.801 119.426 163.903 119.398C164.005 119.369 164.1 119.319 164.181 119.251C164.261 119.182 164.326 119.097 164.37 119.001C164.414 118.904 164.437 118.8 164.436 118.694C164.472 118.475 164.42 118.251 164.293 118.068C164.166 117.886 163.974 117.761 163.756 117.718C163.069 117.599 162.382 117.502 161.695 117.386C160.563 117.207 159.434 117.024 158.303 116.852C158.178 116.825 158.048 116.83 157.926 116.866C157.803 116.902 157.692 116.967 157.601 117.057C157.51 117.146 157.442 117.256 157.404 117.378C157.366 117.5 157.359 117.629 157.383 117.755" fill="white"/>
<path d="M157.383 97.5131C157.391 97.3236 157.463 97.1426 157.588 97.0001C157.713 96.8576 157.883 96.7622 158.07 96.7297C159.909 96.4332 161.749 96.1444 163.59 95.8634C163.694 95.846 163.802 95.8516 163.904 95.8801C164.006 95.9085 164.101 95.9589 164.181 96.0279C164.262 96.0969 164.327 96.1827 164.371 96.2792C164.415 96.3758 164.437 96.4809 164.436 96.587C164.47 96.8075 164.416 97.0326 164.287 97.2142C164.157 97.3958 163.962 97.5197 163.742 97.5595C163.055 97.679 162.368 97.7753 161.681 97.8914C160.549 98.0707 159.421 98.2532 158.289 98.4258C158.164 98.4522 158.035 98.4473 157.912 98.4116C157.79 98.3759 157.678 98.3104 157.587 98.221C157.496 98.1316 157.428 98.0211 157.391 97.8993C157.353 97.7776 157.345 97.6483 157.369 97.523" fill="white"/>
</g>
</svg>
