<svg width="358" height="62" viewBox="0 0 358 62" fill="none" xmlns="http://www.w3.org/2000/svg">
<path d="M17.4649 49.7302L16.9789 6.55285C16.9762 6.22799 17.0575 5.90783 17.2148 5.6234C17.372 5.33898 17.6 5.09993 17.8765 4.92944C18.153 4.75895 18.4686 4.66279 18.7929 4.65029C19.1172 4.63779 19.4391 4.70938 19.7273 4.8581L55.3251 22.9401C55.6127 23.0871 55.8577 23.3057 56.0364 23.5749C56.2151 23.8442 56.3215 24.155 56.3454 24.4776C56.3694 24.8002 56.31 25.1237 56.173 25.4169C56.036 25.7101 55.8261 25.9633 55.5633 26.152L20.4302 51.2365C20.1506 51.435 19.8223 51.5534 19.4806 51.5788C19.139 51.6042 18.797 51.5357 18.4918 51.3806C18.1865 51.2256 17.9295 50.9899 17.7485 50.699C17.5675 50.4081 17.4695 50.0731 17.4649 49.7302Z" fill="#50E6C9"/>
<path d="M31.36 29.164L33.304 28.804V24.754C33.304 24.514 33.28 24.364 33.232 24.304C33.196 24.232 33.064 24.13 32.836 23.998L31.36 23.188L31.522 22L34.87 21.028L36.346 21.154V28.228C36.346 28.504 36.358 28.678 36.382 28.75C36.418 28.822 36.52 28.9 36.688 28.984L37.966 29.632L37.912 31H31.45L31.36 29.164ZM42.9638 17.68L46.0238 16.87L46.7618 19.606L43.7198 20.434L42.9638 17.68ZM42.2078 29.344L43.4678 28.966V24.592C43.4678 24.328 43.4438 24.16 43.3958 24.088C43.3598 24.004 43.2578 23.914 43.0898 23.818L42.2978 23.386L42.3878 22.036C43.3838 21.844 44.1518 21.706 44.6918 21.622C45.2438 21.526 45.7478 21.472 46.2038 21.46C46.3598 21.976 46.4558 22.36 46.4918 22.612V28.372C46.4918 28.624 46.5098 28.792 46.5458 28.876C46.5818 28.96 46.6838 29.05 46.8518 29.146L47.7338 29.65L47.6618 31H42.2618L42.2078 29.344ZM48.466 29.272L49.582 28.948V24.592C49.582 24.328 49.564 24.16 49.528 24.088C49.492 24.004 49.396 23.914 49.24 23.818L48.448 23.386L48.502 22.036L48.898 21.964C50.47 21.652 51.604 21.484 52.3 21.46C52.396 21.712 52.474 21.988 52.534 22.288C53.266 21.952 53.86 21.724 54.316 21.604C54.784 21.472 55.222 21.406 55.63 21.406C57.538 21.406 58.492 22.546 58.492 24.826V28.354C58.492 28.606 58.51 28.774 58.546 28.858C58.582 28.942 58.684 29.032 58.852 29.128L59.716 29.632L59.644 30.982H54.676L54.586 29.272L55.468 29.02V25.618C55.468 25.078 55.45 24.7 55.414 24.484C55.378 24.268 55.276 24.1 55.108 23.98C54.952 23.86 54.67 23.8 54.262 23.8C53.83 23.8 53.284 23.866 52.624 23.998V28.354C52.624 28.606 52.642 28.774 52.678 28.858C52.714 28.942 52.81 29.032 52.966 29.128L53.848 29.632L53.776 30.982H48.556L48.466 29.272ZM64.0569 35.104C62.6769 35.104 61.6329 34.888 60.9249 34.456C60.2289 34.024 59.8809 33.388 59.8809 32.548C59.8809 31.66 60.2889 30.88 61.1049 30.208C60.8529 29.956 60.7269 29.68 60.7269 29.38C60.7269 28.948 61.0089 28.336 61.5729 27.544C60.5889 27.028 60.0969 26.14 60.0969 24.88C60.0969 23.776 60.4689 22.924 61.2129 22.324C61.9689 21.712 63.0549 21.406 64.4709 21.406C65.4669 21.406 66.2829 21.556 66.9189 21.856L69.0789 21.19H69.9249V23.8H68.5209C68.5809 24.1 68.6109 24.394 68.6109 24.682C68.6109 25.786 68.2389 26.626 67.4949 27.202C66.7509 27.778 65.6589 28.066 64.2189 28.066C63.7269 28.066 63.2829 28.03 62.8869 27.958V28.21C62.8869 28.402 62.9649 28.54 63.1209 28.624C63.2889 28.696 63.6429 28.768 64.1829 28.84L65.8029 29.074C67.0749 29.254 67.9509 29.566 68.4309 30.01C68.9229 30.454 69.1689 31.024 69.1689 31.72C69.1689 32.8 68.7249 33.634 67.8369 34.222C66.9489 34.81 65.6889 35.104 64.0569 35.104ZM64.4889 26.302C64.7409 26.302 65.0289 26.266 65.3529 26.194C65.4009 26.05 65.4429 25.834 65.4789 25.546C65.5269 25.258 65.5509 24.994 65.5509 24.754C65.5509 24.214 65.4309 23.812 65.1909 23.548C64.9629 23.284 64.6029 23.152 64.1109 23.152C63.8709 23.152 63.6069 23.188 63.3189 23.26C63.2589 23.404 63.2049 23.614 63.1569 23.89C63.1209 24.166 63.1029 24.43 63.1029 24.682C63.1029 25.234 63.2169 25.642 63.4449 25.906C63.6729 26.17 64.0209 26.302 64.4889 26.302ZM64.8849 33.07C65.4369 33.07 65.8569 33.022 66.1449 32.926C66.2169 32.782 66.2529 32.59 66.2529 32.35C66.2529 32.062 66.1509 31.84 65.9469 31.684C65.7429 31.54 65.3769 31.432 64.8489 31.36L64.2729 31.27C63.7449 31.21 63.2109 31.126 62.6709 31.018C62.5989 31.342 62.5629 31.6 62.5629 31.792C62.5629 32.224 62.7549 32.542 63.1389 32.746C63.5229 32.962 64.1049 33.07 64.8849 33.07ZM70.6676 29.29L71.7656 28.966V24.592C71.7656 24.328 71.7476 24.16 71.7116 24.088C71.6756 24.004 71.5796 23.914 71.4236 23.818L70.6316 23.386L70.6856 22.036C70.8896 21.988 71.0636 21.958 71.2076 21.946C72.6596 21.646 73.7336 21.484 74.4296 21.46C74.5376 21.772 74.6396 22.162 74.7356 22.63C75.4556 22.066 76.0676 21.676 76.5716 21.46H77.5976C77.5856 21.916 77.5556 22.414 77.5076 22.954C77.4596 23.482 77.3996 23.908 77.3276 24.232C76.8956 24.208 76.5776 24.196 76.3736 24.196C75.8696 24.196 75.3476 24.226 74.8076 24.286V28.372C74.8076 28.624 74.8256 28.792 74.8616 28.876C74.8976 28.96 74.9936 29.05 75.1496 29.146L76.2296 29.722L76.1576 31H70.7576L70.6676 29.29ZM82.5077 31.216C81.1037 31.216 80.0177 30.79 79.2497 29.938C78.4937 29.086 78.1157 27.91 78.1157 26.41C78.1157 25.366 78.3017 24.472 78.6737 23.728C79.0457 22.972 79.5737 22.396 80.2577 22C80.9417 21.604 81.7397 21.406 82.6517 21.406C84.0077 21.406 85.0457 21.838 85.7657 22.702C86.4977 23.566 86.8457 24.796 86.8097 26.392L81.3377 27.4C81.5057 27.904 81.7397 28.276 82.0397 28.516C82.3517 28.744 82.7597 28.858 83.2637 28.858C83.6117 28.858 84.0257 28.81 84.5057 28.714C84.9857 28.606 85.4717 28.462 85.9637 28.282L86.3777 30.064C85.9337 30.4 85.3577 30.676 84.6497 30.892C83.9417 31.108 83.2277 31.216 82.5077 31.216ZM83.8577 24.88C83.8337 24.424 83.7017 24.094 83.4617 23.89C83.2337 23.674 82.9097 23.566 82.4897 23.566C82.1417 23.566 81.8117 23.614 81.4997 23.71C81.2477 24.298 81.1337 24.934 81.1577 25.618L83.8577 24.88ZM91.171 31.306C90.223 31.306 89.125 31.138 87.877 30.802C87.949 29.626 88.027 28.756 88.111 28.192L89.137 27.994L90.271 29.2C90.667 29.32 91.111 29.38 91.603 29.38C91.879 29.38 92.095 29.362 92.251 29.326C92.287 29.23 92.305 29.098 92.305 28.93C92.305 28.786 92.269 28.666 92.197 28.57C92.137 28.474 91.993 28.36 91.765 28.228C91.537 28.096 91.141 27.892 90.577 27.616C89.869 27.244 89.329 26.914 88.957 26.626C88.585 26.326 88.315 26.02 88.147 25.708C87.991 25.396 87.913 25.024 87.913 24.592C87.913 23.632 88.267 22.87 88.975 22.306C89.695 21.742 90.667 21.46 91.891 21.46C92.395 21.46 92.923 21.52 93.475 21.64C94.039 21.748 94.543 21.898 94.987 22.09C94.987 22.87 94.933 23.74 94.825 24.7L93.889 24.844L92.683 23.548C92.371 23.452 91.915 23.404 91.315 23.404C91.219 23.404 91.027 23.416 90.739 23.44C90.703 23.512 90.685 23.626 90.685 23.782C90.685 23.95 90.733 24.1 90.829 24.232C90.925 24.352 91.093 24.49 91.333 24.646C91.585 24.79 91.981 25 92.521 25.276C93.313 25.66 93.907 25.996 94.303 26.284C94.711 26.56 94.993 26.842 95.149 27.13C95.317 27.418 95.401 27.766 95.401 28.174C95.401 29.158 95.023 29.926 94.267 30.478C93.523 31.03 92.491 31.306 91.171 31.306ZM99.38 31.306C98.432 31.306 97.334 31.138 96.086 30.802C96.158 29.626 96.236 28.756 96.32 28.192L97.346 27.994L98.48 29.2C98.876 29.32 99.32 29.38 99.812 29.38C100.088 29.38 100.304 29.362 100.46 29.326C100.496 29.23 100.514 29.098 100.514 28.93C100.514 28.786 100.478 28.666 100.406 28.57C100.346 28.474 100.202 28.36 99.974 28.228C99.746 28.096 99.35 27.892 98.786 27.616C98.078 27.244 97.538 26.914 97.166 26.626C96.794 26.326 96.524 26.02 96.356 25.708C96.2 25.396 96.122 25.024 96.122 24.592C96.122 23.632 96.476 22.87 97.184 22.306C97.904 21.742 98.876 21.46 100.1 21.46C100.604 21.46 101.132 21.52 101.684 21.64C102.248 21.748 102.752 21.898 103.196 22.09C103.196 22.87 103.142 23.74 103.034 24.7L102.098 24.844L100.892 23.548C100.58 23.452 100.124 23.404 99.524 23.404C99.428 23.404 99.236 23.416 98.948 23.44C98.912 23.512 98.894 23.626 98.894 23.782C98.894 23.95 98.942 24.1 99.038 24.232C99.134 24.352 99.302 24.49 99.542 24.646C99.794 24.79 100.19 25 100.73 25.276C101.522 25.66 102.116 25.996 102.512 26.284C102.92 26.56 103.202 26.842 103.358 27.13C103.526 27.418 103.61 27.766 103.61 28.174C103.61 29.158 103.232 29.926 102.476 30.478C101.732 31.03 100.7 31.306 99.38 31.306ZM109.283 31.234C107.759 31.234 106.619 30.844 105.863 30.064C105.119 29.284 104.747 28.09 104.747 26.482C104.747 25.45 104.933 24.55 105.305 23.782C105.689 23.014 106.235 22.426 106.943 22.018C107.651 21.61 108.485 21.406 109.445 21.406C112.553 21.406 114.107 23.014 114.107 26.23C114.107 27.802 113.681 29.032 112.829 29.92C111.989 30.796 110.807 31.234 109.283 31.234ZM109.571 29.128C109.811 29.128 110.021 29.11 110.201 29.074C110.381 29.026 110.573 28.954 110.777 28.858C110.849 28.582 110.909 28.228 110.957 27.796C111.005 27.364 111.029 26.95 111.029 26.554C111.029 25.582 110.873 24.844 110.561 24.34C110.261 23.836 109.811 23.584 109.211 23.584C108.815 23.584 108.413 23.638 108.005 23.746C107.921 23.926 107.855 24.22 107.807 24.628C107.759 25.024 107.735 25.48 107.735 25.996C107.735 27.004 107.891 27.778 108.203 28.318C108.527 28.858 108.983 29.128 109.571 29.128ZM119.575 23.368H127.693V25.384H119.575V23.368ZM119.575 27.04H127.693V29.02H119.575V27.04Z" fill="#004D9A"/>
<path d="M160 1L141 15.3333V44H179V15.3333L160 1ZM161.188 23.6944C161.188 25.6772 159.596 27.2778 157.625 27.2778V36.8333H155.25V27.2778C153.279 27.2778 151.688 25.6772 151.688 23.6944V16.5278H154.062V23.6944H155.25V16.5278H157.625V23.6944H158.812V16.5278H161.188V23.6944ZM167.125 36.8333H164.75V28.4722H162.375V21.3056C162.375 18.6778 164.513 16.5278 167.125 16.5278V36.8333Z" fill="#50E6C9"/>
<path d="M188.36 12.164L190.304 11.804V7.754C190.304 7.514 190.28 7.364 190.232 7.304C190.196 7.232 190.064 7.13 189.836 6.998L188.36 6.188L188.522 5L191.87 4.028L193.346 4.154V11.228C193.346 11.504 193.358 11.678 193.382 11.75C193.418 11.822 193.52 11.9 193.688 11.984L194.966 12.632L194.912 14H188.45L188.36 12.164ZM199.226 12.29L200.342 11.966V7.592C200.342 7.328 200.324 7.16 200.288 7.088C200.252 7.004 200.156 6.914 200 6.818L199.208 6.386L199.262 5.036L199.748 4.946C201.224 4.646 202.316 4.484 203.024 4.46C203.12 4.712 203.198 4.97 203.258 5.234C203.906 4.934 204.458 4.724 204.914 4.604C205.382 4.472 205.808 4.406 206.192 4.406C206.66 4.406 207.098 4.496 207.506 4.676C207.914 4.844 208.22 5.072 208.424 5.36C209.108 5.024 209.72 4.784 210.26 4.64C210.812 4.484 211.334 4.406 211.826 4.406C212.81 4.406 213.536 4.688 214.004 5.252C214.472 5.816 214.706 6.674 214.706 7.826V11.372C214.706 11.624 214.724 11.792 214.76 11.876C214.796 11.96 214.898 12.05 215.066 12.146L215.93 12.65L215.858 14H210.962L210.872 12.29L211.736 12.038V8.636C211.736 8.12 211.718 7.754 211.682 7.538C211.658 7.31 211.562 7.136 211.394 7.016C211.226 6.884 210.944 6.818 210.548 6.818C210.236 6.818 209.714 6.872 208.982 6.98C209.006 7.172 209.018 7.454 209.018 7.826V11.372C209.018 11.624 209.036 11.792 209.072 11.876C209.108 11.96 209.216 12.05 209.396 12.146L210.278 12.65L210.206 14H205.274L205.184 12.29L206.048 12.038V8.636C206.048 8.108 206.03 7.736 205.994 7.52C205.97 7.292 205.874 7.118 205.706 6.998C205.538 6.878 205.262 6.818 204.878 6.818C204.458 6.818 203.948 6.872 203.348 6.98V11.372C203.348 11.624 203.366 11.792 203.402 11.876C203.438 11.96 203.534 12.05 203.69 12.146L204.572 12.65L204.5 14H199.316L199.226 12.29ZM220.769 14.216C219.365 14.216 218.279 13.79 217.511 12.938C216.755 12.086 216.377 10.91 216.377 9.41C216.377 8.366 216.563 7.472 216.935 6.728C217.307 5.972 217.835 5.396 218.519 5C219.203 4.604 220.001 4.406 220.913 4.406C222.269 4.406 223.307 4.838 224.027 5.702C224.759 6.566 225.107 7.796 225.071 9.392L219.599 10.4C219.767 10.904 220.001 11.276 220.301 11.516C220.613 11.744 221.021 11.858 221.525 11.858C221.873 11.858 222.287 11.81 222.767 11.714C223.247 11.606 223.733 11.462 224.225 11.282L224.639 13.064C224.195 13.4 223.619 13.676 222.911 13.892C222.203 14.108 221.489 14.216 220.769 14.216ZM222.119 7.88C222.095 7.424 221.963 7.094 221.723 6.89C221.495 6.674 221.171 6.566 220.751 6.566C220.403 6.566 220.073 6.614 219.761 6.71C219.509 7.298 219.395 7.934 219.419 8.618L222.119 7.88ZM219.563 0.409999H222.245L224.495 3.524H223.001L220.895 2.21L218.807 3.524H217.313L219.563 0.409999ZM229.433 14.306C228.485 14.306 227.387 14.138 226.139 13.802C226.211 12.626 226.289 11.756 226.373 11.192L227.399 10.994L228.533 12.2C228.929 12.32 229.373 12.38 229.865 12.38C230.141 12.38 230.357 12.362 230.513 12.326C230.549 12.23 230.567 12.098 230.567 11.93C230.567 11.786 230.531 11.666 230.459 11.57C230.399 11.474 230.255 11.36 230.027 11.228C229.799 11.096 229.403 10.892 228.839 10.616C228.131 10.244 227.591 9.914 227.219 9.626C226.847 9.326 226.577 9.02 226.409 8.708C226.253 8.396 226.175 8.024 226.175 7.592C226.175 6.632 226.529 5.87 227.237 5.306C227.957 4.742 228.929 4.46 230.153 4.46C230.657 4.46 231.185 4.52 231.737 4.64C232.301 4.748 232.805 4.898 233.249 5.09C233.249 5.87 233.195 6.74 233.087 7.7L232.151 7.844L230.945 6.548C230.633 6.452 230.177 6.404 229.577 6.404C229.481 6.404 229.289 6.416 229.001 6.44C228.965 6.512 228.947 6.626 228.947 6.782C228.947 6.95 228.995 7.1 229.091 7.232C229.187 7.352 229.355 7.49 229.595 7.646C229.847 7.79 230.243 8 230.783 8.276C231.575 8.66 232.169 8.996 232.565 9.284C232.973 9.56 233.255 9.842 233.411 10.13C233.579 10.418 233.663 10.766 233.663 11.174C233.663 12.158 233.285 12.926 232.529 13.478C231.785 14.03 230.753 14.306 229.433 14.306ZM241.583 14.234C240.431 14.234 239.531 13.802 238.883 12.938C238.235 12.074 237.911 10.916 237.911 9.464C237.911 7.796 238.349 6.536 239.225 5.684C240.113 4.832 241.373 4.406 243.005 4.406C243.101 4.406 243.413 4.418 243.941 4.442V3.362C243.941 3.098 243.923 2.924 243.887 2.84C243.851 2.756 243.749 2.666 243.581 2.57L242.771 2.156L242.861 0.788C244.013 0.583999 244.865 0.445999 245.417 0.373999C245.969 0.289999 246.407 0.241999 246.731 0.229999C246.839 0.505999 246.917 0.817999 246.965 1.166V11.408C246.965 11.624 246.983 11.774 247.019 11.858C247.067 11.942 247.169 12.026 247.325 12.11L248.009 12.524L247.937 13.64C246.761 13.94 245.609 14.12 244.481 14.18C244.397 13.952 244.313 13.676 244.229 13.352C243.413 13.94 242.531 14.234 241.583 14.234ZM242.627 11.93C243.023 11.93 243.467 11.798 243.959 11.534V6.872C243.599 6.716 243.137 6.638 242.573 6.638C242.117 6.638 241.679 6.698 241.259 6.818C241.163 7.046 241.085 7.358 241.025 7.754C240.977 8.15 240.953 8.588 240.953 9.068C240.953 10.052 241.085 10.778 241.349 11.246C241.625 11.702 242.051 11.93 242.627 11.93ZM252.99 14.216C251.586 14.216 250.5 13.79 249.732 12.938C248.976 12.086 248.598 10.91 248.598 9.41C248.598 8.366 248.784 7.472 249.156 6.728C249.528 5.972 250.056 5.396 250.74 5C251.424 4.604 252.222 4.406 253.134 4.406C254.49 4.406 255.528 4.838 256.248 5.702C256.98 6.566 257.328 7.796 257.292 9.392L251.82 10.4C251.988 10.904 252.222 11.276 252.522 11.516C252.834 11.744 253.242 11.858 253.746 11.858C254.094 11.858 254.508 11.81 254.988 11.714C255.468 11.606 255.954 11.462 256.446 11.282L256.86 13.064C256.416 13.4 255.84 13.676 255.132 13.892C254.424 14.108 253.71 14.216 252.99 14.216ZM254.34 7.88C254.316 7.424 254.184 7.094 253.944 6.89C253.716 6.674 253.392 6.566 252.972 6.566C252.624 6.566 252.294 6.614 251.982 6.71C251.73 7.298 251.616 7.934 251.64 8.618L254.34 7.88ZM191.06 35.234C190.244 35.234 189.59 35.012 189.098 34.568C188.606 34.112 188.36 33.53 188.36 32.822C188.36 31.874 188.834 31.13 189.782 30.59C190.742 30.05 192.134 29.744 193.958 29.672C193.958 29.108 193.91 28.694 193.814 28.43C193.73 28.154 193.568 27.968 193.328 27.872C193.1 27.764 192.746 27.71 192.266 27.71C191.774 27.71 191.426 27.728 191.222 27.764L190.484 29.222L189.152 29.132C188.948 28.172 188.804 27.176 188.72 26.144C189.392 25.916 190.124 25.736 190.916 25.604C191.72 25.472 192.47 25.406 193.166 25.406C194.438 25.406 195.35 25.658 195.902 26.162C196.454 26.654 196.73 27.476 196.73 28.628V32.39C196.73 32.606 196.748 32.756 196.784 32.84C196.832 32.924 196.928 33.008 197.072 33.092L197.792 33.506L197.72 34.622C196.328 34.946 195.23 35.126 194.426 35.162C194.402 35.09 194.366 34.964 194.318 34.784C194.27 34.592 194.228 34.412 194.192 34.244C193.724 34.544 193.208 34.784 192.644 34.964C192.092 35.144 191.564 35.234 191.06 35.234ZM192.266 33.2C192.746 33.2 193.328 33.038 194.012 32.714L193.94 31.346C193.652 31.322 193.46 31.31 193.364 31.31C193.04 31.31 192.662 31.346 192.23 31.418C191.798 31.478 191.456 31.55 191.204 31.634C191.168 31.79 191.15 31.934 191.15 32.066C191.15 32.426 191.246 32.708 191.438 32.912C191.642 33.104 191.918 33.2 192.266 33.2ZM198.417 33.344L199.677 32.966V24.344C199.677 24.08 199.653 23.912 199.605 23.84C199.569 23.756 199.467 23.666 199.299 23.57L198.507 23.156L198.597 21.788C198.837 21.74 199.023 21.71 199.155 21.698C200.739 21.41 201.843 21.254 202.467 21.23C202.587 21.506 202.665 21.818 202.701 22.166V32.372C202.701 32.624 202.719 32.792 202.755 32.876C202.791 32.96 202.893 33.05 203.061 33.146L203.943 33.65L203.871 35H198.471L198.417 33.344ZM205.325 21.68L208.385 20.87L209.123 23.606L206.081 24.434L205.325 21.68ZM204.569 33.344L205.829 32.966V28.592C205.829 28.328 205.805 28.16 205.757 28.088C205.721 28.004 205.619 27.914 205.451 27.818L204.659 27.386L204.749 26.036C205.745 25.844 206.513 25.706 207.053 25.622C207.605 25.526 208.109 25.472 208.565 25.46C208.721 25.976 208.817 26.36 208.853 26.612V32.372C208.853 32.624 208.871 32.792 208.907 32.876C208.943 32.96 209.045 33.05 209.213 33.146L210.095 33.65L210.023 35H204.623L204.569 33.344ZM210.827 33.29L211.943 32.966V28.592C211.943 28.328 211.925 28.16 211.889 28.088C211.853 28.004 211.757 27.914 211.601 27.818L210.809 27.386L210.863 26.036L211.349 25.946C212.825 25.646 213.917 25.484 214.625 25.46C214.721 25.712 214.799 25.97 214.859 26.234C215.507 25.934 216.059 25.724 216.515 25.604C216.983 25.472 217.409 25.406 217.793 25.406C218.261 25.406 218.699 25.496 219.107 25.676C219.515 25.844 219.821 26.072 220.025 26.36C220.709 26.024 221.321 25.784 221.861 25.64C222.413 25.484 222.935 25.406 223.427 25.406C224.411 25.406 225.137 25.688 225.605 26.252C226.073 26.816 226.307 27.674 226.307 28.826V32.372C226.307 32.624 226.325 32.792 226.361 32.876C226.397 32.96 226.499 33.05 226.667 33.146L227.531 33.65L227.459 35H222.563L222.473 33.29L223.337 33.038V29.636C223.337 29.12 223.319 28.754 223.283 28.538C223.259 28.31 223.163 28.136 222.995 28.016C222.827 27.884 222.545 27.818 222.149 27.818C221.837 27.818 221.315 27.872 220.583 27.98C220.607 28.172 220.619 28.454 220.619 28.826V32.372C220.619 32.624 220.637 32.792 220.673 32.876C220.709 32.96 220.817 33.05 220.997 33.146L221.879 33.65L221.807 35H216.875L216.785 33.29L217.649 33.038V29.636C217.649 29.108 217.631 28.736 217.595 28.52C217.571 28.292 217.475 28.118 217.307 27.998C217.139 27.878 216.863 27.818 216.479 27.818C216.059 27.818 215.549 27.872 214.949 27.98V32.372C214.949 32.624 214.967 32.792 215.003 32.876C215.039 32.96 215.135 33.05 215.291 33.146L216.173 33.65L216.101 35H210.917L210.827 33.29ZM232.371 35.216C230.967 35.216 229.881 34.79 229.113 33.938C228.357 33.086 227.979 31.91 227.979 30.41C227.979 29.366 228.165 28.472 228.537 27.728C228.909 26.972 229.437 26.396 230.121 26C230.805 25.604 231.603 25.406 232.515 25.406C233.871 25.406 234.909 25.838 235.629 26.702C236.361 27.566 236.709 28.796 236.673 30.392L231.201 31.4C231.369 31.904 231.603 32.276 231.903 32.516C232.215 32.744 232.623 32.858 233.127 32.858C233.475 32.858 233.889 32.81 234.369 32.714C234.849 32.606 235.335 32.462 235.827 32.282L236.241 34.064C235.797 34.4 235.221 34.676 234.513 34.892C233.805 35.108 233.091 35.216 232.371 35.216ZM233.721 28.88C233.697 28.424 233.565 28.094 233.325 27.89C233.097 27.674 232.773 27.566 232.353 27.566C232.005 27.566 231.675 27.614 231.363 27.71C231.111 28.298 230.997 28.934 231.021 29.618L233.721 28.88ZM237.564 33.272L238.68 32.948V28.592C238.68 28.328 238.662 28.16 238.626 28.088C238.59 28.004 238.494 27.914 238.338 27.818L237.546 27.386L237.6 26.036L237.996 25.964C239.568 25.652 240.702 25.484 241.398 25.46C241.494 25.712 241.572 25.988 241.632 26.288C242.364 25.952 242.958 25.724 243.414 25.604C243.882 25.472 244.32 25.406 244.728 25.406C246.636 25.406 247.59 26.546 247.59 28.826V32.354C247.59 32.606 247.608 32.774 247.644 32.858C247.68 32.942 247.782 33.032 247.95 33.128L248.814 33.632L248.742 34.982H243.774L243.684 33.272L244.566 33.02V29.618C244.566 29.078 244.548 28.7 244.512 28.484C244.476 28.268 244.374 28.1 244.206 27.98C244.05 27.86 243.768 27.8 243.36 27.8C242.928 27.8 242.382 27.866 241.722 27.998V32.354C241.722 32.606 241.74 32.774 241.776 32.858C241.812 32.942 241.908 33.032 242.064 33.128L242.946 33.632L242.874 34.982H237.654L237.564 33.272ZM253.098 35.234C252.042 35.234 251.262 34.976 250.758 34.46C250.254 33.932 250.002 33.134 250.002 32.066V27.692H248.742V26.378L251.982 23.426L253.026 23.552V25.586H256.05V27.71H253.026V31.418C253.026 31.994 253.104 32.378 253.26 32.57C253.428 32.762 253.746 32.858 254.214 32.858C254.61 32.858 255.162 32.804 255.87 32.696L256.086 34.532C255.654 34.736 255.168 34.904 254.628 35.036C254.1 35.168 253.59 35.234 253.098 35.234ZM259.65 35.234C258.834 35.234 258.18 35.012 257.688 34.568C257.196 34.112 256.95 33.53 256.95 32.822C256.95 31.874 257.424 31.13 258.372 30.59C259.332 30.05 260.724 29.744 262.548 29.672C262.548 29.108 262.5 28.694 262.404 28.43C262.32 28.154 262.158 27.968 261.918 27.872C261.69 27.764 261.336 27.71 260.856 27.71C260.364 27.71 260.016 27.728 259.812 27.764L259.074 29.222L257.742 29.132C257.538 28.172 257.394 27.176 257.31 26.144C257.982 25.916 258.714 25.736 259.506 25.604C260.31 25.472 261.06 25.406 261.756 25.406C263.028 25.406 263.94 25.658 264.492 26.162C265.044 26.654 265.32 27.476 265.32 28.628V32.39C265.32 32.606 265.338 32.756 265.374 32.84C265.422 32.924 265.518 33.008 265.662 33.092L266.382 33.506L266.31 34.622C264.918 34.946 263.82 35.126 263.016 35.162C262.992 35.09 262.956 34.964 262.908 34.784C262.86 34.592 262.818 34.412 262.782 34.244C262.314 34.544 261.798 34.784 261.234 34.964C260.682 35.144 260.154 35.234 259.65 35.234ZM260.856 33.2C261.336 33.2 261.918 33.038 262.602 32.714L262.53 31.346C262.242 31.322 262.05 31.31 261.954 31.31C261.63 31.31 261.252 31.346 260.82 31.418C260.388 31.478 260.046 31.55 259.794 31.634C259.758 31.79 259.74 31.934 259.74 32.066C259.74 32.426 259.836 32.708 260.028 32.912C260.232 33.104 260.508 33.2 260.856 33.2ZM272.585 35.882C272.945 36.014 273.215 36.17 273.395 36.35C273.575 36.53 273.665 36.782 273.665 37.106C273.665 37.742 273.323 38.228 272.639 38.564C271.967 38.912 271.043 39.086 269.867 39.086L269.687 38.42C270.119 38.42 270.515 38.384 270.875 38.312C271.235 38.24 271.499 38.144 271.667 38.024C271.691 37.88 271.703 37.766 271.703 37.682C271.703 37.478 271.613 37.334 271.433 37.25C271.253 37.166 270.869 37.088 270.281 37.016V36.656L270.713 35.198C269.501 35.078 268.565 34.598 267.905 33.758C267.245 32.906 266.915 31.784 266.915 30.392C266.915 28.82 267.323 27.596 268.139 26.72C268.967 25.844 270.095 25.406 271.523 25.406C272.603 25.406 273.761 25.652 274.997 26.144C274.973 26.492 274.919 26.954 274.835 27.53C274.751 28.094 274.661 28.616 274.565 29.096L273.359 29.204L272.243 27.782C271.943 27.722 271.607 27.692 271.235 27.692C270.935 27.692 270.659 27.71 270.407 27.746C270.131 28.274 269.993 29.018 269.993 29.978C269.993 30.962 270.167 31.694 270.515 32.174C270.863 32.642 271.391 32.876 272.099 32.876C272.435 32.876 272.843 32.828 273.323 32.732C273.803 32.624 274.295 32.474 274.799 32.282L275.231 34.082C274.823 34.37 274.313 34.622 273.701 34.838C273.101 35.042 272.489 35.168 271.865 35.216L271.577 35.63C271.865 35.69 272.201 35.774 272.585 35.882ZM278.951 35.234C278.135 35.234 277.481 35.012 276.989 34.568C276.497 34.112 276.251 33.53 276.251 32.822C276.251 31.874 276.725 31.13 277.673 30.59C278.633 30.05 280.025 29.744 281.849 29.672C281.849 29.108 281.801 28.694 281.705 28.43C281.621 28.154 281.459 27.968 281.219 27.872C280.991 27.764 280.637 27.71 280.157 27.71C279.665 27.71 279.317 27.728 279.113 27.764L278.375 29.222L277.043 29.132C276.839 28.172 276.695 27.176 276.611 26.144C277.283 25.916 278.015 25.736 278.807 25.604C279.611 25.472 280.361 25.406 281.057 25.406C282.329 25.406 283.241 25.658 283.793 26.162C284.345 26.654 284.621 27.476 284.621 28.628V32.39C284.621 32.606 284.639 32.756 284.675 32.84C284.723 32.924 284.819 33.008 284.963 33.092L285.683 33.506L285.611 34.622C284.219 34.946 283.121 35.126 282.317 35.162C282.293 35.09 282.257 34.964 282.209 34.784C282.161 34.592 282.119 34.412 282.083 34.244C281.615 34.544 281.099 34.784 280.535 34.964C279.983 35.144 279.455 35.234 278.951 35.234ZM280.157 33.2C280.637 33.2 281.219 33.038 281.903 32.714L281.831 31.346C281.543 31.322 281.351 31.31 281.255 31.31C280.931 31.31 280.553 31.346 280.121 31.418C279.689 31.478 279.347 31.55 279.095 31.634C279.059 31.79 279.041 31.934 279.041 32.066C279.041 32.426 279.137 32.708 279.329 32.912C279.533 33.104 279.809 33.2 280.157 33.2ZM282.173 24.272C281.801 24.272 281.243 24.14 280.499 23.876C280.259 23.792 280.019 23.72 279.779 23.66C279.539 23.588 279.341 23.552 279.185 23.552C279.113 23.588 279.029 23.654 278.933 23.75C278.849 23.834 278.753 23.954 278.645 24.11H277.655C277.847 23.258 278.099 22.634 278.411 22.238C278.735 21.842 279.143 21.644 279.635 21.644C279.875 21.644 280.121 21.68 280.373 21.752C280.637 21.812 280.949 21.908 281.309 22.04C281.369 22.064 281.549 22.124 281.849 22.22C282.149 22.316 282.413 22.364 282.641 22.364C282.701 22.328 282.773 22.262 282.857 22.166C282.941 22.07 283.043 21.95 283.163 21.806H284.153C283.961 22.658 283.703 23.282 283.379 23.678C283.067 24.074 282.665 24.272 282.173 24.272ZM290.751 35.234C289.227 35.234 288.087 34.844 287.331 34.064C286.587 33.284 286.215 32.09 286.215 30.482C286.215 29.45 286.401 28.55 286.773 27.782C287.157 27.014 287.703 26.426 288.411 26.018C289.119 25.61 289.953 25.406 290.913 25.406C294.021 25.406 295.575 27.014 295.575 30.23C295.575 31.802 295.149 33.032 294.297 33.92C293.457 34.796 292.275 35.234 290.751 35.234ZM291.039 33.128C291.279 33.128 291.489 33.11 291.669 33.074C291.849 33.026 292.041 32.954 292.245 32.858C292.317 32.582 292.377 32.228 292.425 31.796C292.473 31.364 292.497 30.95 292.497 30.554C292.497 29.582 292.341 28.844 292.029 28.34C291.729 27.836 291.279 27.584 290.679 27.584C290.283 27.584 289.881 27.638 289.473 27.746C289.389 27.926 289.323 28.22 289.275 28.628C289.227 29.024 289.203 29.48 289.203 29.996C289.203 31.004 289.359 31.778 289.671 32.318C289.995 32.858 290.451 33.128 291.039 33.128ZM299.568 37.16L300.684 36.854V28.592C300.684 28.328 300.666 28.16 300.63 28.088C300.594 28.004 300.492 27.914 300.324 27.818L299.514 27.386L299.604 26.036C299.664 26.024 299.724 26.012 299.784 26C299.844 25.988 299.91 25.976 299.982 25.964C300.546 25.856 301.14 25.754 301.764 25.658C302.4 25.55 302.922 25.484 303.33 25.46C303.438 25.712 303.51 26 303.546 26.324C303.918 26.024 304.314 25.796 304.734 25.64C305.166 25.484 305.592 25.406 306.012 25.406C307.212 25.406 308.13 25.832 308.766 26.684C309.414 27.524 309.738 28.724 309.738 30.284C309.738 31.904 309.294 33.146 308.406 34.01C307.518 34.862 306.234 35.288 304.554 35.288C304.374 35.288 304.092 35.276 303.708 35.252V36.242C303.708 36.506 303.726 36.68 303.762 36.764C303.798 36.848 303.9 36.932 304.068 37.016L305.13 37.61L305.058 38.87H299.658L299.568 37.16ZM305.022 33.056C305.586 33.056 306.042 32.978 306.39 32.822C306.486 32.522 306.564 32.162 306.624 31.742C306.696 31.31 306.732 30.908 306.732 30.536C306.732 29.612 306.57 28.898 306.246 28.394C305.934 27.89 305.496 27.638 304.932 27.638C304.584 27.638 304.176 27.74 303.708 27.944V32.84C304.056 32.984 304.494 33.056 305.022 33.056ZM313.333 35.234C312.517 35.234 311.863 35.012 311.371 34.568C310.879 34.112 310.633 33.53 310.633 32.822C310.633 31.874 311.107 31.13 312.055 30.59C313.015 30.05 314.407 29.744 316.231 29.672C316.231 29.108 316.183 28.694 316.087 28.43C316.003 28.154 315.841 27.968 315.601 27.872C315.373 27.764 315.019 27.71 314.539 27.71C314.047 27.71 313.699 27.728 313.495 27.764L312.757 29.222L311.425 29.132C311.221 28.172 311.077 27.176 310.993 26.144C311.665 25.916 312.397 25.736 313.189 25.604C313.993 25.472 314.743 25.406 315.439 25.406C316.711 25.406 317.623 25.658 318.175 26.162C318.727 26.654 319.003 27.476 319.003 28.628V32.39C319.003 32.606 319.021 32.756 319.057 32.84C319.105 32.924 319.201 33.008 319.345 33.092L320.065 33.506L319.993 34.622C318.601 34.946 317.503 35.126 316.699 35.162C316.675 35.09 316.639 34.964 316.591 34.784C316.543 34.592 316.501 34.412 316.465 34.244C315.997 34.544 315.481 34.784 314.917 34.964C314.365 35.144 313.837 35.234 313.333 35.234ZM314.539 33.2C315.019 33.2 315.601 33.038 316.285 32.714L316.213 31.346C315.925 31.322 315.733 31.31 315.637 31.31C315.313 31.31 314.935 31.346 314.503 31.418C314.071 31.478 313.729 31.55 313.477 31.634C313.441 31.79 313.423 31.934 313.423 32.066C313.423 32.426 313.519 32.708 313.711 32.912C313.915 33.104 314.191 33.2 314.539 33.2ZM320.726 33.29L321.824 32.966V28.592C321.824 28.328 321.806 28.16 321.77 28.088C321.734 28.004 321.638 27.914 321.482 27.818L320.69 27.386L320.744 26.036C320.948 25.988 321.122 25.958 321.266 25.946C322.718 25.646 323.792 25.484 324.488 25.46C324.596 25.772 324.698 26.162 324.794 26.63C325.514 26.066 326.126 25.676 326.63 25.46H327.656C327.644 25.916 327.614 26.414 327.566 26.954C327.518 27.482 327.458 27.908 327.386 28.232C326.954 28.208 326.636 28.196 326.432 28.196C325.928 28.196 325.406 28.226 324.866 28.286V32.372C324.866 32.624 324.884 32.792 324.92 32.876C324.956 32.96 325.052 33.05 325.208 33.146L326.288 33.722L326.216 35H320.816L320.726 33.29ZM330.964 35.234C330.148 35.234 329.494 35.012 329.002 34.568C328.51 34.112 328.264 33.53 328.264 32.822C328.264 31.874 328.738 31.13 329.686 30.59C330.646 30.05 332.038 29.744 333.862 29.672C333.862 29.108 333.814 28.694 333.718 28.43C333.634 28.154 333.472 27.968 333.232 27.872C333.004 27.764 332.65 27.71 332.17 27.71C331.678 27.71 331.33 27.728 331.126 27.764L330.388 29.222L329.056 29.132C328.852 28.172 328.708 27.176 328.624 26.144C329.296 25.916 330.028 25.736 330.82 25.604C331.624 25.472 332.374 25.406 333.07 25.406C334.342 25.406 335.254 25.658 335.806 26.162C336.358 26.654 336.634 27.476 336.634 28.628V32.39C336.634 32.606 336.652 32.756 336.688 32.84C336.736 32.924 336.832 33.008 336.976 33.092L337.696 33.506L337.624 34.622C336.232 34.946 335.134 35.126 334.33 35.162C334.306 35.09 334.27 34.964 334.222 34.784C334.174 34.592 334.132 34.412 334.096 34.244C333.628 34.544 333.112 34.784 332.548 34.964C331.996 35.144 331.468 35.234 330.964 35.234ZM332.17 33.2C332.65 33.2 333.232 33.038 333.916 32.714L333.844 31.346C333.556 31.322 333.364 31.31 333.268 31.31C332.944 31.31 332.566 31.346 332.134 31.418C331.702 31.478 331.36 31.55 331.108 31.634C331.072 31.79 331.054 31.934 331.054 32.066C331.054 32.426 331.15 32.708 331.342 32.912C331.546 33.104 331.822 33.2 332.17 33.2ZM191.708 56.252C190.748 56.252 190.034 55.97 189.566 55.406C189.098 54.83 188.864 53.966 188.864 52.814V49.592C188.864 49.328 188.84 49.16 188.792 49.088C188.756 49.004 188.654 48.914 188.486 48.818L187.676 48.386L187.766 47.036C187.934 47.012 188.054 46.988 188.126 46.964C188.258 46.94 188.726 46.856 189.53 46.712C190.346 46.568 191.024 46.484 191.564 46.46C191.696 46.76 191.798 47.108 191.87 47.504V52.04C191.87 52.568 191.882 52.94 191.906 53.156C191.942 53.372 192.038 53.54 192.194 53.66C192.362 53.768 192.644 53.822 193.04 53.822C193.616 53.822 194.174 53.72 194.714 53.516V49.592C194.714 49.328 194.696 49.16 194.66 49.088C194.624 49.004 194.528 48.914 194.372 48.818L193.58 48.386L193.652 47.036C194.624 46.856 195.38 46.718 195.92 46.622C196.472 46.526 196.976 46.472 197.432 46.46C197.564 46.76 197.666 47.108 197.738 47.504V53.408C197.738 53.624 197.756 53.774 197.792 53.858C197.828 53.942 197.912 54.026 198.044 54.11L198.764 54.524L198.71 55.64C198.194 55.772 197.6 55.892 196.928 56C196.256 56.096 195.632 56.156 195.056 56.18C195.008 56.036 194.954 55.856 194.894 55.64C194.882 55.544 194.852 55.43 194.804 55.298H194.75C194.258 55.586 193.736 55.82 193.184 56C192.644 56.168 192.152 56.252 191.708 56.252ZM199.489 54.29L200.605 53.966V49.592C200.605 49.328 200.587 49.16 200.551 49.088C200.515 49.004 200.419 48.914 200.263 48.818L199.471 48.386L199.525 47.036L200.011 46.946C201.487 46.646 202.579 46.484 203.287 46.46C203.383 46.712 203.461 46.97 203.521 47.234C204.169 46.934 204.721 46.724 205.177 46.604C205.645 46.472 206.071 46.406 206.455 46.406C206.923 46.406 207.361 46.496 207.769 46.676C208.177 46.844 208.483 47.072 208.687 47.36C209.371 47.024 209.983 46.784 210.523 46.64C211.075 46.484 211.597 46.406 212.089 46.406C213.073 46.406 213.799 46.688 214.267 47.252C214.735 47.816 214.969 48.674 214.969 49.826V53.372C214.969 53.624 214.987 53.792 215.023 53.876C215.059 53.96 215.161 54.05 215.329 54.146L216.193 54.65L216.121 56H211.225L211.135 54.29L211.999 54.038V50.636C211.999 50.12 211.981 49.754 211.945 49.538C211.921 49.31 211.825 49.136 211.657 49.016C211.489 48.884 211.207 48.818 210.811 48.818C210.499 48.818 209.977 48.872 209.245 48.98C209.269 49.172 209.281 49.454 209.281 49.826V53.372C209.281 53.624 209.299 53.792 209.335 53.876C209.371 53.96 209.479 54.05 209.659 54.146L210.541 54.65L210.469 56H205.537L205.447 54.29L206.311 54.038V50.636C206.311 50.108 206.293 49.736 206.257 49.52C206.233 49.292 206.137 49.118 205.969 48.998C205.801 48.878 205.525 48.818 205.141 48.818C204.721 48.818 204.211 48.872 203.611 48.98V53.372C203.611 53.624 203.629 53.792 203.665 53.876C203.701 53.96 203.797 54.05 203.953 54.146L204.835 54.65L204.763 56H199.579L199.489 54.29ZM219.431 56.234C218.615 56.234 217.961 56.012 217.469 55.568C216.977 55.112 216.731 54.53 216.731 53.822C216.731 52.874 217.205 52.13 218.153 51.59C219.113 51.05 220.505 50.744 222.329 50.672C222.329 50.108 222.281 49.694 222.185 49.43C222.101 49.154 221.939 48.968 221.699 48.872C221.471 48.764 221.117 48.71 220.637 48.71C220.145 48.71 219.797 48.728 219.593 48.764L218.855 50.222L217.523 50.132C217.319 49.172 217.175 48.176 217.091 47.144C217.763 46.916 218.495 46.736 219.287 46.604C220.091 46.472 220.841 46.406 221.537 46.406C222.809 46.406 223.721 46.658 224.273 47.162C224.825 47.654 225.101 48.476 225.101 49.628V53.39C225.101 53.606 225.119 53.756 225.155 53.84C225.203 53.924 225.299 54.008 225.443 54.092L226.163 54.506L226.091 55.622C224.699 55.946 223.601 56.126 222.797 56.162C222.773 56.09 222.737 55.964 222.689 55.784C222.641 55.592 222.599 55.412 222.563 55.244C222.095 55.544 221.579 55.784 221.015 55.964C220.463 56.144 219.935 56.234 219.431 56.234ZM220.637 54.2C221.117 54.2 221.699 54.038 222.383 53.714L222.311 52.346C222.023 52.322 221.831 52.31 221.735 52.31C221.411 52.31 221.033 52.346 220.601 52.418C220.169 52.478 219.827 52.55 219.575 52.634C219.539 52.79 219.521 52.934 219.521 53.066C219.521 53.426 219.617 53.708 219.809 53.912C220.013 54.104 220.289 54.2 220.637 54.2ZM234.709 56.234C233.317 56.234 232.237 55.808 231.469 54.956C230.701 54.092 230.317 52.904 230.317 51.392C230.317 49.82 230.725 48.596 231.541 47.72C232.369 46.844 233.497 46.406 234.925 46.406C236.005 46.406 237.163 46.652 238.399 47.144C238.375 47.492 238.321 47.954 238.237 48.53C238.153 49.094 238.063 49.616 237.967 50.096L236.761 50.204L235.645 48.782C235.345 48.722 235.009 48.692 234.637 48.692C234.337 48.692 234.061 48.71 233.809 48.746C233.533 49.274 233.395 50.018 233.395 50.978C233.395 51.962 233.569 52.694 233.917 53.174C234.265 53.642 234.793 53.876 235.501 53.876C235.837 53.876 236.245 53.828 236.725 53.732C237.205 53.624 237.697 53.474 238.201 53.282L238.633 55.082C238.153 55.418 237.553 55.694 236.833 55.91C236.125 56.126 235.417 56.234 234.709 56.234ZM239.603 54.29L240.701 53.966V49.592C240.701 49.328 240.683 49.16 240.647 49.088C240.611 49.004 240.515 48.914 240.359 48.818L239.567 48.386L239.621 47.036C239.825 46.988 239.999 46.958 240.143 46.946C241.595 46.646 242.669 46.484 243.365 46.46C243.473 46.772 243.575 47.162 243.671 47.63C244.391 47.066 245.003 46.676 245.507 46.46H246.533C246.521 46.916 246.491 47.414 246.443 47.954C246.395 48.482 246.335 48.908 246.263 49.232C245.831 49.208 245.513 49.196 245.309 49.196C244.805 49.196 244.283 49.226 243.743 49.286V53.372C243.743 53.624 243.761 53.792 243.797 53.876C243.833 53.96 243.929 54.05 244.085 54.146L245.165 54.722L245.093 56H239.693L239.603 54.29ZM247.987 42.68L251.047 41.87L251.785 44.606L248.743 45.434L247.987 42.68ZM247.231 54.344L248.491 53.966V49.592C248.491 49.328 248.467 49.16 248.419 49.088C248.383 49.004 248.281 48.914 248.113 48.818L247.321 48.386L247.411 47.036C248.407 46.844 249.175 46.706 249.715 46.622C250.267 46.526 250.771 46.472 251.227 46.46C251.383 46.976 251.479 47.36 251.515 47.612V53.372C251.515 53.624 251.533 53.792 251.569 53.876C251.605 53.96 251.707 54.05 251.875 54.146L252.757 54.65L252.685 56H247.285L247.231 54.344ZM255.994 56.234C255.178 56.234 254.524 56.012 254.032 55.568C253.54 55.112 253.294 54.53 253.294 53.822C253.294 52.874 253.768 52.13 254.716 51.59C255.676 51.05 257.068 50.744 258.892 50.672C258.892 50.108 258.844 49.694 258.748 49.43C258.664 49.154 258.502 48.968 258.262 48.872C258.034 48.764 257.68 48.71 257.2 48.71C256.708 48.71 256.36 48.728 256.156 48.764L255.418 50.222L254.086 50.132C253.882 49.172 253.738 48.176 253.654 47.144C254.326 46.916 255.058 46.736 255.85 46.604C256.654 46.472 257.404 46.406 258.1 46.406C259.372 46.406 260.284 46.658 260.836 47.162C261.388 47.654 261.664 48.476 261.664 49.628V53.39C261.664 53.606 261.682 53.756 261.718 53.84C261.766 53.924 261.862 54.008 262.006 54.092L262.726 54.506L262.654 55.622C261.262 55.946 260.164 56.126 259.36 56.162C259.336 56.09 259.3 55.964 259.252 55.784C259.204 55.592 259.162 55.412 259.126 55.244C258.658 55.544 258.142 55.784 257.578 55.964C257.026 56.144 256.498 56.234 255.994 56.234ZM257.2 54.2C257.68 54.2 258.262 54.038 258.946 53.714L258.874 52.346C258.586 52.322 258.394 52.31 258.298 52.31C257.974 52.31 257.596 52.346 257.164 52.418C256.732 52.478 256.39 52.55 256.138 52.634C256.102 52.79 256.084 52.934 256.084 53.066C256.084 53.426 256.18 53.708 256.372 53.912C256.576 54.104 256.852 54.2 257.2 54.2ZM263.368 54.272L264.484 53.948V49.592C264.484 49.328 264.466 49.16 264.43 49.088C264.394 49.004 264.298 48.914 264.142 48.818L263.35 48.386L263.404 47.036L263.8 46.964C265.372 46.652 266.506 46.484 267.202 46.46C267.298 46.712 267.376 46.988 267.436 47.288C268.168 46.952 268.762 46.724 269.218 46.604C269.686 46.472 270.124 46.406 270.532 46.406C272.44 46.406 273.394 47.546 273.394 49.826V53.354C273.394 53.606 273.412 53.774 273.448 53.858C273.484 53.942 273.586 54.032 273.754 54.128L274.618 54.632L274.546 55.982H269.578L269.488 54.272L270.37 54.02V50.618C270.37 50.078 270.352 49.7 270.316 49.484C270.28 49.268 270.178 49.1 270.01 48.98C269.854 48.86 269.572 48.8 269.164 48.8C268.732 48.8 268.186 48.866 267.526 48.998V53.354C267.526 53.606 267.544 53.774 267.58 53.858C267.616 53.942 267.712 54.032 267.868 54.128L268.75 54.632L268.678 55.982H263.458L263.368 54.272ZM280.723 56.882C281.083 57.014 281.353 57.17 281.533 57.35C281.713 57.53 281.803 57.782 281.803 58.106C281.803 58.742 281.461 59.228 280.777 59.564C280.105 59.912 279.181 60.086 278.005 60.086L277.825 59.42C278.257 59.42 278.653 59.384 279.013 59.312C279.373 59.24 279.637 59.144 279.805 59.024C279.829 58.88 279.841 58.766 279.841 58.682C279.841 58.478 279.751 58.334 279.571 58.25C279.391 58.166 279.007 58.088 278.419 58.016V57.656L278.851 56.198C277.639 56.078 276.703 55.598 276.043 54.758C275.383 53.906 275.053 52.784 275.053 51.392C275.053 49.82 275.461 48.596 276.277 47.72C277.105 46.844 278.233 46.406 279.661 46.406C280.741 46.406 281.899 46.652 283.135 47.144C283.111 47.492 283.057 47.954 282.973 48.53C282.889 49.094 282.799 49.616 282.703 50.096L281.497 50.204L280.381 48.782C280.081 48.722 279.745 48.692 279.373 48.692C279.073 48.692 278.797 48.71 278.545 48.746C278.269 49.274 278.131 50.018 278.131 50.978C278.131 51.962 278.305 52.694 278.653 53.174C279.001 53.642 279.529 53.876 280.237 53.876C280.573 53.876 280.981 53.828 281.461 53.732C281.941 53.624 282.433 53.474 282.937 53.282L283.369 55.082C282.961 55.37 282.451 55.622 281.839 55.838C281.239 56.042 280.627 56.168 280.003 56.216L279.715 56.63C280.003 56.69 280.339 56.774 280.723 56.882ZM287.089 56.234C286.273 56.234 285.619 56.012 285.127 55.568C284.635 55.112 284.389 54.53 284.389 53.822C284.389 52.874 284.863 52.13 285.811 51.59C286.771 51.05 288.163 50.744 289.987 50.672C289.987 50.108 289.939 49.694 289.843 49.43C289.759 49.154 289.597 48.968 289.357 48.872C289.129 48.764 288.775 48.71 288.295 48.71C287.803 48.71 287.455 48.728 287.251 48.764L286.513 50.222L285.181 50.132C284.977 49.172 284.833 48.176 284.749 47.144C285.421 46.916 286.153 46.736 286.945 46.604C287.749 46.472 288.499 46.406 289.195 46.406C290.467 46.406 291.379 46.658 291.931 47.162C292.483 47.654 292.759 48.476 292.759 49.628V53.39C292.759 53.606 292.777 53.756 292.813 53.84C292.861 53.924 292.957 54.008 293.101 54.092L293.821 54.506L293.749 55.622C292.357 55.946 291.259 56.126 290.455 56.162C290.431 56.09 290.395 55.964 290.347 55.784C290.299 55.592 290.257 55.412 290.221 55.244C289.753 55.544 289.237 55.784 288.673 55.964C288.121 56.144 287.593 56.234 287.089 56.234ZM288.295 54.2C288.775 54.2 289.357 54.038 290.041 53.714L289.969 52.346C289.681 52.322 289.489 52.31 289.393 52.31C289.069 52.31 288.691 52.346 288.259 52.418C287.827 52.478 287.485 52.55 287.233 52.634C287.197 52.79 287.179 52.934 287.179 53.066C287.179 53.426 287.275 53.708 287.467 53.912C287.671 54.104 287.947 54.2 288.295 54.2Z" fill="#004D9A"/>
</svg>
