<svg width="32" height="31" viewBox="0 0 32 31" fill="none" xmlns="http://www.w3.org/2000/svg">
<path d="M22.6666 2.58325H9.33329C5.65139 2.58325 2.66663 5.47475 2.66663 9.04159V21.9583C2.66663 25.5251 5.65139 28.4166 9.33329 28.4166H22.6666C26.3485 28.4166 29.3333 25.5251 29.3333 21.9583V9.04159C29.3333 5.47475 26.3485 2.58325 22.6666 2.58325Z" fill="white" stroke="#333033" stroke-width="2" stroke-linecap="round" stroke-linejoin="round"/>
<path d="M21.3333 14.6864C21.4979 15.7614 21.3084 16.8593 20.7917 17.8239C20.275 18.7885 19.4575 19.5707 18.4555 20.0593C17.4535 20.5479 16.3179 20.718 15.2104 20.5453C14.1028 20.3727 13.0797 19.8661 12.2865 19.0976C11.4932 18.3292 10.9703 17.338 10.7921 16.2651C10.6139 15.1921 10.7894 14.0921 11.2938 13.1214C11.7981 12.1507 12.6056 11.3587 13.6013 10.8582C14.5971 10.3577 15.7304 10.1741 16.84 10.3335C17.9719 10.4961 19.0198 11.007 19.8289 11.7909C20.6381 12.5747 21.1655 13.5899 21.3333 14.6864Z" stroke="#333033" stroke-width="2" stroke-linecap="round" stroke-linejoin="round"/>
<path d="M23.3334 8.39575H23.3476" stroke="#333033" stroke-width="2" stroke-linecap="round" stroke-linejoin="round"/>
</svg>
