<svg width="305" height="197" viewBox="0 0 305 197" fill="none" xmlns="http://www.w3.org/2000/svg">
<path d="M118.28 147.2L119.947 145.348C124.205 140.497 131.778 135.683 138.073 135.924C139.359 135.93 140.625 136.238 141.77 136.823C142.915 137.408 143.907 138.255 144.664 139.294C144.995 139.728 145.484 140.015 146.025 140.091C146.565 140.167 147.114 140.027 147.553 139.701C147.771 139.541 147.956 139.34 148.096 139.107C148.236 138.875 148.328 138.618 148.367 138.35C148.444 137.806 148.305 137.254 147.978 136.813C146.85 135.281 145.381 134.033 143.688 133.165C141.995 132.298 140.123 131.835 138.221 131.814C130.297 131.499 121.557 137.202 116.836 142.645L115.17 144.497C108.69 152.014 101.339 160.531 92.5444 158.938C92.046 158.848 91.5316 158.943 91.0984 159.205C90.6652 159.468 90.3432 159.88 90.193 160.364V160.605C90.096 161.141 90.2159 161.694 90.5263 162.141C90.8406 162.59 91.3199 162.896 91.8593 162.993C102.931 164.993 111.096 155.55 118.28 147.2Z" fill="#82C221"/>
<path d="M319.558 60.6794C319.233 60.2411 318.75 59.9462 318.211 59.8564C317.673 59.7666 317.12 59.8891 316.67 60.198C307.412 66.8449 295.637 63.5862 283.213 60.198C277.329 58.3732 271.303 57.0417 265.198 56.2173C258.488 55.5692 251.717 56.3749 245.346 58.5795C238.975 60.7841 233.154 64.3358 228.279 68.9926C228.082 69.1782 227.924 69.4019 227.816 69.6501C227.708 69.8984 227.651 70.166 227.65 70.4368C227.64 70.7097 227.686 70.9817 227.785 71.2363C227.883 71.4909 228.033 71.7228 228.224 71.918C228.415 72.1181 228.645 72.2771 228.899 72.3853C229.154 72.4935 229.428 72.5487 229.705 72.5475C229.97 72.5503 230.233 72.4992 230.478 72.3974C230.723 72.2955 230.945 72.1451 231.13 71.955C235.581 67.7186 240.889 64.4879 246.697 62.4818C252.504 60.4757 258.675 59.7411 264.791 60.3276C270.656 61.1331 276.445 62.4149 282.102 64.1602C294.915 67.7521 308.153 71.4551 319.132 63.6603C319.36 63.4957 319.553 63.2869 319.698 63.0464C319.843 62.8059 319.939 62.5385 319.978 62.2603C320.018 61.9821 320.001 61.6987 319.929 61.4271C319.857 61.1555 319.731 60.9012 319.558 60.6794Z" fill="#82C221"/>
<path d="M159.235 93.0989C153.544 85.1878 146.676 78.1945 138.869 72.3621C138.646 72.1962 138.391 72.0778 138.12 72.0141C137.849 71.9504 137.569 71.9428 137.295 71.9918C137.02 72.0373 136.757 72.1378 136.521 72.2873C136.286 72.4368 136.083 72.6323 135.925 72.862L119.095 97.5981C118.886 97.9311 118.775 98.3161 118.775 98.709C118.775 99.1019 118.886 99.4869 119.095 99.8199C119.29 100.133 119.564 100.389 119.888 100.564C120.213 100.74 120.577 100.828 120.946 100.82H121.187L157.976 96.3576C158.332 96.3185 158.672 96.1845 158.958 95.9696C159.245 95.7546 159.468 95.4666 159.606 95.1356C159.732 94.794 159.764 94.4249 159.698 94.0667C159.633 93.7085 159.473 93.3743 159.235 93.0989ZM153.681 92.6731L124.964 96.1539L137.924 76.9909C143.823 81.5508 149.14 86.8176 153.755 92.6731H153.681Z" fill="#82C221"/>
<path d="M212.041 164.345C202.955 157.831 192.423 153.623 181.351 152.081C170.279 150.54 158.998 151.711 148.478 155.495C137.647 159.475 128.001 166.141 118.688 172.603C108.301 179.786 97.5806 187.229 85.4718 190.581C71.1966 194.492 55.9523 192.574 43.0909 185.248C42.6163 184.979 42.0547 184.908 41.5279 185.05C41.0011 185.192 40.5515 185.536 40.2766 186.007C40.1409 186.242 40.0528 186.501 40.0175 186.769C39.9822 187.038 40.0004 187.311 40.0709 187.573C40.1415 187.834 40.263 188.079 40.4286 188.293C40.5942 188.508 40.8005 188.687 41.0357 188.822C47.8793 192.722 55.4244 195.234 63.2397 196.216C71.0551 197.198 78.9872 196.629 86.5827 194.543C99.3581 191.007 110.375 183.434 121.039 176.028C130.149 169.733 139.554 163.216 149.886 159.364C159.78 155.874 170.367 154.805 180.759 156.249C191.151 157.692 201.046 161.605 209.615 167.659C209.966 167.926 210.396 168.071 210.837 168.071C211.278 168.071 211.708 167.926 212.059 167.659C212.227 167.546 212.372 167.402 212.485 167.233C212.807 166.791 212.941 166.239 212.858 165.698C212.775 165.156 212.481 164.67 212.041 164.345Z" fill="#82C221"/>
<path d="M104.013 38.1629C96.7835 24.5822 88.0013 11.8872 77.8427 0.332935C77.8427 0.332935 77.8427 0.332934 77.8427 0.272934C77.6864 0.106961 77.4706 0.00984695 77.2427 0.0029352C77.1513 -0.00599717 77.059 0.00551846 76.9725 0.0366495C76.886 0.0677805 76.8075 0.117747 76.7427 0.182934L76.5727 0.352934C76.5079 0.431066 76.4378 0.50458 76.3627 0.572935L76.2827 0.642935L75.8827 1.00294L75.7727 1.10293C75.6127 1.24293 75.4427 1.38293 75.2927 1.53293C75.2227 1.60293 75.1827 1.65293 75.1327 1.65293C75.0776 1.61591 75.0272 1.57225 74.9827 1.52293C74.9587 1.49377 74.9319 1.46698 74.9027 1.44293C74.7127 1.28293 74.4627 1.07293 74.2027 0.882934C74.0461 0.766212 73.8526 0.710025 73.6578 0.724725C73.463 0.739426 73.2801 0.824025 73.1427 0.962934L70.9827 3.20293C70.7368 3.13049 70.474 3.1401 70.234 3.23031C69.9941 3.32052 69.79 3.48643 69.6527 3.70293C68.2366 5.8602 66.3715 7.68637 64.1849 9.05668C61.9983 10.427 59.5416 11.3092 56.9827 11.6429C56.6254 11.7279 56.3078 11.9326 56.0827 12.2229L55.9027 12.3929C55.6027 12.6829 55.3027 12.9829 55.0327 13.2829L54.6427 13.7429L54.0927 14.4129C53.9556 14.2807 53.7732 14.2056 53.5827 14.2029C53.4733 14.2037 53.3653 14.2273 53.2654 14.272C53.1656 14.3168 53.0761 14.3818 53.0027 14.4629C53.0027 14.4629 53.0027 14.4629 50.6027 17.1629L50.4927 17.2929C50.4227 17.3829 50.3727 17.4429 50.3027 17.4529C50.2769 17.4621 50.2486 17.4621 50.2227 17.4529H50.0627C49.9528 17.4662 49.8466 17.5014 49.7504 17.5563C49.6542 17.6113 49.57 17.6849 49.5027 17.7729C49.0802 18.3193 48.549 18.7721 47.9427 19.1029C47.8727 19.1029 47.8127 19.1029 47.6727 19.0429C47.5227 18.9429 47.3416 18.9003 47.1627 18.9229C46.5991 19.0883 46.1087 19.4411 45.7727 19.9229L45.4827 20.2629L43.8027 22.0129C40.5294 25.4596 37.2461 28.9029 33.9527 32.3429L24.4227 42.3429L22.9627 43.8729C14.9627 52.1929 6.76274 60.7929 0.222739 67.6829C0.144214 67.7648 0.0839873 67.8624 0.0460579 67.9693C0.00812857 68.0762 -0.0066379 68.1899 0.00273824 68.3029C0.0111026 68.4134 0.0420415 68.521 0.0936425 68.619C0.145243 68.7171 0.216412 68.8035 0.302741 68.8729C12.1027 78.1029 47.8927 96.5829 50.8527 97.2729C51.5849 97.4447 52.3314 97.5485 53.0827 97.5829C54.4856 97.6426 55.8863 97.4216 57.2027 96.9329C57.8139 96.7004 58.3948 96.3948 58.9327 96.0229C59.5389 95.5617 60.0893 95.0315 60.5727 94.4429C60.8227 94.1629 61.0727 93.8729 61.3327 93.6129L64.3927 90.5429L69.5027 85.4329L76.3027 78.6129L83.1727 71.6929C85.4527 69.3929 87.7294 67.0829 90.0027 64.7629C92.3627 62.3629 94.5627 60.1229 96.7127 57.9129C98.8627 55.7029 101.103 53.3829 103.173 51.2329L103.303 50.9629C103.919 50.3485 104.478 49.6791 104.973 48.9629C105.514 48.1356 105.856 47.1944 105.973 46.2129C106.403 43.1029 105.063 40.1229 104.013 38.1629ZM55.3027 15.3129C55.3368 15.2492 55.377 15.1889 55.4227 15.1329L55.4727 15.0729C55.6327 14.8529 55.8127 14.6429 55.9827 14.4429C56.32 14.064 56.6807 13.7066 57.0627 13.3729C58.1996 13.8804 59.2546 14.5545 60.1927 15.3729C72.9527 25.3729 85.7127 35.7329 98.1927 46.1829C98.101 46.2714 98.0142 46.3649 97.9327 46.4629L55.7727 15.7129C55.6527 15.6129 55.5227 15.5229 55.3927 15.4329C55.2627 15.3429 55.3027 15.3429 55.3027 15.3129ZM77.0627 17.8029C77.1486 17.7403 77.2211 17.6611 77.2761 17.5701C77.331 17.4791 77.3673 17.3781 77.3827 17.2729C77.3986 17.1696 77.3935 17.0641 77.3677 16.9627C77.3419 16.8613 77.296 16.7662 77.2327 16.6829C74.7003 13.2706 71.8944 10.0701 68.8427 7.11293C69.4253 6.48194 69.9665 5.81388 70.4627 5.11293C78.6827 14.6029 86.4627 24.4529 94.0627 33.9829L99.7327 41.1129C100.313 41.8529 100.893 42.5929 101.483 43.3229C101.574 43.4316 101.654 43.5488 101.723 43.6729C100.908 44.1005 100.123 44.5815 99.3727 45.1129C86.8727 34.6029 74.0228 24.1729 61.1827 14.1129C60.6227 13.6729 60.0427 13.2229 59.4127 12.8129C62.5001 11.9936 65.3419 10.4355 67.6927 8.27293C70.6895 11.1772 73.4484 14.3173 75.9427 17.6629C76.0084 17.7501 76.0909 17.8232 76.1854 17.8777C76.28 17.9322 76.3846 17.967 76.4929 17.9801C76.6012 17.9931 76.7111 17.9842 76.8159 17.9538C76.9207 17.9233 77.0183 17.872 77.1027 17.8029H77.0627ZM104.033 42.9629C101.387 37.6368 98.3803 32.4981 95.0327 27.5829L94.8227 27.2629L92.8227 24.1829C88.8816 18.1431 84.5805 12.3459 79.9427 6.82294C79.2327 5.96293 78.6527 5.28293 78.1027 4.68293C77.7827 4.32293 77.4827 3.99293 77.1827 3.68293L76.7127 3.20293L76.5827 3.08294C76.4845 3.0125 76.397 2.92831 76.3227 2.83294C76.3405 2.79605 76.3642 2.76228 76.3927 2.73293C76.6297 2.46304 76.8908 2.21535 77.1727 1.99293C87.0462 13.3166 95.5949 25.7303 102.653 38.9929C103.35 40.2535 103.884 41.5976 104.243 42.9929L104.033 42.9629ZM93.3027 27.8629L93.6727 28.4229C95.9927 31.9829 98.2027 35.3529 100.273 39.0829L95.3627 32.9629C88.2727 24.0229 80.2427 13.8929 71.9827 4.34293L73.6727 2.60293C75.5074 4.1702 77.1822 5.9154 78.6727 7.81293C83.2728 13.2832 87.5372 19.027 91.4427 25.0129L93.3027 27.8629ZM100.193 51.8629C87.7827 64.7329 73.3027 79.2229 61.6527 90.8629L59.9527 92.5629C59.7227 92.7929 59.5027 93.0429 59.2827 93.2729C58.7884 93.8696 58.2167 94.3975 57.5827 94.8429C56.6121 95.3962 55.5415 95.7518 54.4328 95.8891C53.324 96.0264 52.199 95.9428 51.1227 95.6429C48.4427 95.0229 14.0327 77.2029 1.91274 68.0829C8.44274 61.2029 16.5227 52.7529 24.3027 44.5929L24.9027 43.9629C32.6827 35.8429 40.7127 27.4429 47.1427 20.6829C53.1427 24.7329 59.9527 29.3929 66.5027 33.9029C73.1327 38.4729 79.9927 43.1829 86.1627 47.3229C89.1127 49.3229 92.4627 51.5529 96.3727 51.9729C96.6827 51.9729 96.9927 52.0329 97.3127 52.0429C98.2628 52.0944 99.2156 52.0373 100.153 51.8729L100.193 51.8629ZM96.7127 48.1329C96.5878 48.3622 96.4475 48.5827 96.2927 48.7929C95.9237 48.6889 95.5822 48.5045 95.2927 48.2529L94.9427 48.0029L93.3027 46.9629L90.1427 44.9629C88.0527 43.5929 85.9327 42.1929 83.8627 40.7929C81.7927 39.3929 79.6627 37.9329 77.6327 36.5229C75.6027 35.1129 73.4927 33.6129 71.4627 32.1529C69.4327 30.6929 67.3727 29.1529 65.3627 27.7029C63.3527 26.2529 61.3627 24.7029 59.3627 23.1829L58.7027 22.6729C56.5667 20.928 54.2736 19.3847 51.8527 18.0629L53.6027 16.0629L96.9627 47.6829C96.8577 47.8308 96.7608 47.9844 96.6727 48.1429L96.7127 48.1329ZM70.4527 33.4329C72.4527 34.8929 74.5527 36.3629 76.6127 37.7929C78.6727 39.2229 80.7827 40.6729 82.8427 42.0629C84.9027 43.4529 87.0127 44.8629 89.1327 46.2429L91.4727 47.7429C92.6727 48.5029 93.9127 49.2929 95.1127 50.1029C94.8327 50.0329 94.5627 49.9629 94.2927 49.8729C93.7478 49.7014 93.2136 49.4977 92.6927 49.2629C91.657 48.7918 90.6547 48.2506 89.6927 47.6429C88.8627 47.1329 88.0627 46.6429 87.1727 46.0029C81.0527 41.9629 74.2027 37.2129 67.5827 32.6629L67.4927 32.6029C61.6727 28.6029 55.0727 24.0529 49.1827 20.0929C49.5862 19.8214 49.9585 19.5061 50.2927 19.1529C52.4327 19.8929 55.7127 22.4229 57.6927 23.9529L58.3527 24.4529C60.3527 25.9829 62.3527 27.4529 64.3527 28.9829C66.3527 30.5129 68.4127 31.9629 70.4527 33.4329ZM97.2827 50.4329C97.908 48.942 98.8833 47.6236 100.126 46.5896C101.369 45.5556 102.843 44.8364 104.423 44.4929C104.469 44.9985 104.469 45.5073 104.423 46.0129C103.803 50.2729 99.3527 50.5429 97.3027 50.4429L97.2827 50.4329Z" fill="#82C221"/>
</svg>
