<svg width="71" height="34" viewBox="0 0 71 34" fill="none" xmlns="http://www.w3.org/2000/svg">
<path d="M27.5942 28.92C27.5942 32.4012 24.0273 33.9999 18.3316 33.9999H9.91572C9.81843 33.9999 9.7251 33.9626 9.65617 33.8961C9.58724 33.8295 9.54831 33.7393 9.54791 33.645C9.54842 33.5553 9.58378 33.4692 9.64694 33.4036C9.7101 33.3381 9.79642 33.2981 9.88869 33.2915C11.6481 33.146 12.0505 31.8688 12.0505 30.3384V19.6389C12.0505 18.1085 11.6481 16.8298 9.88869 16.6873C9.79642 16.68 9.71028 16.6396 9.64722 16.5739C9.58416 16.5082 9.54873 16.422 9.54791 16.3323V16.3076C9.54791 16.2131 9.58666 16.1224 9.65564 16.0556C9.72462 15.9887 9.81817 15.9512 9.91572 15.9512H17.3738C23.0695 15.9512 26.1305 17.2604 26.1305 20.4128C26.1305 22.3738 24.7794 23.6132 22.6161 24.2824C25.8108 24.9486 27.5942 26.4761 27.5942 28.92ZM16.5752 16.9782V23.8649H17.6921C20.4348 23.8649 21.6313 22.5236 21.6313 20.4084C21.6313 18.6031 20.7801 16.9782 18.0119 16.9782H16.5752ZM22.7768 28.92C22.7768 26.5721 21.3386 24.8701 18.225 24.8701H16.5737V32.9947H18.225C21.3386 32.9947 22.7768 31.2927 22.7768 28.92Z" fill="#50E6C9"/>
<path d="M43.9771 28.907L43.6183 33.5883C43.6118 33.6997 43.5615 33.8044 43.4777 33.881C43.394 33.9576 43.2831 34.0001 43.168 33.9999H28.4934C28.3961 33.9999 28.3028 33.9626 28.2339 33.8961C28.1649 33.8295 28.126 33.7393 28.1256 33.645C28.1264 33.5553 28.1619 33.4691 28.2249 33.4034C28.288 33.3377 28.3741 33.2973 28.4664 33.29C30.2033 33.1446 30.6282 31.8673 30.6282 30.3384V19.6389C30.6282 18.11 30.2033 16.8313 28.4664 16.6873C28.3741 16.68 28.288 16.6396 28.2249 16.5739C28.1619 16.5082 28.1264 16.422 28.1256 16.3323V16.3076C28.1256 16.2131 28.1644 16.1224 28.2333 16.0556C28.3023 15.9887 28.3959 15.9512 28.4934 15.9512H43.1364C43.2523 15.9512 43.3638 15.9937 43.4487 16.07C43.5336 16.1463 43.5856 16.2509 43.5943 16.3629L43.9531 21.0442C43.9576 21.1046 43.9494 21.1653 43.9289 21.2225C43.9084 21.2798 43.8761 21.3324 43.834 21.3772C43.7918 21.4219 43.7407 21.4579 43.6838 21.483C43.6269 21.508 43.5652 21.5215 43.5027 21.5228C43.4063 21.5224 43.3124 21.4927 43.2343 21.4379C43.1562 21.3831 43.0978 21.3059 43.0674 21.2173C42.2147 18.7893 40.9251 16.9826 38.7273 16.9826H35.1289V24.4628H35.4756C37.684 24.4628 39.1492 24.4628 39.4644 21.5635C39.474 21.4742 39.5174 21.3916 39.5861 21.3314C39.6549 21.2713 39.7441 21.2379 39.8367 21.2376C39.8861 21.2376 39.9351 21.2471 39.9807 21.2655C40.0263 21.2838 40.0678 21.3108 40.1026 21.3447C40.1375 21.3786 40.1651 21.4189 40.1839 21.4632C40.2027 21.5074 40.2122 21.5549 40.212 21.6028V28.3542C40.212 28.4506 40.1725 28.5431 40.1021 28.6113C40.0317 28.6795 39.9363 28.7178 39.8367 28.7178C39.7443 28.7176 39.6553 28.6844 39.5866 28.6246C39.5179 28.5647 39.4744 28.4824 39.4644 28.3934C39.1492 25.4942 37.684 25.4942 35.4756 25.4942H35.1289V32.9991H38.7468C40.9446 32.9991 42.2102 31.1909 43.0614 28.7411C43.0916 28.6522 43.1499 28.5747 43.228 28.5196C43.3061 28.4646 43.4001 28.4347 43.4967 28.4342H43.5222C43.5847 28.4346 43.6463 28.4474 43.7035 28.4718C43.7606 28.4961 43.8121 28.5315 43.8546 28.5757C43.8972 28.62 43.93 28.6722 43.9511 28.7291C43.9721 28.7861 43.981 28.8466 43.9771 28.907Z" fill="#50E6C9"/>
<path d="M67.7056 19.6389V30.3427C67.7056 31.8746 68.1079 33.1533 69.8703 33.2958C69.9618 33.3024 70.0474 33.3421 70.11 33.4071C70.1726 33.4721 70.2076 33.5575 70.2081 33.6464C70.2081 33.6928 70.1987 33.7387 70.1803 33.7815C70.162 33.8243 70.1351 33.8632 70.1012 33.8959C70.0673 33.9286 70.0271 33.9545 69.9828 33.9721C69.9386 33.9897 69.8912 33.9987 69.8433 33.9985H61.0461C60.9498 33.9985 60.8573 33.9614 60.7892 33.8954C60.7211 33.8293 60.6828 33.7398 60.6828 33.6464C60.683 33.5574 60.7179 33.4718 60.7805 33.4068C60.8432 33.3417 60.929 33.3021 61.0206 33.2958C62.783 33.1504 63.1839 31.8746 63.1839 30.3427V18.3194L56.4779 30.9566H55.412L48.9191 19.0163V30.3384C48.9191 32.3997 49.4836 33.2071 51.234 33.2958C51.3271 33.3007 51.4148 33.3398 51.479 33.4053C51.5432 33.4708 51.5791 33.5576 51.5793 33.6479C51.5793 33.7412 51.5411 33.8308 51.4729 33.8968C51.4048 33.9628 51.3124 33.9999 51.216 33.9999H45.8762C45.8283 34.0001 45.7809 33.9911 45.7367 33.9735C45.6924 33.9559 45.6522 33.93 45.6183 33.8973C45.5844 33.8646 45.5575 33.8257 45.5391 33.7829C45.5208 33.7401 45.5114 33.6942 45.5114 33.6479C45.512 33.5572 45.5485 33.4702 45.6132 33.4047C45.678 33.3392 45.7662 33.3003 45.8596 33.2958C47.571 33.2056 47.8533 32.3983 47.8533 30.3384V19.6389C47.8533 18.1143 47.5725 16.8385 45.8641 16.6887C45.7685 16.6811 45.6794 16.6391 45.6141 16.571C45.5488 16.5029 45.5122 16.4136 45.5114 16.3206C45.5114 16.2721 45.5212 16.2241 45.5404 16.1792C45.5595 16.1344 45.5876 16.0937 45.623 16.0594C45.6584 16.0251 45.7005 15.9978 45.7467 15.9793C45.793 15.9607 45.8426 15.9511 45.8927 15.9511H52.1438C52.2143 15.9512 52.2834 15.9701 52.3436 16.0057C52.4037 16.0414 52.4525 16.0925 52.4846 16.1534L57.7554 26.2419L63.0788 16.1475C63.1105 16.0869 63.1591 16.0359 63.219 16.0005C63.2789 15.965 63.3478 15.9464 63.4181 15.9468H69.8298C69.9309 15.9468 70.0279 15.9857 70.0994 16.055C70.171 16.1243 70.2111 16.2183 70.2111 16.3163C70.2106 16.4092 70.1741 16.4985 70.1087 16.5664C70.0433 16.6343 69.9539 16.6759 69.8583 16.6829C68.1094 16.8313 67.7056 18.1085 67.7056 19.6389Z" fill="#50E6C9"/>
<path d="M15.3787 24.003L1.03292 16.7294C0.924809 16.675 0.804029 16.6486 0.682291 16.6528C0.560552 16.6569 0.441984 16.6915 0.33808 16.7531C0.234176 16.8147 0.14846 16.9013 0.0892401 17.0044C0.0300207 17.1076 -0.000693372 17.2238 7.51094e-05 17.3418V31.8716C0.000341128 31.9892 0.0318097 32.1047 0.0914551 32.207C0.151101 32.3094 0.236917 32.3952 0.340653 32.4561C0.44439 32.517 0.562557 32.5511 0.683794 32.5549C0.805032 32.5588 0.925261 32.5324 1.03292 32.4783L15.3787 25.2134C15.4925 25.1554 15.5878 25.0683 15.6543 24.9617C15.7208 24.855 15.7559 24.7328 15.7559 24.6082C15.7559 24.4836 15.7208 24.3614 15.6543 24.2547C15.5878 24.148 15.4925 24.061 15.3787 24.003Z" fill="#004D9A"/>
<path d="M5.5546 26.7317C5.16127 26.7317 4.87454 26.6299 4.71541 26.3884C4.45714 26.6093 4.12462 26.7314 3.78014 26.7317C2.6392 26.7317 1.81653 26.0364 1.81653 25.005C1.81653 23.9736 2.6332 23.1298 3.78164 23.2753C4.08434 23.3137 4.36557 23.4476 4.5818 23.6564V23.1589C4.5818 22.7225 4.51424 22.3646 4.03235 22.321C4.00513 22.3188 3.97973 22.3069 3.96112 22.2875C3.94252 22.2681 3.93205 22.2427 3.93177 22.2163C3.93172 22.1891 3.94244 22.1629 3.96171 22.1431C3.98098 22.1234 4.00734 22.1115 4.03535 22.1101C4.47221 22.0853 5.14326 21.9151 5.57111 21.566C5.59037 21.5501 5.61485 21.5413 5.64017 21.5413H5.69421C5.72368 21.5413 5.75193 21.5526 5.77277 21.5728C5.7936 21.593 5.8053 21.6204 5.8053 21.6489V25.6174C5.8053 25.968 5.8053 26.224 5.99296 26.2677C6.12206 26.2968 6.34575 26.1426 6.36226 26.1527C6.31613 26.3241 6.21083 26.475 6.06389 26.5804C5.91695 26.6857 5.73722 26.7391 5.5546 26.7317ZM4.50373 24.8755C4.3446 24.0027 3.98131 23.4848 3.52193 23.5662C3.06255 23.6477 2.90943 24.2529 3.07156 25.1315C3.23369 26.0102 3.59249 26.5208 4.05336 26.448C4.51424 26.3753 4.65386 25.7585 4.50373 24.8755Z" fill="#50E6C9"/>
<path d="M10.4186 25.0051C10.4186 26.0365 9.59591 26.7318 8.46698 26.7318C7.33805 26.7318 6.50037 26.0394 6.50037 25.0051C6.50037 23.9707 7.32304 23.2754 8.46248 23.2754C9.60191 23.2754 10.4186 23.9737 10.4186 25.0051ZM9.18007 24.8756C9.02994 24.0028 8.65914 23.4776 8.19826 23.5663C7.73738 23.6551 7.58726 24.253 7.74789 25.1316C7.90852 26.0103 8.26882 26.5209 8.72069 26.4481C9.17256 26.3754 9.3392 25.7586 9.18007 24.8756Z" fill="#50E6C9"/>
<path d="M10.1548 9.13713C9.78554 11.4181 7.06381 12.3535 4.78043 12.2197C2.56912 12.0815 0.390829 11.1621 0.0575553 9.56336C-0.259205 8.08245 0.79466 7.04523 2.10223 7.16307H2.13676C3.14709 7.27944 3.53891 8.47232 2.84985 9.19968C2.61265 9.44116 2.49856 9.81067 2.60365 10.3285C2.76127 11.1112 3.62148 11.5374 4.85549 11.6043C6.43629 11.6902 7.4196 10.941 7.59524 10.0391C7.85796 8.59306 6.62995 8.06499 4.73239 7.12961C2.98946 6.24513 0.776646 5.27483 0.901248 3.01128C1.05137 0.340406 3.7626 -0.0858288 5.55507 0.0334587C7.38657 0.178931 8.05012 0.890292 8.32334 0.136744C8.33749 0.0973181 8.3638 0.0630568 8.3987 0.0385984C8.43361 0.01414 8.47543 0.000665862 8.5185 0V0C8.57163 0.00020827 8.62274 0.0197722 8.66168 0.0548067C8.70061 0.0898413 8.72453 0.137784 8.72867 0.189114L8.97938 3.61063C8.98144 3.63845 8.97757 3.66638 8.96803 3.6927C8.95849 3.71901 8.94347 3.74315 8.9239 3.76361C8.90434 3.78406 8.88065 3.80041 8.85429 3.81163C8.82794 3.82285 8.79949 3.82871 8.77071 3.82884H8.62058C8.5716 3.83041 8.52358 3.81546 8.4847 3.78654C8.44582 3.75762 8.41851 3.71653 8.40741 3.67027C7.93752 1.70348 7.1779 0.795735 5.55507 0.645898C4.46667 0.544067 3.39479 1.05468 3.34225 2.07589C3.25518 3.45352 5.53705 4.25798 6.87165 4.98534C8.55753 5.86982 10.5587 6.75574 10.1548 9.13713Z" fill="#50E6C9"/>
<path d="M19.3944 9.53445C19.4345 9.56432 19.4628 9.60663 19.4745 9.65429C19.4863 9.70196 19.4808 9.75209 19.4589 9.7963C18.8509 11.0241 17.6019 12.2344 15.5257 12.2344C12.8745 12.2344 11.1181 10.5833 10.9424 8.54233C10.6977 5.80308 12.822 4.20288 15.4626 4.20288C17.7505 4.20288 19.3073 5.36666 19.3118 7.49201C19.312 7.5451 19.2923 7.59644 19.2564 7.63656C19.2206 7.67667 19.1709 7.70284 19.1166 7.71022L13.8758 8.55978C14.2842 10.6895 17.4893 11.0095 19.0911 9.54754C19.1303 9.50957 19.1825 9.48682 19.2378 9.48361C19.2932 9.48039 19.3478 9.49692 19.3914 9.53008L19.3944 9.53445ZM13.7708 7.89497L16.6501 7.41928C16.7372 5.78562 16.3499 4.71349 15.1399 4.81532C14.0335 4.91715 13.5591 6.27877 13.7708 7.89497Z" fill="#50E6C9"/>
<path d="M37.756 11.846C37.756 11.9082 37.7306 11.968 37.6853 12.0121C37.64 12.0563 37.5785 12.0813 37.5143 12.0817H32.344C32.2798 12.0813 32.2183 12.0563 32.173 12.0121C32.1278 11.968 32.1023 11.9082 32.1023 11.846C32.1025 11.7875 32.1252 11.7312 32.1661 11.6881C32.2069 11.645 32.2629 11.6183 32.323 11.6132C33.4399 11.5158 33.464 10.6589 33.3319 9.66535C33.3319 9.66535 33.0857 8.11607 32.9971 7.48327C32.8395 6.4795 32.7344 5.57758 31.5754 5.57758C30.5396 5.57758 30.2243 6.47951 30.2243 7.6011V9.66535C30.2243 10.6749 30.3654 11.5201 31.5124 11.6132C31.5728 11.618 31.6291 11.6445 31.6703 11.6876C31.7114 11.7307 31.7344 11.7873 31.7345 11.846C31.7345 11.9082 31.7091 11.968 31.6638 12.0121C31.6186 12.0563 31.5571 12.0813 31.4928 12.0817H26.3211C26.2569 12.0813 26.1954 12.0563 26.1501 12.0121C26.1048 11.968 26.0794 11.9082 26.0794 11.846C26.0796 11.787 26.1028 11.7303 26.1442 11.6872C26.1857 11.644 26.2424 11.6176 26.3031 11.6132C27.4095 11.5158 27.378 10.6735 27.378 9.66535V7.48327C27.378 6.4795 27.0972 5.57758 25.8857 5.57758C24.8349 5.57758 24.3935 6.47951 24.3935 7.6011V9.66535C24.3935 10.6735 24.362 11.5158 25.4684 11.6132C25.5291 11.6176 25.5858 11.644 25.6273 11.6872C25.6687 11.7303 25.6919 11.787 25.6921 11.846C25.6921 11.9082 25.6667 11.968 25.6214 12.0121C25.5761 12.0563 25.5146 12.0813 25.4504 12.0817H20.2982C20.2339 12.0813 20.1724 12.0563 20.1272 12.0121C20.0819 11.968 20.0565 11.9082 20.0565 11.846C20.0566 11.7875 20.0793 11.7312 20.1202 11.6881C20.161 11.645 20.217 11.6183 20.2771 11.6132C21.4106 11.5187 21.5667 10.6749 21.5667 9.66535V7.94587C21.5667 6.93629 21.4166 6.094 20.2771 5.99799C20.2169 5.99323 20.1607 5.96662 20.1198 5.92348C20.0789 5.88033 20.0563 5.82383 20.0565 5.76524V5.75796C20.0571 5.69894 20.0809 5.64236 20.123 5.59969C20.1651 5.55702 20.2223 5.53143 20.2831 5.52811C21.301 5.47574 22.8683 5.08006 23.8531 4.26396C23.8947 4.22854 23.9478 4.20846 24.0032 4.20722H24.1533C24.1853 4.20703 24.217 4.213 24.2466 4.22477C24.2762 4.23655 24.3031 4.2539 24.3257 4.27582C24.3484 4.29774 24.3663 4.3238 24.3784 4.35248C24.3906 4.38116 24.3967 4.41189 24.3965 4.44289V5.52811C24.9235 4.81239 25.7656 4.19995 27.1888 4.19995C28.4874 4.19995 29.5232 4.6771 29.9631 5.80015C30.4375 4.98259 31.2451 4.19995 32.7899 4.19995C34.5103 4.19995 35.5297 5.11934 35.8284 7.2636C36.0701 8.96708 36.1797 9.66535 36.1797 9.66535C36.2968 10.6109 36.4124 11.5114 37.5413 11.6132C37.6005 11.6194 37.6552 11.6466 37.6949 11.6896C37.7346 11.7326 37.7563 11.7883 37.756 11.846Z" fill="#50E6C9"/>
<path d="M47.6447 11.4256C47.6616 11.4701 47.6648 11.5184 47.6539 11.5647C47.6429 11.6109 47.6183 11.6531 47.5831 11.686C47.2543 11.9915 46.7274 12.2344 45.8507 12.2344C44.9019 12.2344 43.7955 11.9289 43.5328 11.1114C42.9188 12.0308 41.9355 12.2344 41.0573 12.2344C39.5996 12.2344 38.2289 11.7747 37.9842 10.5324C37.7395 9.29008 38.3881 8.13357 40.4598 7.72479C42.1111 7.40184 43.129 7.74225 42.9353 6.56101C42.7852 5.69981 42.4609 4.80079 41.5842 4.80079C40.7555 4.73824 40.2616 5.31577 40.3547 5.83801C40.4808 6.53628 39.8503 7.14726 39.1537 6.92906C39.1079 6.91488 39.0632 6.89737 39.0201 6.87669C38.5697 6.65557 38.3701 6.17987 38.6163 5.58489C39.0366 4.47784 40.5679 4.20581 41.5662 4.20581C44.375 4.20581 45.5339 5.10774 45.8507 7.252C46.0969 8.97004 46.184 9.65085 46.184 9.65085C46.2891 10.2473 46.3956 10.9266 46.5713 11.1478C46.7214 11.3281 47.0141 11.3732 47.3339 11.2816C47.3949 11.2631 47.4608 11.2678 47.5183 11.2949C47.5758 11.3219 47.6204 11.3692 47.6432 11.4271L47.6447 11.4256ZM43.3226 9.44428C43.2686 8.83184 43.1995 8.20194 43.129 7.77716C42.9878 8.04919 42.7957 8.13357 41.8994 8.37214C41.1488 8.59326 40.6174 9.22316 40.7405 10.0902C40.8636 10.8728 41.6532 11.35 42.3033 11.1798C43.147 10.9921 43.3752 10.2604 43.3226 9.44428Z" fill="#50E6C9"/>
<path d="M60.3015 11.846C60.3015 11.9085 60.2759 11.9684 60.2303 12.0126C60.1847 12.0568 60.1228 12.0817 60.0583 12.0817H54.9076C54.8432 12.0813 54.7816 12.0563 54.7361 12.0122C54.6905 11.9681 54.6648 11.9084 54.6644 11.846C54.6653 11.7871 54.6886 11.7305 54.7299 11.6873C54.7712 11.6441 54.8275 11.6172 54.8881 11.6118C56.0005 11.5129 56.0095 10.6415 55.8939 9.66535C55.8939 9.66535 55.6477 8.11607 55.5426 7.48327C55.385 6.4795 55.2619 5.56012 54.0504 5.56012C52.9995 5.56012 52.5582 6.46205 52.5582 7.59673V9.66535C52.5582 10.6749 52.6512 11.5172 53.7757 11.6132C53.8359 11.6183 53.8921 11.6449 53.9332 11.688C53.9743 11.731 53.9973 11.7874 53.9978 11.846C53.9975 11.9084 53.9717 11.9681 53.9262 12.0122C53.8807 12.0563 53.819 12.0813 53.7546 12.0817H48.4628C48.3984 12.0813 48.3368 12.0563 48.2913 12.0122C48.2457 11.9681 48.22 11.9084 48.2196 11.846C48.2201 11.7874 48.2432 11.731 48.2843 11.688C48.3253 11.6449 48.3815 11.6183 48.4418 11.6132C49.5752 11.5187 49.7298 10.6749 49.7298 9.66535V7.94587C49.7298 6.93629 49.5797 6.094 48.4418 5.99799C48.3814 5.99325 48.325 5.96669 48.2839 5.92358C48.2427 5.88047 48.2198 5.82396 48.2196 5.76524V5.75796C48.2203 5.6987 48.2443 5.64192 48.2867 5.59921C48.3291 5.5565 48.3867 5.53107 48.4478 5.52811C49.4656 5.47284 51.0329 5.06406 52.0177 4.2625C52.0597 4.22783 52.1127 4.2083 52.1678 4.20722H52.318C52.3825 4.20722 52.4443 4.23205 52.4899 4.27625C52.5355 4.32045 52.5612 4.38039 52.5612 4.44289V5.52811C53.0881 4.81239 53.9303 4.19995 55.352 4.19995C57.1264 4.19995 58.0737 5.11934 58.3905 7.2636C58.6367 8.96418 58.7237 9.66244 58.7237 9.66244C58.8558 10.608 58.9579 11.5085 60.0853 11.6089C60.1452 11.6157 60.2003 11.6436 60.2402 11.6874C60.2801 11.7311 60.3019 11.7876 60.3015 11.846Z" fill="#50E6C9"/>
<path d="M70.1901 11.4253C70.2069 11.4698 70.21 11.5181 70.199 11.5643C70.1881 11.6105 70.1637 11.6527 70.1286 11.6857C69.7998 11.9912 69.2729 12.2341 68.3962 12.2341C67.4474 12.2341 66.341 11.9286 66.0783 11.1111C65.4628 12.0305 64.4794 12.2341 63.6027 12.2341C62.145 12.2341 60.7744 11.7744 60.5297 10.5321C60.285 9.28976 60.9335 8.13325 63.0052 7.72448C64.6566 7.40153 65.6744 7.74193 65.4808 6.5607C65.3231 5.68786 65.0064 4.7903 64.1297 4.7903C63.2995 4.72774 62.8056 5.30527 62.8986 5.82751C63.0248 6.52578 62.3927 7.13677 61.6977 6.91856C61.6518 6.90438 61.6072 6.88688 61.5641 6.86619C61.1137 6.64507 60.914 6.16937 61.1602 5.57439C61.5806 4.46735 63.1118 4.19531 64.1101 4.19531C66.9189 4.19531 68.0779 5.09724 68.3947 7.24151C68.6409 8.95954 68.7279 9.64035 68.7279 9.64035C68.833 10.2368 68.9381 10.9161 69.1138 11.1373C69.2714 11.3176 69.5641 11.3627 69.8779 11.2711C69.9388 11.2526 70.0048 11.2573 70.0623 11.2844C70.1198 11.3114 70.1644 11.3587 70.1871 11.4166L70.1901 11.4253ZM65.8666 9.44396C65.814 8.83152 65.745 8.20162 65.6744 7.77685C65.5333 8.04888 65.3412 8.13325 64.4449 8.37183C63.6943 8.59295 63.1629 9.22284 63.286 10.0899C63.4091 10.8725 64.1987 11.3496 64.8487 11.1794C65.6924 10.9918 65.9206 10.2601 65.8666 9.44396Z" fill="#50E6C9"/>
</svg>
