<svg width="252" height="136" viewBox="0 0 252 136" fill="none" xmlns="http://www.w3.org/2000/svg">
<path d="M114.803 118.889C114.803 130.39 103.387 135.676 85.1581 135.676H58.2173C57.9055 135.675 57.6069 135.55 57.3865 135.33C57.166 135.109 57.0416 134.811 57.0402 134.499C57.042 134.202 57.1553 133.917 57.3576 133.7C57.56 133.483 57.8365 133.35 58.1324 133.327C63.7634 132.855 65.0254 128.635 65.0254 123.576V88.2366C65.0254 83.1783 63.7369 78.9576 58.1324 78.4804C57.8366 78.4603 57.5593 78.3287 57.3566 78.1123C57.1539 77.8958 57.0408 77.6105 57.0402 77.3139V77.2291C57.0416 76.9173 57.166 76.6188 57.3865 76.3983C57.6069 76.1779 57.9055 76.0534 58.2173 76.052H82.0775C100.312 76.052 110.105 80.3999 110.105 90.7923C110.105 97.2664 105.763 101.354 98.8592 103.571C109.093 105.787 114.803 110.814 114.803 118.889ZM79.5271 79.4614V102.208H83.1061C91.8814 102.208 95.715 97.7807 95.715 90.7923C95.715 84.8273 92.9896 79.4614 84.1295 79.4614H79.5271ZM99.3841 118.889C99.3841 111.137 94.7818 105.517 84.8135 105.517H79.5271V132.352H84.8294C94.7818 132.367 99.3841 126.747 99.3841 118.889Z" fill="#6EEDD5"/>
<path d="M167.243 118.889L166.097 134.356C166.071 134.726 165.905 135.072 165.633 135.325C165.362 135.577 165.005 135.718 164.634 135.719H117.703C117.392 135.717 117.093 135.593 116.873 135.372C116.652 135.152 116.528 134.853 116.526 134.541C116.528 134.245 116.641 133.959 116.844 133.742C117.046 133.525 117.323 133.392 117.619 133.37C123.175 132.892 124.512 128.672 124.512 123.619V88.2366C124.512 83.1836 123.149 78.963 117.619 78.4857C117.323 78.4631 117.046 78.3301 116.844 78.113C116.641 77.8959 116.528 77.6107 116.526 77.3139V77.2291C116.528 76.9173 116.652 76.6188 116.873 76.3983C117.093 76.1779 117.392 76.0534 117.703 76.052H164.576C164.947 76.0511 165.305 76.1914 165.576 76.4444C165.848 76.6974 166.013 77.0443 166.039 77.4147L167.163 92.9079C167.18 93.1104 167.155 93.3141 167.089 93.5063C167.023 93.6984 166.918 93.8748 166.78 94.0243C166.643 94.1738 166.476 94.2931 166.29 94.3748C166.104 94.4564 165.903 94.4986 165.7 94.4986C165.392 94.4975 165.092 94.3997 164.843 94.2189C164.593 94.0381 164.407 93.7836 164.31 93.4912C161.58 85.4742 157.449 79.5038 150.413 79.5038H138.913V104.212H140.021C147.094 104.212 151.781 104.212 152.789 94.6312C152.824 94.3392 152.964 94.0701 153.184 93.8747C153.404 93.6794 153.688 93.5712 153.982 93.5707C154.14 93.5707 154.296 93.6019 154.442 93.6623C154.588 93.7228 154.721 93.8115 154.833 93.9233C154.944 94.035 155.033 94.1677 155.094 94.3137C155.154 94.4598 155.185 94.6163 155.185 94.7743V117.076C155.185 117.395 155.058 117.701 154.833 117.927C154.607 118.153 154.301 118.279 153.982 118.279C153.688 118.279 153.404 118.171 153.184 117.975C152.964 117.78 152.824 117.511 152.789 117.219C151.781 107.643 147.094 107.643 140.021 107.643H138.913V132.436H150.493C157.529 132.436 161.58 126.466 164.305 118.369C164.402 118.077 164.588 117.821 164.837 117.64C165.086 117.458 165.386 117.359 165.694 117.357H165.779C165.977 117.357 166.173 117.398 166.355 117.476C166.537 117.554 166.701 117.668 166.837 117.811C166.974 117.954 167.08 118.123 167.15 118.309C167.22 118.494 167.251 118.691 167.243 118.889Z" fill="#6EEDD5"/>
<path d="M243.208 88.2362V123.592C243.208 128.65 244.497 132.876 250.133 133.348C250.423 133.373 250.692 133.506 250.888 133.72C251.084 133.934 251.193 134.214 251.194 134.504C251.194 134.813 251.071 135.11 250.852 135.329C250.633 135.547 250.337 135.67 250.027 135.67H221.883C221.574 135.669 221.278 135.546 221.059 135.327C220.841 135.109 220.718 134.813 220.716 134.504C220.718 134.214 220.827 133.935 221.023 133.721C221.219 133.507 221.488 133.374 221.777 133.348C227.418 132.876 228.701 128.65 228.701 123.592V83.8936L207.233 125.638H203.828L183.038 86.1895V123.592C183.038 130.405 184.846 133.067 190.461 133.364C190.76 133.379 191.041 133.508 191.247 133.724C191.453 133.94 191.569 134.226 191.57 134.525C191.57 134.834 191.447 135.131 191.228 135.35C191.009 135.569 190.712 135.692 190.403 135.692H173.324C173.015 135.692 172.718 135.569 172.5 135.35C172.281 135.131 172.158 134.834 172.158 134.525C172.159 134.225 172.275 133.937 172.482 133.72C172.689 133.503 172.972 133.374 173.271 133.359C178.749 133.062 179.634 130.395 179.634 123.592V88.2362C179.634 83.1991 178.733 78.9837 173.271 78.4853C172.966 78.4627 172.68 78.3257 172.47 78.1017C172.261 77.8776 172.144 77.583 172.142 77.2764C172.142 76.953 172.271 76.6428 172.499 76.4141C172.728 76.1854 173.038 76.0569 173.362 76.0569H193.372C193.598 76.0575 193.819 76.1208 194.011 76.2397C194.203 76.3586 194.358 76.5284 194.459 76.7303L211.331 110.05L228.367 76.725C228.47 76.5249 228.626 76.3568 228.818 76.239C229.009 76.1212 229.229 76.0582 229.454 76.0569H249.995C250.319 76.0569 250.629 76.1854 250.858 76.4141C251.086 76.6428 251.215 76.953 251.215 77.2764C251.214 77.5839 251.098 77.8799 250.888 78.105C250.679 78.3302 250.392 78.4679 250.086 78.4906C244.486 78.9731 243.208 83.1937 243.208 88.2362Z" fill="#6EEDD5"/>
<path d="M75.2852 102.452L30.1257 78.8407C29.747 78.6481 29.3253 78.5556 28.9007 78.5719C28.4762 78.5882 28.0628 78.7128 27.7 78.9338C27.3371 79.1548 27.0368 79.4649 26.8275 79.8347C26.6182 80.2045 26.5069 80.6216 26.5043 81.0465V128.269C26.5037 128.698 26.6139 129.119 26.8242 129.493C27.0345 129.867 27.3378 130.181 27.7046 130.403C28.0715 130.625 28.4896 130.749 28.9184 130.763C29.3472 130.776 29.7722 130.679 30.1522 130.48L75.2852 106.869C75.6885 106.658 76.0264 106.34 76.2622 105.951C76.4979 105.562 76.6226 105.115 76.6226 104.66C76.6226 104.205 76.4979 103.759 76.2622 103.369C76.0264 102.98 75.6885 102.663 75.2852 102.452Z" fill="#004D9A"/>
<path d="M44.262 111.683C43.0053 111.683 42.088 111.344 41.579 110.543C40.7526 111.275 39.6873 111.681 38.5832 111.683C34.93 111.683 32.3 109.387 32.3 105.978C32.3 102.568 34.9088 99.7689 38.5832 100.273C39.5506 100.403 40.4494 100.844 41.1442 101.529V99.8855C41.1442 98.4592 40.9322 97.2662 39.3892 97.123C39.3011 97.1164 39.2187 97.0765 39.1587 97.0116C39.0987 96.9467 39.0655 96.8615 39.0658 96.7731C39.0656 96.6838 39.0995 96.5979 39.1606 96.5329C39.2217 96.4678 39.3054 96.4286 39.3945 96.4232C41.1725 96.3174 42.8809 95.6945 44.3097 94.631C44.372 94.5779 44.4506 94.5479 44.5324 94.5461H44.7074C44.7998 94.5475 44.888 94.5848 44.9533 94.6502C45.0186 94.7155 45.056 94.8037 45.0573 94.8961V108.009C45.0573 109.17 45.0838 110.013 45.6618 110.156C46.0754 110.257 46.7912 109.748 46.8442 109.774C46.6968 110.34 46.3602 110.838 45.8903 111.185C45.4204 111.532 44.8458 111.708 44.262 111.683ZM40.8791 105.57C40.3489 102.69 39.2089 100.973 37.7349 101.216C36.2608 101.46 35.7783 103.486 36.2874 106.386C36.7964 109.286 37.9523 110.983 39.4263 110.739C40.9003 110.495 41.3828 108.465 40.8791 105.57Z" fill="#6EEDD5"/>
<path d="M59.8295 105.977C59.8295 109.387 57.1783 111.682 53.5675 111.682C49.9566 111.682 47.2843 109.387 47.2843 105.977C47.2843 102.568 49.9354 100.272 53.5675 100.272C57.1996 100.272 59.8295 102.568 59.8295 105.977ZM55.8634 105.569C55.3332 102.663 54.1932 100.951 52.7191 101.216C51.2451 101.481 50.7626 103.485 51.2716 106.385C51.7806 109.286 52.9365 110.983 54.3893 110.739C55.8422 110.495 56.3724 108.464 55.8634 105.569Z" fill="#6EEDD5"/>
<path d="M58.9811 53.559C57.7881 61.0935 49.087 64.1847 41.7805 63.7447C34.6967 63.294 27.7295 60.2611 26.6584 54.9747C25.651 50.086 29.0179 46.6554 33.1802 47.0531H33.2916C36.526 47.4402 37.7773 51.3638 35.5768 53.7605C34.8398 54.5664 34.474 55.7859 34.808 57.4721C35.3382 60.0596 38.0689 61.4647 42.0032 61.7139C47.0616 61.9949 50.2111 59.524 50.7732 56.5442C51.6162 51.7721 47.6819 50.0224 41.6108 46.9311C36.0487 44.0043 28.9649 40.8017 29.3573 33.3255C29.861 24.5078 38.5196 23.0974 44.2514 23.4898C50.1157 23.967 52.2366 26.3212 53.1115 23.8291C53.1574 23.6981 53.2426 23.5845 53.3556 23.5038C53.4685 23.4232 53.6036 23.3794 53.7424 23.3784C53.9089 23.3774 54.0698 23.4381 54.1942 23.5487C54.3185 23.6594 54.3975 23.8122 54.4158 23.9776L55.2165 35.282C55.2238 35.3741 55.212 35.4667 55.1817 35.554C55.1514 35.6413 55.1034 35.7213 55.0406 35.7891C54.9778 35.8569 54.9016 35.9109 54.8169 35.9477C54.7322 35.9846 54.6408 36.0034 54.5484 36.0031H54.0765C53.9238 36.0018 53.776 35.9486 53.6575 35.8523C53.539 35.7559 53.4568 35.6222 53.4243 35.4729C51.8813 29.0041 49.4529 26.0031 44.2514 25.5152C40.7678 25.1759 37.3584 26.862 37.1728 30.2343C36.8918 34.7889 44.1983 37.4295 48.4667 39.8473C53.8644 42.7689 60.2748 45.7169 58.9811 53.559Z" fill="#6EEDD5"/>
<path d="M88.5416 54.8694C88.6696 54.9695 88.7593 55.1104 88.796 55.2686C88.8326 55.4268 88.814 55.5928 88.7431 55.739C86.7972 59.7899 82.7993 63.7931 76.1555 63.7931C67.6719 63.7931 62.0462 58.3371 61.4841 51.5979C60.6994 42.5522 67.4969 37.2817 75.9328 37.2817C83.2553 37.2817 88.2394 41.11 88.25 48.1461C88.2483 48.3154 88.1866 48.4786 88.076 48.6068C87.9653 48.7349 87.8128 48.8197 87.6456 48.846L70.8692 51.6721C72.1788 58.7082 82.4387 59.7634 87.566 54.933C87.6926 54.8098 87.8596 54.7366 88.0359 54.7268C88.2123 54.7171 88.3863 54.7715 88.5257 54.88L88.5416 54.8694ZM70.5139 49.4611L79.7293 47.8704C80.0103 42.4727 78.7748 38.9307 74.8989 39.2701C71.3994 39.62 69.8829 44.127 70.5563 49.4611H70.5139Z" fill="#6EEDD5"/>
<path d="M147.333 62.5044C147.333 62.7097 147.251 62.9066 147.106 63.0518C146.961 63.197 146.764 63.2785 146.559 63.2785H130.01C129.805 63.2785 129.608 63.197 129.463 63.0518C129.318 62.9066 129.236 62.7097 129.236 62.5044C129.237 62.3114 129.309 62.1256 129.44 61.9833C129.57 61.8411 129.749 61.7527 129.942 61.7356C133.515 61.4174 133.589 58.586 133.171 55.3039C133.171 55.3039 132.381 50.1872 132.11 48.1087C131.58 44.7948 131.267 41.8149 127.561 41.8149C124.242 41.8149 123.229 44.7948 123.229 48.5011V55.3039C123.229 58.639 123.68 61.428 127.354 61.7409C127.547 61.7568 127.727 61.8446 127.859 61.987C127.99 62.1293 128.064 62.3159 128.065 62.5097C128.065 62.6118 128.044 62.7129 128.005 62.8072C127.966 62.9014 127.908 62.987 127.836 63.059C127.763 63.1309 127.677 63.1878 127.583 63.2264C127.488 63.265 127.387 63.2845 127.285 63.2838H110.742C110.537 63.2838 110.34 63.2023 110.195 63.0571C110.049 62.9119 109.968 62.715 109.968 62.5097C109.969 62.3145 110.042 62.1266 110.175 61.9832C110.308 61.8399 110.489 61.7515 110.684 61.7356C114.226 61.4174 114.125 58.6337 114.125 55.3039V48.1087C114.125 44.7948 113.223 41.8149 109.353 41.8149C105.981 41.8149 104.581 44.7948 104.581 48.5011V55.3039C104.581 58.6337 104.48 61.4174 108.022 61.7356C108.216 61.7515 108.398 61.8399 108.531 61.9832C108.663 62.1266 108.737 62.3145 108.738 62.5097C108.738 62.715 108.656 62.9119 108.511 63.0571C108.366 63.2023 108.169 63.2838 107.964 63.2838H91.4735C91.3714 63.2845 91.2702 63.265 91.1756 63.2264C91.0811 63.1878 90.9951 63.1309 90.9227 63.059C90.8502 62.987 90.7927 62.9014 90.7535 62.8072C90.7143 62.7129 90.6941 62.6118 90.6941 62.5097C90.6958 62.3156 90.7694 62.1291 90.9006 61.9862C91.0318 61.8432 91.2114 61.7539 91.4046 61.7356C95.0313 61.4227 95.5297 58.639 95.5297 55.3039V49.6252C95.5297 46.29 95.0313 43.5063 91.4046 43.1935C91.2062 43.1841 91.0189 43.0992 90.8809 42.9563C90.7429 42.8134 90.6647 42.6233 90.6623 42.4247V42.3982C90.6607 42.1996 90.7359 42.0081 90.8723 41.8638C91.0087 41.7195 91.1956 41.6336 91.394 41.624C94.6496 41.449 99.6655 40.1394 102.815 37.4458C102.955 37.3286 103.131 37.2631 103.313 37.2603H103.769C103.976 37.2603 104.174 37.3424 104.321 37.4885C104.467 37.6347 104.549 37.833 104.549 38.0397V41.6452C106.235 39.2857 108.934 37.2603 113.483 37.2603C117.646 37.2603 120.959 38.8509 122.365 42.5625C123.886 39.8637 126.469 37.2603 131.416 37.2603C136.925 37.2603 140.186 40.2985 141.14 47.377C141.925 52.9974 142.264 55.3304 142.264 55.3304C142.635 58.4534 143.006 61.428 146.617 61.7621C146.807 61.7763 146.985 61.8598 147.117 61.9967C147.249 62.1336 147.326 62.3143 147.333 62.5044Z" fill="#6EEDD5"/>
<path d="M178.982 61.0939C179.038 61.2413 179.049 61.4018 179.014 61.5554C178.979 61.709 178.9 61.849 178.786 61.9581C177.726 62.9656 176.045 63.7715 173.24 63.7715C170.207 63.7715 166.665 62.7588 165.817 60.0599C163.85 63.0928 160.7 63.7715 157.89 63.7715C153.224 63.7715 148.844 62.2498 148.054 58.1511C147.264 54.0525 149.353 50.2454 155.986 48.8986C161.289 47.8382 164.528 48.957 163.913 45.081C163.383 42.2125 162.392 39.2485 159.581 39.2485C156.93 39.0364 155.34 40.9452 155.647 42.6738C156.05 44.9803 154.03 47.0163 151.803 46.274C151.659 46.2253 151.517 46.1686 151.379 46.1043C149.915 45.3779 149.295 43.8032 150.085 41.8625C151.432 38.2093 156.321 37.3079 159.528 37.3079C168.542 37.3079 172.254 40.2877 173.24 47.3822C174.03 53.0556 174.301 55.3038 174.301 55.3038C174.635 57.2709 174.974 59.5456 175.536 60.2508C176.066 60.85 176.957 60.9931 177.98 60.6962C178.174 60.6334 178.384 60.6466 178.568 60.7333C178.753 60.82 178.897 60.9736 178.972 61.1628L178.982 61.0939ZM165.149 54.5721C164.979 52.5466 164.756 50.4681 164.528 49.063C164.078 49.9644 163.468 50.2454 160.594 51.0302C158.176 51.7619 156.49 53.8404 156.883 56.7089C157.28 59.2964 159.809 60.8659 161.888 60.3038C164.587 59.6888 165.319 57.2709 165.149 54.5721Z" fill="#6EEDD5"/>
<path d="M219.507 62.5044C219.507 62.7097 219.425 62.9066 219.28 63.0518C219.135 63.197 218.938 63.2785 218.733 63.2785H202.243C202.141 63.2792 202.039 63.2597 201.945 63.2211C201.85 63.1825 201.764 63.1256 201.692 63.0537C201.62 62.9817 201.562 62.8961 201.523 62.8019C201.484 62.7076 201.463 62.6065 201.463 62.5044C201.465 62.3095 201.54 62.1223 201.672 61.9792C201.804 61.8361 201.985 61.7474 202.179 61.7303C205.742 61.4015 205.769 58.5489 205.398 55.2986C205.398 55.2986 204.613 50.1819 204.274 48.1034C203.77 44.7895 203.378 41.7407 199.502 41.7407C196.129 41.7407 194.729 44.7206 194.729 48.4852V55.288C194.729 58.6231 195.032 61.4068 198.632 61.7197C198.825 61.7381 199.004 61.8276 199.134 61.9707C199.264 62.1137 199.337 62.3002 199.337 62.4938C199.337 62.6991 199.256 62.896 199.11 63.0412C198.965 63.1864 198.768 63.2679 198.563 63.2679H181.601C181.396 63.2679 181.199 63.1864 181.054 63.0412C180.909 62.896 180.827 62.6991 180.827 62.4938C180.827 62.2994 180.901 62.1122 181.032 61.969C181.164 61.8258 181.344 61.7368 181.537 61.7197C185.164 61.4068 185.657 58.6231 185.657 55.288V49.6252C185.657 46.29 185.164 43.5063 181.537 43.1935C181.345 43.1764 181.165 43.0882 181.034 42.9461C180.903 42.804 180.829 42.6182 180.827 42.4247V42.3982C180.825 42.2005 180.9 42.0098 181.035 41.8656C181.17 41.7214 181.356 41.6349 181.553 41.624C184.814 41.4437 189.83 40.0917 192.98 37.4405C193.118 37.324 193.292 37.2602 193.473 37.2603H193.934C194.036 37.2603 194.137 37.2804 194.232 37.3197C194.326 37.3589 194.411 37.4164 194.483 37.4889C194.555 37.5613 194.612 37.6473 194.651 37.7418C194.689 37.8363 194.709 37.9376 194.708 38.0397V41.6452C196.394 39.2857 199.093 37.2603 203.648 37.2603C209.321 37.2603 212.36 40.2985 213.372 47.377C214.157 52.9974 214.433 55.3304 214.433 55.3304C214.857 58.4534 215.18 61.428 218.786 61.7621C218.977 61.775 219.156 61.858 219.289 61.995C219.422 62.1321 219.5 62.3135 219.507 62.5044Z" fill="#6EEDD5"/>
<path d="M251.152 61.0939C251.207 61.2418 251.217 61.4026 251.181 61.5562C251.145 61.7099 251.065 61.8496 250.951 61.9581C249.89 62.9656 248.215 63.7715 245.41 63.7715C242.372 63.7715 238.83 62.7588 237.987 60.0599C236.019 63.0928 232.875 63.7715 230.065 63.7715C225.399 63.7715 221.014 62.2498 220.224 58.1511C219.434 54.0525 221.518 50.2454 228.151 48.8986C233.453 47.8382 236.698 48.957 236.078 45.081C235.548 42.2125 234.561 39.2485 231.751 39.2485C229.1 39.0364 227.509 40.9452 227.812 42.6738C228.214 44.9803 226.194 47.0163 223.973 46.274C223.826 46.2262 223.683 46.1695 223.543 46.1043C222.08 45.3779 221.465 43.8032 222.249 41.8625C223.596 38.2093 228.49 37.3079 231.693 37.3079C240.707 37.3079 244.418 40.2877 245.41 47.3822C246.195 53.0556 246.47 55.3038 246.47 55.3038C246.81 57.2709 247.144 59.5456 247.706 60.2508C248.209 60.85 249.127 60.9931 250.15 60.6909C250.345 60.63 250.556 60.6454 250.74 60.734C250.924 60.8225 251.068 60.9777 251.142 61.1681L251.152 61.0939ZM237.313 54.5509C237.144 52.5254 236.921 50.4469 236.698 49.0418C236.247 49.9432 235.638 50.2242 232.759 51.0089C230.346 51.7407 228.66 53.8192 229.047 56.6877C229.439 59.2752 231.969 60.8447 234.047 60.2826C236.751 59.6888 237.483 57.2709 237.313 54.5721V54.5509Z" fill="#6EEDD5"/>
<path d="M6.35601 40.2241C6.32952 40.8016 6.12588 41.357 5.77276 41.8148C5.61865 42.0089 5.42701 42.17 5.20929 42.2884C4.99156 42.4068 4.75221 42.4802 4.50551 42.5041L4.38886 41.6928C4.56137 41.6778 4.72909 41.6282 4.88211 41.5472C5.03512 41.4661 5.1703 41.3552 5.27964 41.2209C5.52083 40.9174 5.66331 40.5473 5.68792 40.1605C5.70105 40.0247 5.70105 39.888 5.68792 39.7522C5.67728 39.6239 5.65056 39.4974 5.60839 39.3757C5.56916 39.2597 5.5119 39.1505 5.43871 39.0523C5.356 38.9527 5.25052 38.8745 5.13118 38.8243C5.00519 38.7626 4.86822 38.7266 4.72821 38.7182C4.63012 38.6995 4.52937 38.6995 4.43128 38.7182C4.25497 38.7612 4.09815 38.862 3.98589 39.0046C3.92483 39.0808 3.86818 39.1605 3.81622 39.2432C3.75608 39.3354 3.70461 39.433 3.66245 39.5348C3.60413 39.662 3.56171 39.7681 3.52989 39.8529C3.49808 39.9378 3.45566 40.0544 3.39734 40.1976V40.2612C3.33901 40.4256 3.28599 40.5581 3.24357 40.6642C3.20115 40.7702 3.14813 40.8869 3.0739 41.03C3.0164 41.152 2.94901 41.269 2.87241 41.38C2.80082 41.4785 2.721 41.5707 2.63381 41.6557C2.5523 41.7485 2.45317 41.8242 2.34218 41.8784C2.22797 41.9338 2.10663 41.973 1.98163 41.995C1.83395 42.0166 1.68392 42.0166 1.53624 41.995C1.20004 41.9735 0.87996 41.8432 0.624247 41.6239C0.375993 41.4163 0.192062 41.1422 0.094019 40.8338C-0.0120266 40.4175 -0.0285793 39.9835 0.0454531 39.5603C0.119486 39.1371 0.28242 38.7345 0.523503 38.3789C0.663068 38.1891 0.840868 38.0306 1.04544 37.9137C1.25001 37.7968 1.47681 37.7241 1.71121 37.7002L1.83317 38.4743C1.68059 38.4925 1.53313 38.5407 1.39934 38.6163C1.26554 38.6918 1.14807 38.7931 1.05373 38.9144C0.772192 39.3271 0.654952 39.8301 0.72499 40.3248C0.747521 40.4728 0.794088 40.6161 0.862849 40.749C0.928761 40.8814 1.0296 40.9932 1.15447 41.0724C1.29115 41.1612 1.44797 41.2141 1.61047 41.2262C1.69809 41.2425 1.78796 41.2425 1.87558 41.2262C1.95126 41.2046 2.0242 41.1743 2.09298 41.1361C2.15813 41.0836 2.2122 41.0187 2.25205 40.9452C2.30927 40.8777 2.36239 40.8069 2.41111 40.7331C2.46451 40.6451 2.51061 40.5529 2.54897 40.4574C2.602 40.3407 2.63911 40.24 2.67623 40.1605L2.79288 39.8317C2.93563 39.4351 3.11306 39.0519 3.32311 38.6864C3.44074 38.4603 3.61386 38.2677 3.82622 38.1268C4.03859 37.9858 4.28327 37.9011 4.53733 37.8805C4.62739 37.8753 4.71768 37.8753 4.80774 37.8805C5.08205 37.9002 5.34758 37.9857 5.58187 38.1297C5.79396 38.2585 5.96785 38.4415 6.08559 38.6599C6.20839 38.8823 6.29096 39.1246 6.3295 39.3757C6.37723 39.6559 6.38615 39.9414 6.35601 40.2241Z" fill="white"/>
<path d="M7.77692 32.5515L6.21805 32.6841L5.50224 35.3829L6.796 36.2684L6.58391 37.0584L1.2074 33.2885L1.446 32.3818L7.98901 31.7615L7.77692 32.5515ZM4.89778 34.964L5.48103 32.7477L2.11409 33.034L4.89778 34.964Z" fill="white"/>
<path d="M4.67503 24.0687L5.00377 23.3635L10.5977 25.9828L10.2477 26.7305L4.30917 27.6213L8.82141 29.7422L8.47676 30.4368L2.91467 27.8174L3.25932 27.0751L9.17136 26.1737L4.67503 24.0687Z" fill="white"/>
<path d="M8.47668 18.0186L9.06523 18.4215L8.14794 19.7365L12.6602 22.8012L12.2201 23.4481L7.71315 20.3834L6.82237 21.693L6.22852 21.2954L8.47668 18.0186Z" fill="white"/>
<path d="M16.791 17.7742L15.3699 17.1804L13.5035 19.2536L14.2459 20.6321L13.7156 21.2419L10.5979 15.4253L11.2289 14.7307L17.3318 17.1698L16.791 17.7742ZM13.1271 18.6067L14.6647 16.8993L11.4834 15.6056L13.1271 18.6067Z" fill="white"/>
<path d="M20.1419 8.1665L18.0688 9.61933L19.2193 11.2524L21.0274 9.98518L21.4357 10.5631L19.6117 11.8516L21.2024 14.0838L20.5502 14.5451L17.0083 9.49737L19.739 7.58325L20.1419 8.1665Z" fill="white"/>
<path d="M25.0678 5.49406L22.8409 6.63935L23.7635 8.43682L25.7253 7.42409L26.0488 8.07096L24.0869 9.0837L25.0095 10.8759L27.2365 9.72527L27.5652 10.3615L24.6224 11.8727L21.8016 6.37424L24.7391 4.85778L25.0678 5.49406ZM23.5514 3.47389L23.1961 4.93202L22.7348 5.17062L23.0583 3.39966L23.5514 3.47389Z" fill="white"/>
<path d="M32.9472 6.97876L35.3173 6.3584L35.6726 7.72108L31.1657 8.90349L30.8581 7.74229L32.6715 4.59804C32.7689 4.45533 32.8365 4.29442 32.8702 4.12495C32.9039 3.95548 32.9031 3.78095 32.8677 3.61182C32.8517 3.53357 32.8193 3.45959 32.7727 3.39471C32.7261 3.32984 32.6663 3.27554 32.5973 3.23536C32.4265 3.17058 32.2379 3.17058 32.0671 3.23536C31.9711 3.25418 31.88 3.29202 31.7989 3.34666C31.7178 3.40131 31.6486 3.47163 31.5951 3.55349C31.5088 3.76598 31.5088 4.00379 31.5951 4.21628L31.7171 4.67758L30.1264 4.92148L30.0575 4.65106C29.9591 4.37639 29.9223 4.08342 29.9498 3.79293C29.9773 3.50245 30.0683 3.22158 30.2166 2.97024C30.5691 2.46885 31.1004 2.12161 31.7012 1.99993C32.2683 1.82729 32.8769 1.84969 33.4297 2.06355C33.6707 2.16943 33.8833 2.33077 34.0501 2.53441C34.2168 2.73805 34.3331 2.97823 34.3894 3.23536C34.4582 3.52293 34.4582 3.82265 34.3894 4.11023C34.306 4.44166 34.1757 4.75947 34.0024 5.05404L32.9472 6.97876Z" fill="white"/>
<path d="M36.224 1.10394L40.8211 0.647949L40.9377 1.84096L38.7002 7.32882L36.908 7.50909L39.1562 2.23863L36.3619 2.51435L36.224 1.10394Z" fill="white"/>
<path d="M49.8343 7.76905L49.601 6.52832L47.0559 6.14656L46.4727 7.26004L44.8077 7.01083L48.1058 0.998047L50.1365 1.30028L51.5204 8.01826L49.8343 7.76905ZM47.7134 4.8581L49.3041 5.09671L48.8481 2.67357L47.7134 4.8581Z" fill="white"/>
<path d="M58.7901 3.76558L60.3808 4.33823L58.1644 10.3828L56.3033 9.70413L55.4337 4.93208L53.9968 8.85046L52.4061 8.27782L54.6066 2.23853L56.4518 2.91191L57.3478 7.68396L58.7901 3.76558Z" fill="white"/>
<path d="M63.6736 13.2675C63.0737 13.2225 62.4944 13.0294 61.9875 12.7055C61.4742 12.3949 61.0446 11.9635 60.7362 11.4488C60.4536 10.9583 60.3175 10.3971 60.3438 9.83164C60.3674 9.22912 60.5503 8.64365 60.874 8.13491C61.1821 7.6092 61.6251 7.17536 62.1572 6.87827C62.6521 6.60468 63.2154 6.4795 63.7797 6.51771C64.3762 6.57183 64.9519 6.76441 65.4609 7.08014C65.9699 7.39586 66.3983 7.82602 66.7118 8.33639C66.9919 8.81846 67.1297 9.36994 67.1095 9.92708C67.085 10.5327 66.9022 11.1214 66.5793 11.6344C66.2697 12.1544 65.8291 12.5841 65.3014 12.8804C64.8066 13.1614 64.242 13.2957 63.6736 13.2675ZM62.7881 11.417C62.9766 11.5416 63.1888 11.6262 63.4113 11.6654C63.6339 11.7046 63.8621 11.6977 64.0819 11.645C64.3117 11.5812 64.5266 11.4724 64.7141 11.325C64.9016 11.1775 65.058 10.9944 65.1742 10.786C65.3099 10.5903 65.4047 10.3692 65.453 10.136C65.5013 9.90276 65.502 9.66219 65.4552 9.42866C65.4059 9.2075 65.3112 8.99901 65.177 8.81644C65.0428 8.63388 64.8721 8.48123 64.6757 8.36821C64.489 8.24191 64.2776 8.15674 64.0555 8.11835C63.8333 8.07996 63.6056 8.08922 63.3873 8.14551C63.1575 8.20931 62.9426 8.31808 62.7551 8.46553C62.5676 8.61298 62.4112 8.79617 62.295 9.00448C62.1604 9.20074 62.0662 9.42185 62.018 9.6549C61.9697 9.88796 61.9684 10.1283 62.014 10.3619C62.0627 10.5819 62.1567 10.7893 62.29 10.971C62.4232 11.1526 62.5929 11.3045 62.7881 11.417Z" fill="white"/>
<path d="M67.3585 16.7619C67.0281 16.4701 66.7549 16.1195 66.5526 15.7279C66.3649 15.376 66.2718 14.9814 66.2822 14.5826C66.2992 14.1816 66.4298 13.7936 66.6586 13.4638L68.2069 14.3334C68.1095 14.435 68.0345 14.5559 67.9868 14.6883C67.939 14.8206 67.9194 14.9615 67.9294 15.1019C67.9394 15.2423 67.9787 15.379 68.0448 15.5033C68.1108 15.6275 68.2022 15.7366 68.3129 15.8234C68.4387 15.9523 68.6057 16.033 68.7848 16.0514C68.8654 16.0539 68.9455 16.038 69.019 16.0049C69.0925 15.9718 69.1575 15.9224 69.209 15.8605C69.2571 15.8042 69.2921 15.7378 69.3114 15.6663C69.3306 15.5947 69.3337 15.5198 69.3204 15.4469C69.3099 15.2947 69.2722 15.1456 69.209 15.0068C69.156 14.8902 69.0446 14.6887 68.8909 14.4077V14.3705C68.8926 14.3582 68.8926 14.3457 68.8909 14.3334V14.291L68.6894 13.9251C68.6417 13.8297 68.5833 13.7025 68.5197 13.554C68.4602 13.4296 68.4123 13.3001 68.3766 13.1669C68.3472 13.0394 68.326 12.9101 68.3129 12.7799C68.294 12.6497 68.294 12.5176 68.3129 12.3875C68.344 12.2553 68.3902 12.1272 68.4508 12.0057C68.5206 11.8649 68.6098 11.7346 68.7159 11.6187C68.8891 11.4112 69.1094 11.248 69.3584 11.1429C69.6075 11.0378 69.878 10.9936 70.1475 11.0142C70.7487 11.0782 71.3099 11.3457 71.7382 11.7724C71.9498 11.9672 72.14 12.1841 72.3055 12.4193C72.4649 12.6489 72.5932 12.8985 72.6873 13.1616C72.7779 13.431 72.8104 13.7165 72.7827 13.9994C72.7457 14.3035 72.6445 14.5963 72.4858 14.8583L71.033 14.0736C71.1091 13.9862 71.1668 13.8844 71.2026 13.7741C71.2383 13.6639 71.2514 13.5476 71.241 13.4321C71.2306 13.3167 71.1969 13.2046 71.142 13.1025C71.0872 13.0004 71.0122 12.9105 70.9217 12.8382C70.7774 12.6931 70.5925 12.5951 70.3914 12.5572C70.3109 12.5442 70.2284 12.5525 70.1521 12.5814C70.0758 12.6102 70.0084 12.6585 69.9566 12.7215C69.9123 12.7673 69.8859 12.8276 69.8824 12.8912C69.8691 12.9559 69.8691 13.0227 69.8824 13.0874C69.9033 13.1735 69.9335 13.2571 69.9725 13.3366C70.0203 13.4373 70.068 13.5275 70.1104 13.607C70.163 13.7109 70.2215 13.8118 70.2854 13.9092C70.3156 13.9694 70.3493 14.0278 70.3861 14.0842C70.4497 14.2009 70.5028 14.2963 70.5452 14.3811L70.699 14.6781C70.7573 14.8 70.7997 14.9061 70.8368 15.0015C70.8739 15.0969 70.9004 15.1977 70.9376 15.3196C70.9674 15.4274 70.9887 15.5373 71.0012 15.6484C71.0093 15.7578 71.0093 15.8677 71.0012 15.9771C70.9948 16.0908 70.9734 16.2031 70.9376 16.3112C70.9024 16.4241 70.8543 16.5326 70.7944 16.6346C70.728 16.7485 70.6498 16.8552 70.5611 16.9527C70.3515 17.1867 70.09 17.3683 69.7976 17.483C69.5322 17.5832 69.2457 17.6142 68.9651 17.5731C68.6782 17.5286 68.4006 17.4372 68.1433 17.3027C67.8584 17.1588 67.5944 16.9768 67.3585 16.7619Z" fill="white"/>
<path d="M42.7084 75.9404C36.8598 75.9357 31.1227 74.3393 26.1123 71.3222C21.1019 68.3051 17.0072 63.9813 14.2672 58.8142C11.5272 53.6471 10.2452 47.8317 10.5587 41.9914C10.8721 36.1512 12.7693 30.5064 16.0467 25.6623C19.3241 20.8182 23.8581 16.9575 29.1627 14.4941C34.4672 12.0307 40.3422 11.0576 46.1578 11.679C51.9733 12.3004 57.51 14.4929 62.1743 18.0215C66.8386 21.5501 70.4546 26.2816 72.6345 31.7089L72.2898 31.852C69.7668 25.5771 65.3121 20.2679 59.5708 16.6933C53.8294 13.1186 47.0994 11.464 40.3551 11.9689C33.6108 12.4739 27.2021 15.1122 22.0571 19.5019C16.912 23.8916 13.2976 29.8048 11.737 36.3855C10.1765 42.9662 10.7508 49.8728 13.3768 56.1054C16.0029 62.3379 20.5444 67.573 26.3438 71.0526C32.1433 74.5322 38.8996 76.0757 45.6347 75.4598C52.3698 74.8438 58.7341 72.1003 63.8062 67.6265L64.0501 67.9075C58.1549 73.1 50.5643 75.9571 42.7084 75.9404Z" fill="#6EEDD5"/>
</svg>
