<svg width="440" height="237" viewBox="0 0 440 237" fill="none" xmlns="http://www.w3.org/2000/svg">
<path d="M201.076 207.152C201.076 227.295 181.082 236.554 149.154 236.554H101.967C101.421 236.552 100.898 236.334 100.512 235.948C100.126 235.561 99.9077 235.038 99.9053 234.492C99.9084 233.973 100.107 233.473 100.461 233.093C100.816 232.713 101.3 232.48 101.818 232.44C111.681 231.614 113.891 224.221 113.891 215.361V153.465C113.891 144.605 111.635 137.212 101.818 136.377C101.3 136.341 100.815 136.111 100.46 135.732C100.104 135.353 99.9064 134.853 99.9053 134.334V134.185C99.9077 133.639 100.126 133.116 100.512 132.73C100.898 132.344 101.421 132.126 101.967 132.123H143.758C175.695 132.123 192.848 139.739 192.848 157.941C192.848 169.28 185.242 176.44 173.151 180.322C191.074 184.204 201.076 193.008 201.076 207.152ZM139.291 138.095V177.935H145.56C160.929 177.935 167.644 170.181 167.644 157.941C167.644 147.493 162.87 138.095 147.352 138.095H139.291ZM174.07 207.152C174.07 193.574 166.009 183.73 148.55 183.73H139.291V230.731H148.578C166.009 230.759 174.07 220.915 174.07 207.152Z" fill="#50E6C9"/>
<path d="M292.924 207.152L290.918 234.242C290.871 234.89 290.58 235.496 290.105 235.939C289.63 236.381 289.004 236.628 288.354 236.628H206.156C205.61 236.626 205.087 236.408 204.701 236.022C204.315 235.636 204.097 235.113 204.095 234.567C204.098 234.047 204.296 233.547 204.651 233.167C205.005 232.787 205.49 232.554 206.008 232.514C215.74 231.679 218.081 224.286 218.081 215.436V153.465C218.081 144.614 215.694 137.222 206.008 136.386C205.49 136.346 205.005 136.113 204.651 135.733C204.296 135.353 204.098 134.853 204.095 134.334V134.185C204.097 133.639 204.315 133.116 204.701 132.73C205.087 132.344 205.61 132.126 206.156 132.123H288.252C288.903 132.122 289.529 132.367 290.005 132.811C290.481 133.254 290.771 133.861 290.816 134.51L292.784 161.646C292.814 162.001 292.77 162.358 292.654 162.694C292.539 163.031 292.355 163.34 292.114 163.602C291.873 163.863 291.58 164.072 291.255 164.215C290.929 164.358 290.577 164.432 290.221 164.432C289.682 164.43 289.157 164.259 288.72 163.942C288.283 163.626 287.957 163.18 287.788 162.668C283.005 148.626 275.771 138.169 263.447 138.169H243.304V181.446H245.245C257.634 181.446 265.843 181.446 267.608 164.664C267.669 164.153 267.915 163.682 268.3 163.34C268.685 162.997 269.182 162.808 269.697 162.807C269.974 162.807 270.248 162.862 270.504 162.968C270.76 163.074 270.992 163.229 271.188 163.425C271.384 163.62 271.539 163.853 271.645 164.108C271.751 164.364 271.805 164.638 271.805 164.915V203.976C271.805 204.535 271.583 205.071 271.188 205.466C270.792 205.862 270.256 206.084 269.697 206.084C269.182 206.083 268.685 205.894 268.3 205.551C267.915 205.209 267.669 204.738 267.608 204.227C265.843 187.454 257.634 187.454 245.245 187.454H243.304V230.88H263.586C275.91 230.88 283.005 220.423 287.779 206.242C287.948 205.729 288.273 205.282 288.71 204.963C289.146 204.645 289.672 204.472 290.212 204.468H290.36C290.707 204.469 291.05 204.54 291.368 204.677C291.687 204.813 291.975 205.013 292.214 205.264C292.453 205.514 292.64 205.811 292.762 206.135C292.884 206.46 292.939 206.806 292.924 207.152Z" fill="#50E6C9"/>
<path d="M425.977 153.465V215.389C425.977 224.249 428.233 231.651 438.105 232.477C438.612 232.521 439.084 232.754 439.428 233.128C439.771 233.503 439.962 233.993 439.963 234.502C439.963 235.044 439.748 235.563 439.364 235.946C438.981 236.33 438.462 236.545 437.92 236.545H388.625C388.084 236.542 387.566 236.326 387.183 235.944C386.8 235.561 386.584 235.043 386.582 234.502C386.584 233.994 386.776 233.505 387.119 233.131C387.463 232.756 387.933 232.523 388.439 232.477C398.32 231.651 400.568 224.249 400.568 215.389V145.859L362.965 218.974H357.003L320.589 149.88V215.389C320.589 227.323 323.756 231.985 333.591 232.505C334.113 232.531 334.606 232.757 334.967 233.135C335.328 233.513 335.53 234.016 335.532 234.539C335.532 235.081 335.317 235.6 334.934 235.984C334.55 236.367 334.031 236.582 333.489 236.582H303.576C303.034 236.582 302.514 236.367 302.131 235.984C301.748 235.6 301.533 235.081 301.533 234.539C301.534 234.013 301.738 233.509 302.101 233.128C302.463 232.748 302.958 232.522 303.483 232.496C313.076 231.976 314.627 227.304 314.627 215.389V153.465C314.627 144.642 313.048 137.259 303.483 136.386C302.947 136.346 302.447 136.106 302.08 135.714C301.713 135.322 301.508 134.806 301.505 134.269C301.505 133.702 301.73 133.159 302.13 132.758C302.531 132.358 303.074 132.133 303.641 132.133H338.689C339.085 132.134 339.472 132.245 339.808 132.453C340.145 132.661 340.416 132.958 340.593 133.312L370.144 191.671L399.983 133.303C400.163 132.952 400.436 132.658 400.771 132.452C401.107 132.245 401.493 132.135 401.887 132.133H437.864C438.43 132.133 438.974 132.358 439.374 132.758C439.775 133.159 440 133.702 440 134.269C439.999 134.807 439.795 135.325 439.428 135.72C439.061 136.114 438.559 136.355 438.022 136.395C428.215 137.24 425.977 144.633 425.977 153.465Z" fill="#50E6C9"/>
<path d="M131.861 178.363L52.7648 137.008C52.1015 136.671 51.3629 136.509 50.6193 136.537C49.8756 136.566 49.1517 136.784 48.5161 137.171C47.8805 137.558 47.3545 138.102 46.988 138.749C46.6214 139.397 46.4266 140.127 46.4219 140.872V223.58C46.4209 224.332 46.6139 225.071 46.9822 225.726C47.3505 226.381 47.8817 226.929 48.5243 227.319C49.1669 227.708 49.8991 227.925 50.6501 227.949C51.4012 227.972 52.1456 227.802 52.8112 227.453L131.861 186.099C132.568 185.729 133.159 185.173 133.572 184.492C133.985 183.81 134.203 183.028 134.203 182.231C134.203 181.433 133.985 180.652 133.572 179.97C133.159 179.288 132.568 178.732 131.861 178.363Z" fill="#004D9A"/>
<path d="M77.5244 194.531C75.3234 194.531 73.7168 193.937 72.8253 192.534C71.3777 193.817 69.512 194.527 67.5782 194.531C61.1795 194.531 56.5732 190.51 56.5732 184.538C56.5732 178.567 61.1424 173.663 67.5782 174.546C69.2724 174.774 70.8467 175.546 72.0637 176.747V173.868C72.0637 171.37 71.6923 169.28 68.9898 169.029C68.8354 169.018 68.6912 168.948 68.5861 168.834C68.481 168.72 68.4228 168.571 68.4233 168.416C68.423 168.26 68.4825 168.11 68.5895 167.996C68.6965 167.882 68.843 167.813 68.9991 167.803C72.1132 167.618 75.1055 166.527 77.608 164.664C77.717 164.572 77.8548 164.519 77.998 164.516H78.3045C78.4663 164.518 78.6208 164.584 78.7353 164.698C78.8497 164.812 78.915 164.967 78.9174 165.129V188.095C78.9174 190.129 78.9639 191.606 79.9762 191.856C80.7005 192.033 81.9543 191.141 82.0471 191.188C81.789 192.178 81.1994 193.05 80.3764 193.658C79.5535 194.267 78.5469 194.575 77.5244 194.531ZM71.5994 183.823C70.6707 178.781 68.674 175.772 66.0923 176.199C63.5105 176.626 62.6654 180.174 63.557 185.253C64.4485 190.333 66.473 193.305 69.0548 192.878C71.6365 192.451 72.4816 188.894 71.5994 183.823Z" fill="#50E6C9"/>
<path d="M104.791 184.538C104.791 190.51 100.148 194.531 93.8233 194.531C87.4989 194.531 82.8184 190.51 82.8184 184.538C82.8184 178.567 87.4618 174.545 93.8233 174.545C100.185 174.545 104.791 178.567 104.791 184.538ZM97.8445 183.823C96.9158 178.734 94.9191 175.734 92.3374 176.198C89.7557 176.663 88.9105 180.173 89.8021 185.253C90.6936 190.333 92.7182 193.305 95.2628 192.878C97.8074 192.45 98.7361 188.894 97.8445 183.823Z" fill="#50E6C9"/>
<path d="M103.305 92.7281C101.215 105.925 85.9755 111.339 73.1782 110.568C60.7709 109.779 48.568 104.467 46.6921 95.2077C44.9275 86.6452 50.8247 80.6366 58.1149 81.3331H58.3099C63.9749 82.011 66.1666 88.8833 62.3126 93.081C61.0217 94.4926 60.3809 96.6286 60.966 99.5818C61.8947 104.114 66.6774 106.575 73.5682 107.011C82.4279 107.503 87.9443 103.176 88.9287 97.9566C90.4053 89.5984 83.5145 86.5337 72.881 81.1195C63.1391 75.9931 50.7318 70.3839 51.4191 57.2894C52.3013 41.8453 67.4668 39.375 77.5059 40.0622C87.7772 40.8981 91.4919 45.0214 93.0242 40.6566C93.1046 40.4272 93.254 40.2282 93.4518 40.0869C93.6496 39.9456 93.8863 39.8688 94.1294 39.8672C94.4209 39.8654 94.7028 39.9717 94.9206 40.1655C95.1384 40.3593 95.2767 40.6269 95.3088 40.9166L96.7111 60.7162C96.724 60.8775 96.7032 61.0397 96.6502 61.1926C96.5972 61.3455 96.513 61.4857 96.403 61.6044C96.2931 61.7231 96.1597 61.8177 96.0113 61.8822C95.8629 61.9467 95.7028 61.9798 95.541 61.9792H94.7144C94.4469 61.9769 94.1882 61.8838 93.9806 61.715C93.7731 61.5463 93.629 61.312 93.5722 61.0506C90.8697 49.7206 86.6163 44.4642 77.5059 43.6098C71.4044 43.0155 65.433 45.9687 65.1079 51.8751C64.6157 59.8526 77.413 64.4774 84.8889 68.7122C94.343 73.8293 105.571 78.9928 103.305 92.7281Z" fill="#50E6C9"/>
<path d="M155.079 95.0223C155.303 95.1976 155.46 95.4444 155.525 95.7215C155.589 95.9986 155.556 96.2894 155.432 96.5454C152.024 103.641 145.021 110.652 133.385 110.652C118.526 110.652 108.673 101.096 107.688 89.2923C106.314 73.4489 118.22 64.2178 132.995 64.2178C145.82 64.2178 154.55 70.9229 154.568 83.2466C154.565 83.5431 154.457 83.829 154.264 84.0534C154.07 84.2779 153.803 84.4263 153.51 84.4724L124.126 89.4223C126.42 101.746 144.39 103.594 153.37 95.1338C153.592 94.918 153.884 94.7897 154.193 94.7726C154.502 94.7556 154.807 94.8508 155.051 95.0409L155.079 95.0223ZM123.504 85.5497L139.644 82.7637C140.137 73.3096 137.973 67.106 131.184 67.7003C125.055 68.3133 122.399 76.2071 123.578 85.5497H123.504Z" fill="#50E6C9"/>
<path d="M258.052 108.395C258.052 108.755 257.909 109.1 257.655 109.354C257.401 109.608 257.056 109.751 256.696 109.751H227.712C227.352 109.751 227.007 109.608 226.753 109.354C226.499 109.1 226.356 108.755 226.356 108.395C226.357 108.057 226.484 107.732 226.713 107.483C226.941 107.234 227.254 107.079 227.591 107.049C233.85 106.492 233.98 101.532 233.247 95.7839C233.247 95.7839 231.863 86.8221 231.389 83.1816C230.461 77.3773 229.913 72.1581 223.421 72.1581C217.608 72.1581 215.834 77.3773 215.834 83.8688V95.7839C215.834 101.625 216.623 106.51 223.059 107.058C223.397 107.086 223.713 107.24 223.943 107.489C224.174 107.739 224.302 108.065 224.304 108.405C224.304 108.584 224.268 108.761 224.199 108.926C224.131 109.091 224.03 109.241 223.903 109.367C223.776 109.493 223.626 109.592 223.46 109.66C223.295 109.728 223.117 109.762 222.938 109.761H193.963C193.604 109.761 193.259 109.618 193.005 109.363C192.75 109.109 192.607 108.764 192.607 108.405C192.609 108.063 192.738 107.734 192.97 107.483C193.202 107.232 193.52 107.077 193.861 107.049C200.065 106.492 199.888 101.616 199.888 95.7839V83.1816C199.888 77.3773 198.31 72.1581 191.53 72.1581C185.624 72.1581 183.172 77.3773 183.172 83.8688V95.7839C183.172 101.616 182.996 106.492 189.199 107.049C189.54 107.077 189.858 107.232 190.09 107.483C190.322 107.734 190.452 108.063 190.453 108.405C190.453 108.764 190.31 109.109 190.056 109.363C189.802 109.618 189.457 109.761 189.097 109.761H160.215C160.036 109.762 159.859 109.728 159.693 109.66C159.528 109.592 159.377 109.493 159.25 109.367C159.123 109.241 159.023 109.091 158.954 108.926C158.885 108.761 158.85 108.584 158.85 108.405C158.853 108.065 158.982 107.738 159.211 107.488C159.441 107.237 159.756 107.081 160.094 107.049C166.446 106.501 167.319 101.625 167.319 95.7839V85.8376C167.319 79.9962 166.446 75.1206 160.094 74.5727C159.747 74.5561 159.419 74.4076 159.177 74.1573C158.935 73.907 158.798 73.5739 158.794 73.2261V73.1796C158.791 72.8319 158.923 72.4965 159.162 72.2438C159.401 71.991 159.728 71.8405 160.076 71.8238C165.778 71.5173 174.563 69.2234 180.079 64.5057C180.325 64.3004 180.633 64.1856 180.952 64.1807H181.751C182.113 64.1807 182.46 64.3245 182.716 64.5805C182.972 64.8365 183.116 65.1838 183.116 65.5458V71.8609C186.07 67.7282 190.797 64.1807 198.765 64.1807C206.055 64.1807 211.859 66.9667 214.32 73.4675C216.986 68.7405 221.508 64.1807 230.173 64.1807C239.822 64.1807 245.533 69.502 247.205 81.9C248.579 91.7441 249.174 95.8303 249.174 95.8303C249.824 101.3 250.474 106.51 256.798 107.095C257.131 107.12 257.442 107.266 257.673 107.506C257.904 107.746 258.039 108.063 258.052 108.395Z" fill="#50E6C9"/>
<path d="M313.485 105.925C313.582 106.183 313.601 106.464 313.54 106.733C313.479 107.002 313.34 107.248 313.141 107.439C311.284 109.203 308.34 110.615 303.427 110.615C298.115 110.615 291.912 108.841 290.426 104.114C286.98 109.426 281.464 110.615 276.542 110.615C268.369 110.615 260.699 107.95 259.315 100.771C257.931 93.5921 261.59 86.9241 273.208 84.5653C282.495 82.7079 288.169 84.6674 287.092 77.8787C286.163 72.8545 284.426 67.6632 279.504 67.6632C274.861 67.2917 272.075 70.635 272.614 73.6625C273.319 77.7023 269.781 81.2684 265.881 79.9683C265.628 79.8829 265.38 79.7837 265.138 79.6711C262.574 78.3988 261.488 75.6406 262.872 72.2416C265.231 65.8429 273.793 64.2642 279.412 64.2642C295.199 64.2642 301.7 69.4834 303.427 81.9092C304.811 91.8462 305.285 95.7838 305.285 95.7838C305.87 99.2292 306.464 103.213 307.449 104.448C308.377 105.498 309.937 105.749 311.73 105.229C312.069 105.118 312.437 105.142 312.76 105.294C313.083 105.445 313.335 105.714 313.466 106.046L313.485 105.925ZM289.256 94.5022C288.958 90.9546 288.568 87.3142 288.169 84.8531C287.38 86.4319 286.312 86.9241 281.278 88.2986C277.043 89.5802 274.09 93.2206 274.777 98.2448C275.474 102.777 279.904 105.526 283.544 104.541C288.271 103.464 289.553 99.2292 289.256 94.5022Z" fill="#50E6C9"/>
<path d="M384.464 108.395C384.464 108.755 384.321 109.1 384.066 109.354C383.812 109.608 383.467 109.751 383.108 109.751H354.226C354.047 109.753 353.869 109.718 353.704 109.651C353.538 109.583 353.388 109.484 353.261 109.358C353.134 109.231 353.033 109.082 352.964 108.916C352.896 108.751 352.86 108.574 352.86 108.395C352.864 108.054 352.994 107.726 353.226 107.476C353.457 107.225 353.774 107.07 354.114 107.04C360.355 106.464 360.401 101.467 359.751 95.7746C359.751 95.7746 358.377 86.8128 357.782 83.1723C356.9 77.368 356.213 72.0281 349.424 72.0281C343.518 72.0281 341.066 77.2473 341.066 83.841V95.756C341.066 101.597 341.595 106.473 347.901 107.021C348.239 107.053 348.552 107.21 348.78 107.461C349.009 107.711 349.136 108.038 349.136 108.377C349.136 108.736 348.993 109.081 348.739 109.336C348.485 109.59 348.14 109.733 347.78 109.733H318.072C317.712 109.733 317.367 109.59 317.113 109.336C316.859 109.081 316.716 108.736 316.716 108.377C316.717 108.036 316.845 107.709 317.075 107.458C317.305 107.207 317.621 107.051 317.96 107.021C324.313 106.473 325.176 101.597 325.176 95.756V85.8376C325.176 79.9962 324.313 75.1206 317.96 74.5727C317.623 74.5427 317.308 74.3883 317.078 74.1394C316.848 73.8905 316.719 73.565 316.716 73.2261V73.1796C316.713 72.8334 316.844 72.4994 317.08 72.2469C317.317 71.9944 317.642 71.8428 317.988 71.8238C323.7 71.508 332.485 69.1398 338.001 64.4964C338.243 64.2924 338.549 64.1805 338.865 64.1807H339.673C339.852 64.1807 340.029 64.216 340.194 64.2848C340.359 64.3535 340.509 64.4542 340.635 64.5811C340.761 64.708 340.861 64.8585 340.928 65.0241C340.996 65.1897 341.03 65.367 341.029 65.5458V71.8609C343.982 67.7282 348.709 64.1807 356.687 64.1807C366.624 64.1807 371.945 69.502 373.719 81.9C375.093 91.7441 375.576 95.8303 375.576 95.8303C376.319 101.3 376.886 106.51 383.201 107.095C383.534 107.118 383.848 107.263 384.081 107.503C384.314 107.743 384.451 108.061 384.464 108.395Z" fill="#50E6C9"/>
<path d="M439.89 105.925C439.986 106.184 440.003 106.466 439.94 106.735C439.878 107.004 439.737 107.249 439.537 107.439C437.68 109.203 434.745 110.615 429.832 110.615C424.511 110.615 418.307 108.841 416.831 104.114C413.385 109.426 407.878 110.615 402.956 110.615C394.783 110.615 387.103 107.95 385.72 100.771C384.336 93.5921 387.985 86.9241 399.603 84.5653C408.89 82.7079 414.574 84.6674 413.487 77.8787C412.559 72.8545 410.831 67.6632 405.909 67.6632C401.266 67.2917 398.48 70.635 399.009 73.6625C399.715 77.7023 396.177 81.2684 392.285 79.9683C392.029 79.8845 391.778 79.7853 391.533 79.6711C388.97 78.3988 387.893 75.6406 389.267 72.2416C391.626 65.8429 400.198 64.2642 405.807 64.2642C421.595 64.2642 428.095 69.4834 429.832 81.9092C431.207 91.8462 431.69 95.7838 431.69 95.7838C432.284 99.2292 432.869 103.213 433.853 104.448C434.736 105.498 436.342 105.749 438.135 105.219C438.476 105.113 438.845 105.14 439.168 105.295C439.49 105.45 439.742 105.722 439.871 106.055L439.89 105.925ZM415.651 94.4651C415.354 90.9175 414.964 87.277 414.574 84.816C413.784 86.3948 412.716 86.887 407.674 88.2614C403.448 89.543 400.495 93.1835 401.173 98.2077C401.86 102.74 406.29 105.489 409.93 104.504C414.667 103.464 415.948 99.2292 415.651 94.5022V94.4651Z" fill="#50E6C9"/>
<path d="M11.1325 69.3717C11.0861 70.3833 10.7294 71.356 10.1109 72.1578C9.84099 72.4978 9.50534 72.7799 9.124 72.9873C8.74266 73.1948 8.32343 73.3232 7.89135 73.3651L7.68704 71.9442C7.98917 71.9178 8.28295 71.8311 8.55095 71.6891C8.81895 71.5471 9.05572 71.3528 9.24723 71.1177C9.66966 70.5861 9.91921 69.9379 9.96232 69.2603C9.98532 69.0225 9.98532 68.783 9.96232 68.5452C9.94368 68.3204 9.89688 68.0989 9.82302 67.8858C9.75432 67.6826 9.65403 67.4914 9.52584 67.3193C9.38097 67.1449 9.19621 67.0079 8.9872 66.92C8.76653 66.812 8.52663 66.7489 8.2814 66.7343C8.1096 66.7014 7.93313 66.7014 7.76133 66.7343C7.45253 66.8095 7.17786 66.986 6.98124 67.2357C6.87429 67.3693 6.77506 67.5088 6.68406 67.6537C6.57873 67.8153 6.48858 67.9862 6.41474 68.1644C6.31258 68.3873 6.23829 68.5731 6.18256 68.7216C6.12684 68.8702 6.05255 69.0745 5.95039 69.3253V69.4367C5.84824 69.7246 5.75537 69.9568 5.68107 70.1425C5.60678 70.3283 5.51391 70.5326 5.38389 70.7833C5.28318 70.9969 5.16515 71.2019 5.03099 71.3963C4.9056 71.5688 4.76579 71.7303 4.61308 71.8792C4.47031 72.0417 4.2967 72.1743 4.10231 72.2692C3.90226 72.3662 3.68973 72.4349 3.4708 72.4735C3.21213 72.5113 2.94937 72.5113 2.6907 72.4735C2.10185 72.4358 1.54124 72.2076 1.09336 71.8235C0.658547 71.4599 0.336395 70.9799 0.164673 70.4397C-0.0210644 69.7106 -0.0500563 68.9503 0.0796106 68.2091C0.209277 67.4679 0.494655 66.7627 0.916909 66.1399C1.16135 65.8074 1.47277 65.5298 1.83107 65.3251C2.18938 65.1203 2.58661 64.993 2.99717 64.9512L3.21077 66.3071C2.94353 66.3388 2.68527 66.4233 2.45093 66.5556C2.21659 66.6879 2.01084 66.8655 1.8456 67.0779C1.35248 67.8008 1.14714 68.6818 1.26981 69.5482C1.30927 69.8073 1.39084 70.0583 1.51127 70.2911C1.62671 70.523 1.80334 70.7189 2.02205 70.8576C2.26143 71.013 2.5361 71.1057 2.82072 71.1269C2.97419 71.1554 3.13159 71.1554 3.28506 71.1269C3.4176 71.0891 3.54536 71.0361 3.66582 70.9691C3.77993 70.8772 3.87464 70.7635 3.94443 70.6347C4.04466 70.5166 4.1377 70.3926 4.22303 70.2633C4.31655 70.1091 4.39731 69.9476 4.46449 69.7803C4.55736 69.576 4.62237 69.3996 4.68738 69.2603L4.89169 68.6845C5.14172 67.9899 5.45249 67.3186 5.82038 66.6785C6.02642 66.2825 6.32962 65.9452 6.70158 65.6983C7.07354 65.4514 7.50209 65.303 7.94707 65.2669C8.10481 65.2578 8.26295 65.2578 8.4207 65.2669C8.90115 65.3014 9.36622 65.4512 9.77658 65.7034C10.1481 65.929 10.4526 66.2496 10.6588 66.6321C10.8739 67.0216 11.0185 67.446 11.086 67.8858C11.1696 68.3766 11.1853 68.8766 11.1325 69.3717Z" fill="white"/>
<path d="M13.6207 55.9338L10.8903 56.166L9.63662 60.893L11.9026 62.4439L11.5311 63.8276L2.11426 57.2247L2.53217 55.6366L13.9922 54.55L13.6207 55.9338ZM8.57792 60.1593L9.59947 56.2774L3.70231 56.7789L8.57792 60.1593Z" fill="white"/>
<path d="M8.18871 41.075L8.76449 39.8398L18.5621 44.4276L17.9492 45.737L7.54792 47.2972L15.451 51.0119L14.8474 52.2285L5.10547 47.6408L5.70911 46.3407L16.064 44.7619L8.18871 41.075Z" fill="white"/>
<path d="M14.8468 30.4785L15.8777 31.1843L14.271 33.4875L22.1742 38.8553L21.4033 39.9883L13.5095 34.6205L11.9493 36.9143L10.9092 36.2178L14.8468 30.4785Z" fill="white"/>
<path d="M29.4096 30.0511L26.9207 29.011L23.6517 32.6422L24.9519 35.0567L24.0232 36.1247L18.5625 25.937L19.6676 24.7205L30.3568 28.9924L29.4096 30.0511ZM22.9923 31.5092L25.6855 28.5188L20.1134 26.2528L22.9923 31.5092Z" fill="white"/>
<path d="M35.2786 13.2235L31.6474 15.7681L33.6627 18.6284L36.8295 16.4089L37.5446 17.4211L34.3499 19.6778L37.136 23.5876L35.9937 24.3956L29.79 15.5545L34.5728 12.2019L35.2786 13.2235Z" fill="white"/>
<path d="M43.9053 8.54258L40.0048 10.5485L41.6207 13.6968L45.0569 11.923L45.6234 13.056L42.1872 14.8298L43.8031 17.9688L47.7036 15.9535L48.2794 17.0679L43.1252 19.7147L38.1846 10.0842L43.3295 7.42816L43.9053 8.54258ZM41.2492 5.00428L40.627 7.55817L39.8191 7.97608L40.3856 4.87427L41.2492 5.00428Z" fill="white"/>
<path d="M57.7059 11.1431L61.8572 10.0565L62.4794 12.4432L54.5856 14.5142L54.0469 12.4804L57.223 6.97328C57.3937 6.72332 57.512 6.44148 57.5711 6.14466C57.6301 5.84784 57.6286 5.54214 57.5666 5.24592C57.5386 5.10887 57.4819 4.97929 57.4002 4.86566C57.3186 4.75203 57.2139 4.65692 57.093 4.58655C56.7938 4.47309 56.4635 4.47309 56.1643 4.58655C55.9963 4.61951 55.8366 4.6858 55.6947 4.78151C55.5527 4.87721 55.4314 5.00039 55.3378 5.14376C55.1865 5.51594 55.1865 5.93245 55.3378 6.30462L55.5514 7.11258L52.7653 7.53978L52.6446 7.06615C52.4722 6.58506 52.4078 6.07192 52.4559 5.56314C52.5041 5.05436 52.6636 4.56241 52.9232 4.12221C53.5408 3.24403 54.4713 2.63584 55.5235 2.42271C56.5168 2.12034 57.5827 2.15958 58.551 2.53415C58.9731 2.7196 59.3454 3.00218 59.6375 3.35886C59.9297 3.71553 60.1333 4.1362 60.232 4.58655C60.3523 5.09024 60.3523 5.6152 60.232 6.11889C60.0858 6.69937 59.8576 7.25601 59.554 7.77195L57.7059 11.1431Z" fill="white"/>
<path d="M63.4453 0.853358L71.497 0.0546875L71.7013 2.14423L67.7823 11.7561L64.6433 12.0719L68.5809 2.84075L63.6868 3.32367L63.4453 0.853358Z" fill="white"/>
<path d="M87.2844 12.5268L86.8758 10.3537L82.4181 9.68503L81.3966 11.6353L78.4805 11.1988L84.2569 0.66748L87.8138 1.19683L90.2376 12.9633L87.2844 12.5268ZM83.5697 7.42832L86.3557 7.84623L85.5571 3.60213L83.5697 7.42832Z" fill="white"/>
<path d="M102.969 5.51544L105.756 6.51842L101.874 17.1055L98.6139 15.9167L97.0909 7.55855L94.5741 14.4215L91.7881 13.4186L95.6421 2.84082L98.874 4.02025L100.443 12.3784L102.969 5.51544Z" fill="white"/>
<path d="M111.523 22.1575C110.473 22.0786 109.458 21.7403 108.57 21.173C107.671 20.629 106.919 19.8734 106.378 18.9721C105.884 18.1129 105.645 17.13 105.691 16.1396C105.732 15.0843 106.053 14.0588 106.62 13.1678C107.16 12.247 107.935 11.4871 108.867 10.9668C109.734 10.4876 110.721 10.2683 111.709 10.3353C112.754 10.4301 113.762 10.7674 114.654 11.3203C115.545 11.8733 116.296 12.6268 116.845 13.5207C117.335 14.365 117.577 15.3309 117.541 16.3067C117.498 17.3676 117.178 18.3986 116.613 19.2971C116.07 20.2079 115.299 20.9605 114.374 21.4795C113.508 21.9717 112.519 22.2068 111.523 22.1575ZM109.972 18.9163C110.303 19.1346 110.674 19.2827 111.064 19.3514C111.454 19.4201 111.854 19.4079 112.238 19.3157C112.641 19.2039 113.017 19.0134 113.346 18.7552C113.674 18.4969 113.948 18.1761 114.152 17.8112C114.389 17.4684 114.555 17.0811 114.64 16.6726C114.724 16.2641 114.726 15.8428 114.644 15.4338C114.557 15.0464 114.392 14.6812 114.157 14.3615C113.921 14.0417 113.622 13.7743 113.279 13.5764C112.951 13.3552 112.581 13.206 112.192 13.1388C111.803 13.0715 111.404 13.0877 111.022 13.1863C110.619 13.2981 110.243 13.4886 109.915 13.7468C109.586 14.0051 109.312 14.3259 109.109 14.6908C108.873 15.0346 108.708 15.4218 108.623 15.83C108.539 16.2382 108.537 16.6591 108.617 17.0682C108.702 17.4536 108.866 17.8169 109.1 18.1351C109.333 18.4532 109.63 18.7193 109.972 18.9163Z" fill="white"/>
<path d="M117.977 28.2775C117.399 27.7665 116.92 27.1524 116.566 26.4665C116.237 25.8501 116.074 25.1589 116.092 24.4606C116.122 23.7582 116.351 23.0787 116.752 22.5011L119.463 24.0241C119.293 24.2021 119.161 24.4138 119.078 24.6456C118.994 24.8775 118.96 25.1242 118.977 25.3701C118.995 25.616 119.064 25.8554 119.179 26.0731C119.295 26.2907 119.455 26.4817 119.649 26.6337C119.869 26.8595 120.162 27.0008 120.476 27.033C120.617 27.0375 120.757 27.0096 120.886 26.9517C121.014 26.8938 121.128 26.8072 121.219 26.6987C121.303 26.6001 121.364 26.4839 121.398 26.3585C121.432 26.2332 121.437 26.102 121.414 25.9743C121.395 25.7078 121.329 25.4467 121.219 25.2035C121.126 24.9992 120.931 24.6463 120.661 24.1541V24.0891C120.664 24.0675 120.664 24.0457 120.661 24.0241V23.9498L120.308 23.309C120.225 23.1418 120.123 22.919 120.011 22.6589C119.907 22.4411 119.823 22.2142 119.761 21.981C119.709 21.7576 119.672 21.5312 119.649 21.303C119.616 21.0752 119.616 20.8437 119.649 20.6158C119.703 20.3843 119.784 20.16 119.891 19.9472C120.013 19.7005 120.169 19.4723 120.355 19.2692C120.658 18.9058 121.044 18.6201 121.48 18.4359C121.916 18.2518 122.39 18.1745 122.862 18.2105C123.915 18.3226 124.898 18.7911 125.648 19.5385C126.019 19.8797 126.352 20.2595 126.642 20.6715C126.921 21.0737 127.146 21.5108 127.311 21.9717C127.469 22.4435 127.526 22.9436 127.478 23.439C127.413 23.9717 127.236 24.4845 126.958 24.9435L124.413 23.569C124.547 23.416 124.648 23.2376 124.71 23.0445C124.773 22.8514 124.796 22.6477 124.777 22.4455C124.759 22.2433 124.7 22.047 124.604 21.8682C124.508 21.6894 124.377 21.5319 124.218 21.4052C123.965 21.1511 123.642 20.9795 123.29 20.913C123.149 20.8902 123.004 20.9049 122.87 20.9554C122.737 21.0059 122.619 21.0905 122.528 21.2009C122.45 21.2811 122.404 21.3866 122.398 21.4981C122.375 21.6114 122.375 21.7283 122.398 21.8417C122.435 21.9925 122.487 22.1389 122.556 22.2782C122.639 22.4546 122.723 22.6125 122.797 22.7518C122.89 22.9338 122.992 23.1106 123.104 23.2812C123.157 23.3865 123.216 23.4889 123.28 23.5876C123.392 23.7919 123.485 23.9591 123.559 24.1077L123.828 24.6277C123.93 24.8413 124.005 25.0271 124.07 25.1942C124.135 25.3614 124.181 25.5379 124.246 25.7515C124.298 25.9401 124.336 26.1327 124.358 26.3272C124.372 26.5189 124.372 26.7114 124.358 26.903C124.346 27.1021 124.309 27.2989 124.246 27.4881C124.184 27.6859 124.1 27.876 123.995 28.0546C123.879 28.2541 123.742 28.4409 123.587 28.6118C123.22 29.0216 122.762 29.3397 122.249 29.5405C121.785 29.7161 121.283 29.7704 120.791 29.6984C120.289 29.6204 119.803 29.4604 119.352 29.2247C118.853 28.9727 118.391 28.654 117.977 28.2775Z" fill="white"/>
<path d="M74.8031 131.928C64.5593 131.92 54.5109 129.124 45.7353 123.84C36.9597 118.555 29.7878 110.982 24.9887 101.932C20.1896 92.8817 17.9442 82.6961 18.4933 72.467C19.0423 62.2379 22.3651 52.3512 28.1055 43.8668C33.8458 35.3824 41.7871 28.6205 51.078 24.3058C60.3688 19.9912 70.6588 18.2868 80.8446 19.3751C91.0305 20.4635 100.728 24.3037 108.897 30.484C117.067 36.6643 123.4 44.9515 127.218 54.4572L126.615 54.708C122.195 43.7174 114.393 34.4186 104.337 28.1576C94.2815 21.8967 82.4939 18.9986 70.6813 19.883C58.8687 20.7674 47.6441 25.3883 38.6326 33.0768C29.6211 40.7653 23.2904 51.1223 20.5571 62.6483C17.8238 74.1744 18.8298 86.2712 23.4293 97.1874C28.0288 108.104 35.9832 117.273 46.1408 123.367C56.2984 129.462 68.1321 132.165 79.9285 131.086C91.725 130.008 102.872 125.202 111.756 117.366L112.183 117.859C101.858 126.953 88.5625 131.957 74.8031 131.928Z" fill="#50E6C9"/>
</svg>
