<svg width="70" height="70" viewBox="0 0 70 70" fill="none" xmlns="http://www.w3.org/2000/svg">
<path d="M69.2629 33.108C69.2629 33.0035 69.2629 32.8989 69.2629 32.7944C69.2629 32.6898 69.2629 32.5853 69.2629 32.4807C69.2629 32.2368 69.2629 31.958 69.2629 31.714C69.3674 21.1194 69.7857 8.95659 69.9948 6.97011C70.0645 6.37765 69.4023 5.92459 68.7053 6.16855C65.2551 7.31862 62.1882 8.05048 58.6335 8.85204C58.4592 8.88689 58.285 8.92174 58.0759 8.95659C58.041 8.60809 57.7274 8.32928 57.2743 8.18988C52.1861 6.90041 47.1676 5.36698 42.3234 3.41535C40.0233 2.47439 37.758 1.42887 35.5972 0.174253C35.3881 0.0697011 35.179 0 35.0048 0C34.7957 0 34.5866 0.0697011 34.4123 0.174253C32.2864 1.42887 30.0212 2.47439 27.6862 3.41535C22.8419 5.36698 17.8235 6.93526 12.7353 8.18988C12.1777 8.32928 11.864 8.57324 11.9337 9.02629C11.7595 8.95659 11.5852 8.88689 11.3761 8.85204C7.82135 8.08533 4.75449 7.31862 1.30429 6.16855C0.607275 5.92459 -0.0548789 6.37765 0.0148223 6.97011C0.223926 8.92174 0.642134 21.0149 0.746686 31.5398C0.816387 38.7538 0.607275 45.0269 0.607275 51.7879C0.607275 52.4501 0.572433 52.938 0.746686 53.2168C1.06034 53.7047 1.68765 53.7047 2.28011 53.5653C9.59873 51.8228 14.7218 51.3697 14.896 51.3697C16.2552 51.3349 53.7195 51.3349 55.1136 51.3697C55.1833 51.3697 56.1939 51.4743 57.9365 51.6834H57.9713C58.0759 51.6834 58.1804 51.7182 58.285 51.7182C58.3198 51.7182 58.3895 51.7182 58.4244 51.7531C58.4941 51.7531 58.5986 51.7879 58.6683 51.7879C58.738 51.7879 58.7729 51.7879 58.8426 51.8228C58.9123 51.8228 59.0168 51.8576 59.0865 51.8576C59.1562 51.8576 59.2259 51.8925 59.2608 51.8925C59.3305 51.8925 59.4002 51.9273 59.5047 51.9273C59.5744 51.9273 59.6441 51.9622 59.7138 51.9622C59.7835 51.9622 59.8881 51.997 59.9578 51.997C60.0275 51.997 60.0972 52.0319 60.1669 52.0319C60.2366 52.0319 60.3412 52.0667 60.4109 52.0667C60.4806 52.0667 60.5851 52.1016 60.6548 52.1016C60.7245 52.1016 60.829 52.1364 60.8987 52.1364C60.9684 52.1364 61.073 52.1713 61.1427 52.1713C61.2124 52.1713 61.317 52.2061 61.3867 52.2061C61.4912 52.2061 61.5609 52.241 61.6655 52.241C61.7352 52.241 61.8397 52.2758 61.9094 52.2758C62.014 52.2758 62.0837 52.3107 62.1882 52.3107C62.2928 52.3107 62.3625 52.3455 62.467 52.3455C62.5716 52.3455 62.6413 52.3804 62.7458 52.3804C62.8504 52.4152 62.9549 52.4152 63.0595 52.4501C63.1292 52.4501 63.2337 52.4849 63.3034 52.4849C63.4428 52.5198 63.6171 52.5546 63.7565 52.5895C63.8262 52.5895 63.9308 52.6243 64.0005 52.6243C64.1399 52.6592 64.2793 52.694 64.4535 52.7289C64.5232 52.7289 64.5929 52.7637 64.6626 52.7637C64.802 52.7986 64.9066 52.8335 65.046 52.8335C65.1157 52.8335 65.2202 52.8683 65.2899 52.8683C65.4293 52.9031 65.5339 52.938 65.6733 52.938C65.743 52.9729 65.8475 52.9729 65.9172 53.0077C66.5097 53.1471 67.1022 53.2865 67.7295 53.4259C68.3219 53.5653 68.9492 53.5653 69.2629 53.0774C69.4371 52.7986 69.4023 52.2758 69.4023 51.6485C69.4023 50.2894 69.4023 48.965 69.3674 47.6407C69.3674 46.0027 69.3326 44.3996 69.2977 42.7616C69.2629 39.9387 69.228 37.081 69.228 34.0838V34.049C69.228 33.8399 69.228 33.4914 69.2629 33.108Z" fill="#333033"/>
<path d="M32.599 34.5712C33.1218 35.547 33.5748 36.5577 33.7839 37.638C34.237 39.8336 34.1673 41.9943 33.54 44.1551C33.0521 45.8279 32.0066 47.1174 30.4731 47.9538C28.0685 49.2433 25.4895 49.6266 22.8409 48.8599C20.8544 48.3023 19.4604 46.978 18.5891 45.1309C17.8921 43.6323 17.4739 42.064 17.5784 40.3912C17.7178 37.9168 18.9376 36 21.0286 34.6409C22.4924 33.6999 24.0606 33.1074 25.838 33.0377C27.8245 32.968 29.4625 33.6999 30.6822 35.2682C31.0308 35.7212 31.3793 35.8258 31.7278 35.5818C32.0414 35.3379 32.0414 34.9894 31.7626 34.5363C31.7278 34.5015 31.6929 34.4666 31.6581 34.3969C31.7975 34.1181 32.0414 34.0136 32.3899 34.0833C32.6339 34.1878 32.5642 34.3969 32.599 34.5712Z" fill="white"/>
<path d="M49.9201 32.795C51.1399 34.4678 51.7324 36.4194 52.0809 38.4059C52.4642 40.5318 52.4294 42.6925 51.7672 44.7836C50.9308 47.3974 49.1186 49.0005 46.3305 49.4535C43.3334 49.9415 40.6847 49.105 38.4892 47.0489C36.8163 45.5154 36.3284 43.4941 36.4678 41.2985C36.5375 40.2879 36.6769 39.2772 37.0254 38.3014C37.8967 35.827 39.7089 34.5027 42.3576 34.2238C43.3334 34.1193 44.3092 34.189 45.285 34.3633C45.7381 34.4678 46.0866 34.2935 46.1563 33.9102C46.2608 33.492 46.0517 33.1783 45.529 33.0738C45.1805 33.0041 44.832 32.9344 44.4835 32.8995C44.2744 32.5162 44.3441 32.3071 44.7274 32.1328C46.4351 32.4813 47.7246 33.4223 48.7004 34.7815C48.9792 35.1648 49.1186 35.583 49.2231 36.0361C49.2928 36.4891 49.6413 36.7331 50.0247 36.6285C50.408 36.5588 50.5823 36.2103 50.5126 35.7921C50.3384 34.8163 49.8156 34.0147 49.2231 33.248C49.2928 32.9344 49.5019 32.7601 49.9201 32.795Z" fill="white"/>
<path d="M49.5382 13.6965C51.2459 15.5436 52.4308 17.5998 52.4656 20.1439C52.5005 22.1652 51.8035 23.9775 50.3397 25.4063C49.0851 26.6609 47.6563 27.6368 45.8789 27.9853C43.4742 28.508 41.3483 27.8459 39.5709 26.2776C37.7935 24.7093 36.748 22.7577 36.8177 20.353C36.9223 17.3559 38.4906 14.7769 41.2089 13.6617C42.812 12.9995 44.4151 13.1389 46.0183 13.6617C46.7501 13.9056 47.4471 14.2193 48.1093 14.6375C48.3881 14.8118 48.6321 14.8815 48.9109 14.7072C49.1897 14.533 49.2594 14.289 49.2245 13.9753C49.2594 13.8359 49.3291 13.6965 49.5382 13.6965Z" fill="white"/>
<path d="M20.1938 17.5999C20.612 17.565 21.0302 17.4605 21.4136 17.3211C21.4136 17.3211 21.4136 17.3211 21.4484 17.3211C21.6924 17.2165 21.9712 17.112 22.2151 16.9726C22.25 16.9726 22.2848 16.9377 22.3197 16.9377C22.8076 16.6937 23.2955 16.3801 23.7137 16.0664C24.3062 15.6482 24.8986 15.2997 25.5608 15.0209C27.617 14.1148 29.7777 14.9164 30.9626 16.4498C31.8687 17.6347 32.2869 18.9939 32.3566 20.4576C32.4263 22.1653 32.2521 23.8033 31.4157 25.3367C30.2656 27.3929 28.4185 28.4035 26.1184 28.7172C21.309 29.4142 18.3467 26.0337 17.6497 22.5138C17.3709 21.0501 17.4406 19.6212 17.8588 18.1923C17.9285 17.9135 17.9285 17.6696 17.7891 17.4256C17.8937 17.1817 18.0331 16.9726 18.3119 16.9377C18.3467 16.9377 18.4513 17.0423 18.4513 17.0771C18.521 17.112 18.5558 17.1817 18.6255 17.2165C18.7649 17.3211 18.9043 17.4256 19.0437 17.4605C19.3922 17.5999 19.7756 17.6347 20.1938 17.5999Z" fill="white"/>
<path d="M49.5369 13.6964C49.4324 13.801 49.293 13.8707 49.1884 13.9752C49.0839 13.801 48.9793 13.6616 48.8399 13.5919C46.8534 12.4418 44.7624 11.8145 42.4623 12.0933C40.5455 12.3024 38.4196 13.5222 37.3392 15.0556C36.2589 16.589 36.1543 17.7391 36.1543 17.7391C36.1543 17.7391 36.2589 13.1388 36.2589 11.5008C36.2589 11.222 36.3286 11.1523 36.6074 11.1523C42.3926 11.1872 48.5959 11.222 54.3811 11.222C54.6251 11.222 54.6948 11.2917 54.6948 11.5357C54.6948 12.6509 54.6948 24.4653 54.7296 29.2049C54.7296 29.5186 54.6599 29.5883 54.3463 29.5883C52.6386 29.5534 46.5049 29.4837 45.5291 29.5186C45.4594 29.5186 45.4245 29.5186 45.4245 29.4489C45.4245 29.3792 45.5291 29.3792 45.5988 29.3792C45.8079 29.3443 46.4004 29.2746 46.5746 29.2398C46.7837 29.2049 46.9928 29.1352 47.1671 29.0655C47.5504 28.9261 47.9338 28.7867 48.3172 28.5776C48.7005 28.4034 49.049 28.1943 49.3975 27.9503C49.6415 27.8109 49.8506 27.6367 50.0945 27.4624C52.6038 25.6153 53.8235 23.1061 53.8235 20.0392C53.8235 17.7391 52.8826 15.7178 51.4885 13.9055C51.1052 13.3828 50.687 12.8949 50.2339 12.4418C49.9203 12.1282 49.5369 12.0933 49.2581 12.3373C48.9793 12.5812 48.9793 12.9646 49.2581 13.3131C49.2581 13.4176 49.3975 13.557 49.5369 13.6964Z" fill="#F5821F"/>
<path d="M32.5661 34.6068C32.4615 34.1537 32.0433 34.084 31.5903 34.4674C29.7083 32.2718 27.3037 31.4005 24.4459 31.9581C21.4139 32.5506 18.9395 34.0491 17.3712 36.6978C16.3606 38.4403 16.0818 40.3222 16.3954 42.2739C16.7439 44.4346 17.4409 46.4559 19.0441 48.0591C19.6365 48.6515 20.3335 49.1743 21.0654 49.6274C19.3229 49.6274 15.803 49.6274 15.803 49.6274C15.803 49.6274 15.4893 49.6622 15.4893 49.3137C15.4893 47.2575 15.4196 33.9446 15.3848 31.8187C15.3848 31.4702 15.4545 31.3657 15.8378 31.3308C19.0789 31.3308 32.9494 31.1914 34.1692 31.1914C34.3435 31.1914 34.3435 31.4354 34.3435 31.4354L34.3783 35.722C34.3783 35.722 33.9601 34.6416 33.8207 34.3628C33.6465 34.0492 33.4374 33.8052 33.054 33.8749C32.6706 33.9446 32.6009 34.2234 32.5661 34.6068Z" fill="#82C221"/>
<path d="M49.9201 32.7948C49.5716 32.8297 49.3276 33.0039 49.2231 33.3524C48.3518 32.4463 47.3412 31.7145 46.1562 31.2266C48.9094 31.2266 51.6278 31.2266 54.381 31.2614C54.6946 31.2614 54.6598 31.4705 54.6598 31.5402C54.6249 32.2024 54.5901 46.7699 54.6249 49.2792C54.6249 49.558 54.2764 49.5928 54.2764 49.5928H49.4671C49.4671 49.5928 49.1882 49.558 49.3973 49.4534C51.9066 48.0942 53.0218 46.0729 53.4749 43.4243C54.0325 39.9741 53.4749 36.6981 51.9763 33.5615C51.7672 33.1433 51.5581 32.76 51.2793 32.3766C51.0702 32.0978 50.8262 31.9236 50.4429 32.0281C50.0247 32.1327 49.9201 32.4463 49.9201 32.7948Z" fill="#2AA8E0"/>
<path d="M44.7621 32.2372C44.4485 32.4115 44.4833 32.6903 44.5181 33.0039C43.3332 32.9691 42.1832 32.9342 41.0331 33.213C38.9421 33.7358 37.3389 34.8859 36.3283 36.7678C36.2934 36.8027 36.2934 36.8723 36.2586 36.9072C36.2586 36.9072 36.2237 36.9072 36.2237 36.9421C36.1192 36.9072 36.154 36.8027 36.154 36.7678C36.154 35.0253 36.154 33.3176 36.154 31.5751C36.154 31.2963 36.2237 31.2266 36.5025 31.2266C39.0466 31.2266 41.5907 31.2266 44.0999 31.2266C44.309 31.2266 44.4484 31.2266 44.3439 31.5054C44.2742 31.7842 44.4485 32.063 44.7621 32.2372Z" fill="#2AA8E0"/>
<path d="M36.1905 29.0649C36.1905 29.0649 36.0859 23.3145 36.0859 23.21C37.3754 26.7996 39.5013 28.7163 43.1954 29.3785C43.2303 29.3785 43.3 29.3785 43.3 29.4134C43.3348 29.4482 43.3 29.4482 43.3 29.4831C43.2303 29.5179 43.0909 29.5179 42.9863 29.5179C42.8818 29.5179 42.4984 29.5179 42.359 29.5179C41.8711 29.5179 36.6087 29.4831 36.4344 29.4831C36.1556 29.4482 36.1905 29.0649 36.1905 29.0649Z" fill="#F5821F"/>
<path d="M25.5606 12.8252C25.944 12.9646 26.2925 13.104 26.6758 13.2434C25.1424 13.5222 23.8181 14.2541 22.5635 15.1602C21.8664 15.6481 21.0997 16.0663 20.2285 16.2406C19.4269 16.4148 18.7996 15.7526 19.0436 14.9859C19.2875 14.1495 19.88 13.5919 20.6815 13.2783C21.971 12.7206 23.2605 12.86 24.5499 13.2783C25.0727 13.4177 25.3167 13.3131 25.5606 12.8252Z" fill="white"/>
<path d="M28.5566 29.449C30.3689 28.6823 31.6932 27.4277 32.6342 25.7549C33.0524 26.2776 33.5751 26.5913 34.2024 26.7307C34.3767 26.7656 34.3767 26.905 34.3767 27.0444C34.3767 27.8459 34.3767 28.6475 34.3767 29.4142C34.3418 29.449 34.307 29.4839 34.2373 29.4839C33.4009 29.4839 29.6719 29.449 28.5566 29.449Z" fill="#FCC905"/>
<path d="M36.0506 45.7236C36.9567 47.4662 38.2811 48.7208 40.1978 49.592C39.0478 49.592 37.9674 49.6618 36.887 49.6269C36.6082 49.6269 36.2597 49.6617 36.1203 49.4178C35.9809 49.2087 36.0506 48.9299 36.0506 48.6511C36.0506 47.6753 36.0506 46.6994 36.0506 45.7236Z" fill="#2AA8E0"/>
<path d="M19.2525 29.3443C19.4965 28.9958 19.6707 28.7519 19.8101 28.2988C20.4374 28.7867 21.483 29.1352 22.1451 29.4837C21.4481 29.5186 19.3571 29.5186 19.2177 29.5186C19.148 29.5186 19.1828 29.414 19.2525 29.3443Z" fill="#FCC905"/>
<path d="M29.8467 45.4103C28.1042 46.8044 26.0828 47.1877 23.9221 46.665C22.5978 46.3513 21.6568 45.48 21.0644 44.2603C20.9946 44.1557 20.9598 44.0512 20.925 43.9466C20.8204 43.5981 20.9598 43.2845 21.2735 43.1451C21.5871 43.0057 21.9705 43.1451 22.1099 43.4587C22.8417 45.2361 24.5843 45.9331 26.6753 45.5149C27.5466 45.3406 28.3481 45.0618 29.0451 44.4694C30.1603 43.5284 30.5437 42.3435 30.1952 40.9495C30.1604 40.7752 30.0907 40.5661 30.0209 40.3919C29.9512 40.0434 30.0906 39.7645 30.4391 39.6251C30.7528 39.5206 31.1013 39.66 31.2407 39.9737C31.4847 40.4964 31.9726 43.8072 29.8467 45.4103Z" fill="#333033"/>
<path d="M21.7617 39.0672C21.7617 38.5445 22.1451 38.1611 22.633 38.1611C23.1557 38.1611 23.574 38.6142 23.574 39.1718C23.574 39.6946 23.1906 40.0779 22.7027 40.0779C22.1799 40.0431 21.7617 39.59 21.7617 39.0672Z" fill="#333033"/>
<path d="M27.2681 37.1504C27.7908 37.1504 28.209 37.5686 28.2439 38.1262C28.2439 38.649 27.8954 39.0323 27.3726 39.0323C26.8499 39.0323 26.4316 38.6141 26.4316 38.0565C26.4316 37.5686 26.7801 37.1504 27.2681 37.1504Z" fill="#333033"/>
<path d="M44.3789 47.5017C42.8106 47.5017 41.6257 47.0138 40.615 46.038C39.8135 45.2364 39.2559 44.2606 38.9422 43.1802C38.8028 42.762 38.9771 42.4135 39.3604 42.3089C39.7089 42.2044 40.0574 42.3786 40.1968 42.7968C40.3711 43.3893 40.6499 43.9469 40.9984 44.4348C42.0439 45.8985 43.4728 46.4213 45.2153 46.038C45.9472 45.8637 46.6093 45.6197 47.2715 45.2712C47.5155 45.1318 47.7943 45.1318 48.0382 45.3061C48.2473 45.4455 48.317 45.6894 48.2822 45.9334C48.2473 46.1425 48.1428 46.2819 47.9685 46.3865C47.0276 47.0138 45.3199 47.5017 44.3789 47.5017Z" fill="#333033"/>
<path d="M43.5789 38.6149C43.5789 39.1725 43.1607 39.6255 42.6379 39.6255C42.0803 39.6255 41.6621 39.1725 41.6621 38.58C41.6621 38.0224 42.0803 37.5693 42.6379 37.5693C43.1607 37.5693 43.5789 38.0224 43.5789 38.6149Z" fill="#333033"/>
<path d="M47.0631 41.5773C46.5055 41.4727 46.1919 41.0197 46.2616 40.4621C46.3313 39.9742 46.7146 39.5908 47.2374 39.5908C47.7253 39.5908 48.1435 39.9393 48.1783 40.4621C48.248 41.0545 47.9344 41.4727 47.3768 41.5773C47.2722 41.6121 47.1677 41.6121 47.0631 41.5773Z" fill="#333033"/>
<path d="M43.9261 26.3126C42.3926 26.208 41.1729 25.511 40.1622 24.4307C39.4652 23.6988 39.047 22.8624 38.8727 21.8866C38.8379 21.7123 38.8379 21.5381 38.8379 21.3987C38.8379 21.0502 39.0818 20.8062 39.3955 20.7714C39.7789 20.7365 40.0577 20.9456 40.0925 21.2941C40.1622 21.6775 40.2319 22.0608 40.3713 22.4093C41.138 24.2913 43.7867 26.0338 46.6096 24.4307C47.3414 24.0125 47.9687 23.4548 48.5263 22.7927C48.84 22.4093 49.2931 22.3745 49.5719 22.6881C49.781 22.9321 49.8507 23.2109 49.6416 23.4548C48.3869 25.0928 46.7838 26.208 44.6231 26.3126C44.3443 26.3126 44.1352 26.3126 43.9261 26.3126Z" fill="#333033"/>
<path d="M43.9269 17.3902C43.9269 17.9478 43.4738 18.4357 42.951 18.4357C42.4631 18.4357 42.0449 18.0175 42.0449 17.4947C42.0449 16.9371 42.498 16.4492 43.0556 16.4492C43.5435 16.4492 43.9269 16.8674 43.9269 17.3902Z" fill="#333033"/>
<path d="M48.6671 18.9934C48.6671 19.551 48.2489 20.0041 47.7261 20.0041C47.2034 20.0041 46.7852 19.5859 46.7852 19.0282C46.7852 18.4706 47.2034 18.0176 47.7261 18.0176C48.2837 18.0176 48.6671 18.4358 48.6671 18.9934Z" fill="#333033"/>
<path d="M24.514 26.9401C22.876 26.8704 21.3775 25.9643 20.2971 24.3611C20.0531 23.9778 20.1228 23.5944 20.4365 23.3853C20.785 23.1762 21.1684 23.2459 21.4123 23.6293C22.2836 24.849 23.3988 25.6158 24.9671 25.5809C26.8141 25.5461 28.4521 24.152 28.7658 22.3747C28.7658 22.305 28.8006 22.2353 28.8006 22.1307C28.9052 21.7474 29.2188 21.5382 29.5673 21.5731C29.9507 21.6428 30.1946 21.9216 30.1249 22.3398C29.9855 23.455 29.4976 24.4308 28.6961 25.2324C27.7551 26.3476 26.3262 26.9401 24.514 26.9401Z" fill="#333033"/>
<path d="M27.5476 19.0289C27.5476 19.5865 27.1643 20.0047 26.6415 20.0047C26.0839 20.0047 25.6309 19.5517 25.6309 18.9592C25.6309 18.4365 26.0142 17.9834 26.537 17.9834C27.0946 17.9834 27.5476 18.4365 27.5476 19.0289Z" fill="#333033"/>
<path d="M22.0412 19.4465C22.5988 19.6207 22.8776 20.0738 22.8079 20.5966C22.7382 21.0845 22.3549 21.3981 21.867 21.3981C21.3442 21.3981 20.926 21.0148 20.8563 20.4572C20.7866 20.0041 21.0654 19.5859 21.5533 19.4465C21.7624 19.3768 21.9018 19.4116 22.0412 19.4465Z" fill="#333033"/>
<path d="M34.5521 45.6543C33.5414 47.362 31.764 48.6166 30.0215 49.5576C31.1716 49.5576 32.6353 49.6273 33.7156 49.5924C33.9944 49.5924 34.3429 49.6273 34.4824 49.3833C34.6218 49.1742 34.5521 48.8954 34.5521 48.5817C34.5521 47.6408 34.5521 46.6301 34.5521 45.6543Z" fill="#82C221"/>
<path d="M34.4118 11.5002C34.4118 11.3957 34.4467 11.1169 34.3421 11.082H34.3073C34.2376 11.082 22.4232 11.1169 17.1608 11.1169C16.9168 11.1169 16.6729 11.1169 16.4289 11.1169C16.2547 11.1169 16.0804 11.1169 15.9062 11.1169C15.8365 11.1169 15.7319 11.1169 15.6622 11.1169C15.5925 11.1169 15.488 11.082 15.4531 11.1866C15.4531 15.9611 15.488 25.8238 15.488 26.3814C16.185 26.1375 16.5335 26.1375 16.8471 26.1723C17.3699 26.242 17.6487 26.7299 17.4048 27.1481C17.2654 27.4269 17.0214 27.4966 16.7077 27.4966C16.2547 27.4966 16.0107 27.7058 15.9759 28.0194C15.941 28.577 16.4986 29.1695 17.0563 29.1695C17.7881 29.1695 18.4503 28.5073 18.4503 27.7755C18.4503 27.3572 18.276 26.9739 18.0321 26.6254C16.0804 23.9419 15.7668 20.9796 16.5335 17.8082C16.7077 17.1112 17.1957 16.9369 17.7533 17.39C17.9275 17.2157 18.1018 17.0763 18.276 16.9021C17.579 16.0308 17.3699 15.055 17.9275 14.0792C18.7988 12.5109 20.1928 11.7093 22.005 11.6396C22.3884 11.6396 22.5975 11.6048 22.946 11.6396C23.643 11.6396 24.3052 11.8139 24.9673 12.023C25.4552 12.1624 25.5598 12.3367 25.5598 12.8594C25.8734 13.1382 26.2568 13.2428 26.675 13.2776C26.7447 13.2776 26.8144 13.2776 26.8841 13.2776C28.8357 13.1731 30.4737 13.8352 31.7632 15.299C33.3315 17.0066 33.7845 19.0977 33.7148 21.3281C33.68 22.1297 33.6103 22.9661 33.4709 23.7676C33.3315 24.5692 33.7148 25.1965 34.377 25.4056C34.377 25.3011 34.4118 13.8701 34.4118 11.5002Z" fill="#FCC905"/>
<path d="M51.8375 9.30446C52.1511 9.30446 53.9633 9.30446 54.9392 9.30446C55.3225 9.30446 55.3574 9.19991 54.9392 9.13021C51.3147 8.53775 36.6426 3.34501 35.388 2.3692C35.2486 2.26464 35.1092 2.26465 34.9698 2.26465C34.8304 2.26465 34.6561 2.29949 34.5516 2.3692C33.1576 3.37986 19.9143 8.39835 15.4186 9.06051C14.8262 9.13021 14.8959 9.33931 15.4186 9.33931C16.3944 9.33931 17.8582 9.33931 18.1021 9.33931H51.8375V9.30446Z" fill="white"/>
<path d="M2.45346 50.6032C2.83681 45.0968 2.59286 14.9859 2.10495 9.13102C1.96555 8.32945 2.97621 8.74766 3.15047 8.78251C3.77778 8.95676 10.0857 10.4205 12.9783 11.0129C13.292 11.0826 13.3617 11.1872 13.3617 11.466C13.3617 14.498 13.3617 21.7818 13.3965 24.8486C13.3965 26.3472 13.4662 38.3706 13.5011 41.6814C13.5011 43.3891 13.5011 47.5363 13.5359 49.244C13.5359 49.5228 13.4314 49.6622 13.1177 49.6622C12.1419 49.6971 3.91718 51.3002 3.32472 51.4396C2.94136 51.579 2.38376 51.7184 2.45346 50.6032Z" fill="white"/>
<path d="M67.5552 50.6032C67.1718 45.0968 67.4157 14.9859 67.9037 9.13102C68.0431 8.32945 67.0324 8.74766 66.8581 8.78251C66.2308 8.95676 59.9229 10.4205 57.0303 11.0129C56.7166 11.0826 56.6469 11.1872 56.6469 11.466C56.6469 14.498 56.6469 21.7818 56.6121 24.8486C56.6121 26.3472 56.5424 38.3706 56.5075 41.6814C56.5075 43.3891 56.5075 47.5363 56.4727 49.244C56.4727 49.5228 56.5772 49.6622 56.8909 49.6622C57.8667 49.6971 66.0914 51.3002 66.6839 51.4396C67.0672 51.579 67.6249 51.7184 67.5552 50.6032Z" fill="white"/>
<path d="M10.0527 30.9124C10.4012 30.9124 10.7497 30.9124 11.0982 30.9124C11.621 30.8776 12.0043 30.5291 12.0043 30.0412C12.0043 29.5533 11.6558 29.1699 11.1331 29.1699C9.11174 29.1699 7.09041 29.2048 5.10393 29.2745C4.58117 29.3093 4.19782 29.6927 4.23267 30.1806C4.26752 30.6685 4.68572 31.017 5.24333 30.9822C6.81161 30.9473 8.44958 30.9124 10.0527 30.9124Z" fill="#333033"/>
<path d="M11.7935 40.3567C11.7586 40.7749 11.4798 41.0886 11.0965 41.1583C9.21453 41.472 7.36745 41.7508 5.48552 42.0296C5.03246 42.0993 4.68396 41.7856 4.61426 41.2977C4.57941 40.8098 4.85821 40.3916 5.31127 40.3219C6.00828 40.1825 6.70529 40.1128 7.4023 40.0082C8.55237 39.834 9.70245 39.6597 10.8525 39.4506C11.445 39.3461 11.8632 39.7643 11.7935 40.3567Z" fill="#333033"/>
<path d="M11.7935 19.7948C11.7586 19.3766 11.4798 19.0629 11.0965 18.9932C9.21453 18.6796 7.36745 18.4008 5.48552 18.122C5.03246 18.0523 4.68396 18.3659 4.61426 18.8538C4.57941 19.3417 4.85821 19.7599 5.31127 19.8296C6.00828 19.9691 6.70529 20.0387 7.4023 20.1433C8.55237 20.3176 9.70245 20.4918 10.8525 20.7009C11.445 20.8055 11.8632 20.3873 11.7935 19.7948Z" fill="#333033"/>
<path d="M59.9575 30.9124C59.609 30.9124 59.2605 30.9124 58.912 30.9124C58.3892 30.8776 58.0059 30.5291 58.0059 30.0412C58.0059 29.5533 58.3544 29.1699 58.8771 29.1699C60.8985 29.1699 62.9198 29.2048 64.9063 29.2745C65.429 29.3093 65.8124 29.6927 65.7775 30.1806C65.7427 30.6685 65.3245 31.017 64.7669 30.9822C63.1986 30.9473 61.5606 30.9124 59.9575 30.9124C59.9575 30.8776 59.9575 30.9124 59.9575 30.9124Z" fill="#333033"/>
<path d="M58.2146 40.3567C58.2495 40.7749 58.5283 41.0886 58.9116 41.1583C60.7936 41.472 62.6407 41.7508 64.5226 42.0296C64.9756 42.0993 65.3241 41.7856 65.3938 41.2977C65.4287 40.8098 65.1499 40.3916 64.6968 40.3219C63.9998 40.1825 63.3028 40.1128 62.6058 40.0082C61.4557 39.834 60.3057 39.6597 59.1556 39.4506C58.5631 39.3461 58.1449 39.7643 58.2146 40.3567Z" fill="#333033"/>
<path d="M58.2146 19.7948C58.2495 19.3766 58.5283 19.0629 58.9116 18.9932C60.7936 18.6796 62.6407 18.4008 64.5226 18.122C64.9756 18.0523 65.3241 18.3659 65.3938 18.8538C65.4287 19.3417 65.1499 19.7599 64.6968 19.8296C63.9998 19.9691 63.3028 20.0387 62.6058 20.1433C61.4557 20.3176 60.3057 20.4918 59.1556 20.7009C58.5631 20.8055 58.1449 20.3873 58.2146 19.7948Z" fill="#333033"/>
<path d="M6.98491 62.3129C6.39245 62.0341 5.73029 61.825 5.10298 61.6159C4.44082 61.4068 3.74381 61.1977 3.15135 60.8143C2.69829 60.5355 2.38463 60.1521 2.38463 59.5945C2.38463 58.793 2.87255 58.1308 3.70896 57.9217C4.61507 57.6777 5.48634 57.7823 6.2879 58.2354C6.5667 58.3748 6.81066 58.549 7.12431 58.6187C7.54252 58.7233 7.96072 58.549 8.16983 58.2005C8.37893 57.852 8.30923 57.4338 7.99557 57.0853C7.78647 56.8413 7.50766 56.7019 7.22886 56.5625C6.11364 56.0746 4.92873 55.9004 3.70896 56.1095C2.38464 56.3186 1.30427 56.9459 0.57241 58.1308C-0.264004 59.49 0.0844974 61.1977 1.37397 62.1735C1.72247 62.4174 2.10583 62.6265 2.48919 62.8008C3.2559 63.1144 4.05746 63.3584 4.82417 63.6023C5.27723 63.7766 5.76513 63.916 6.18334 64.1948C6.67125 64.5085 6.98491 64.8918 7.01976 65.4843C7.08946 66.6692 6.4273 67.645 5.31208 68.0284C4.30141 68.342 3.3256 68.2026 2.38463 67.7844C2.03613 67.6102 1.68762 67.4359 1.33912 67.2617C0.886058 67.0525 0.433005 67.1571 0.189051 67.5056C-0.0897532 67.889 -0.054909 68.4117 0.258746 68.7602C0.467849 69.0042 0.74666 69.1784 1.06032 69.3178C2.03613 69.7709 3.08164 69.9103 4.12716 69.9103C4.23171 69.9103 4.33626 69.9103 4.44081 69.9103C6.00909 69.8406 7.40312 69.3527 8.37893 68.0632C10.0169 66.007 9.35475 63.4281 6.98491 62.3129Z" fill="white"/>
<path d="M30.4734 62.9401C30.4386 61.3022 29.2537 59.8733 27.6505 59.5596C26.9884 59.4202 26.2914 59.4202 25.5944 59.5596C24.8973 59.6642 24.3049 60.0475 23.7473 60.5354C23.6776 60.0127 23.5382 59.5596 22.9806 59.4899C22.7715 59.4551 22.5624 59.4551 22.3533 59.4899C21.9002 59.5596 21.726 59.8036 21.6562 60.2566C21.6562 63.2189 21.6562 66.1812 21.6562 69.1435C21.726 69.5966 21.9002 69.8057 22.3533 69.9102C22.5275 69.9451 22.7366 69.9451 22.9806 69.9102C23.12 69.8754 23.2245 69.8405 23.3291 69.7708C23.5382 69.6314 23.6079 69.4223 23.6776 69.2132C23.7124 69.039 23.7124 68.8299 23.7124 68.6556C23.7124 68.4117 23.7124 68.1677 23.7124 67.9238C23.7124 67.4359 23.7124 66.9479 23.7124 66.46C23.7124 65.9721 23.7124 65.4842 23.7124 64.9963C23.7124 64.5084 23.7124 64.0205 23.7124 63.5326C23.7124 62.4174 24.3049 61.6507 25.3156 61.337C26.5702 60.9537 28.4521 61.5461 28.4173 63.6371C28.3824 65.3797 28.4173 67.157 28.4173 68.8996C28.4173 69.492 28.6264 69.7708 29.1143 69.9451C29.3234 69.9799 29.5673 69.9799 29.8113 69.9451C29.9855 69.9102 30.1946 69.8057 30.2992 69.6663C30.3689 69.5966 30.4037 69.492 30.4386 69.4223C30.4734 69.2829 30.4734 69.1784 30.4734 69.039C30.4386 67.1222 30.4734 63.0795 30.4734 62.9401Z" fill="white"/>
<path d="M17.4742 66.7387C16.9863 67.6797 16.2196 68.2024 15.1392 68.2024C14.0589 68.2024 13.2224 67.7494 12.7694 66.7387C12.1072 65.3447 12.1072 63.9507 12.8042 62.5566C13.2573 61.6157 14.0588 61.1626 15.0695 61.1626C16.115 61.1626 16.9166 61.5808 17.4045 62.5218C17.8227 63.2536 17.9273 64.0204 17.9273 64.6128C17.8924 65.4841 17.7879 66.1462 17.4742 66.7387ZM19.7743 69.4919C19.7743 69.4919 19.7743 69.457 19.8092 69.457C19.844 69.3525 19.8789 69.2828 19.9138 69.1434C19.9138 66.1811 19.9138 63.2188 19.9138 60.2565C19.9138 60.2216 19.8789 60.1519 19.8789 60.0822C19.844 60.0125 19.8092 59.9428 19.7743 59.8731C19.6001 59.5943 19.3213 59.4549 18.9379 59.4549C18.3455 59.4549 18.0667 59.7686 17.9273 60.5701C17.2651 60.0474 16.5681 59.5595 15.6968 59.4898C15.3135 59.4201 14.9998 59.4201 14.5119 59.4898C13.5361 59.5595 12.6648 59.9428 11.933 60.5701C9.70253 62.5566 9.63283 66.5296 11.7587 68.6555C13.1876 70.0495 16.115 70.642 17.8576 68.76C17.8576 68.76 17.8924 68.76 17.9273 68.76C17.997 69.5964 18.2758 69.9101 18.8682 69.9449C19.2516 69.9798 19.5304 69.8404 19.7395 69.5616C19.7395 69.5267 19.7395 69.5267 19.7743 69.4919Z" fill="white"/>
<path d="M58.9463 56.1787C58.8418 56.1787 53.649 56.1787 53.4399 56.1787C53.3354 56.1787 53.2657 56.2136 53.1611 56.2136C52.952 56.2833 52.7778 56.3878 52.7081 56.5621C52.6035 56.806 52.6035 57.05 52.6035 57.2939C52.6035 57.503 52.6035 57.747 52.6035 57.9561C52.6035 58.5834 52.6035 59.2107 52.6035 59.838C52.6035 60.4653 52.6035 61.0926 52.6035 61.72C52.6035 62.3473 52.6035 62.9746 52.6035 63.6019C52.6035 64.2292 52.6035 64.8565 52.6035 65.4838C52.6035 66.1111 52.6035 66.7384 52.6035 67.3657C52.6035 67.54 52.6035 67.7491 52.6035 67.9234C52.6035 68.1325 52.6035 68.3416 52.6035 68.5507C52.6035 68.7598 52.6035 68.9689 52.6384 69.1431C52.6732 69.3522 52.7778 69.5265 52.9172 69.6659C53.0566 69.7704 53.2308 69.8401 53.4051 69.875C53.7187 69.9098 54.1369 69.875 54.3809 69.631C54.4854 69.5265 54.5552 69.3871 54.59 69.2477C54.6946 68.8992 54.6597 68.5507 54.6597 68.1673C54.6597 67.8537 54.6597 67.54 54.6597 67.2612C54.6597 66.6339 54.6597 66.0066 54.6597 65.3793C54.6597 64.8914 54.6597 64.4035 54.6945 63.9504C54.6945 63.7761 54.9037 63.811 55.0431 63.811C56.0537 63.811 57.7265 63.811 58.4584 63.811C59.1206 63.7761 59.4691 63.3579 59.2948 62.7306C59.1903 62.3124 58.8418 62.0685 58.319 62.0685C57.2038 62.0685 56.0886 62.0685 54.9385 62.0685C54.7643 62.0685 54.6597 62.0336 54.6597 61.8245C54.6597 60.6047 54.6597 59.4198 54.6597 58.2C54.6597 57.9909 54.7643 57.9561 54.9385 57.9561C55.7749 57.9561 58.4584 57.9212 59.0509 57.8864C59.5736 57.8864 59.8176 57.503 59.7827 56.9803C59.7479 56.5621 59.4691 56.2484 58.9463 56.1787Z" fill="white"/>
<path d="M63.6177 58.4448C63.8617 58.4448 64.0708 58.3751 64.2799 58.3054C64.8723 58.0963 65.4648 57.8524 66.0573 57.6433C66.3709 57.5039 66.7194 57.3993 67.0331 57.225C67.3467 57.0856 67.5558 56.8417 67.521 56.4583C67.4861 56.075 67.277 55.7962 66.9285 55.6568C66.7194 55.5871 66.5103 55.5871 66.3012 55.6568C65.2557 56.0053 64.245 56.3886 63.2344 56.8417C62.8162 57.0159 62.6768 57.3644 62.7813 57.7478C62.8162 58.1312 63.1647 58.4448 63.6177 58.4448Z" fill="white"/>
<path d="M35.7012 59.56C35.527 59.5251 35.3179 59.5251 35.1436 59.5251C34.8997 59.56 34.83 59.4554 34.83 59.2114C34.83 58.619 34.8648 57.9917 34.83 57.3992C34.7951 56.8765 34.4466 56.528 33.9238 56.4931C33.3314 56.4234 32.948 56.6674 32.8086 57.1901C32.8086 57.225 32.7389 57.5735 32.7389 57.7129C32.7389 58.2008 32.7389 58.6887 32.7389 59.1417C32.7389 59.4205 32.7041 59.5251 32.3904 59.4903C32.2162 59.4554 32.0071 59.4903 31.8328 59.5251C31.3797 59.5948 31.1358 59.8736 31.1009 60.3267C31.0661 60.7797 31.3101 61.0934 31.7631 61.1979C31.9722 61.2676 32.1813 61.2676 32.3904 61.2328C32.6692 61.1979 32.7389 61.3025 32.7389 61.5813C32.7389 62.2086 32.7389 62.8359 32.7389 63.4632C32.7389 65.0315 32.7389 66.5998 32.7389 68.168C32.7389 68.4817 32.7389 68.7605 32.7738 69.0742C32.8086 69.2833 32.8435 69.4924 32.9829 69.6318C33.1223 69.7712 33.2965 69.8409 33.4708 69.8757C33.6799 69.9106 33.889 69.9106 34.0981 69.8757C34.6208 69.806 34.83 69.2484 34.83 68.7605C34.8648 68.2726 34.83 67.7847 34.83 67.2968C34.83 66.6695 34.83 66.0422 34.83 65.4148C34.83 64.7875 34.83 64.1602 34.83 63.5329C34.83 62.9753 34.83 62.4177 34.83 61.8252C34.83 61.2676 34.83 61.2676 35.3876 61.2328C35.4921 61.2328 35.6315 61.2328 35.7361 61.1979C36.224 61.0934 36.4679 60.7797 36.4679 60.3267C36.4679 59.9433 36.1891 59.6297 35.7012 59.56Z" fill="white"/>
<path d="M62.2934 63.6718C62.4676 62.1383 63.4783 61.1625 64.9769 61.1625C66.58 61.1625 67.6604 62.1035 67.8346 63.6369C67.8695 63.8809 67.8346 63.9157 67.5907 63.9157C66.7542 63.9157 65.9178 63.9157 65.0814 63.9157C64.245 63.9157 63.3737 63.9157 62.5373 63.9157C62.3631 63.9157 62.2934 63.9157 62.2934 63.6718ZM62.607 65.4143C64.6284 65.4143 68.3922 65.4143 68.9847 65.4143C69.7165 65.4143 69.9605 65.1703 69.9605 64.4036C69.9605 63.3581 69.6817 62.3823 69.1241 61.511C68.3225 60.2913 67.2073 59.5943 65.7436 59.4548C65.3602 59.42 65.0466 59.42 64.5587 59.4548C63.3389 59.5245 62.3282 60.0125 61.5267 60.9186C60.2372 62.3823 59.8887 64.09 60.272 65.9719C60.6206 67.6796 61.4918 69.0039 63.1646 69.5964C65.2557 70.3282 67.2073 69.9797 69.0195 68.7599C69.2635 68.5857 69.4726 68.4114 69.612 68.1326C69.8211 67.7841 69.7514 67.3659 69.4726 67.0871C69.2286 66.8083 68.8453 66.7735 68.4968 66.9826C68.218 67.122 67.974 67.3311 67.7301 67.5053C66.6149 68.2372 65.3951 68.4114 64.1056 68.0281C62.9555 67.6796 62.1888 66.5644 62.2934 65.484C62.3979 65.3794 62.5025 65.4143 62.607 65.4143Z" fill="white"/>
<path d="M43.9622 66.7387C43.4743 67.6797 42.7076 68.2024 41.6272 68.2024C40.5468 68.2024 39.7104 67.7494 39.2574 66.7387C38.5952 65.3447 38.5952 63.9507 39.2922 62.5566C39.7453 61.6157 40.5468 61.1626 41.5575 61.1626C42.603 61.1626 43.4046 61.5808 43.8925 62.5218C44.3107 63.2536 44.4152 64.0204 44.4152 64.6128C44.3455 65.4841 44.241 66.1462 43.9622 66.7387ZM46.2275 69.4919C46.2275 69.4919 46.2275 69.457 46.2623 69.457C46.2972 69.3525 46.332 69.2828 46.3669 69.1434C46.3669 66.1811 46.3669 63.2188 46.3669 60.2565C46.3669 60.2216 46.332 60.1519 46.332 60.0822C46.2972 60.0125 46.2623 59.9428 46.2275 59.8731C46.0532 59.5943 45.7744 59.4549 45.391 59.4549C44.7986 59.4549 44.5198 59.7686 44.3804 60.5701C43.7182 60.0474 43.0212 59.5595 42.1499 59.4898C41.7666 59.4201 41.4529 59.4201 40.965 59.4898C39.9892 59.5595 39.118 59.9428 38.3861 60.5701C36.1557 62.5566 36.086 66.5296 38.2118 68.6555C39.6407 70.0495 42.5682 70.642 44.3107 68.76C44.3107 68.76 44.3455 68.76 44.3804 68.76C44.4501 69.5964 44.7289 69.9101 45.3214 69.9449C45.7047 69.9798 45.9835 69.8404 46.1926 69.5616C46.1926 69.5267 46.2275 69.5267 46.2275 69.4919Z" fill="white"/>
</svg>
