<svg width="41" height="41" viewBox="0 0 41 41" fill="none" xmlns="http://www.w3.org/2000/svg">
<path d="M4.09042 36.497C3.73453 36.3407 3.36968 36.2057 2.99778 36.0927C2.59486 35.9848 2.20768 35.825 1.84598 35.6173C1.71317 35.5481 1.60095 35.4452 1.52062 35.3188C1.44029 35.1924 1.39469 35.0471 1.38841 34.8975C1.38045 34.6692 1.45291 34.4455 1.59313 34.2652C1.73336 34.085 1.93245 33.9597 2.15562 33.9113C2.4087 33.8406 2.67346 33.8215 2.93405 33.8554C3.19465 33.8893 3.44574 33.9754 3.6723 34.1086C3.82266 34.2104 3.98757 34.2888 4.16143 34.3413C4.27619 34.37 4.39708 34.3621 4.5071 34.3186C4.61712 34.2751 4.71074 34.1982 4.7748 34.0987C4.83481 33.9963 4.85832 33.8765 4.84148 33.759C4.82465 33.6415 4.76846 33.5332 4.68211 33.4518C4.55996 33.3165 4.4108 33.2083 4.24426 33.1343C3.59603 32.8457 2.87731 32.7538 2.17732 32.87C1.8019 32.9145 1.44163 33.0442 1.12406 33.2493C0.806496 33.4544 0.54004 33.7294 0.345075 34.0533C0.11006 34.4337 0.0272389 34.8887 0.113165 35.3275C0.199091 35.7663 0.447434 36.1564 0.808559 36.4201C1.00888 36.567 1.22606 36.6895 1.45547 36.7849C1.89923 36.9822 2.36666 37.1044 2.82422 37.2602C3.10033 37.3443 3.36522 37.4615 3.61313 37.6093C3.75324 37.6848 3.87217 37.7942 3.959 37.9276C4.04584 38.0609 4.09781 38.214 4.11015 38.3726C4.13266 38.6954 4.04506 39.0162 3.86164 39.2827C3.67823 39.5493 3.40984 39.7457 3.10034 39.84C2.53435 40.0182 1.92155 39.9723 1.38841 39.7118C1.17935 39.6191 0.993953 39.4988 0.777003 39.4061C0.666607 39.3453 0.537865 39.3268 0.414825 39.354C0.291785 39.3813 0.182862 39.4523 0.108402 39.554C0.0301337 39.6648 -0.00767922 39.7991 0.00129723 39.9345C0.0102737 40.0699 0.0654942 40.1981 0.157708 40.2976C0.288588 40.4334 0.445566 40.5414 0.619221 40.6151C1.19089 40.855 1.8059 40.9745 2.42582 40.9662H2.60727C3.52438 40.9247 4.33696 40.6486 4.91681 39.8893C5.85166 38.6645 5.47693 37.1419 4.08451 36.497" fill="white"/>
<path d="M17.8351 36.8596C17.8241 36.3928 17.655 35.9435 17.3555 35.5852C17.056 35.227 16.6438 34.9809 16.1863 34.8873C15.7866 34.8143 15.377 34.8143 14.9773 34.8873C14.5711 34.9708 14.1965 35.167 13.8965 35.4534C13.8551 35.1555 13.7821 34.8873 13.4449 34.8439C13.324 34.8242 13.2008 34.8242 13.08 34.8439C12.9701 34.8563 12.8684 34.9081 12.7937 34.9896C12.719 35.0712 12.6764 35.1771 12.6737 35.2877C12.6737 37.0233 12.6737 38.7589 12.6737 40.4945C12.6787 40.6043 12.7222 40.7089 12.7964 40.79C12.8707 40.8711 12.971 40.9236 13.08 40.9383C13.2003 40.9631 13.3245 40.9631 13.4449 40.9383C13.5201 40.9265 13.592 40.8989 13.6559 40.8574C13.7614 40.7795 13.8323 40.6634 13.8531 40.5339C13.8739 40.4241 13.8831 40.3124 13.8807 40.2006V38.0311C13.8807 37.7432 13.8807 37.4532 13.8807 37.1653C13.8661 36.8785 13.951 36.5955 14.121 36.3641C14.291 36.1327 14.5356 35.967 14.8136 35.8951C15.5572 35.6762 16.6459 36.0095 16.6281 37.2521C16.6143 38.2796 16.6281 39.3052 16.6281 40.3328C16.6281 40.6799 16.7465 40.8515 17.0364 40.9402C17.1669 40.963 17.3003 40.963 17.4308 40.9402C17.5422 40.9214 17.6438 40.865 17.7188 40.7805C17.7545 40.735 17.7819 40.6836 17.7996 40.6286C17.8223 40.5546 17.8323 40.4772 17.8292 40.3998C17.8292 39.321 17.8292 36.9483 17.8292 36.8695" fill="white"/>
<path d="M10.2321 39.0828C10.1159 39.3465 9.92391 39.5696 9.68051 39.7238C9.43711 39.878 9.15333 39.9563 8.86531 39.9486C8.57393 39.9675 8.28383 39.896 8.03461 39.7439C7.7854 39.5918 7.58922 39.3664 7.47288 39.0986C7.28298 38.7178 7.18528 38.2977 7.18768 37.8722C7.19008 37.4466 7.2925 37.0277 7.48669 36.649C7.60203 36.3958 7.78991 36.1825 8.02654 36.0361C8.26317 35.8897 8.53791 35.8168 8.816 35.8266C9.09796 35.8093 9.37884 35.8747 9.62412 36.0149C9.86939 36.155 10.0684 36.3638 10.1966 36.6155C10.3971 36.9925 10.5015 37.4132 10.5003 37.8403C10.5074 38.2695 10.4178 38.6949 10.238 39.0848L10.2321 39.0828ZM11.5831 40.6961C11.5885 40.6873 11.5931 40.6781 11.5969 40.6685C11.6257 40.6135 11.6457 40.5542 11.6561 40.493C11.6561 38.7574 11.6561 37.0218 11.6561 35.2862C11.6503 35.2537 11.641 35.222 11.6285 35.1915C11.6151 35.1458 11.5958 35.1021 11.5713 35.0613C11.5195 34.9796 11.4469 34.9131 11.361 34.8687C11.275 34.8244 11.1788 34.8037 11.0821 34.8089C10.737 34.8089 10.5654 35.0061 10.4905 35.4676C10.096 35.1521 9.70155 34.8759 9.18679 34.8444C8.95932 34.8097 8.72791 34.8097 8.50043 34.8444C7.93971 34.8782 7.40768 35.1038 6.99362 35.4834C5.68205 36.6431 5.64064 38.9802 6.89106 40.2169C7.72139 41.0393 9.43332 41.3844 10.4628 40.28C10.4628 40.28 10.4865 40.28 10.4983 40.28C10.5477 40.7632 10.6956 40.9604 11.0466 40.9801C11.1424 40.991 11.2393 40.9767 11.3279 40.9386C11.4164 40.9006 11.4935 40.8401 11.5515 40.7632C11.5515 40.7474 11.5713 40.7336 11.5792 40.7178" fill="white"/>
<path d="M34.5226 32.9093C34.4595 32.9093 31.4222 32.9093 31.2959 32.9093C31.2425 32.9125 31.1895 32.9218 31.1381 32.9369C31.0815 32.9514 31.0285 32.9778 30.9826 33.0141C30.9368 33.0505 30.899 33.0961 30.8719 33.1479C30.8216 33.2867 30.8015 33.4346 30.8127 33.5818C30.8127 33.71 30.8127 33.8382 30.8127 33.9664C30.8127 34.3332 30.8127 34.7001 30.8127 35.0669V38.3685C30.8127 38.7354 30.8127 39.1022 30.8127 39.469V40.1751C30.8085 40.2938 30.8151 40.4126 30.8324 40.5301C30.8471 40.6414 30.9003 40.744 30.9829 40.82C31.0654 40.8961 31.172 40.9408 31.2841 40.9463C31.3832 40.9657 31.4854 40.9625 31.5831 40.9368C31.6807 40.9112 31.7713 40.8639 31.8482 40.7984C31.905 40.7358 31.9451 40.6598 31.9645 40.5775C32.0065 40.3725 32.0211 40.163 32.0079 39.9542V39.4158C32.0079 39.0489 32.0079 38.6821 32.0079 38.3153C32.0079 38.0352 32.0079 37.7512 32.0217 37.4711C32.0217 37.3686 32.146 37.3824 32.219 37.3824C32.8106 37.3824 33.7968 37.3824 34.211 37.3824C34.5936 37.3587 34.7928 37.1141 34.6981 36.7493C34.6686 36.6259 34.5949 36.5177 34.4909 36.445C34.387 36.3723 34.26 36.3402 34.134 36.3548C33.4773 36.3548 32.8185 36.3548 32.1618 36.3548C32.0592 36.3548 32.004 36.343 32.004 36.2168C32.004 35.5107 32.004 34.8059 32.004 34.1025C32.004 33.9743 32.0592 33.9684 32.1618 33.9664L34.566 33.9329C34.8717 33.9329 35.0097 33.7061 35.0018 33.4063C35.0045 33.3412 34.994 33.2764 34.9711 33.2155C34.9481 33.1546 34.9132 33.0989 34.8683 33.0518C34.8234 33.0047 34.7694 32.9671 34.7097 32.9412C34.65 32.9154 34.5857 32.9018 34.5206 32.9014" fill="white"/>
<path d="M37.2483 34.2345C37.384 34.2268 37.5174 34.1961 37.6428 34.1438C37.9886 34.0123 38.3331 33.8808 38.6762 33.7493C38.8735 33.6744 39.0707 33.6034 39.2521 33.5127C39.3416 33.4797 39.4175 33.4177 39.4676 33.3365C39.5176 33.2554 39.539 33.1597 39.5283 33.065C39.5188 32.9606 39.4803 32.861 39.4173 32.7774C39.3542 32.6938 39.269 32.6294 39.1713 32.5916C39.0507 32.5453 38.9172 32.5453 38.7966 32.5916C38.1871 32.7987 37.5816 33.0157 36.9939 33.276C36.8903 33.3113 36.8041 33.3849 36.7531 33.4818C36.7022 33.5786 36.6902 33.6913 36.7197 33.7967C36.7475 33.9187 36.8147 34.0281 36.911 34.108C37.0073 34.1879 37.1272 34.2338 37.2523 34.2385" fill="white"/>
<path d="M20.9139 34.8856C20.8075 34.8698 20.6997 34.8659 20.5924 34.8737C20.4524 34.8875 20.411 34.8402 20.4129 34.6982C20.4129 34.3412 20.4268 33.9842 20.4129 33.6292C20.4114 33.4891 20.3554 33.3552 20.2567 33.2557C20.158 33.1563 20.0244 33.0993 19.8844 33.0967C19.7418 33.0668 19.5932 33.0933 19.4697 33.1705C19.3462 33.2477 19.2573 33.3697 19.2217 33.5109C19.2029 33.6113 19.1897 33.7127 19.1822 33.8146C19.1822 34.0967 19.1724 34.3807 19.1822 34.6627C19.1822 34.8244 19.1546 34.8954 18.985 34.8737C18.8776 34.8642 18.7695 34.8695 18.6635 34.8895C18.549 34.907 18.4442 34.964 18.3672 35.0506C18.2903 35.1372 18.246 35.248 18.242 35.3638C18.238 35.4795 18.2746 35.5931 18.3455 35.6847C18.4163 35.7764 18.517 35.8405 18.63 35.8658C18.7471 35.8962 18.8689 35.9042 18.989 35.8895C19.1467 35.8737 19.1862 35.923 19.1862 36.0867C19.1862 36.4516 19.1862 36.8164 19.1862 37.1813C19.1862 38.0984 19.1862 39.0135 19.1862 39.9307C19.1816 40.1066 19.1908 40.2827 19.2138 40.4572C19.2233 40.5788 19.2686 40.6947 19.344 40.7906C19.4197 40.8696 19.5197 40.921 19.628 40.9365C19.749 40.9543 19.8719 40.9543 19.9929 40.9365C20.3084 40.8971 20.4189 40.5638 20.4307 40.2876C20.4425 40.0115 20.4307 39.7157 20.4307 39.4297V36.2346C20.4307 35.8993 20.4307 35.8993 20.7581 35.8914C20.8242 35.8914 20.8902 35.8854 20.9553 35.8737C21.0727 35.8522 21.1785 35.7893 21.2535 35.6965C21.3285 35.6038 21.3677 35.4872 21.3642 35.3679C21.3606 35.2486 21.3144 35.1346 21.234 35.0465C21.1535 34.9584 21.0442 34.902 20.9257 34.8875" fill="white"/>
<path d="M36.495 37.2997C36.5877 36.4043 37.1952 35.8304 38.063 35.8244C38.9939 35.8244 39.6408 36.3747 39.7453 37.2721C39.7611 37.4082 39.7453 37.4457 39.5974 37.4417C39.1063 37.4417 38.6113 37.4417 38.1261 37.4417C37.6409 37.4417 37.1301 37.4417 36.6331 37.4417C36.5246 37.4417 36.4832 37.4259 36.495 37.2997ZM36.6745 38.3115C37.8579 38.3115 40.0609 38.3115 40.4218 38.3115C40.8597 38.3115 40.9958 38.1596 40.9997 37.7198C41.01 37.1171 40.8366 36.5255 40.5027 36.0236C40.293 35.6814 40.0046 35.394 39.6616 35.1855C39.3186 34.9769 38.9308 34.8532 38.5304 34.8245C38.3021 34.8036 38.0724 34.8036 37.8441 34.8245C37.5059 34.839 37.1743 34.922 36.8692 35.0685C36.5641 35.2149 36.2918 35.4218 36.069 35.6765C35.3077 36.5246 35.1105 37.5324 35.3255 38.6349C35.5227 39.6211 36.0375 40.41 37.0197 40.7492C38.2346 41.1792 39.3864 40.976 40.4534 40.266C40.5956 40.1741 40.7139 40.0497 40.7985 39.9031C40.8547 39.8067 40.8779 39.6946 40.8643 39.5838C40.8508 39.473 40.8014 39.3698 40.7236 39.2897C40.6507 39.2131 40.553 39.1649 40.4478 39.1537C40.3427 39.1425 40.237 39.1691 40.1497 39.2286C39.9938 39.3193 39.8499 39.4258 39.698 39.5303C39.39 39.7407 39.038 39.878 38.6688 39.9317C38.2997 39.9853 37.9231 39.954 37.5679 39.84C37.2503 39.7441 36.9733 39.5459 36.78 39.2762C36.5866 39.0066 36.4878 38.6806 36.499 38.349C36.5463 38.2937 36.6094 38.3115 36.6686 38.3115" fill="white"/>
<path d="M25.7341 39.0828C25.6182 39.3463 25.4266 39.5694 25.1835 39.7236C24.9405 39.8778 24.657 39.9561 24.3692 39.9487C24.0776 39.9674 23.7874 39.8958 23.5379 39.7437C23.2884 39.5917 23.0918 39.3664 22.9749 39.0986C22.7854 38.7177 22.688 38.2976 22.6904 37.8722C22.6928 37.4467 22.7949 37.0278 22.9887 36.649C23.104 36.3958 23.2919 36.1825 23.5285 36.0361C23.7651 35.8897 24.0399 35.8168 24.318 35.8266C24.6 35.809 24.881 35.8743 25.1263 36.0145C25.3716 36.1547 25.5705 36.3636 25.6986 36.6155C25.8991 36.9925 26.0034 37.4132 26.0023 37.8403C26.0094 38.2696 25.9197 38.6949 25.74 39.0848L25.7341 39.0828ZM27.0851 40.6961L27.1008 40.6685C27.1288 40.6131 27.1487 40.554 27.16 40.493C27.1521 38.7574 27.1521 37.0218 27.16 35.2862C27.1535 35.2537 27.1436 35.222 27.1304 35.1915C27.117 35.1459 27.0978 35.1021 27.0732 35.0614C27.022 34.9796 26.9497 34.9131 26.8641 34.8687C26.7784 34.8243 26.6824 34.8037 26.5861 34.8089C26.2409 34.8089 26.0674 35.0061 25.9944 35.4676C25.5999 35.1521 25.2055 34.876 24.6907 34.8444C24.4633 34.8097 24.2318 34.8097 24.0044 34.8444C23.4435 34.8775 22.9113 35.1033 22.4976 35.4834C21.184 36.6431 21.1426 38.9803 22.393 40.2169C23.2253 41.0393 24.9373 41.3845 25.9648 40.28C25.9648 40.28 25.9885 40.28 26.0003 40.28C26.0496 40.7632 26.1975 40.9604 26.5486 40.9801C26.6444 40.9912 26.7414 40.977 26.83 40.9389C26.9185 40.9009 26.9956 40.8403 27.0535 40.7632C27.0634 40.7474 27.0732 40.7336 27.0811 40.7178" fill="white"/>
<path d="M17.4702 26.5939C16.994 26.9832 16.4311 27.2524 15.829 27.3787C15.227 27.505 14.6034 27.4848 14.0108 27.3197C13.642 27.2261 13.299 27.0505 13.0073 26.806C12.7157 26.5615 12.483 26.2544 12.3265 25.9075C12.295 25.844 12.2686 25.778 12.2476 25.7103C12.2168 25.6229 12.2199 25.5271 12.2565 25.442C12.293 25.3568 12.3603 25.2886 12.4448 25.2507C12.4896 25.2302 12.538 25.219 12.5873 25.2179C12.6365 25.2167 12.6854 25.2257 12.731 25.2441C12.7767 25.2626 12.818 25.2902 12.8526 25.3253C12.8871 25.3603 12.9142 25.4021 12.932 25.448C13.362 26.4913 14.3777 26.8956 15.6025 26.655C16.1084 26.5761 16.5846 26.3652 16.9831 26.0436C17.2869 25.8057 17.5136 25.4833 17.6346 25.117C17.7557 24.7506 17.7658 24.3566 17.6635 23.9845C17.6378 23.8721 17.5964 23.7636 17.5708 23.6532C17.5499 23.5637 17.563 23.4696 17.6076 23.3892C17.6522 23.3089 17.725 23.2479 17.812 23.2182C17.8989 23.1884 17.9938 23.1921 18.0783 23.2284C18.1627 23.2647 18.2307 23.331 18.269 23.4146C18.4307 23.7143 18.7246 25.6491 17.4682 26.5958" fill="white"/>
<path d="M12.7388 22.8782C12.737 22.809 12.749 22.7402 12.7743 22.6758C12.7996 22.6113 12.8375 22.5526 12.8859 22.5031C12.9343 22.4537 12.9921 22.4144 13.0559 22.3877C13.1198 22.361 13.1883 22.3474 13.2575 22.3477C13.3331 22.3494 13.4075 22.3662 13.4765 22.397C13.5455 22.4278 13.6077 22.472 13.6595 22.5271C13.7112 22.5822 13.7515 22.647 13.778 22.7177C13.8045 22.7885 13.8166 22.8638 13.8137 22.9393C13.8156 23.0085 13.8036 23.0772 13.7785 23.1416C13.7533 23.206 13.7156 23.2648 13.6675 23.3144C13.6193 23.364 13.5617 23.4035 13.4981 23.4305C13.4345 23.4576 13.3661 23.4716 13.297 23.4719C13.1459 23.4633 13.0039 23.3972 12.9001 23.2871C12.7963 23.1771 12.7386 23.0315 12.7388 22.8802" fill="white"/>
<path d="M15.9832 21.7522C16.0585 21.7517 16.1331 21.7663 16.2025 21.7952C16.272 21.824 16.3349 21.8666 16.3876 21.9204C16.4402 21.9741 16.4815 22.0379 16.5089 22.108C16.5364 22.178 16.5494 22.2529 16.5473 22.3281C16.5514 22.3972 16.5412 22.4664 16.5174 22.5314C16.4936 22.5964 16.4567 22.6557 16.409 22.7059C16.3613 22.756 16.3037 22.7958 16.24 22.8227C16.1763 22.8497 16.1077 22.8633 16.0385 22.8626C15.8911 22.8595 15.7507 22.7991 15.6472 22.6941C15.5437 22.5891 15.4853 22.4479 15.4843 22.3005C15.4797 22.2314 15.4892 22.1622 15.512 22.0969C15.5348 22.0315 15.5706 21.9715 15.6172 21.9203C15.6638 21.8691 15.7202 21.8278 15.7831 21.799C15.846 21.7701 15.9141 21.7542 15.9832 21.7522Z" fill="white"/>
<path d="M25.9806 27.8091C25.5751 27.8253 25.1706 27.7577 24.7923 27.6108C24.414 27.4639 24.0699 27.2407 23.7816 26.9552C23.3187 26.4923 22.9796 25.9206 22.7954 25.2925C22.774 25.243 22.7633 25.1895 22.7641 25.1355C22.7649 25.0815 22.7772 25.0283 22.8001 24.9794C22.8231 24.9306 22.8561 24.8871 22.8972 24.852C22.9382 24.8169 22.9862 24.7909 23.038 24.7758C23.0898 24.7604 23.1442 24.7559 23.1979 24.7624C23.2515 24.769 23.3033 24.7865 23.3499 24.8138C23.3965 24.8412 23.437 24.8779 23.4688 24.9215C23.5007 24.9652 23.5232 25.0149 23.535 25.0677C23.6431 25.4116 23.8034 25.7369 24.0103 26.0321C24.6178 26.8861 25.456 27.2037 26.4915 26.9749C26.9028 26.8748 27.3003 26.7245 27.6748 26.5272C27.742 26.4866 27.8197 26.4671 27.898 26.4709C27.9764 26.4748 28.0518 26.5019 28.1146 26.5489C28.1714 26.5892 28.2154 26.6451 28.2413 26.7098C28.2672 26.7745 28.2739 26.8453 28.2606 26.9137C28.251 26.9713 28.2282 27.0258 28.194 27.073C28.1598 27.1203 28.1151 27.1589 28.0634 27.1859C27.4222 27.5414 26.7117 27.754 25.9806 27.8091Z" fill="white"/>
<path d="M25.5187 22.6095C25.5216 22.6853 25.5093 22.7609 25.4826 22.8319C25.4559 22.9029 25.4152 22.9679 25.3631 23.023C25.3109 23.0781 25.2483 23.1222 25.1789 23.1528C25.1094 23.1833 25.0346 23.1997 24.9588 23.201C24.8019 23.201 24.6515 23.1386 24.5405 23.0277C24.4296 22.9168 24.3673 22.7664 24.3673 22.6095C24.3673 22.4527 24.4296 22.3022 24.5405 22.1913C24.6515 22.0804 24.8019 22.0181 24.9588 22.0181C25.0358 22.019 25.1119 22.0356 25.1824 22.0667C25.2528 22.0979 25.3163 22.1431 25.3688 22.1995C25.4213 22.2559 25.4619 22.3223 25.488 22.3948C25.5141 22.4674 25.5252 22.5444 25.5206 22.6213" fill="white"/>
<path d="M27.5605 24.3517C27.4128 24.3257 27.2814 24.2422 27.1952 24.1194C27.1091 23.9966 27.0752 23.8447 27.101 23.6969C27.1187 23.5942 27.1643 23.4983 27.2328 23.4198C27.3014 23.3413 27.3903 23.2831 27.4897 23.2517C27.5891 23.2203 27.6952 23.2169 27.7964 23.2418C27.8977 23.2667 27.9901 23.319 28.0636 23.3929C28.1371 23.4669 28.1888 23.5596 28.2131 23.661C28.2374 23.7624 28.2333 23.8685 28.2013 23.9677C28.1693 24.0669 28.1107 24.1554 28.0317 24.2235C27.9528 24.2916 27.8566 24.3366 27.7538 24.3537C27.6887 24.367 27.6216 24.367 27.5566 24.3537" fill="white"/>
<path d="M25.7144 15.4095C24.864 15.3412 24.0734 14.9452 23.5094 14.305C23.1193 13.8924 22.8546 13.3773 22.7462 12.8199C22.7271 12.7225 22.7179 12.6234 22.7186 12.5241C22.7148 12.4309 22.7478 12.34 22.8106 12.2709C22.8733 12.2019 22.9607 12.1604 23.0538 12.1553C23.1015 12.1468 23.1505 12.1479 23.1977 12.1586C23.245 12.1692 23.2896 12.1892 23.3291 12.2172C23.3686 12.2453 23.4021 12.281 23.4276 12.3222C23.4532 12.3633 23.4702 12.4092 23.4779 12.457C23.5101 12.6838 23.5683 12.9062 23.6514 13.1197C23.7937 13.4536 24.0058 13.7531 24.2736 13.9981C24.5413 14.2432 24.8585 14.4279 25.2036 14.5401C25.5488 14.6522 25.914 14.6891 26.2746 14.6482C26.6352 14.6073 26.9829 14.4896 27.2942 14.3031C27.7226 14.059 28.1008 13.7357 28.4086 13.3505C28.4401 13.2993 28.4829 13.2561 28.5338 13.224C28.5846 13.1919 28.6421 13.1719 28.7018 13.1654C28.7615 13.1589 28.822 13.1662 28.8785 13.1867C28.935 13.2071 28.9861 13.2402 29.0279 13.2834C29.0895 13.3379 29.1285 13.4134 29.1372 13.4951C29.146 13.5769 29.1239 13.6589 29.0752 13.7252C28.3395 14.6877 27.4106 15.3385 26.1404 15.4075C25.9827 15.4075 25.8426 15.4075 25.7204 15.4075" fill="white"/>
<path d="M25.7322 10.1805C25.7359 10.3357 25.6785 10.4863 25.5722 10.5995C25.4659 10.7128 25.3194 10.7798 25.1642 10.7859C25.0206 10.7844 24.8835 10.7264 24.7824 10.6246C24.6812 10.5227 24.6243 10.3851 24.6237 10.2416C24.6216 10.1621 24.6353 10.083 24.664 10.0088C24.6927 9.93465 24.7358 9.8669 24.7908 9.80949C24.8458 9.75209 24.9117 9.70616 24.9846 9.67436C25.0575 9.64257 25.1359 9.62554 25.2154 9.62427C25.3586 9.62941 25.494 9.69059 25.5925 9.79462C25.691 9.89866 25.7447 10.0372 25.742 10.1805" fill="white"/>
<path d="M28.5072 11.122C28.5075 11.2726 28.4504 11.4177 28.3474 11.5277C28.2444 11.6376 28.1034 11.7041 27.953 11.7137C27.8797 11.7127 27.8074 11.697 27.7402 11.6677C27.6731 11.6383 27.6124 11.5959 27.5619 11.5428C27.5114 11.4897 27.472 11.427 27.446 11.3585C27.42 11.29 27.408 11.2169 27.4106 11.1437C27.4069 10.9917 27.4632 10.8444 27.5673 10.7337C27.6714 10.6229 27.8149 10.5577 27.9668 10.552C28.04 10.5519 28.1124 10.5667 28.1797 10.5954C28.247 10.6242 28.3078 10.6663 28.3583 10.7192C28.4088 10.7722 28.4481 10.8348 28.4737 10.9034C28.4993 10.9719 28.5107 11.045 28.5072 11.118" fill="white"/>
<path d="M14.3582 15.7778C13.3997 15.7403 12.524 15.2078 11.8909 14.267C11.8568 14.2252 11.832 14.1766 11.818 14.1245C11.804 14.0724 11.8012 14.0179 11.8098 13.9646C11.8184 13.9114 11.8381 13.8605 11.8677 13.8154C11.8973 13.7703 11.9361 13.732 11.9816 13.7029C12.0282 13.6707 12.0812 13.649 12.137 13.6391C12.1927 13.6292 12.25 13.6314 12.3048 13.6457C12.3597 13.6599 12.4108 13.6857 12.4547 13.7215C12.4987 13.7572 12.5344 13.802 12.5595 13.8528C13.0624 14.5668 13.7211 15.0165 14.6402 14.9987C15.1682 14.9835 15.6756 14.7907 16.0804 14.4514C16.4852 14.1121 16.7637 13.6462 16.8709 13.129C16.8709 13.0836 16.8847 13.0383 16.8965 12.9929C16.9153 12.8934 16.9716 12.8049 17.0539 12.7458C17.1361 12.6867 17.238 12.6615 17.3383 12.6754C17.3902 12.6813 17.4404 12.6978 17.4856 12.7239C17.5309 12.75 17.5703 12.7852 17.6013 12.8271C17.6324 12.8691 17.6545 12.9171 17.6663 12.968C17.678 13.0189 17.6792 13.0717 17.6696 13.1231C17.5917 13.7677 17.3001 14.3676 16.8413 14.8271C16.2496 15.4188 15.4094 15.7797 14.3582 15.7837" fill="white"/>
<path d="M16.1327 11.1317C16.1376 11.2046 16.1274 11.2777 16.1029 11.3466C16.0783 11.4154 16.0399 11.4785 15.99 11.5319C15.9401 11.5853 15.8798 11.6279 15.8128 11.657C15.7458 11.6862 15.6735 11.7013 15.6004 11.7014C15.443 11.6959 15.2937 11.6299 15.1835 11.5172C15.0734 11.4045 15.0109 11.2537 15.009 11.0962C15.0061 11.0232 15.0177 10.9503 15.0432 10.8819C15.0686 10.8134 15.1074 10.7507 15.1573 10.6973C15.2072 10.644 15.2671 10.601 15.3337 10.571C15.4003 10.541 15.4722 10.5245 15.5452 10.5225C15.7037 10.5271 15.8541 10.5933 15.9646 10.707C16.075 10.8208 16.1367 10.9731 16.1367 11.1317" fill="white"/>
<path d="M12.9004 11.382C13.047 11.416 13.1752 11.5047 13.2587 11.63C13.3423 11.7553 13.3748 11.9077 13.3499 12.0562C13.3325 12.1868 13.2676 12.3065 13.1676 12.3923C13.0676 12.4781 12.9395 12.5241 12.8077 12.5215C12.6606 12.5169 12.5199 12.4596 12.4114 12.3601C12.3029 12.2606 12.2336 12.1255 12.2163 11.9793C12.1966 11.8454 12.2283 11.7089 12.3051 11.5973C12.3819 11.4858 12.4981 11.4075 12.6303 11.378C12.7212 11.3479 12.8193 11.3479 12.9102 11.378" fill="white"/>
<path d="M39.7548 5.32514C39.4748 8.7707 39.3367 26.4009 39.5576 29.6275C39.603 30.2764 39.2756 30.1995 39.0507 30.1423C38.6977 30.0535 33.8972 29.1108 33.3173 29.0989C33.1299 29.0989 33.0688 29.0141 33.0727 28.8445C33.0866 27.8387 33.0925 25.4108 33.0964 24.4049C33.0964 22.4662 33.1457 15.4232 33.1497 14.5534C33.1497 12.7784 33.1654 8.5005 33.1635 6.71954C33.1635 6.54401 33.2167 6.48287 33.3942 6.44539C35.0864 6.09433 38.7667 5.23639 39.1434 5.12989C39.2558 5.09833 39.8317 4.85574 39.7548 5.32711V5.32514ZM32.1872 5.43559C31.5955 5.43559 30.5443 5.43559 30.3668 5.43559H10.6204C10.4606 5.43559 9.61648 5.43559 9.04255 5.43559C8.72896 5.43559 8.68557 5.32909 9.04255 5.27781C11.6716 4.90307 19.4187 1.95255 20.2431 1.36284C20.3181 1.31605 20.4053 1.2927 20.4936 1.29578C20.5821 1.29032 20.6701 1.31386 20.7441 1.36284C21.4758 1.94269 30.0709 4.98197 32.1833 5.32711C32.4337 5.36656 32.4101 5.43559 32.1833 5.43559H32.1872ZM31.8006 17.3008C30.7967 17.2791 27.2171 17.2416 26.6274 17.2515C26.5938 17.2515 26.5642 17.2515 26.5702 17.2199C26.5761 17.1884 26.6313 17.1805 26.6629 17.1785C26.793 17.1647 27.1244 17.1154 27.2388 17.0858C27.3532 17.0562 27.4735 17.0207 27.5898 16.9833C27.8181 16.9044 28.0409 16.8102 28.2565 16.7012C28.4712 16.5908 28.6799 16.469 28.8817 16.3363C29.0217 16.2456 29.1578 16.151 29.2919 16.0523C29.9835 15.5643 30.5436 14.9127 30.9222 14.1556C31.3008 13.3985 31.486 12.5595 31.4614 11.7133C31.4614 10.3564 30.9013 9.18094 30.0808 8.11394C29.8513 7.81503 29.6036 7.53049 29.3392 7.26191C29.3069 7.21787 29.2657 7.18102 29.2184 7.15372C29.171 7.12643 29.1185 7.10926 29.0642 7.10333C29.0098 7.0974 28.9549 7.10282 28.9027 7.11925C28.8506 7.13569 28.8025 7.16278 28.7614 7.1988C28.5878 7.35264 28.5898 7.55973 28.7614 7.76682L29.002 8.01927C30.0019 9.09219 30.7001 10.3091 30.7119 11.8001C30.7303 12.3733 30.629 12.944 30.4144 13.4758C30.1997 14.0076 29.8766 14.4888 29.4655 14.8887C28.7298 15.6125 27.8876 16.1865 26.8502 16.4054C26.1991 16.5542 25.5213 16.5413 24.8763 16.3677C24.2313 16.194 23.6387 15.865 23.1502 15.4094C22.103 14.4942 21.4856 13.3523 21.5409 11.9441C21.6079 10.1809 22.5132 8.66815 24.1206 8.01532C25.0515 7.63467 25.9923 7.70568 26.9291 8.01532C27.3581 8.15081 27.7677 8.34106 28.148 8.58137C28.2137 8.63688 28.2949 8.67097 28.3805 8.67908C28.4662 8.68718 28.5523 8.66892 28.6272 8.62673C28.7012 8.58385 28.7587 8.51744 28.7905 8.43808C28.8223 8.35871 28.8266 8.27098 28.8028 8.18888C28.7552 8.09264 28.6804 8.01242 28.5878 7.95813C27.432 7.29347 26.2053 6.91282 24.8405 7.07258C23.7123 7.20472 22.4737 7.89896 21.8288 8.80226C21.1839 9.70556 21.1405 10.3801 21.1405 10.3801C21.1405 10.3801 21.1977 7.68793 21.1918 6.71757C21.1918 6.55979 21.2332 6.51048 21.389 6.52034C24.7813 6.53809 28.4063 6.5519 31.7987 6.56176C31.9446 6.56176 31.9821 6.60712 31.9821 6.74518C31.9821 7.39406 31.9821 14.3187 32.0097 17.0976C32.0097 17.283 31.9624 17.3264 31.7809 17.3225L31.8006 17.3008ZM32.0057 18.4881C32.0057 18.8707 31.9584 27.4146 31.9801 28.8859C31.9801 29.0516 31.7691 29.0832 31.7691 29.0832H28.9428C28.9428 29.0832 28.7811 29.0536 28.8915 29.0023C30.3589 28.1956 31.0236 27.03 31.2721 25.464C31.5833 23.4918 31.2781 21.4717 30.3983 19.6794C30.2826 19.4397 30.146 19.2107 29.9901 18.995C29.9448 18.9085 29.8709 18.8403 29.781 18.8022C29.691 18.7641 29.5907 18.7583 29.497 18.7859C29.4047 18.8139 29.3259 18.8746 29.2754 18.9568C29.2249 19.0389 29.2062 19.1367 29.2229 19.2316H29.1716H29.2229C29.9427 20.2178 30.284 21.3558 30.491 22.5214C30.7389 23.7667 30.6752 25.054 30.3056 26.2687C29.8146 27.8091 28.7535 28.7459 27.1303 29.0141C26.3091 29.1639 25.4639 29.1149 24.6655 28.8713C23.8671 28.6277 23.1385 28.1965 22.5408 27.6138C21.5704 26.7085 21.2726 25.5232 21.3574 24.2432C21.3874 23.6366 21.5043 23.0375 21.7046 22.4642C22.2193 21.0087 23.2824 20.2493 24.8188 20.0856C25.3923 20.0273 25.9714 20.0552 26.5366 20.1685C26.8088 20.2198 27.006 20.1172 27.0553 19.9062C27.1145 19.6636 26.9863 19.4841 26.6924 19.421C26.4952 19.3776 26.2822 19.348 26.0751 19.3125C25.3919 19.262 24.705 19.3058 24.0338 19.4427C23.4494 19.565 22.899 19.8145 22.4218 20.1734C21.9446 20.5324 21.5523 20.9919 21.2726 21.5195L21.2253 21.5984C21.2195 21.6046 21.2129 21.6099 21.2056 21.6142C21.1346 21.5964 21.1701 21.5412 21.1701 21.5037C21.1701 20.488 21.1701 19.4742 21.1701 18.4585C21.1701 18.3007 21.2095 18.2495 21.3673 18.2495C22.8524 18.2495 24.3395 18.2495 25.8266 18.2495C25.9548 18.2495 26.0238 18.2495 25.9706 18.4171C25.9446 18.5071 25.9541 18.6036 25.997 18.6868C26.0399 18.7701 26.113 18.8337 26.2013 18.8648C26.6726 18.9565 27.1207 19.142 27.5188 19.4103C27.9169 19.6787 28.257 20.0244 28.5188 20.4268C28.6706 20.6488 28.7722 20.9012 28.8166 21.1665C28.816 21.2244 28.8283 21.2818 28.8524 21.3345C28.8766 21.3872 28.912 21.434 28.9563 21.4714C29.0006 21.5088 29.0526 21.5361 29.1086 21.5511C29.1646 21.5662 29.2232 21.5687 29.2803 21.5585C29.3373 21.5484 29.3915 21.5257 29.4388 21.4922C29.4861 21.4588 29.5255 21.4153 29.5541 21.3648C29.5827 21.3144 29.5999 21.2583 29.6043 21.2005C29.6088 21.1427 29.6004 21.0846 29.5798 21.0304C29.4646 20.4727 29.2024 19.9559 28.8205 19.5334C28.8215 19.5255 28.8215 19.5176 28.8205 19.5097C28.3157 18.9755 27.706 18.5511 27.0297 18.2633C28.6489 18.2633 30.2366 18.2633 31.844 18.2889C32.0196 18.2889 32.0156 18.4132 32.0156 18.4546L32.0057 18.4881ZM21.1267 13.5811C21.8801 15.6914 23.1206 16.8156 25.2902 17.1864C25.3118 17.1864 25.3414 17.1864 25.3552 17.2101C25.3581 17.2125 25.3605 17.2155 25.3621 17.2189C25.3637 17.2223 25.3645 17.226 25.3645 17.2298C25.3645 17.2336 25.3637 17.2373 25.3621 17.2407C25.3605 17.2441 25.3581 17.2471 25.3552 17.2495C25.299 17.2693 25.2388 17.2754 25.1797 17.2673C25.1087 17.2673 24.8937 17.2673 24.8207 17.2673L21.3436 17.2456C21.1819 17.2456 21.1997 17.0128 21.1997 17.0128C21.1997 17.0128 21.1306 13.6383 21.1326 13.5811H21.1267ZM21.6217 29.0536C21.462 29.0536 21.2608 29.0753 21.174 28.9392C21.1174 28.7944 21.0997 28.6373 21.1227 28.4836C21.1227 27.9156 21.1227 27.3456 21.1227 26.7776C21.6392 27.7962 22.5022 28.5969 23.5565 29.0358C22.8859 29.0358 22.2548 29.0674 21.6217 29.0536ZM20.1977 28.9254C20.111 29.0634 19.9098 29.0378 19.752 29.0417C19.1209 29.0555 18.261 29.022 17.5943 29.022C18.6179 28.4895 19.6554 27.7519 20.249 26.744C20.249 27.3173 20.249 27.8912 20.249 28.4658C20.2736 28.6207 20.2566 28.7793 20.1997 28.9254H20.1977ZM12.9733 17.2515C12.5611 17.2653 11.3403 17.2732 11.2574 17.2692C11.2061 17.2692 11.2278 17.2278 11.2732 17.1746C11.4135 16.9911 11.5228 16.7859 11.5966 16.5671C11.9576 16.8551 12.5828 17.0641 12.9772 17.2535L12.9733 17.2515ZM20.1267 15.8295V17.2258C20.1197 17.2392 20.1087 17.2501 20.0954 17.2572C20.082 17.2642 20.0668 17.267 20.0518 17.2653C19.5646 17.2653 17.3656 17.2495 16.7265 17.2495C17.747 16.8201 18.5898 16.0546 19.115 15.08C19.3477 15.3711 19.6737 15.5731 20.038 15.652C20.1484 15.6756 20.1327 15.7565 20.1327 15.8314L20.1267 15.8295ZM19.6021 13.8966C19.6828 13.4233 19.7302 12.9448 19.7441 12.4648C19.7717 11.1611 19.5035 9.94421 18.5903 8.9344C18.2392 8.52691 17.7974 8.20754 17.3003 8.00201C16.8033 7.79647 16.2649 7.71051 15.7286 7.75104H15.6122C14.7419 7.94209 13.9256 8.32629 13.2238 8.87524C12.8212 9.18212 12.3569 9.39811 11.8629 9.50834C11.762 9.53551 11.6556 9.5348 11.555 9.5063C11.4545 9.47779 11.3636 9.42255 11.2919 9.34646C11.2203 9.27036 11.1706 9.17627 11.1482 9.07419C11.1258 8.9721 11.1315 8.86586 11.1647 8.76676C11.2382 8.53821 11.3621 8.32913 11.5273 8.155C11.6926 7.98088 11.8949 7.84618 12.1193 7.7609C12.8648 7.44139 13.6241 7.51437 14.3756 7.7609C14.6892 7.86149 14.8272 7.80429 14.9811 7.51634C14.9811 7.2205 14.916 7.12188 14.6379 7.02721C14.2581 6.88881 13.8586 6.81223 13.4545 6.8004C13.2686 6.79055 13.0823 6.79055 12.8964 6.8004C11.8353 6.85168 11.0227 7.31122 10.5158 8.23227C10.1944 8.82396 10.3009 9.37817 10.7131 9.89293H10.7012C10.715 9.89293 10.7801 9.96393 10.792 9.97379C10.8038 9.98365 10.8551 10.029 10.8886 10.0547C10.9621 10.1177 11.0445 10.1695 11.1332 10.2085C11.3496 10.2894 11.5814 10.3211 11.8116 10.3012C12.0557 10.2794 12.2951 10.2209 12.5216 10.1276H12.5355C12.6873 10.0645 12.8372 9.99549 12.9851 9.9304L13.0364 9.90476C13.3262 9.7565 13.6026 9.58362 13.8628 9.38803C14.2017 9.14361 14.566 8.93663 14.9495 8.77071C15.4934 8.53555 16.1006 8.49057 16.6732 8.64302C17.2458 8.79546 17.7502 9.13644 18.1052 9.61089C18.6216 10.2811 18.9148 11.0965 18.9434 11.9421C18.9946 12.944 18.8743 13.9144 18.3832 14.8039C17.7186 16.0149 16.624 16.5987 15.2868 16.7919C12.4783 17.1864 10.7249 15.2141 10.3245 13.161C10.1596 12.3178 10.1995 11.4473 10.4409 10.6227C10.467 10.5507 10.4766 10.4737 10.4687 10.3976C10.4608 10.3214 10.4358 10.248 10.3955 10.1829C10.0563 9.93632 9.76835 10.031 9.67171 10.4392C9.23584 12.2675 9.41728 14.0031 10.5553 15.581C10.7054 15.7771 10.7914 16.0147 10.8018 16.2614C10.795 16.4755 10.7075 16.6791 10.5567 16.8313C10.406 16.9835 10.2033 17.073 9.98924 17.0819C9.81899 17.0709 9.65922 16.9958 9.54212 16.8718C9.42501 16.7477 9.35926 16.5839 9.35812 16.4133C9.37587 16.216 9.53562 16.0878 9.79202 16.0977C9.87278 16.109 9.9551 16.0964 10.0287 16.0613C10.1024 16.0262 10.1641 15.9703 10.2062 15.9005C10.2365 15.8425 10.2518 15.7779 10.2509 15.7124C10.25 15.647 10.2328 15.5829 10.2009 15.5258C10.169 15.4686 10.1234 15.4203 10.0682 15.3852C10.013 15.3501 9.94997 15.3293 9.88471 15.3246C9.61593 15.2949 9.34405 15.3357 9.0958 15.4429C9.0958 15.1116 9.07805 9.32886 9.06819 6.54006C9.08989 6.47892 9.14511 6.4947 9.18653 6.49667H9.32853H9.62635H10.0583C13.1311 6.51245 20.0498 6.48287 20.0972 6.48287C20.1063 6.48095 20.1157 6.48095 20.1248 6.48287C20.1898 6.50851 20.1662 6.68009 20.1662 6.72743C20.1662 8.10802 20.1425 14.7999 20.1425 14.8354C19.7481 14.723 19.5331 14.3522 19.608 13.8828L19.6021 13.8966ZM13.3618 28.598C12.8109 28.4406 12.3021 28.1623 11.8725 27.7832C11.4429 27.4041 11.1034 26.9338 10.8787 26.4068C10.4544 25.5459 10.2511 24.5929 10.2871 23.6338C10.3719 22.1802 11.076 21.0698 12.3126 20.2809C13.1442 19.7181 14.1142 19.3941 15.1172 19.3441C15.6625 19.3078 16.2082 19.4088 16.7043 19.638C17.2005 19.8671 17.6313 20.217 17.9572 20.6556C18.1545 20.916 18.3635 20.983 18.5647 20.8371C18.7659 20.6911 18.7619 20.4801 18.5647 20.2316L18.5114 20.1645C17.407 18.8727 16.0007 18.3698 14.3164 18.7011C12.5414 19.0502 11.0957 19.916 10.1746 21.486C9.59914 22.4711 9.39684 23.6302 9.60465 24.752C9.80188 26.0143 10.2161 27.1937 11.1608 28.1306C11.5172 28.4824 11.9145 28.7903 12.3441 29.0477C11.3166 29.0477 9.26936 29.0477 9.26936 29.0477C9.24555 29.0505 9.22141 29.0479 9.19874 29.0401C9.17607 29.0323 9.15544 29.0194 9.13839 29.0026C9.12134 28.9857 9.1083 28.9652 9.10025 28.9427C9.0922 28.9201 9.08933 28.896 9.09186 28.8721C9.09186 27.6592 9.05636 19.8687 9.03861 18.6163C9.03861 18.4191 9.07805 18.3422 9.30486 18.3402C11.2002 18.3402 19.3339 18.2554 20.038 18.2495C20.1386 18.2495 20.1504 18.3855 20.1504 18.3855L20.1721 20.9041C20.1721 20.9041 19.9354 20.2651 19.8486 20.0975C19.7619 19.9298 19.6238 19.7721 19.3911 19.8174C19.1583 19.8628 19.0992 20.0265 19.0952 20.2276V20.2395C19.4109 20.8002 19.6465 21.4023 19.7954 22.0283C20.0628 23.2899 20.0153 24.5979 19.6573 25.8368C19.5282 26.3122 19.3009 26.7552 18.9901 27.1374C18.6792 27.5195 18.2918 27.8323 17.8527 28.0556C16.4386 28.8031 14.9298 29.0417 13.3756 28.594L13.3618 28.598ZM7.69549 29.093C7.11367 29.1049 2.31512 30.0476 1.96209 30.1364C1.73725 30.1936 1.40985 30.2705 1.45324 29.6216C1.67611 26.3949 1.53608 8.76479 1.25601 5.31922C1.17909 4.84982 1.755 5.09241 1.86742 5.122C2.24215 5.2285 5.92241 6.08644 7.61463 6.4375C7.79213 6.47498 7.84735 6.53612 7.84735 6.71165C7.84735 8.4867 7.84735 12.7646 7.86116 14.5455C7.86116 15.4153 7.90455 22.4583 7.91441 24.4069C7.91441 25.4128 7.91441 27.8406 7.93808 28.8465C7.93808 29.0161 7.88088 29.097 7.69352 29.1009L7.69549 29.093ZM40.5575 19.3953V19.2159C40.5575 19.1547 40.5575 19.0936 40.5575 19.0305C40.5575 18.8806 40.5575 18.7307 40.5575 18.5769C40.6167 12.378 40.8652 5.25019 40.9816 4.08852C41.0151 3.74732 40.6325 3.48106 40.2282 3.61715C38.2952 4.24816 36.3284 4.77032 34.337 5.18117L34.0194 5.24822C33.9962 5.13399 33.938 5.02985 33.8528 4.9503C33.7676 4.87076 33.6597 4.81978 33.5441 4.80446C30.5634 4.0723 27.6368 3.13521 24.7852 1.99989C23.4299 1.46483 22.116 0.829984 20.8545 0.100586C20.7468 0.0369517 20.6245 0.00229701 20.4995 0C20.3739 0.00257806 20.251 0.0372011 20.1425 0.100586C18.8813 0.830447 17.5674 1.46531 16.2118 1.99989C13.3595 3.1353 10.4323 4.07239 7.45093 4.80446C7.12353 4.8873 6.94997 5.02733 6.97364 5.2857C6.87025 5.24378 6.76417 5.20885 6.6561 5.18117C4.66469 4.77032 2.69788 4.24816 0.764916 3.61715C0.370461 3.48106 -0.0239939 3.74732 0.011507 4.08852C0.123927 5.22653 0.374406 12.307 0.433574 18.4743C0.474992 22.6989 0.346794 26.3752 0.346794 30.3277C0.346794 30.7044 0.332988 30.9982 0.437518 31.1679C0.611079 31.4519 0.983838 31.4538 1.33293 31.3651C5.61671 30.3395 8.63035 30.0792 8.71713 30.0772C9.5159 30.0515 31.4634 30.0515 32.2799 30.0772C32.3193 30.0772 32.915 30.1285 33.9346 30.2744H33.9603L34.1575 30.3001L34.2344 30.3119L34.3843 30.3336L34.4829 30.3494L34.623 30.3691L34.7334 30.3868L34.8715 30.4085L34.9937 30.4283L35.1338 30.4499L35.2639 30.4716L35.404 30.4953L35.542 30.519L35.684 30.5426L35.832 30.5683L35.9759 30.5939L36.1298 30.6215L36.2777 30.6491L36.4374 30.6768L36.5952 30.7063L36.753 30.7359L36.9285 30.7714L37.0765 30.799L37.3447 30.8523L37.4926 30.8838L37.751 30.9351L37.8792 30.9627L38.104 31.0101L38.2441 31.0397L38.4669 31.089L38.6109 31.1205C38.9567 31.1968 39.3117 31.2783 39.6759 31.3651C40.023 31.4499 40.3958 31.4479 40.5694 31.1679C40.6739 30.9982 40.6601 30.7044 40.6601 30.3277C40.6601 29.5388 40.6601 28.7498 40.6463 27.9846C40.6364 27.03 40.6226 26.0814 40.6088 25.1268C40.5851 23.474 40.5615 21.8035 40.5634 20.0521V20.0225C40.5634 19.8253 40.5634 19.6064 40.5634 19.3953" fill="white"/>
<path d="M5.87731 18.0936C6.07454 18.0936 6.28754 18.0936 6.49069 18.0936C6.55852 18.095 6.62594 18.0828 6.68904 18.0578C6.75214 18.0329 6.80966 17.9957 6.85828 17.9484C6.90689 17.901 6.94563 17.8445 6.97225 17.7821C6.99886 17.7197 7.01283 17.6526 7.01334 17.5848C7.0145 17.5171 7.00175 17.4499 6.97589 17.3873C6.95002 17.3247 6.91159 17.2681 6.86297 17.2209C6.81435 17.1738 6.75658 17.1371 6.69322 17.1132C6.62987 17.0893 6.56228 17.0786 6.49463 17.0819C5.31127 17.0819 4.1279 17.0937 2.94454 17.147C2.87481 17.1465 2.80574 17.1605 2.74162 17.1879C2.6775 17.2153 2.6197 17.2556 2.5718 17.3062C2.5239 17.3569 2.48692 17.4169 2.46317 17.4825C2.43942 17.548 2.42939 17.6178 2.43372 17.6874C2.45344 17.9812 2.69209 18.1666 3.03526 18.1587L5.86745 18.0936" fill="white"/>
<path d="M6.8969 23.6277C6.89307 23.7401 6.85057 23.8479 6.77655 23.9326C6.70254 24.0174 6.60155 24.0741 6.49062 24.0931C5.39798 24.2693 4.30468 24.4409 3.21072 24.6079C3.14869 24.6182 3.08514 24.6149 3.02453 24.5981C2.96391 24.5813 2.90769 24.5515 2.85979 24.5108C2.8119 24.47 2.77348 24.4193 2.74722 24.3621C2.72097 24.305 2.70751 24.2428 2.70779 24.1799C2.68588 24.0495 2.71595 23.9158 2.79155 23.8074C2.86714 23.699 2.98223 23.6245 3.11211 23.6C3.5184 23.529 3.92863 23.4718 4.33689 23.4028C5.00944 23.2963 5.68001 23.1878 6.35256 23.0853C6.42665 23.0695 6.50351 23.0723 6.57624 23.0935C6.64897 23.1147 6.71529 23.1537 6.76925 23.2069C6.82321 23.26 6.86312 23.3258 6.8854 23.3982C6.90768 23.4706 6.91164 23.5474 6.8969 23.6217" fill="white"/>
<path d="M6.8969 11.595C6.89307 11.4825 6.85057 11.3748 6.77655 11.29C6.70254 11.2052 6.60155 11.1485 6.49062 11.1295C5.39798 10.9533 4.30468 10.7818 3.21072 10.6148C3.14852 10.6044 3.0848 10.6078 3.02405 10.6247C2.96329 10.6415 2.90697 10.6715 2.85903 10.7125C2.8111 10.7535 2.77272 10.8045 2.7466 10.8619C2.72047 10.9192 2.70722 10.9817 2.70779 11.0447C2.68588 11.1751 2.71595 11.3088 2.79155 11.4172C2.86714 11.5256 2.98223 11.6001 3.11211 11.6246C3.5184 11.6956 3.92863 11.7528 4.33689 11.8218C5.00944 11.9283 5.68001 12.0368 6.35256 12.1393C6.42665 12.1551 6.50351 12.1523 6.57624 12.1311C6.64897 12.1099 6.71529 12.0709 6.76925 12.0177C6.82321 11.9646 6.86312 11.8988 6.8854 11.8264C6.90768 11.754 6.91164 11.6772 6.8969 11.6029" fill="white"/>
<path d="M35.1143 18.0936C34.917 18.0936 34.704 18.0936 34.5009 18.0936C34.433 18.095 34.3656 18.0828 34.3025 18.0578C34.2394 18.0329 34.1819 17.9957 34.1333 17.9484C34.0847 17.901 34.0459 17.8445 34.0193 17.7821C33.9927 17.7197 33.9787 17.6526 33.9782 17.5848C33.9771 17.5171 33.9898 17.4499 34.0157 17.3873C34.0415 17.3247 34.08 17.2681 34.1286 17.2209C34.1772 17.1738 34.235 17.1371 34.2983 17.1132C34.3617 17.0893 34.4293 17.0786 34.4969 17.0819C35.6803 17.0819 36.8637 17.0937 38.047 17.147C38.1167 17.1465 38.1857 17.1605 38.2497 17.1879C38.3137 17.2153 38.3714 17.2556 38.4191 17.3063C38.4669 17.357 38.5037 17.4171 38.5272 17.4826C38.5507 17.5482 38.5605 17.6179 38.5559 17.6874C38.5361 17.9812 38.2995 18.1666 37.9642 18.1587L35.1143 18.0858" fill="white"/>
<path d="M34.0967 23.628C34.1013 23.7405 34.1444 23.8481 34.2186 23.9328C34.2929 24.0175 34.3939 24.0742 34.5049 24.0935C35.5976 24.2696 36.6909 24.4412 37.7848 24.6082C37.8469 24.6186 37.9104 24.6152 37.971 24.5985C38.0316 24.5817 38.0879 24.5519 38.1357 24.5111C38.1836 24.4704 38.2221 24.4196 38.2483 24.3625C38.2746 24.3053 38.288 24.2431 38.2877 24.1802C38.3086 24.05 38.2781 23.9168 38.2027 23.8086C38.1273 23.7005 38.0128 23.6258 37.8834 23.6004C37.4752 23.5294 37.0669 23.4722 36.6586 23.4032C35.9861 23.2967 35.3155 23.1882 34.643 23.0856C34.5688 23.0699 34.4919 23.0729 34.4192 23.0941C34.3464 23.1153 34.28 23.1542 34.2259 23.2073C34.1719 23.2604 34.1318 23.3261 34.1092 23.3985C34.0866 23.4708 34.0823 23.5476 34.0967 23.6221" fill="white"/>
<path d="M34.0965 11.595C34.1011 11.4824 34.1442 11.3749 34.2185 11.2902C34.2927 11.2055 34.3938 11.1488 34.5048 11.1295C35.5974 10.9533 36.6907 10.7818 37.7846 10.6148C37.8468 10.6044 37.9106 10.6078 37.9713 10.6247C38.0321 10.6415 38.0884 10.6715 38.1363 10.7125C38.1843 10.7535 38.2226 10.8045 38.2488 10.8619C38.2749 10.9192 38.2881 10.9817 38.2876 11.0447C38.3077 11.1758 38.2759 11.3095 38.1989 11.4174C38.1219 11.5253 38.0058 11.599 37.8754 11.6226C37.4671 11.6936 37.0588 11.7508 36.6506 11.8198C35.978 11.9263 35.3075 12.0348 34.6349 12.1374C34.5608 12.153 34.4839 12.1501 34.4111 12.1289C34.3384 12.1077 34.272 12.0688 34.2179 12.0157C34.1638 11.9625 34.1237 11.8969 34.1011 11.8245C34.0786 11.7522 34.0743 11.6753 34.0886 11.6009" fill="white"/>
</svg>
