<svg width="32" height="34" viewBox="0 0 32 34" fill="none" xmlns="http://www.w3.org/2000/svg">
<path d="M31.2339 15.4065L2.09773 0.161509C1.87816 0.04752 1.63285 -0.00780782 1.3856 0.000887382C1.13835 0.00958259 0.897542 0.0820059 0.686513 0.211138C0.475485 0.34027 0.301396 0.521731 0.181122 0.737931C0.0608478 0.95413 -0.00153219 1.19774 2.85847e-05 1.44513V31.8984C0.000568866 32.1448 0.0644812 32.3869 0.185621 32.6014C0.30676 32.816 0.481053 32.9957 0.69174 33.1234C0.902428 33.2511 1.14243 33.3225 1.38866 33.3306C1.63489 33.3387 1.87907 33.2834 2.09773 33.1699L31.2339 17.9432C31.465 17.8217 31.6586 17.6393 31.7936 17.4157C31.9286 17.1922 32 16.936 32 16.6748C32 16.4137 31.9286 16.1575 31.7936 15.9339C31.6586 15.7104 31.465 15.528 31.2339 15.4065Z" fill="#2AA8E0"/>
</svg>
