<svg width="29" height="30" viewBox="0 0 29 30" fill="none" xmlns="http://www.w3.org/2000/svg">
<path d="M28.3057 13.8666L1.90107 0.145367C1.70208 0.0427705 1.47977 -0.00702745 1.2557 0.000798691C1.03163 0.00862484 0.813397 0.0738097 0.622153 0.190036C0.430908 0.306261 0.27314 0.469585 0.164142 0.664177C0.0551433 0.858768 -0.00138855 1.07803 2.59048e-05 1.3007V28.7103C0.000515535 28.932 0.0584361 29.1499 0.168219 29.343C0.278001 29.5361 0.435954 29.6979 0.62689 29.8128C0.817825 29.9278 1.03532 29.992 1.25847 29.9993C1.48162 30.0066 1.70291 29.9568 1.90107 29.8546L28.3057 16.1499C28.5152 16.0405 28.6906 15.8763 28.813 15.6751C28.9353 15.4739 29 15.2433 29 15.0082C29 14.7732 28.9353 14.5426 28.813 14.3414C28.6906 14.1402 28.5152 13.976 28.3057 13.8666Z" fill="#50E6C9"/>
</svg>
