<svg width="30" height="33" viewBox="0 0 30 33" fill="none" xmlns="http://www.w3.org/2000/svg">
<path d="M27.0709 23.4486V27.4958C27.0723 27.8715 27.0026 28.2434 26.8665 28.5876C26.7303 28.9319 26.5306 29.2409 26.2801 29.4949C26.0296 29.7489 25.7339 29.9423 25.4119 30.0626C25.09 30.183 24.7488 30.2277 24.4102 30.1939C20.6546 29.7428 17.0471 28.3243 13.8776 26.0523C10.9287 23.981 8.42857 21.2175 6.55473 17.958C4.49211 14.4385 3.20849 10.4316 2.80788 6.26163C2.77738 5.88857 2.81749 5.51258 2.92566 5.1576C3.03382 4.80261 3.20767 4.47641 3.43614 4.19976C3.6646 3.92311 3.94268 3.70208 4.25266 3.55073C4.56265 3.39938 4.89774 3.32104 5.23662 3.32069H8.89804C9.49034 3.31424 10.0646 3.54609 10.5137 3.973C10.9627 4.39991 11.2561 4.99277 11.339 5.64106C11.4935 6.93625 11.7801 8.20795 12.1933 9.43191C12.3575 9.91477 12.3931 10.4395 12.2957 10.944C12.1984 11.4485 11.9722 11.9116 11.6441 12.2784L10.0941 13.9917C11.8315 17.3691 14.3614 20.1656 17.4169 22.0861L18.9669 20.3728C19.2988 20.01 19.7177 19.7601 20.1741 19.6525C20.6305 19.5449 21.1053 19.5842 21.5421 19.7657C22.6494 20.2224 23.7999 20.5392 24.9717 20.71C25.5645 20.8025 26.106 21.1326 26.493 21.6375C26.8801 22.1424 27.0857 22.787 27.0709 23.4486Z" fill="white" stroke="#333033" stroke-width="2" stroke-linecap="round" stroke-linejoin="round"/>
</svg>
