<svg width="29" height="30" viewBox="0 0 29 30" fill="none" xmlns="http://www.w3.org/2000/svg">
<path d="M0.694288 13.8666L27.0989 0.145367C27.2979 0.0427705 27.5202 -0.00702745 27.7443 0.000798691C27.9684 0.00862484 28.1866 0.0738097 28.3778 0.190036C28.5691 0.306261 28.7269 0.469585 28.8359 0.664177C28.9449 0.858768 29.0014 1.07803 29 1.3007V28.7103C28.9995 28.932 28.9416 29.1499 28.8318 29.343C28.722 29.5361 28.564 29.6979 28.3731 29.8128C28.1822 29.9278 27.9647 29.992 27.7415 29.9993C27.5184 30.0066 27.2971 29.9568 27.0989 29.8546L0.694288 16.1499C0.484804 16.0405 0.309406 15.8763 0.18704 15.6751C0.0646763 15.4739 0 15.2433 0 15.0082C0 14.7732 0.0646763 14.5426 0.18704 14.3414C0.309406 14.1402 0.484804 13.976 0.694288 13.8666Z" fill="#50E6C9"/>
</svg>
