<svg width="32" height="34" viewBox="0 0 32 34" fill="none" xmlns="http://www.w3.org/2000/svg">
<path d="M0.766111 15.4065L29.9023 0.161509C30.1218 0.04752 30.3671 -0.00780782 30.6144 0.000887382C30.8616 0.00958259 31.1025 0.0820059 31.3135 0.211138C31.5245 0.34027 31.6986 0.521731 31.8189 0.737931C31.9392 0.95413 32.0015 1.19774 32 1.44513V31.8984C31.9994 32.1448 31.9355 32.3869 31.8144 32.6014C31.6932 32.816 31.5189 32.9957 31.3083 33.1234C31.0976 33.2511 30.8576 33.3225 30.6113 33.3306C30.3651 33.3387 30.1209 33.2834 29.9023 33.1699L0.766111 17.9432C0.534958 17.8217 0.341414 17.6393 0.20639 17.4157C0.0713672 17.1922 0 16.936 0 16.6748C0 16.4137 0.0713672 16.1575 0.20639 15.9339C0.341414 15.7104 0.534958 15.528 0.766111 15.4065Z" fill="#2AA8E0"/>
</svg>
