<svg width="51" height="52" viewBox="0 0 51 52" fill="none" xmlns="http://www.w3.org/2000/svg">
<mask id="mask0" mask-type="alpha" maskUnits="userSpaceOnUse" x="0" y="0" width="51" height="52">
<path d="M49.0057 23.793L3.63814 0.269631C3.25766 0.0777862 2.83404 -0.0144043 2.40751 0.0018259C1.98099 0.0180561 1.56574 0.142165 1.2012 0.36236C0.836654 0.582555 0.534934 0.89153 0.324698 1.25992C0.114461 1.62832 0.00268982 2.0439 2.14924e-06 2.46719V49.5139C-0.000562507 49.9413 0.110143 50.3617 0.321402 50.7342C0.532661 51.1067 0.837318 51.4189 1.20589 51.6404C1.57446 51.862 1.99445 51.9854 2.42523 51.9988C2.856 52.0122 3.28296 51.915 3.66478 51.7168L49.0057 28.1934C49.4109 27.9833 49.7503 27.6672 49.9872 27.2793C50.224 26.8914 50.3492 26.4466 50.3492 25.9932C50.3492 25.5398 50.224 25.095 49.9872 24.7071C49.7503 24.3192 49.4109 24.0031 49.0057 23.793Z" fill="#50E6C9"/>
</mask>
<g mask="url(#mask0)">
<path d="M2.14584 3.97821C2.68375 3.97821 3.11981 3.54215 3.11981 3.00424C3.11981 2.46633 2.68375 2.03027 2.14584 2.03027C1.60794 2.03027 1.17188 2.46633 1.17188 3.00424C1.17188 3.54215 1.60794 3.97821 2.14584 3.97821Z" fill="#50E6C9"/>
<path d="M7.15594 3.00424C7.15594 3.19687 7.09882 3.38518 6.9918 3.54535C6.88478 3.70552 6.73267 3.83036 6.5547 3.90407C6.37673 3.97779 6.1809 3.99708 5.99197 3.95949C5.80304 3.92191 5.62948 3.82916 5.49327 3.69294C5.35706 3.55673 5.2643 3.38319 5.22672 3.19426C5.18914 3.00532 5.20843 2.80949 5.28215 2.63152C5.35587 2.45355 5.4807 2.30144 5.64087 2.19442C5.80104 2.0874 5.98935 2.03027 6.18198 2.03027C6.44029 2.03027 6.68802 2.13289 6.87068 2.31554C7.05333 2.4982 7.15594 2.74593 7.15594 3.00424Z" fill="#50E6C9"/>
<path d="M11.1843 3.00424C11.1843 3.19687 11.1271 3.38518 11.0201 3.54535C10.9131 3.70552 10.761 3.83036 10.583 3.90407C10.405 3.97779 10.2092 3.99708 10.0203 3.95949C9.83136 3.92191 9.65781 3.82916 9.52159 3.69294C9.38538 3.55673 9.29262 3.38319 9.25504 3.19426C9.21746 3.00532 9.23675 2.80949 9.31047 2.63152C9.38419 2.45355 9.50902 2.30144 9.66919 2.19442C9.82936 2.0874 10.0177 2.03027 10.2103 2.03027C10.4686 2.03027 10.7163 2.13289 10.899 2.31554C11.0817 2.4982 11.1843 2.74593 11.1843 3.00424Z" fill="#50E6C9"/>
<path d="M15.2204 3.00424C15.2204 3.19687 15.1633 3.38518 15.0563 3.54535C14.9492 3.70552 14.7971 3.83036 14.6191 3.90407C14.4412 3.97779 14.2454 3.99708 14.0564 3.95949C13.8675 3.92191 13.6939 3.82916 13.5577 3.69294C13.4215 3.55673 13.3288 3.38319 13.2912 3.19426C13.2536 3.00532 13.2729 2.80949 13.3466 2.63152C13.4203 2.45355 13.5452 2.30144 13.7053 2.19442C13.8655 2.0874 14.0538 2.03027 14.2464 2.03027C14.5047 2.03027 14.7525 2.13289 14.9351 2.31554C15.1178 2.4982 15.2204 2.74593 15.2204 3.00424Z" fill="#50E6C9"/>
<path d="M19.2565 3.00424C19.2565 3.19687 19.1994 3.38518 19.0924 3.54535C18.9854 3.70552 18.8332 3.83036 18.6553 3.90407C18.4773 3.97779 18.2815 3.99708 18.0926 3.95949C17.9036 3.92191 17.7301 3.82916 17.5939 3.69294C17.4576 3.55673 17.3649 3.38319 17.3273 3.19426C17.2897 3.00532 17.309 2.80949 17.3827 2.63152C17.4565 2.45355 17.5813 2.30144 17.7415 2.19442C17.9016 2.0874 18.0899 2.03027 18.2826 2.03027C18.5409 2.03027 18.7886 2.13289 18.9713 2.31554C19.1539 2.4982 19.2565 2.74593 19.2565 3.00424Z" fill="#50E6C9"/>
<path d="M23.2927 3.00431C23.2926 3.19833 23.2345 3.38789 23.126 3.54869C23.0174 3.7095 22.8633 3.83422 22.6834 3.90687C22.5035 3.97951 22.306 3.99678 22.1162 3.95644C21.9264 3.91611 21.753 3.82001 21.6182 3.68048C21.4834 3.54095 21.3934 3.36433 21.3596 3.17328C21.3258 2.98222 21.3499 2.78544 21.4287 2.60815C21.5075 2.43086 21.6375 2.28114 21.8019 2.1782C21.9664 2.07525 22.1578 2.02377 22.3517 2.03035C22.6043 2.03891 22.8436 2.14529 23.0192 2.32703C23.1947 2.50876 23.2928 2.75162 23.2927 3.00431Z" fill="#50E6C9"/>
<path d="M27.3034 3.00424C27.3034 3.19687 27.2463 3.38518 27.1393 3.54535C27.0322 3.70552 26.8801 3.83036 26.7022 3.90407C26.5242 3.97779 26.3284 3.99708 26.1394 3.95949C25.9505 3.92191 25.7769 3.82916 25.6407 3.69294C25.5045 3.55673 25.4118 3.38319 25.3742 3.19426C25.3366 3.00532 25.3559 2.80949 25.4296 2.63152C25.5033 2.45355 25.6282 2.30144 25.7883 2.19442C25.9485 2.0874 26.1368 2.03027 26.3294 2.03027C26.5878 2.03027 26.8355 2.13289 27.0181 2.31554C27.2008 2.4982 27.3034 2.74593 27.3034 3.00424Z" fill="#50E6C9"/>
<path d="M31.3561 3.00424C31.3561 3.19687 31.299 3.38518 31.192 3.54535C31.085 3.70552 30.9329 3.83036 30.7549 3.90407C30.5769 3.97779 30.3811 3.99708 30.1922 3.95949C30.0032 3.92191 29.8297 3.82916 29.6935 3.69294C29.5573 3.55673 29.4645 3.38319 29.4269 3.19426C29.3893 3.00532 29.4086 2.80949 29.4823 2.63152C29.5561 2.45355 29.6809 2.30144 29.8411 2.19442C30.0012 2.0874 30.1895 2.03027 30.3822 2.03027C30.5101 2.03027 30.6367 2.05547 30.7549 2.10441C30.8731 2.15336 30.9804 2.2251 31.0709 2.31554C31.1613 2.40598 31.2331 2.51335 31.282 2.63152C31.3309 2.74969 31.3561 2.87634 31.3561 3.00424Z" fill="#50E6C9"/>
<path d="M35.3923 3.00424C35.3923 3.19687 35.3352 3.38518 35.2281 3.54535C35.1211 3.70552 34.969 3.83036 34.791 3.90407C34.6131 3.97779 34.4172 3.99708 34.2283 3.95949C34.0394 3.92191 33.8658 3.82916 33.7296 3.69294C33.5934 3.55673 33.5006 3.38319 33.4631 3.19426C33.4255 3.00532 33.4448 2.80949 33.5185 2.63152C33.5922 2.45355 33.717 2.30144 33.8772 2.19442C34.0374 2.0874 34.2257 2.03027 34.4183 2.03027C34.6766 2.03027 34.9244 2.13289 35.107 2.31554C35.2897 2.4982 35.3923 2.74593 35.3923 3.00424Z" fill="#50E6C9"/>
<path d="M39.4206 3.00424C39.4206 3.19687 39.3635 3.38518 39.2565 3.54535C39.1494 3.70552 38.9973 3.83036 38.8194 3.90407C38.6414 3.97779 38.4455 3.99708 38.2566 3.95949C38.0677 3.92191 37.8941 3.82916 37.7579 3.69294C37.6217 3.55673 37.529 3.38319 37.4914 3.19426C37.4538 3.00532 37.4731 2.80949 37.5468 2.63152C37.6205 2.45355 37.7453 2.30144 37.9055 2.19442C38.0657 2.0874 38.254 2.03027 38.4466 2.03027C38.7049 2.03027 38.9527 2.13289 39.1353 2.31554C39.318 2.4982 39.4206 2.74593 39.4206 3.00424Z" fill="#50E6C9"/>
<path d="M43.4567 3.00424C43.4567 3.19687 43.3996 3.38518 43.2926 3.54535C43.1856 3.70552 43.0335 3.83036 42.8555 3.90407C42.6775 3.97779 42.4817 3.99708 42.2927 3.95949C42.1038 3.92191 41.9303 3.82916 41.7941 3.69294C41.6579 3.55673 41.5651 3.38319 41.5275 3.19426C41.4899 3.00532 41.5092 2.80949 41.5829 2.63152C41.6566 2.45355 41.7815 2.30144 41.9416 2.19442C42.1018 2.0874 42.2901 2.03027 42.4828 2.03027C42.7411 2.03027 42.9888 2.13289 43.1715 2.31554C43.3541 2.4982 43.4567 2.74593 43.4567 3.00424Z" fill="#50E6C9"/>
<path d="M47.4929 3.00424C47.4929 3.19687 47.4357 3.38518 47.3287 3.54535C47.2217 3.70552 47.0696 3.83036 46.8916 3.90407C46.7136 3.97779 46.5178 3.99708 46.3289 3.95949C46.1399 3.92191 45.9664 3.82916 45.8302 3.69294C45.694 3.55673 45.6012 3.38319 45.5636 3.19426C45.5261 3.00532 45.5453 2.80949 45.6191 2.63152C45.6928 2.45355 45.8176 2.30144 45.9778 2.19442C46.1379 2.0874 46.3263 2.03027 46.5189 2.03027C46.7772 2.03027 47.0249 2.13289 47.2076 2.31554C47.3902 2.4982 47.4929 2.74593 47.4929 3.00424Z" fill="#50E6C9"/>
<path d="M51.529 3.00424C51.529 3.19687 51.4719 3.38518 51.3648 3.54535C51.2578 3.70552 51.1057 3.83036 50.9277 3.90407C50.7498 3.97779 50.5539 3.99708 50.365 3.95949C50.1761 3.92191 50.0025 3.82916 49.8663 3.69294C49.7301 3.55673 49.6374 3.38319 49.5998 3.19426C49.5622 3.00532 49.5815 2.80949 49.6552 2.63152C49.7289 2.45355 49.8537 2.30144 50.0139 2.19442C50.1741 2.0874 50.3624 2.03027 50.555 2.03027C50.8133 2.03027 51.0611 2.13289 51.2437 2.31554C51.4264 2.4982 51.529 2.74593 51.529 3.00424Z" fill="#50E6C9"/>
<path d="M3.11981 7.03232C3.11981 7.22495 3.06269 7.41326 2.95567 7.57342C2.84864 7.73359 2.69654 7.85843 2.51857 7.93215C2.3406 8.00587 2.14477 8.02515 1.95583 7.98757C1.7669 7.94999 1.59336 7.85723 1.45715 7.72102C1.32093 7.5848 1.22817 7.41126 1.19059 7.22233C1.15301 7.0334 1.1723 6.83757 1.24602 6.6596C1.31973 6.48163 1.44457 6.32952 1.60474 6.22249C1.7649 6.11547 1.95322 6.05835 2.14585 6.05835C2.27375 6.05835 2.4004 6.08354 2.51857 6.13249C2.63674 6.18143 2.7441 6.25318 2.83454 6.34362C2.92498 6.43406 2.99673 6.54143 3.04568 6.6596C3.09463 6.77777 3.11981 6.90441 3.11981 7.03232Z" fill="#50E6C9"/>
<path d="M7.15594 7.03232C7.15594 7.22495 7.09882 7.41326 6.9918 7.57342C6.88478 7.73359 6.73267 7.85843 6.5547 7.93215C6.37673 8.00587 6.1809 8.02515 5.99197 7.98757C5.80304 7.94999 5.62948 7.85723 5.49327 7.72102C5.35706 7.5848 5.2643 7.41126 5.22672 7.22233C5.18914 7.0334 5.20843 6.83757 5.28215 6.6596C5.35587 6.48163 5.4807 6.32952 5.64087 6.22249C5.80104 6.11547 5.98935 6.05835 6.18198 6.05835C6.44029 6.05835 6.68802 6.16096 6.87068 6.34362C7.05333 6.52627 7.15594 6.77401 7.15594 7.03232Z" fill="#50E6C9"/>
<path d="M11.1843 7.03235C11.1843 7.22499 11.1271 7.41329 11.0201 7.57346C10.9131 7.73363 10.761 7.85847 10.583 7.93218C10.405 8.0059 10.2092 8.02519 10.0203 7.98761C9.83136 7.95003 9.65781 7.85726 9.52159 7.72105C9.38538 7.58484 9.29262 7.4113 9.25504 7.22236C9.21746 7.03343 9.23675 6.8376 9.31047 6.65963C9.38419 6.48166 9.50902 6.32955 9.66919 6.22253C9.82936 6.11551 10.0177 6.05839 10.2103 6.05839C10.3385 6.05728 10.4656 6.08172 10.5843 6.13028C10.703 6.17884 10.8108 6.25054 10.9015 6.3412C10.9921 6.43186 11.0638 6.53967 11.1124 6.65833C11.1609 6.777 11.1854 6.90414 11.1843 7.03235Z" fill="#50E6C9"/>
<path d="M15.2204 7.03232C15.2204 7.22495 15.1633 7.41326 15.0563 7.57342C14.9492 7.73359 14.7971 7.85843 14.6191 7.93215C14.4412 8.00587 14.2454 8.02515 14.0564 7.98757C13.8675 7.94999 13.6939 7.85723 13.5577 7.72102C13.4215 7.5848 13.3288 7.41126 13.2912 7.22233C13.2536 7.0334 13.2729 6.83757 13.3466 6.6596C13.4203 6.48163 13.5452 6.32952 13.7053 6.22249C13.8655 6.11547 14.0538 6.05835 14.2464 6.05835C14.5047 6.05835 14.7525 6.16096 14.9351 6.34362C15.1178 6.52627 15.2204 6.77401 15.2204 7.03232Z" fill="#50E6C9"/>
<path d="M19.2565 7.03232C19.2565 7.22495 19.1994 7.41326 19.0924 7.57342C18.9854 7.73359 18.8332 7.85843 18.6553 7.93215C18.4773 8.00587 18.2815 8.02515 18.0926 7.98757C17.9036 7.94999 17.7301 7.85723 17.5939 7.72102C17.4576 7.5848 17.3649 7.41126 17.3273 7.22233C17.2897 7.0334 17.309 6.83757 17.3827 6.6596C17.4565 6.48163 17.5813 6.32952 17.7415 6.22249C17.9016 6.11547 18.0899 6.05835 18.2826 6.05835C18.5409 6.05835 18.7886 6.16096 18.9713 6.34362C19.1539 6.52627 19.2565 6.77401 19.2565 7.03232Z" fill="#50E6C9"/>
<path d="M23.2927 7.03239C23.2926 7.22641 23.2345 7.41597 23.126 7.57677C23.0174 7.73758 22.8633 7.8623 22.6834 7.93494C22.5035 8.00759 22.306 8.02485 22.1162 7.98452C21.9264 7.94418 21.753 7.84809 21.6182 7.70855C21.4834 7.56902 21.3934 7.39241 21.3596 7.20135C21.3258 7.0103 21.3499 6.81351 21.4287 6.63622C21.5075 6.45893 21.6375 6.30922 21.8019 6.20628C21.9664 6.10333 22.1578 6.05184 22.3517 6.05842C22.6043 6.06699 22.8436 6.17337 23.0192 6.3551C23.1947 6.53684 23.2928 6.7797 23.2927 7.03239Z" fill="#50E6C9"/>
<path d="M27.3034 7.03232C27.3034 7.22495 27.2463 7.41326 27.1393 7.57342C27.0322 7.73359 26.8801 7.85843 26.7022 7.93215C26.5242 8.00587 26.3284 8.02515 26.1394 7.98757C25.9505 7.94999 25.7769 7.85723 25.6407 7.72102C25.5045 7.5848 25.4118 7.41126 25.3742 7.22233C25.3366 7.0334 25.3559 6.83757 25.4296 6.6596C25.5033 6.48163 25.6282 6.32952 25.7883 6.22249C25.9485 6.11547 26.1368 6.05835 26.3294 6.05835C26.5878 6.05835 26.8355 6.16096 27.0181 6.34362C27.2008 6.52627 27.3034 6.77401 27.3034 7.03232Z" fill="#50E6C9"/>
<path d="M31.3561 7.03232C31.3561 7.22495 31.299 7.41326 31.192 7.57342C31.085 7.73359 30.9329 7.85843 30.7549 7.93215C30.5769 8.00587 30.3811 8.02515 30.1922 7.98757C30.0032 7.94999 29.8297 7.85723 29.6935 7.72102C29.5573 7.5848 29.4645 7.41126 29.4269 7.22233C29.3893 7.0334 29.4086 6.83757 29.4823 6.6596C29.5561 6.48163 29.6809 6.32952 29.8411 6.22249C30.0012 6.11547 30.1895 6.05835 30.3822 6.05835C30.5101 6.05835 30.6367 6.08354 30.7549 6.13249C30.8731 6.18143 30.9804 6.25318 31.0709 6.34362C31.1613 6.43406 31.2331 6.54143 31.282 6.6596C31.3309 6.77777 31.3561 6.90441 31.3561 7.03232Z" fill="#50E6C9"/>
<path d="M35.3923 7.03232C35.3923 7.22495 35.3352 7.41326 35.2281 7.57342C35.1211 7.73359 34.969 7.85843 34.791 7.93215C34.6131 8.00587 34.4172 8.02515 34.2283 7.98757C34.0394 7.94999 33.8658 7.85723 33.7296 7.72102C33.5934 7.5848 33.5006 7.41126 33.4631 7.22233C33.4255 7.0334 33.4448 6.83757 33.5185 6.6596C33.5922 6.48163 33.717 6.32952 33.8772 6.22249C34.0374 6.11547 34.2257 6.05835 34.4183 6.05835C34.6766 6.05835 34.9244 6.16096 35.107 6.34362C35.2897 6.52627 35.3923 6.77401 35.3923 7.03232Z" fill="#50E6C9"/>
<path d="M39.4206 7.03232C39.4206 7.29063 39.318 7.53836 39.1353 7.72102C38.9527 7.90367 38.7049 8.00629 38.4466 8.00629C38.1883 8.00629 37.9406 7.90367 37.7579 7.72102C37.5753 7.53836 37.4727 7.29063 37.4727 7.03232C37.4727 6.77401 37.5753 6.52627 37.7579 6.34362C37.9406 6.16096 38.1883 6.05835 38.4466 6.05835C38.7049 6.05835 38.9527 6.16096 39.1353 6.34362C39.318 6.52627 39.4206 6.77401 39.4206 7.03232Z" fill="#50E6C9"/>
<path d="M43.4567 7.03232C43.4567 7.22495 43.3996 7.41326 43.2926 7.57342C43.1856 7.73359 43.0335 7.85843 42.8555 7.93215C42.6775 8.00587 42.4817 8.02515 42.2927 7.98757C42.1038 7.94999 41.9303 7.85723 41.7941 7.72102C41.6579 7.5848 41.5651 7.41126 41.5275 7.22233C41.4899 7.0334 41.5092 6.83757 41.5829 6.6596C41.6566 6.48163 41.7815 6.32952 41.9416 6.22249C42.1018 6.11547 42.2901 6.05835 42.4828 6.05835C42.7411 6.05835 42.9888 6.16096 43.1715 6.34362C43.3541 6.52627 43.4567 6.77401 43.4567 7.03232Z" fill="#50E6C9"/>
<path d="M47.4929 7.03232C47.4929 7.22495 47.4357 7.41326 47.3287 7.57342C47.2217 7.73359 47.0696 7.85843 46.8916 7.93215C46.7136 8.00587 46.5178 8.02515 46.3289 7.98757C46.1399 7.94999 45.9664 7.85723 45.8302 7.72102C45.694 7.5848 45.6012 7.41126 45.5636 7.22233C45.5261 7.0334 45.5453 6.83757 45.6191 6.6596C45.6928 6.48163 45.8176 6.32952 45.9778 6.22249C46.1379 6.11547 46.3263 6.05835 46.5189 6.05835C46.7772 6.05835 47.0249 6.16096 47.2076 6.34362C47.3902 6.52627 47.4929 6.77401 47.4929 7.03232Z" fill="#50E6C9"/>
<path d="M51.529 7.03232C51.529 7.22495 51.4719 7.41326 51.3648 7.57342C51.2578 7.73359 51.1057 7.85843 50.9277 7.93215C50.7498 8.00587 50.5539 8.02515 50.365 7.98757C50.1761 7.94999 50.0025 7.85723 49.8663 7.72102C49.7301 7.5848 49.6374 7.41126 49.5998 7.22233C49.5622 7.0334 49.5815 6.83757 49.6552 6.6596C49.7289 6.48163 49.8537 6.32952 50.0139 6.22249C50.1741 6.11547 50.3624 6.05835 50.555 6.05835C50.8133 6.05835 51.0611 6.16096 51.2437 6.34362C51.4264 6.52627 51.529 6.77401 51.529 7.03232Z" fill="#50E6C9"/>
<path d="M3.11981 11.0685C3.11981 11.2611 3.06269 11.4494 2.95567 11.6096C2.84864 11.7697 2.69654 11.8946 2.51857 11.9683C2.3406 12.042 2.14477 12.0613 1.95583 12.0237C1.7669 11.9861 1.59336 11.8934 1.45715 11.7571C1.32093 11.6209 1.22817 11.4474 1.19059 11.2585C1.15301 11.0695 1.1723 10.8737 1.24602 10.6957C1.31973 10.5178 1.44457 10.3656 1.60474 10.2586C1.7649 10.1516 1.95322 10.0945 2.14585 10.0945C2.27375 10.0945 2.4004 10.1197 2.51857 10.1686C2.63674 10.2176 2.7441 10.2893 2.83454 10.3798C2.92498 10.4702 2.99673 10.5776 3.04568 10.6957C3.09463 10.8139 3.11981 10.9405 3.11981 11.0685Z" fill="#50E6C9"/>
<path d="M7.15594 11.0685C7.15594 11.2611 7.09882 11.4494 6.9918 11.6096C6.88478 11.7697 6.73267 11.8946 6.5547 11.9683C6.37673 12.042 6.1809 12.0613 5.99197 12.0237C5.80304 11.9861 5.62948 11.8934 5.49327 11.7571C5.35706 11.6209 5.2643 11.4474 5.22672 11.2585C5.18914 11.0695 5.20843 10.8737 5.28215 10.6957C5.35587 10.5178 5.4807 10.3656 5.64087 10.2586C5.80104 10.1516 5.98935 10.0945 6.18198 10.0945C6.44029 10.0945 6.68802 10.1971 6.87068 10.3798C7.05333 10.5624 7.15594 10.8101 7.15594 11.0685Z" fill="#50E6C9"/>
<path d="M11.1843 11.0685C11.1843 11.2611 11.1271 11.4494 11.0201 11.6096C10.9131 11.7697 10.761 11.8946 10.583 11.9683C10.405 12.042 10.2092 12.0613 10.0203 12.0237C9.83136 11.9861 9.65781 11.8934 9.52159 11.7571C9.38538 11.6209 9.29262 11.4474 9.25504 11.2585C9.21746 11.0695 9.23675 10.8737 9.31047 10.6957C9.38419 10.5178 9.50902 10.3656 9.66919 10.2586C9.82936 10.1516 10.0177 10.0945 10.2103 10.0945C10.4686 10.0945 10.7163 10.1971 10.899 10.3798C11.0817 10.5624 11.1843 10.8101 11.1843 11.0685Z" fill="#50E6C9"/>
<path d="M15.2204 11.0685C15.2204 11.2611 15.1633 11.4494 15.0563 11.6096C14.9492 11.7697 14.7971 11.8946 14.6191 11.9683C14.4412 12.042 14.2454 12.0613 14.0564 12.0237C13.8675 11.9861 13.6939 11.8934 13.5577 11.7571C13.4215 11.6209 13.3288 11.4474 13.2912 11.2585C13.2536 11.0695 13.2729 10.8737 13.3466 10.6957C13.4203 10.5178 13.5452 10.3656 13.7053 10.2586C13.8655 10.1516 14.0538 10.0945 14.2464 10.0945C14.5047 10.0945 14.7525 10.1971 14.9351 10.3798C15.1178 10.5624 15.2204 10.8101 15.2204 11.0685Z" fill="#50E6C9"/>
<path d="M19.2565 11.0685C19.2565 11.2611 19.1994 11.4494 19.0924 11.6096C18.9854 11.7697 18.8332 11.8946 18.6553 11.9683C18.4773 12.042 18.2815 12.0613 18.0926 12.0237C17.9036 11.9861 17.7301 11.8934 17.5939 11.7571C17.4576 11.6209 17.3649 11.4474 17.3273 11.2585C17.2897 11.0695 17.309 10.8737 17.3827 10.6957C17.4565 10.5178 17.5813 10.3656 17.7415 10.2586C17.9016 10.1516 18.0899 10.0945 18.2826 10.0945C18.5409 10.0945 18.7886 10.1971 18.9713 10.3798C19.1539 10.5624 19.2565 10.8101 19.2565 11.0685Z" fill="#50E6C9"/>
<path d="M23.2927 11.0685C23.2926 11.2625 23.2345 11.4521 23.126 11.6129C23.0174 11.7737 22.8633 11.8984 22.6834 11.9711C22.5035 12.0437 22.306 12.061 22.1162 12.0207C21.9264 11.9803 21.753 11.8842 21.6182 11.7447C21.4834 11.6052 21.3934 11.4285 21.3596 11.2375C21.3258 11.0464 21.3499 10.8496 21.4287 10.6724C21.5075 10.4951 21.6375 10.3454 21.8019 10.2424C21.9664 10.1395 22.1578 10.088 22.3517 10.0946C22.6043 10.1031 22.8436 10.2095 23.0192 10.3912C23.1947 10.573 23.2928 10.8158 23.2927 11.0685Z" fill="#50E6C9"/>
<path d="M27.3034 11.0685C27.3034 11.2611 27.2463 11.4494 27.1393 11.6096C27.0322 11.7697 26.8801 11.8946 26.7022 11.9683C26.5242 12.042 26.3284 12.0613 26.1394 12.0237C25.9505 11.9861 25.7769 11.8934 25.6407 11.7571C25.5045 11.6209 25.4118 11.4474 25.3742 11.2585C25.3366 11.0695 25.3559 10.8737 25.4296 10.6957C25.5033 10.5178 25.6282 10.3656 25.7883 10.2586C25.9485 10.1516 26.1368 10.0945 26.3294 10.0945C26.5878 10.0945 26.8355 10.1971 27.0181 10.3798C27.2008 10.5624 27.3034 10.8101 27.3034 11.0685Z" fill="#50E6C9"/>
<path d="M31.3561 11.0685C31.3561 11.2611 31.299 11.4494 31.192 11.6096C31.085 11.7697 30.9329 11.8946 30.7549 11.9683C30.5769 12.042 30.3811 12.0613 30.1922 12.0237C30.0032 11.9861 29.8297 11.8934 29.6935 11.7571C29.5573 11.6209 29.4645 11.4474 29.4269 11.2585C29.3893 11.0695 29.4086 10.8737 29.4823 10.6957C29.5561 10.5178 29.6809 10.3656 29.8411 10.2586C30.0012 10.1516 30.1895 10.0945 30.3822 10.0945C30.5101 10.0945 30.6367 10.1197 30.7549 10.1686C30.8731 10.2176 30.9804 10.2893 31.0709 10.3798C31.1613 10.4702 31.2331 10.5776 31.282 10.6957C31.3309 10.8139 31.3561 10.9405 31.3561 11.0685Z" fill="#50E6C9"/>
<path d="M35.3923 11.0685C35.3923 11.2611 35.3352 11.4494 35.2281 11.6096C35.1211 11.7697 34.969 11.8946 34.791 11.9683C34.6131 12.042 34.4172 12.0613 34.2283 12.0237C34.0394 11.9861 33.8658 11.8934 33.7296 11.7571C33.5934 11.6209 33.5006 11.4474 33.4631 11.2585C33.4255 11.0695 33.4448 10.8737 33.5185 10.6957C33.5922 10.5178 33.717 10.3656 33.8772 10.2586C34.0374 10.1516 34.2257 10.0945 34.4183 10.0945C34.6766 10.0945 34.9244 10.1971 35.107 10.3798C35.2897 10.5624 35.3923 10.8101 35.3923 11.0685Z" fill="#50E6C9"/>
<path d="M39.4206 11.0685C39.4206 11.2611 39.3635 11.4494 39.2565 11.6096C39.1494 11.7697 38.9973 11.8946 38.8194 11.9683C38.6414 12.042 38.4455 12.0613 38.2566 12.0237C38.0677 11.9861 37.8941 11.8934 37.7579 11.7571C37.6217 11.6209 37.529 11.4474 37.4914 11.2585C37.4538 11.0695 37.4731 10.8737 37.5468 10.6957C37.6205 10.5178 37.7453 10.3656 37.9055 10.2586C38.0657 10.1516 38.254 10.0945 38.4466 10.0945C38.7049 10.0945 38.9527 10.1971 39.1353 10.3798C39.318 10.5624 39.4206 10.8101 39.4206 11.0685Z" fill="#50E6C9"/>
<path d="M43.4567 11.0685C43.4567 11.2611 43.3996 11.4494 43.2926 11.6096C43.1856 11.7697 43.0335 11.8946 42.8555 11.9683C42.6775 12.042 42.4817 12.0613 42.2927 12.0237C42.1038 11.9861 41.9303 11.8934 41.7941 11.7571C41.6579 11.6209 41.5651 11.4474 41.5275 11.2585C41.4899 11.0695 41.5092 10.8737 41.5829 10.6957C41.6566 10.5178 41.7815 10.3656 41.9416 10.2586C42.1018 10.1516 42.2901 10.0945 42.4828 10.0945C42.7411 10.0945 42.9888 10.1971 43.1715 10.3798C43.3541 10.5624 43.4567 10.8101 43.4567 11.0685Z" fill="#50E6C9"/>
<path d="M47.4929 11.0685C47.4929 11.2611 47.4357 11.4494 47.3287 11.6096C47.2217 11.7697 47.0696 11.8946 46.8916 11.9683C46.7136 12.042 46.5178 12.0613 46.3289 12.0237C46.1399 11.9861 45.9664 11.8934 45.8302 11.7571C45.694 11.6209 45.6012 11.4474 45.5636 11.2585C45.5261 11.0695 45.5453 10.8737 45.6191 10.6957C45.6928 10.5178 45.8176 10.3656 45.9778 10.2586C46.1379 10.1516 46.3263 10.0945 46.5189 10.0945C46.7772 10.0945 47.0249 10.1971 47.2076 10.3798C47.3902 10.5624 47.4929 10.8101 47.4929 11.0685Z" fill="#50E6C9"/>
<path d="M51.529 11.0685C51.529 11.2611 51.4719 11.4494 51.3648 11.6096C51.2578 11.7697 51.1057 11.8946 50.9277 11.9683C50.7498 12.042 50.5539 12.0613 50.365 12.0237C50.1761 11.9861 50.0025 11.8934 49.8663 11.7571C49.7301 11.6209 49.6374 11.4474 49.5998 11.2585C49.5622 11.0695 49.5815 10.8737 49.6552 10.6957C49.7289 10.5178 49.8537 10.3656 50.0139 10.2586C50.1741 10.1516 50.3624 10.0945 50.555 10.0945C50.8133 10.0945 51.0611 10.1971 51.2437 10.3798C51.4264 10.5624 51.529 10.8101 51.529 11.0685Z" fill="#50E6C9"/>
<path d="M3.11981 15.1046C3.11981 15.2972 3.06269 15.4855 2.95567 15.6457C2.84864 15.8059 2.69654 15.9307 2.51857 16.0044C2.3406 16.0781 2.14477 16.0974 1.95583 16.0598C1.7669 16.0223 1.59336 15.9295 1.45715 15.7933C1.32093 15.6571 1.22817 15.4835 1.19059 15.2946C1.15301 15.1057 1.1723 14.9098 1.24602 14.7319C1.31973 14.5539 1.44457 14.4018 1.60474 14.2948C1.7649 14.1877 1.95322 14.1306 2.14585 14.1306C2.27375 14.1306 2.4004 14.1558 2.51857 14.2048C2.63674 14.2537 2.7441 14.3254 2.83454 14.4159C2.92498 14.5063 2.99673 14.6137 3.04568 14.7319C3.09463 14.85 3.11981 14.9767 3.11981 15.1046Z" fill="#50E6C9"/>
<path d="M7.15594 15.1046C7.15594 15.2972 7.09882 15.4855 6.9918 15.6457C6.88478 15.8059 6.73267 15.9307 6.5547 16.0044C6.37673 16.0781 6.1809 16.0974 5.99197 16.0598C5.80304 16.0223 5.62948 15.9295 5.49327 15.7933C5.35706 15.6571 5.2643 15.4835 5.22672 15.2946C5.18914 15.1057 5.20843 14.9098 5.28215 14.7319C5.35587 14.5539 5.4807 14.4018 5.64087 14.2948C5.80104 14.1877 5.98935 14.1306 6.18198 14.1306C6.44029 14.1306 6.68802 14.2332 6.87068 14.4159C7.05333 14.5985 7.15594 14.8463 7.15594 15.1046Z" fill="#50E6C9"/>
<path d="M11.1843 15.1046C11.1843 15.2972 11.1271 15.4855 11.0201 15.6457C10.9131 15.8059 10.761 15.9307 10.583 16.0044C10.405 16.0781 10.2092 16.0974 10.0203 16.0598C9.83136 16.0223 9.65781 15.9295 9.52159 15.7933C9.38538 15.6571 9.29262 15.4835 9.25504 15.2946C9.21746 15.1057 9.23675 14.9098 9.31047 14.7319C9.38419 14.5539 9.50902 14.4018 9.66919 14.2948C9.82936 14.1877 10.0177 14.1306 10.2103 14.1306C10.4686 14.1306 10.7163 14.2332 10.899 14.4159C11.0817 14.5985 11.1843 14.8463 11.1843 15.1046Z" fill="#50E6C9"/>
<path d="M15.2204 15.1046C15.2204 15.2972 15.1633 15.4855 15.0563 15.6457C14.9492 15.8059 14.7971 15.9307 14.6191 16.0044C14.4412 16.0781 14.2454 16.0974 14.0564 16.0598C13.8675 16.0223 13.6939 15.9295 13.5577 15.7933C13.4215 15.6571 13.3288 15.4835 13.2912 15.2946C13.2536 15.1057 13.2729 14.9098 13.3466 14.7319C13.4203 14.5539 13.5452 14.4018 13.7053 14.2948C13.8655 14.1877 14.0538 14.1306 14.2464 14.1306C14.5047 14.1306 14.7525 14.2332 14.9351 14.4159C15.1178 14.5985 15.2204 14.8463 15.2204 15.1046Z" fill="#50E6C9"/>
<path d="M19.2565 15.1046C19.2565 15.2972 19.1994 15.4855 19.0924 15.6457C18.9854 15.8059 18.8332 15.9307 18.6553 16.0044C18.4773 16.0781 18.2815 16.0974 18.0926 16.0598C17.9036 16.0223 17.7301 15.9295 17.5939 15.7933C17.4576 15.6571 17.3649 15.4835 17.3273 15.2946C17.2897 15.1057 17.309 14.9098 17.3827 14.7319C17.4565 14.5539 17.5813 14.4018 17.7415 14.2948C17.9016 14.1877 18.0899 14.1306 18.2826 14.1306C18.5409 14.1306 18.7886 14.2332 18.9713 14.4159C19.1539 14.5985 19.2565 14.8463 19.2565 15.1046Z" fill="#50E6C9"/>
<path d="M23.2927 15.1047C23.2926 15.2987 23.2345 15.4882 23.126 15.649C23.0174 15.8098 22.8633 15.9346 22.6834 16.0072C22.5035 16.0799 22.306 16.0971 22.1162 16.0568C21.9264 16.0164 21.753 15.9204 21.6182 15.7808C21.4834 15.6413 21.3934 15.4647 21.3596 15.2736C21.3258 15.0826 21.3499 14.8858 21.4287 14.7085C21.5075 14.5312 21.6375 14.3815 21.8019 14.2785C21.9664 14.1756 22.1578 14.1241 22.3517 14.1307C22.6043 14.1393 22.8436 14.2456 23.0192 14.4274C23.1947 14.6091 23.2928 14.852 23.2927 15.1047Z" fill="#50E6C9"/>
<path d="M27.3034 15.1046C27.3034 15.2972 27.2463 15.4855 27.1393 15.6457C27.0322 15.8059 26.8801 15.9307 26.7022 16.0044C26.5242 16.0781 26.3284 16.0974 26.1394 16.0598C25.9505 16.0223 25.7769 15.9295 25.6407 15.7933C25.5045 15.6571 25.4118 15.4835 25.3742 15.2946C25.3366 15.1057 25.3559 14.9098 25.4296 14.7319C25.5033 14.5539 25.6282 14.4018 25.7883 14.2948C25.9485 14.1877 26.1368 14.1306 26.3294 14.1306C26.5878 14.1306 26.8355 14.2332 27.0181 14.4159C27.2008 14.5985 27.3034 14.8463 27.3034 15.1046Z" fill="#50E6C9"/>
<path d="M31.3561 15.1046C31.3561 15.2972 31.299 15.4855 31.192 15.6457C31.085 15.8059 30.9329 15.9307 30.7549 16.0044C30.5769 16.0781 30.3811 16.0974 30.1922 16.0598C30.0032 16.0223 29.8297 15.9295 29.6935 15.7933C29.5573 15.6571 29.4645 15.4835 29.4269 15.2946C29.3893 15.1057 29.4086 14.9098 29.4823 14.7319C29.5561 14.5539 29.6809 14.4018 29.8411 14.2948C30.0012 14.1877 30.1895 14.1306 30.3822 14.1306C30.5101 14.1306 30.6367 14.1558 30.7549 14.2048C30.8731 14.2537 30.9804 14.3254 31.0709 14.4159C31.1613 14.5063 31.2331 14.6137 31.282 14.7319C31.3309 14.85 31.3561 14.9767 31.3561 15.1046Z" fill="#50E6C9"/>
<path d="M35.3923 15.1046C35.3923 15.2972 35.3352 15.4855 35.2281 15.6457C35.1211 15.8059 34.969 15.9307 34.791 16.0044C34.6131 16.0781 34.4172 16.0974 34.2283 16.0598C34.0394 16.0223 33.8658 15.9295 33.7296 15.7933C33.5934 15.6571 33.5006 15.4835 33.4631 15.2946C33.4255 15.1057 33.4448 14.9098 33.5185 14.7319C33.5922 14.5539 33.717 14.4018 33.8772 14.2948C34.0374 14.1877 34.2257 14.1306 34.4183 14.1306C34.6766 14.1306 34.9244 14.2332 35.107 14.4159C35.2897 14.5985 35.3923 14.8463 35.3923 15.1046Z" fill="#50E6C9"/>
<path d="M39.4206 15.1046C39.4206 15.2972 39.3635 15.4855 39.2565 15.6457C39.1494 15.8059 38.9973 15.9307 38.8194 16.0044C38.6414 16.0781 38.4455 16.0974 38.2566 16.0598C38.0677 16.0223 37.8941 15.9295 37.7579 15.7933C37.6217 15.6571 37.529 15.4835 37.4914 15.2946C37.4538 15.1057 37.4731 14.9098 37.5468 14.7319C37.6205 14.5539 37.7453 14.4018 37.9055 14.2948C38.0657 14.1877 38.254 14.1306 38.4466 14.1306C38.7049 14.1306 38.9527 14.2332 39.1353 14.4159C39.318 14.5985 39.4206 14.8463 39.4206 15.1046Z" fill="#50E6C9"/>
<path d="M43.4567 15.1046C43.4567 15.2972 43.3996 15.4855 43.2926 15.6457C43.1856 15.8059 43.0335 15.9307 42.8555 16.0044C42.6775 16.0781 42.4817 16.0974 42.2927 16.0598C42.1038 16.0223 41.9303 15.9295 41.7941 15.7933C41.6579 15.6571 41.5651 15.4835 41.5275 15.2946C41.4899 15.1057 41.5092 14.9098 41.5829 14.7319C41.6566 14.5539 41.7815 14.4018 41.9416 14.2948C42.1018 14.1877 42.2901 14.1306 42.4828 14.1306C42.7411 14.1306 42.9888 14.2332 43.1715 14.4159C43.3541 14.5985 43.4567 14.8463 43.4567 15.1046Z" fill="#50E6C9"/>
<path d="M47.4929 15.1046C47.4929 15.2972 47.4357 15.4855 47.3287 15.6457C47.2217 15.8059 47.0696 15.9307 46.8916 16.0044C46.7136 16.0781 46.5178 16.0974 46.3289 16.0598C46.1399 16.0223 45.9664 15.9295 45.8302 15.7933C45.694 15.6571 45.6012 15.4835 45.5636 15.2946C45.5261 15.1057 45.5453 14.9098 45.6191 14.7319C45.6928 14.5539 45.8176 14.4018 45.9778 14.2948C46.1379 14.1877 46.3263 14.1306 46.5189 14.1306C46.7772 14.1306 47.0249 14.2332 47.2076 14.4159C47.3902 14.5985 47.4929 14.8463 47.4929 15.1046Z" fill="#50E6C9"/>
<path d="M51.529 15.1046C51.529 15.2972 51.4719 15.4855 51.3648 15.6457C51.2578 15.8059 51.1057 15.9307 50.9277 16.0044C50.7498 16.0781 50.5539 16.0974 50.365 16.0598C50.1761 16.0223 50.0025 15.9295 49.8663 15.7933C49.7301 15.6571 49.6374 15.4835 49.5998 15.2946C49.5622 15.1057 49.5815 14.9098 49.6552 14.7319C49.7289 14.5539 49.8537 14.4018 50.0139 14.2948C50.1741 14.1877 50.3624 14.1306 50.555 14.1306C50.8133 14.1306 51.0611 14.2332 51.2437 14.4159C51.4264 14.5985 51.529 14.8463 51.529 15.1046Z" fill="#50E6C9"/>
<path d="M3.11981 19.1327C3.11981 19.3253 3.06269 19.5136 2.95567 19.6738C2.84864 19.8339 2.69654 19.9588 2.51857 20.0325C2.3406 20.1062 2.14477 20.1255 1.95583 20.0879C1.7669 20.0503 1.59336 19.9576 1.45715 19.8214C1.32093 19.6851 1.22817 19.5116 1.19059 19.3227C1.15301 19.1337 1.1723 18.9379 1.24602 18.7599C1.31973 18.582 1.44457 18.4299 1.60474 18.3228C1.7649 18.2158 1.95322 18.1587 2.14585 18.1587C2.27375 18.1587 2.4004 18.1839 2.51857 18.2328C2.63674 18.2818 2.7441 18.3535 2.83454 18.444C2.92498 18.5344 2.99673 18.6418 3.04568 18.7599C3.09463 18.8781 3.11981 19.0048 3.11981 19.1327Z" fill="#50E6C9"/>
<path d="M7.15594 19.1327C7.15594 19.3253 7.09882 19.5136 6.9918 19.6738C6.88478 19.8339 6.73267 19.9588 6.5547 20.0325C6.37673 20.1062 6.1809 20.1255 5.99197 20.0879C5.80304 20.0503 5.62948 19.9576 5.49327 19.8214C5.35706 19.6851 5.2643 19.5116 5.22672 19.3227C5.18914 19.1337 5.20843 18.9379 5.28215 18.7599C5.35587 18.582 5.4807 18.4299 5.64087 18.3228C5.80104 18.2158 5.98935 18.1587 6.18198 18.1587C6.44029 18.1587 6.68802 18.2613 6.87068 18.444C7.05333 18.6266 7.15594 18.8743 7.15594 19.1327Z" fill="#50E6C9"/>
<path d="M11.1843 19.1327C11.1843 19.3253 11.1271 19.5136 11.0201 19.6738C10.9131 19.8339 10.761 19.9588 10.583 20.0325C10.405 20.1062 10.2092 20.1255 10.0203 20.0879C9.83136 20.0503 9.65781 19.9576 9.52159 19.8214C9.38538 19.6851 9.29262 19.5116 9.25504 19.3227C9.21746 19.1337 9.23675 18.9379 9.31047 18.7599C9.38419 18.582 9.50902 18.4299 9.66919 18.3228C9.82936 18.2158 10.0177 18.1587 10.2103 18.1587C10.4686 18.1587 10.7163 18.2613 10.899 18.444C11.0817 18.6266 11.1843 18.8743 11.1843 19.1327Z" fill="#50E6C9"/>
<path d="M15.2204 19.1327C15.2204 19.3253 15.1633 19.5136 15.0563 19.6738C14.9492 19.8339 14.7971 19.9588 14.6191 20.0325C14.4412 20.1062 14.2454 20.1255 14.0564 20.0879C13.8675 20.0503 13.6939 19.9576 13.5577 19.8214C13.4215 19.6851 13.3288 19.5116 13.2912 19.3227C13.2536 19.1337 13.2729 18.9379 13.3466 18.7599C13.4203 18.582 13.5452 18.4299 13.7053 18.3228C13.8655 18.2158 14.0538 18.1587 14.2464 18.1587C14.5047 18.1587 14.7525 18.2613 14.9351 18.444C15.1178 18.6266 15.2204 18.8743 15.2204 19.1327Z" fill="#50E6C9"/>
<path d="M19.2565 19.1327C19.2565 19.3253 19.1994 19.5136 19.0924 19.6738C18.9854 19.8339 18.8332 19.9588 18.6553 20.0325C18.4773 20.1062 18.2815 20.1255 18.0926 20.0879C17.9036 20.0503 17.7301 19.9576 17.5939 19.8214C17.4576 19.6851 17.3649 19.5116 17.3273 19.3227C17.2897 19.1337 17.309 18.9379 17.3827 18.7599C17.4565 18.582 17.5813 18.4299 17.7415 18.3228C17.9016 18.2158 18.0899 18.1587 18.2826 18.1587C18.5409 18.1587 18.7886 18.2613 18.9713 18.444C19.1539 18.6266 19.2565 18.8743 19.2565 19.1327Z" fill="#50E6C9"/>
<path d="M23.2927 19.1327C23.2927 19.391 23.1901 19.6387 23.0074 19.8214C22.8247 20.004 22.577 20.1066 22.3187 20.1066C22.0604 20.1066 21.8126 20.004 21.63 19.8214C21.4473 19.6387 21.3447 19.391 21.3447 19.1327C21.3447 18.8743 21.4473 18.6266 21.63 18.444C21.8126 18.2613 22.0604 18.1587 22.3187 18.1587C22.577 18.1587 22.8247 18.2613 23.0074 18.444C23.1901 18.6266 23.2927 18.8743 23.2927 19.1327Z" fill="#50E6C9"/>
<path d="M27.3034 19.1327C27.3034 19.3253 27.2463 19.5136 27.1393 19.6738C27.0322 19.8339 26.8801 19.9588 26.7022 20.0325C26.5242 20.1062 26.3284 20.1255 26.1394 20.0879C25.9505 20.0503 25.7769 19.9576 25.6407 19.8214C25.5045 19.6851 25.4118 19.5116 25.3742 19.3227C25.3366 19.1337 25.3559 18.9379 25.4296 18.7599C25.5033 18.582 25.6282 18.4299 25.7883 18.3228C25.9485 18.2158 26.1368 18.1587 26.3294 18.1587C26.5878 18.1587 26.8355 18.2613 27.0181 18.444C27.2008 18.6266 27.3034 18.8743 27.3034 19.1327Z" fill="#50E6C9"/>
<path d="M31.3561 19.1327C31.3561 19.3253 31.299 19.5136 31.192 19.6738C31.085 19.8339 30.9329 19.9588 30.7549 20.0325C30.5769 20.1062 30.3811 20.1255 30.1922 20.0879C30.0032 20.0503 29.8297 19.9576 29.6935 19.8214C29.5573 19.6851 29.4645 19.5116 29.4269 19.3227C29.3893 19.1337 29.4086 18.9379 29.4823 18.7599C29.5561 18.582 29.6809 18.4299 29.8411 18.3228C30.0012 18.2158 30.1895 18.1587 30.3822 18.1587C30.5101 18.1587 30.6367 18.1839 30.7549 18.2328C30.8731 18.2818 30.9804 18.3535 31.0709 18.444C31.1613 18.5344 31.2331 18.6418 31.282 18.7599C31.3309 18.8781 31.3561 19.0048 31.3561 19.1327Z" fill="#50E6C9"/>
<path d="M35.3923 19.1327C35.3923 19.3253 35.3352 19.5136 35.2281 19.6738C35.1211 19.8339 34.969 19.9588 34.791 20.0325C34.6131 20.1062 34.4172 20.1255 34.2283 20.0879C34.0394 20.0503 33.8658 19.9576 33.7296 19.8214C33.5934 19.6851 33.5006 19.5116 33.4631 19.3227C33.4255 19.1337 33.4448 18.9379 33.5185 18.7599C33.5922 18.582 33.717 18.4299 33.8772 18.3228C34.0374 18.2158 34.2257 18.1587 34.4183 18.1587C34.6766 18.1587 34.9244 18.2613 35.107 18.444C35.2897 18.6266 35.3923 18.8743 35.3923 19.1327Z" fill="#50E6C9"/>
<path d="M39.4206 19.1327C39.4206 19.3253 39.3635 19.5136 39.2565 19.6738C39.1494 19.8339 38.9973 19.9588 38.8194 20.0325C38.6414 20.1062 38.4455 20.1255 38.2566 20.0879C38.0677 20.0503 37.8941 19.9576 37.7579 19.8214C37.6217 19.6851 37.529 19.5116 37.4914 19.3227C37.4538 19.1337 37.4731 18.9379 37.5468 18.7599C37.6205 18.582 37.7453 18.4299 37.9055 18.3228C38.0657 18.2158 38.254 18.1587 38.4466 18.1587C38.7049 18.1587 38.9527 18.2613 39.1353 18.444C39.318 18.6266 39.4206 18.8743 39.4206 19.1327Z" fill="#50E6C9"/>
<path d="M43.4567 19.1327C43.4567 19.3253 43.3996 19.5136 43.2926 19.6738C43.1856 19.8339 43.0335 19.9588 42.8555 20.0325C42.6775 20.1062 42.4817 20.1255 42.2927 20.0879C42.1038 20.0503 41.9303 19.9576 41.7941 19.8214C41.6579 19.6851 41.5651 19.5116 41.5275 19.3227C41.4899 19.1337 41.5092 18.9379 41.5829 18.7599C41.6566 18.582 41.7815 18.4299 41.9416 18.3228C42.1018 18.2158 42.2901 18.1587 42.4828 18.1587C42.7411 18.1587 42.9888 18.2613 43.1715 18.444C43.3541 18.6266 43.4567 18.8743 43.4567 19.1327Z" fill="#50E6C9"/>
<path d="M47.4929 19.1327C47.4929 19.3253 47.4357 19.5136 47.3287 19.6738C47.2217 19.8339 47.0696 19.9588 46.8916 20.0325C46.7136 20.1062 46.5178 20.1255 46.3289 20.0879C46.1399 20.0503 45.9664 19.9576 45.8302 19.8214C45.694 19.6851 45.6012 19.5116 45.5636 19.3227C45.5261 19.1337 45.5453 18.9379 45.6191 18.7599C45.6928 18.582 45.8176 18.4299 45.9778 18.3228C46.1379 18.2158 46.3263 18.1587 46.5189 18.1587C46.7772 18.1587 47.0249 18.2613 47.2076 18.444C47.3902 18.6266 47.4929 18.8743 47.4929 19.1327Z" fill="#50E6C9"/>
<path d="M51.5288 19.1327C51.5412 19.2675 51.5254 19.4035 51.4823 19.532C51.4393 19.6604 51.3699 19.7784 51.2786 19.8785C51.1873 19.9786 51.0762 20.0585 50.9523 20.1132C50.8284 20.1679 50.6944 20.1962 50.5589 20.1962C50.4235 20.1962 50.2895 20.1679 50.1656 20.1132C50.0417 20.0585 49.9305 19.9786 49.8393 19.8785C49.748 19.7784 49.6786 19.6604 49.6355 19.532C49.5924 19.4035 49.5766 19.2675 49.5891 19.1327C49.5891 18.8743 49.6917 18.6266 49.8744 18.444C50.057 18.2613 50.3047 18.1587 50.5631 18.1587C50.8214 18.1587 51.0691 18.2613 51.2518 18.444C51.4344 18.6266 51.537 18.8743 51.537 19.1327H51.5288Z" fill="#50E6C9"/>
<path d="M3.11981 23.1688C3.11981 23.3614 3.06269 23.5497 2.95567 23.7099C2.84864 23.8701 2.69654 23.9949 2.51857 24.0686C2.3406 24.1423 2.14477 24.1616 1.95583 24.124C1.7669 24.0865 1.59336 23.9937 1.45715 23.8575C1.32093 23.7213 1.22817 23.5477 1.19059 23.3588C1.15301 23.1699 1.1723 22.974 1.24602 22.7961C1.31973 22.6181 1.44457 22.466 1.60474 22.359C1.7649 22.2519 1.95322 22.1948 2.14585 22.1948C2.27375 22.1948 2.4004 22.22 2.51857 22.269C2.63674 22.3179 2.7441 22.3897 2.83454 22.4801C2.92498 22.5705 2.99673 22.6779 3.04568 22.7961C3.09463 22.9142 3.11981 23.0409 3.11981 23.1688Z" fill="#50E6C9"/>
<path d="M7.15594 23.1688C7.15594 23.3614 7.09882 23.5497 6.9918 23.7099C6.88478 23.8701 6.73267 23.9949 6.5547 24.0686C6.37673 24.1423 6.1809 24.1616 5.99197 24.124C5.80304 24.0865 5.62948 23.9937 5.49327 23.8575C5.35706 23.7213 5.2643 23.5477 5.22672 23.3588C5.18914 23.1699 5.20843 22.974 5.28215 22.7961C5.35587 22.6181 5.4807 22.466 5.64087 22.359C5.80104 22.2519 5.98935 22.1948 6.18198 22.1948C6.44029 22.1948 6.68802 22.2974 6.87068 22.4801C7.05333 22.6627 7.15594 22.9105 7.15594 23.1688Z" fill="#50E6C9"/>
<path d="M11.1843 23.1688C11.1843 23.3614 11.1271 23.5497 11.0201 23.7099C10.9131 23.8701 10.761 23.9949 10.583 24.0686C10.405 24.1423 10.2092 24.1616 10.0203 24.124C9.83136 24.0865 9.65781 23.9937 9.52159 23.8575C9.38538 23.7213 9.29262 23.5477 9.25504 23.3588C9.21746 23.1699 9.23675 22.974 9.31047 22.7961C9.38419 22.6181 9.50902 22.466 9.66919 22.359C9.82936 22.2519 10.0177 22.1948 10.2103 22.1948C10.4686 22.1948 10.7163 22.2974 10.899 22.4801C11.0817 22.6627 11.1843 22.9105 11.1843 23.1688Z" fill="#50E6C9"/>
<path d="M15.2204 23.1688C15.2204 23.3614 15.1633 23.5497 15.0563 23.7099C14.9492 23.8701 14.7971 23.9949 14.6191 24.0686C14.4412 24.1423 14.2454 24.1616 14.0564 24.124C13.8675 24.0865 13.6939 23.9937 13.5577 23.8575C13.4215 23.7213 13.3288 23.5477 13.2912 23.3588C13.2536 23.1699 13.2729 22.974 13.3466 22.7961C13.4203 22.6181 13.5452 22.466 13.7053 22.359C13.8655 22.2519 14.0538 22.1948 14.2464 22.1948C14.5047 22.1948 14.7525 22.2974 14.9351 22.4801C15.1178 22.6627 15.2204 22.9105 15.2204 23.1688Z" fill="#50E6C9"/>
<path d="M19.2565 23.1688C19.2565 23.3614 19.1994 23.5497 19.0924 23.7099C18.9854 23.8701 18.8332 23.9949 18.6553 24.0686C18.4773 24.1423 18.2815 24.1616 18.0926 24.124C17.9036 24.0865 17.7301 23.9937 17.5939 23.8575C17.4576 23.7213 17.3649 23.5477 17.3273 23.3588C17.2897 23.1699 17.309 22.974 17.3827 22.7961C17.4565 22.6181 17.5813 22.466 17.7415 22.359C17.9016 22.2519 18.0899 22.1948 18.2826 22.1948C18.5409 22.1948 18.7886 22.2974 18.9713 22.4801C19.1539 22.6627 19.2565 22.9105 19.2565 23.1688Z" fill="#50E6C9"/>
<path d="M23.2927 23.1686C23.2926 23.3626 23.2345 23.5522 23.126 23.713C23.0174 23.8738 22.8633 23.9985 22.6834 24.0712C22.5035 24.1438 22.306 24.1611 22.1162 24.1207C21.9264 24.0804 21.753 23.9843 21.6182 23.8448C21.4834 23.7053 21.3934 23.5286 21.3596 23.3376C21.3258 23.1465 21.3499 22.9497 21.4287 22.7725C21.5075 22.5952 21.6375 22.4455 21.8019 22.3425C21.9664 22.2396 22.1578 22.1881 22.3517 22.1947C22.6043 22.2032 22.8436 22.3096 23.0192 22.4913C23.1947 22.6731 23.2928 22.9159 23.2927 23.1686Z" fill="#50E6C9"/>
<path d="M27.3034 23.1688C27.3034 23.3614 27.2463 23.5497 27.1393 23.7099C27.0322 23.8701 26.8801 23.9949 26.7022 24.0686C26.5242 24.1423 26.3284 24.1616 26.1394 24.124C25.9505 24.0865 25.7769 23.9937 25.6407 23.8575C25.5045 23.7213 25.4118 23.5477 25.3742 23.3588C25.3366 23.1699 25.3559 22.974 25.4296 22.7961C25.5033 22.6181 25.6282 22.466 25.7883 22.359C25.9485 22.2519 26.1368 22.1948 26.3294 22.1948C26.5878 22.1948 26.8355 22.2974 27.0181 22.4801C27.2008 22.6627 27.3034 22.9105 27.3034 23.1688Z" fill="#50E6C9"/>
<path d="M31.3561 23.1688C31.3561 23.3614 31.299 23.5497 31.192 23.7099C31.085 23.8701 30.9329 23.9949 30.7549 24.0686C30.5769 24.1423 30.3811 24.1616 30.1922 24.124C30.0032 24.0865 29.8297 23.9937 29.6935 23.8575C29.5573 23.7213 29.4645 23.5477 29.4269 23.3588C29.3893 23.1699 29.4086 22.974 29.4823 22.7961C29.5561 22.6181 29.6809 22.466 29.8411 22.359C30.0012 22.2519 30.1895 22.1948 30.3822 22.1948C30.5101 22.1948 30.6367 22.22 30.7549 22.269C30.8731 22.3179 30.9804 22.3897 31.0709 22.4801C31.1613 22.5705 31.2331 22.6779 31.282 22.7961C31.3309 22.9142 31.3561 23.0409 31.3561 23.1688Z" fill="#50E6C9"/>
<path d="M35.3923 23.1688C35.3923 23.3614 35.3352 23.5497 35.2281 23.7099C35.1211 23.8701 34.969 23.9949 34.791 24.0686C34.6131 24.1423 34.4172 24.1616 34.2283 24.124C34.0394 24.0865 33.8658 23.9937 33.7296 23.8575C33.5934 23.7213 33.5006 23.5477 33.4631 23.3588C33.4255 23.1699 33.4448 22.974 33.5185 22.7961C33.5922 22.6181 33.717 22.466 33.8772 22.359C34.0374 22.2519 34.2257 22.1948 34.4183 22.1948C34.6766 22.1948 34.9244 22.2974 35.107 22.4801C35.2897 22.6627 35.3923 22.9105 35.3923 23.1688Z" fill="#50E6C9"/>
<path d="M39.4206 23.1688C39.4206 23.3614 39.3635 23.5497 39.2565 23.7099C39.1494 23.8701 38.9973 23.9949 38.8194 24.0686C38.6414 24.1423 38.4455 24.1616 38.2566 24.124C38.0677 24.0865 37.8941 23.9937 37.7579 23.8575C37.6217 23.7213 37.529 23.5477 37.4914 23.3588C37.4538 23.1699 37.4731 22.974 37.5468 22.7961C37.6205 22.6181 37.7453 22.466 37.9055 22.359C38.0657 22.2519 38.254 22.1948 38.4466 22.1948C38.7049 22.1948 38.9527 22.2974 39.1353 22.4801C39.318 22.6627 39.4206 22.9105 39.4206 23.1688Z" fill="#50E6C9"/>
<path d="M43.4567 23.1688C43.4567 23.3614 43.3996 23.5497 43.2926 23.7099C43.1856 23.8701 43.0335 23.9949 42.8555 24.0686C42.6775 24.1423 42.4817 24.1616 42.2927 24.124C42.1038 24.0865 41.9303 23.9937 41.7941 23.8575C41.6579 23.7213 41.5651 23.5477 41.5275 23.3588C41.4899 23.1699 41.5092 22.974 41.5829 22.7961C41.6566 22.6181 41.7815 22.466 41.9416 22.359C42.1018 22.2519 42.2901 22.1948 42.4828 22.1948C42.7411 22.1948 42.9888 22.2974 43.1715 22.4801C43.3541 22.6627 43.4567 22.9105 43.4567 23.1688Z" fill="#50E6C9"/>
<path d="M47.4929 23.1688C47.4929 23.3614 47.4357 23.5497 47.3287 23.7099C47.2217 23.8701 47.0696 23.9949 46.8916 24.0686C46.7136 24.1423 46.5178 24.1616 46.3289 24.124C46.1399 24.0865 45.9664 23.9937 45.8302 23.8575C45.694 23.7213 45.6012 23.5477 45.5636 23.3588C45.5261 23.1699 45.5453 22.974 45.6191 22.7961C45.6928 22.6181 45.8176 22.466 45.9778 22.359C46.1379 22.2519 46.3263 22.1948 46.5189 22.1948C46.7772 22.1948 47.0249 22.2974 47.2076 22.4801C47.3902 22.6627 47.4929 22.9105 47.4929 23.1688Z" fill="#50E6C9"/>
<path d="M51.529 23.1688C51.529 23.3614 51.4719 23.5497 51.3648 23.7099C51.2578 23.8701 51.1057 23.9949 50.9277 24.0686C50.7498 24.1423 50.5539 24.1616 50.365 24.124C50.1761 24.0865 50.0025 23.9937 49.8663 23.8575C49.7301 23.7213 49.6374 23.5477 49.5998 23.3588C49.5622 23.1699 49.5815 22.974 49.6552 22.7961C49.7289 22.6181 49.8537 22.466 50.0139 22.359C50.1741 22.2519 50.3624 22.1948 50.555 22.1948C50.8133 22.1948 51.0611 22.2974 51.2437 22.4801C51.4264 22.6627 51.529 22.9105 51.529 23.1688Z" fill="#50E6C9"/>
<path d="M3.11981 27.2049C3.11981 27.3976 3.06269 27.5859 2.95567 27.746C2.84864 27.9062 2.69654 28.031 2.51857 28.1048C2.3406 28.1785 2.14477 28.1978 1.95583 28.1602C1.7669 28.1226 1.59336 28.0298 1.45715 27.8936C1.32093 27.7574 1.22817 27.5839 1.19059 27.3949C1.15301 27.206 1.1723 27.0102 1.24602 26.8322C1.31973 26.6542 1.44457 26.5021 1.60474 26.3951C1.7649 26.2881 1.95322 26.231 2.14585 26.231C2.27375 26.231 2.4004 26.2561 2.51857 26.3051C2.63674 26.354 2.7441 26.4258 2.83454 26.5162C2.92498 26.6067 2.99673 26.714 3.04568 26.8322C3.09463 26.9504 3.11981 27.077 3.11981 27.2049Z" fill="#50E6C9"/>
<path d="M7.15594 27.2049C7.15594 27.3976 7.09882 27.5859 6.9918 27.746C6.88478 27.9062 6.73267 28.031 6.5547 28.1048C6.37673 28.1785 6.1809 28.1978 5.99197 28.1602C5.80304 28.1226 5.62948 28.0298 5.49327 27.8936C5.35706 27.7574 5.2643 27.5839 5.22672 27.3949C5.18914 27.206 5.20843 27.0102 5.28215 26.8322C5.35587 26.6542 5.4807 26.5021 5.64087 26.3951C5.80104 26.2881 5.98935 26.231 6.18198 26.231C6.44029 26.231 6.68802 26.3336 6.87068 26.5162C7.05333 26.6989 7.15594 26.9466 7.15594 27.2049Z" fill="#50E6C9"/>
<path d="M11.1843 27.2049C11.1843 27.3976 11.1271 27.5859 11.0201 27.746C10.9131 27.9062 10.761 28.031 10.583 28.1048C10.405 28.1785 10.2092 28.1978 10.0203 28.1602C9.83136 28.1226 9.65781 28.0298 9.52159 27.8936C9.38538 27.7574 9.29262 27.5839 9.25504 27.3949C9.21746 27.206 9.23675 27.0102 9.31047 26.8322C9.38419 26.6542 9.50902 26.5021 9.66919 26.3951C9.82936 26.2881 10.0177 26.231 10.2103 26.231C10.4686 26.231 10.7163 26.3336 10.899 26.5162C11.0817 26.6989 11.1843 26.9466 11.1843 27.2049Z" fill="#50E6C9"/>
<path d="M15.2204 27.2049C15.2204 27.3976 15.1633 27.5859 15.0563 27.746C14.9492 27.9062 14.7971 28.031 14.6191 28.1048C14.4412 28.1785 14.2454 28.1978 14.0564 28.1602C13.8675 28.1226 13.6939 28.0298 13.5577 27.8936C13.4215 27.7574 13.3288 27.5839 13.2912 27.3949C13.2536 27.206 13.2729 27.0102 13.3466 26.8322C13.4203 26.6542 13.5452 26.5021 13.7053 26.3951C13.8655 26.2881 14.0538 26.231 14.2464 26.231C14.5047 26.231 14.7525 26.3336 14.9351 26.5162C15.1178 26.6989 15.2204 26.9466 15.2204 27.2049Z" fill="#50E6C9"/>
<path d="M19.2565 27.2049C19.2565 27.3976 19.1994 27.5859 19.0924 27.746C18.9854 27.9062 18.8332 28.031 18.6553 28.1048C18.4773 28.1785 18.2815 28.1978 18.0926 28.1602C17.9036 28.1226 17.7301 28.0298 17.5939 27.8936C17.4576 27.7574 17.3649 27.5839 17.3273 27.3949C17.2897 27.206 17.309 27.0102 17.3827 26.8322C17.4565 26.6542 17.5813 26.5021 17.7415 26.3951C17.9016 26.2881 18.0899 26.231 18.2826 26.231C18.5409 26.231 18.7886 26.3336 18.9713 26.5162C19.1539 26.6989 19.2565 26.9466 19.2565 27.2049Z" fill="#50E6C9"/>
<path d="M23.2927 27.205C23.2926 27.399 23.2345 27.5886 23.126 27.7494C23.0174 27.9102 22.8633 28.0349 22.6834 28.1076C22.5035 28.1802 22.306 28.1975 22.1162 28.1571C21.9264 28.1168 21.753 28.0207 21.6182 27.8812C21.4834 27.7416 21.3934 27.565 21.3596 27.374C21.3258 27.1829 21.3499 26.9861 21.4287 26.8088C21.5075 26.6315 21.6375 26.4818 21.8019 26.3789C21.9664 26.2759 22.1578 26.2245 22.3517 26.231C22.6043 26.2396 22.8436 26.346 23.0192 26.5277C23.1947 26.7094 23.2928 26.9523 23.2927 27.205Z" fill="#50E6C9"/>
<path d="M27.3034 27.2049C27.3034 27.3976 27.2463 27.5859 27.1393 27.746C27.0322 27.9062 26.8801 28.031 26.7022 28.1048C26.5242 28.1785 26.3284 28.1978 26.1394 28.1602C25.9505 28.1226 25.7769 28.0298 25.6407 27.8936C25.5045 27.7574 25.4118 27.5839 25.3742 27.3949C25.3366 27.206 25.3559 27.0102 25.4296 26.8322C25.5033 26.6542 25.6282 26.5021 25.7883 26.3951C25.9485 26.2881 26.1368 26.231 26.3294 26.231C26.5878 26.231 26.8355 26.3336 27.0181 26.5162C27.2008 26.6989 27.3034 26.9466 27.3034 27.2049Z" fill="#50E6C9"/>
<path d="M31.3561 27.2049C31.3561 27.3976 31.299 27.5859 31.192 27.746C31.085 27.9062 30.9329 28.031 30.7549 28.1048C30.5769 28.1785 30.3811 28.1978 30.1922 28.1602C30.0032 28.1226 29.8297 28.0298 29.6935 27.8936C29.5573 27.7574 29.4645 27.5839 29.4269 27.3949C29.3893 27.206 29.4086 27.0102 29.4823 26.8322C29.5561 26.6542 29.6809 26.5021 29.8411 26.3951C30.0012 26.2881 30.1895 26.231 30.3822 26.231C30.5101 26.231 30.6367 26.2561 30.7549 26.3051C30.8731 26.354 30.9804 26.4258 31.0709 26.5162C31.1613 26.6067 31.2331 26.714 31.282 26.8322C31.3309 26.9504 31.3561 27.077 31.3561 27.2049Z" fill="#50E6C9"/>
<path d="M35.3923 27.2049C35.3923 27.3976 35.3352 27.5859 35.2281 27.746C35.1211 27.9062 34.969 28.031 34.791 28.1048C34.6131 28.1785 34.4172 28.1978 34.2283 28.1602C34.0394 28.1226 33.8658 28.0298 33.7296 27.8936C33.5934 27.7574 33.5006 27.5839 33.4631 27.3949C33.4255 27.206 33.4448 27.0102 33.5185 26.8322C33.5922 26.6542 33.717 26.5021 33.8772 26.3951C34.0374 26.2881 34.2257 26.231 34.4183 26.231C34.6766 26.231 34.9244 26.3336 35.107 26.5162C35.2897 26.6989 35.3923 26.9466 35.3923 27.2049Z" fill="#50E6C9"/>
<path d="M39.4206 27.2049C39.4206 27.3976 39.3635 27.5859 39.2565 27.746C39.1494 27.9062 38.9973 28.031 38.8194 28.1048C38.6414 28.1785 38.4455 28.1978 38.2566 28.1602C38.0677 28.1226 37.8941 28.0298 37.7579 27.8936C37.6217 27.7574 37.529 27.5839 37.4914 27.3949C37.4538 27.206 37.4731 27.0102 37.5468 26.8322C37.6205 26.6542 37.7453 26.5021 37.9055 26.3951C38.0657 26.2881 38.254 26.231 38.4466 26.231C38.7049 26.231 38.9527 26.3336 39.1353 26.5162C39.318 26.6989 39.4206 26.9466 39.4206 27.2049Z" fill="#50E6C9"/>
<path d="M43.4567 27.2049C43.4567 27.3976 43.3996 27.5859 43.2926 27.746C43.1856 27.9062 43.0335 28.031 42.8555 28.1048C42.6775 28.1785 42.4817 28.1978 42.2927 28.1602C42.1038 28.1226 41.9303 28.0298 41.7941 27.8936C41.6579 27.7574 41.5651 27.5839 41.5275 27.3949C41.4899 27.206 41.5092 27.0102 41.5829 26.8322C41.6566 26.6542 41.7815 26.5021 41.9416 26.3951C42.1018 26.2881 42.2901 26.231 42.4828 26.231C42.7411 26.231 42.9888 26.3336 43.1715 26.5162C43.3541 26.6989 43.4567 26.9466 43.4567 27.2049Z" fill="#50E6C9"/>
<path d="M47.4929 27.2049C47.4929 27.3976 47.4357 27.5859 47.3287 27.746C47.2217 27.9062 47.0696 28.031 46.8916 28.1048C46.7136 28.1785 46.5178 28.1978 46.3289 28.1602C46.1399 28.1226 45.9664 28.0298 45.8302 27.8936C45.694 27.7574 45.6012 27.5839 45.5636 27.3949C45.5261 27.206 45.5453 27.0102 45.6191 26.8322C45.6928 26.6542 45.8176 26.5021 45.9778 26.3951C46.1379 26.2881 46.3263 26.231 46.5189 26.231C46.7772 26.231 47.0249 26.3336 47.2076 26.5162C47.3902 26.6989 47.4929 26.9466 47.4929 27.2049Z" fill="#50E6C9"/>
<path d="M51.529 27.2049C51.529 27.3976 51.4719 27.5859 51.3648 27.746C51.2578 27.9062 51.1057 28.031 50.9277 28.1048C50.7498 28.1785 50.5539 28.1978 50.365 28.1602C50.1761 28.1226 50.0025 28.0298 49.8663 27.8936C49.7301 27.7574 49.6374 27.5839 49.5998 27.3949C49.5622 27.206 49.5815 27.0102 49.6552 26.8322C49.7289 26.6542 49.8537 26.5021 50.0139 26.3951C50.1741 26.2881 50.3624 26.231 50.555 26.231C50.8133 26.231 51.0611 26.3336 51.2437 26.5162C51.4264 26.6989 51.529 26.9466 51.529 27.2049Z" fill="#50E6C9"/>
<path d="M3.11981 31.2413C3.11981 31.4339 3.06269 31.6222 2.95567 31.7824C2.84864 31.9426 2.69654 32.0674 2.51857 32.1411C2.3406 32.2149 2.14477 32.2341 1.95583 32.1966C1.7669 32.159 1.59336 32.0662 1.45715 31.93C1.32093 31.7938 1.22817 31.6202 1.19059 31.4313C1.15301 31.2424 1.1723 31.0466 1.24602 30.8686C1.31973 30.6906 1.44457 30.5385 1.60474 30.4315C1.7649 30.3245 1.95322 30.2673 2.14585 30.2673C2.27375 30.2673 2.4004 30.2925 2.51857 30.3415C2.63674 30.3904 2.7441 30.4622 2.83454 30.5526C2.92498 30.643 2.99673 30.7504 3.04568 30.8686C3.09463 30.9868 3.11981 31.1134 3.11981 31.2413Z" fill="#50E6C9"/>
<path d="M7.15594 31.2413C7.15594 31.4339 7.09882 31.6222 6.9918 31.7824C6.88478 31.9426 6.73267 32.0674 6.5547 32.1411C6.37673 32.2149 6.1809 32.2341 5.99197 32.1966C5.80304 32.159 5.62948 32.0662 5.49327 31.93C5.35706 31.7938 5.2643 31.6202 5.22672 31.4313C5.18914 31.2424 5.20843 31.0466 5.28215 30.8686C5.35587 30.6906 5.4807 30.5385 5.64087 30.4315C5.80104 30.3245 5.98935 30.2673 6.18198 30.2673C6.44029 30.2673 6.68802 30.37 6.87068 30.5526C7.05333 30.7353 7.15594 30.983 7.15594 31.2413Z" fill="#50E6C9"/>
<path d="M11.1843 31.2413C11.1843 31.4339 11.1271 31.6222 11.0201 31.7824C10.9131 31.9426 10.761 32.0674 10.583 32.1411C10.405 32.2149 10.2092 32.2341 10.0203 32.1966C9.83136 32.159 9.65781 32.0662 9.52159 31.93C9.38538 31.7938 9.29262 31.6202 9.25504 31.4313C9.21746 31.2424 9.23675 31.0466 9.31047 30.8686C9.38419 30.6906 9.50902 30.5385 9.66919 30.4315C9.82936 30.3245 10.0177 30.2673 10.2103 30.2673C10.4686 30.2673 10.7163 30.37 10.899 30.5526C11.0817 30.7353 11.1843 30.983 11.1843 31.2413Z" fill="#50E6C9"/>
<path d="M15.2204 31.2413C15.2204 31.4339 15.1633 31.6222 15.0563 31.7824C14.9492 31.9426 14.7971 32.0674 14.6191 32.1411C14.4412 32.2149 14.2454 32.2341 14.0564 32.1966C13.8675 32.159 13.6939 32.0662 13.5577 31.93C13.4215 31.7938 13.3288 31.6202 13.2912 31.4313C13.2536 31.2424 13.2729 31.0466 13.3466 30.8686C13.4203 30.6906 13.5452 30.5385 13.7053 30.4315C13.8655 30.3245 14.0538 30.2673 14.2464 30.2673C14.5047 30.2673 14.7525 30.37 14.9351 30.5526C15.1178 30.7353 15.2204 30.983 15.2204 31.2413Z" fill="#50E6C9"/>
<path d="M19.2565 31.2413C19.2565 31.4339 19.1994 31.6222 19.0924 31.7824C18.9854 31.9426 18.8332 32.0674 18.6553 32.1411C18.4773 32.2149 18.2815 32.2341 18.0926 32.1966C17.9036 32.159 17.7301 32.0662 17.5939 31.93C17.4576 31.7938 17.3649 31.6202 17.3273 31.4313C17.2897 31.2424 17.309 31.0466 17.3827 30.8686C17.4565 30.6906 17.5813 30.5385 17.7415 30.4315C17.9016 30.3245 18.0899 30.2673 18.2826 30.2673C18.5409 30.2673 18.7886 30.37 18.9713 30.5526C19.1539 30.7353 19.2565 30.983 19.2565 31.2413Z" fill="#50E6C9"/>
<path d="M23.2927 31.2411C23.2926 31.4351 23.2345 31.6247 23.126 31.7855C23.0174 31.9463 22.8633 32.071 22.6834 32.1437C22.5035 32.2163 22.306 32.2336 22.1162 32.1933C21.9264 32.1529 21.753 32.0568 21.6182 31.9173C21.4834 31.7778 21.3934 31.6011 21.3596 31.4101C21.3258 31.219 21.3499 31.0223 21.4287 30.845C21.5075 30.6677 21.6375 30.518 21.8019 30.415C21.9664 30.3121 22.1578 30.2606 22.3517 30.2672C22.6043 30.2757 22.8436 30.3821 23.0192 30.5638C23.1947 30.7456 23.2928 30.9884 23.2927 31.2411Z" fill="#50E6C9"/>
<path d="M27.3034 31.2413C27.3034 31.4339 27.2463 31.6222 27.1393 31.7824C27.0322 31.9426 26.8801 32.0674 26.7022 32.1411C26.5242 32.2149 26.3284 32.2341 26.1394 32.1966C25.9505 32.159 25.7769 32.0662 25.6407 31.93C25.5045 31.7938 25.4118 31.6202 25.3742 31.4313C25.3366 31.2424 25.3559 31.0466 25.4296 30.8686C25.5033 30.6906 25.6282 30.5385 25.7883 30.4315C25.9485 30.3245 26.1368 30.2673 26.3294 30.2673C26.5878 30.2673 26.8355 30.37 27.0181 30.5526C27.2008 30.7353 27.3034 30.983 27.3034 31.2413Z" fill="#50E6C9"/>
<path d="M31.3561 31.2413C31.3561 31.4339 31.299 31.6222 31.192 31.7824C31.085 31.9426 30.9329 32.0674 30.7549 32.1411C30.5769 32.2149 30.3811 32.2341 30.1922 32.1966C30.0032 32.159 29.8297 32.0662 29.6935 31.93C29.5573 31.7938 29.4645 31.6202 29.4269 31.4313C29.3893 31.2424 29.4086 31.0466 29.4823 30.8686C29.5561 30.6906 29.6809 30.5385 29.8411 30.4315C30.0012 30.3245 30.1895 30.2673 30.3822 30.2673C30.5101 30.2673 30.6367 30.2925 30.7549 30.3415C30.8731 30.3904 30.9804 30.4622 31.0709 30.5526C31.1613 30.643 31.2331 30.7504 31.282 30.8686C31.3309 30.9868 31.3561 31.1134 31.3561 31.2413Z" fill="#50E6C9"/>
<path d="M35.3923 31.2413C35.3923 31.4339 35.3352 31.6222 35.2281 31.7824C35.1211 31.9426 34.969 32.0674 34.791 32.1411C34.6131 32.2149 34.4172 32.2341 34.2283 32.1966C34.0394 32.159 33.8658 32.0662 33.7296 31.93C33.5934 31.7938 33.5006 31.6202 33.4631 31.4313C33.4255 31.2424 33.4448 31.0466 33.5185 30.8686C33.5922 30.6906 33.717 30.5385 33.8772 30.4315C34.0374 30.3245 34.2257 30.2673 34.4183 30.2673C34.6766 30.2673 34.9244 30.37 35.107 30.5526C35.2897 30.7353 35.3923 30.983 35.3923 31.2413Z" fill="#50E6C9"/>
<path d="M39.4206 31.2413C39.4206 31.4339 39.3635 31.6222 39.2565 31.7824C39.1494 31.9426 38.9973 32.0674 38.8194 32.1411C38.6414 32.2149 38.4455 32.2341 38.2566 32.1966C38.0677 32.159 37.8941 32.0662 37.7579 31.93C37.6217 31.7938 37.529 31.6202 37.4914 31.4313C37.4538 31.2424 37.4731 31.0466 37.5468 30.8686C37.6205 30.6906 37.7453 30.5385 37.9055 30.4315C38.0657 30.3245 38.254 30.2673 38.4466 30.2673C38.7049 30.2673 38.9527 30.37 39.1353 30.5526C39.318 30.7353 39.4206 30.983 39.4206 31.2413Z" fill="#50E6C9"/>
<path d="M43.4567 31.2413C43.4567 31.4339 43.3996 31.6222 43.2926 31.7824C43.1856 31.9426 43.0335 32.0674 42.8555 32.1411C42.6775 32.2149 42.4817 32.2341 42.2927 32.1966C42.1038 32.159 41.9303 32.0662 41.7941 31.93C41.6579 31.7938 41.5651 31.6202 41.5275 31.4313C41.4899 31.2424 41.5092 31.0466 41.5829 30.8686C41.6566 30.6906 41.7815 30.5385 41.9416 30.4315C42.1018 30.3245 42.2901 30.2673 42.4828 30.2673C42.7411 30.2673 42.9888 30.37 43.1715 30.5526C43.3541 30.7353 43.4567 30.983 43.4567 31.2413Z" fill="#50E6C9"/>
<path d="M47.4929 31.2413C47.4929 31.4339 47.4357 31.6222 47.3287 31.7824C47.2217 31.9426 47.0696 32.0674 46.8916 32.1411C46.7136 32.2149 46.5178 32.2341 46.3289 32.1966C46.1399 32.159 45.9664 32.0662 45.8302 31.93C45.694 31.7938 45.6012 31.6202 45.5636 31.4313C45.5261 31.2424 45.5453 31.0466 45.6191 30.8686C45.6928 30.6906 45.8176 30.5385 45.9778 30.4315C46.1379 30.3245 46.3263 30.2673 46.5189 30.2673C46.7772 30.2673 47.0249 30.37 47.2076 30.5526C47.3902 30.7353 47.4929 30.983 47.4929 31.2413Z" fill="#50E6C9"/>
<path d="M51.529 31.2413C51.529 31.4339 51.4719 31.6222 51.3648 31.7824C51.2578 31.9426 51.1057 32.0674 50.9277 32.1411C50.7498 32.2149 50.5539 32.2341 50.365 32.1966C50.1761 32.159 50.0025 32.0662 49.8663 31.93C49.7301 31.7938 49.6374 31.6202 49.5998 31.4313C49.5622 31.2424 49.5815 31.0466 49.6552 30.8686C49.7289 30.6906 49.8537 30.5385 50.0139 30.4315C50.1741 30.3245 50.3624 30.2673 50.555 30.2673C50.8133 30.2673 51.0611 30.37 51.2437 30.5526C51.4264 30.7353 51.529 30.983 51.529 31.2413Z" fill="#50E6C9"/>
<path d="M3.11981 35.2691C3.11981 35.4618 3.06269 35.6501 2.95567 35.8102C2.84864 35.9704 2.69654 36.0952 2.51857 36.169C2.3406 36.2427 2.14477 36.262 1.95583 36.2244C1.7669 36.1868 1.59336 36.094 1.45715 35.9578C1.32093 35.8216 1.22817 35.6481 1.19059 35.4591C1.15301 35.2702 1.1723 35.0744 1.24602 34.8964C1.31973 34.7184 1.44457 34.5663 1.60474 34.4593C1.7649 34.3523 1.95322 34.2952 2.14585 34.2952C2.27375 34.2952 2.4004 34.3204 2.51857 34.3693C2.63674 34.4183 2.7441 34.49 2.83454 34.5804C2.92498 34.6709 2.99673 34.7782 3.04568 34.8964C3.09463 35.0146 3.11981 35.1412 3.11981 35.2691Z" fill="#50E6C9"/>
<path d="M7.15594 35.2691C7.15594 35.4618 7.09882 35.6501 6.9918 35.8102C6.88478 35.9704 6.73267 36.0952 6.5547 36.169C6.37673 36.2427 6.1809 36.262 5.99197 36.2244C5.80304 36.1868 5.62948 36.094 5.49327 35.9578C5.35706 35.8216 5.2643 35.6481 5.22672 35.4591C5.18914 35.2702 5.20843 35.0744 5.28215 34.8964C5.35587 34.7184 5.4807 34.5663 5.64087 34.4593C5.80104 34.3523 5.98935 34.2952 6.18198 34.2952C6.44029 34.2952 6.68802 34.3978 6.87068 34.5804C7.05333 34.7631 7.15594 35.0108 7.15594 35.2691Z" fill="#50E6C9"/>
<path d="M11.1843 35.2689C11.1843 35.4616 11.1271 35.6499 11.0201 35.81C10.9131 35.9702 10.761 36.095 10.583 36.1688C10.405 36.2425 10.2092 36.2618 10.0203 36.2242C9.83136 36.1866 9.65781 36.0938 9.52159 35.9576C9.38538 35.8214 9.29262 35.6479 9.25504 35.4589C9.21746 35.27 9.23675 35.0742 9.31047 34.8962C9.38419 34.7182 9.50902 34.5661 9.66919 34.4591C9.82936 34.3521 10.0177 34.295 10.2103 34.295C10.3385 34.2939 10.4656 34.3183 10.5843 34.3669C10.703 34.4154 10.8108 34.4871 10.9015 34.5778C10.9921 34.6684 11.0638 34.7762 11.1124 34.8949C11.1609 35.0136 11.1854 35.1407 11.1843 35.2689Z" fill="#50E6C9"/>
<path d="M15.2204 35.2691C15.2204 35.4618 15.1633 35.6501 15.0563 35.8102C14.9492 35.9704 14.7971 36.0952 14.6191 36.169C14.4412 36.2427 14.2454 36.262 14.0564 36.2244C13.8675 36.1868 13.6939 36.094 13.5577 35.9578C13.4215 35.8216 13.3288 35.6481 13.2912 35.4591C13.2536 35.2702 13.2729 35.0744 13.3466 34.8964C13.4203 34.7184 13.5452 34.5663 13.7053 34.4593C13.8655 34.3523 14.0538 34.2952 14.2464 34.2952C14.5047 34.2952 14.7525 34.3978 14.9351 34.5804C15.1178 34.7631 15.2204 35.0108 15.2204 35.2691Z" fill="#50E6C9"/>
<path d="M19.2565 35.2691C19.2565 35.4618 19.1994 35.6501 19.0924 35.8102C18.9854 35.9704 18.8332 36.0952 18.6553 36.169C18.4773 36.2427 18.2815 36.262 18.0926 36.2244C17.9036 36.1868 17.7301 36.094 17.5939 35.9578C17.4576 35.8216 17.3649 35.6481 17.3273 35.4591C17.2897 35.2702 17.309 35.0744 17.3827 34.8964C17.4565 34.7184 17.5813 34.5663 17.7415 34.4593C17.9016 34.3523 18.0899 34.2952 18.2826 34.2952C18.5409 34.2952 18.7886 34.3978 18.9713 34.5804C19.1539 34.7631 19.2565 35.0108 19.2565 35.2691Z" fill="#50E6C9"/>
<path d="M23.2927 35.2692C23.2926 35.4632 23.2345 35.6528 23.126 35.8136C23.0174 35.9744 22.8633 36.0991 22.6834 36.1718C22.5035 36.2444 22.306 36.2617 22.1162 36.2213C21.9264 36.181 21.753 36.0849 21.6182 35.9454C21.4834 35.8058 21.3934 35.6292 21.3596 35.4382C21.3258 35.2471 21.3499 35.0503 21.4287 34.873C21.5075 34.6957 21.6375 34.546 21.8019 34.4431C21.9664 34.3401 22.1578 34.2887 22.3517 34.2952C22.6043 34.3038 22.8436 34.4102 23.0192 34.5919C23.1947 34.7737 23.2928 35.0165 23.2927 35.2692Z" fill="#50E6C9"/>
<path d="M27.3034 35.2691C27.3034 35.4618 27.2463 35.6501 27.1393 35.8102C27.0322 35.9704 26.8801 36.0952 26.7022 36.169C26.5242 36.2427 26.3284 36.262 26.1394 36.2244C25.9505 36.1868 25.7769 36.094 25.6407 35.9578C25.5045 35.8216 25.4118 35.6481 25.3742 35.4591C25.3366 35.2702 25.3559 35.0744 25.4296 34.8964C25.5033 34.7184 25.6282 34.5663 25.7883 34.4593C25.9485 34.3523 26.1368 34.2952 26.3294 34.2952C26.5878 34.2952 26.8355 34.3978 27.0181 34.5804C27.2008 34.7631 27.3034 35.0108 27.3034 35.2691Z" fill="#50E6C9"/>
<path d="M31.3561 35.2691C31.3561 35.4618 31.299 35.6501 31.192 35.8102C31.085 35.9704 30.9329 36.0952 30.7549 36.169C30.5769 36.2427 30.3811 36.262 30.1922 36.2244C30.0032 36.1868 29.8297 36.094 29.6935 35.9578C29.5573 35.8216 29.4645 35.6481 29.4269 35.4591C29.3893 35.2702 29.4086 35.0744 29.4823 34.8964C29.5561 34.7184 29.6809 34.5663 29.8411 34.4593C30.0012 34.3523 30.1895 34.2952 30.3822 34.2952C30.5101 34.2952 30.6367 34.3204 30.7549 34.3693C30.8731 34.4183 30.9804 34.49 31.0709 34.5804C31.1613 34.6709 31.2331 34.7782 31.282 34.8964C31.3309 35.0146 31.3561 35.1412 31.3561 35.2691Z" fill="#50E6C9"/>
<path d="M35.3923 35.2691C35.3923 35.4618 35.3352 35.6501 35.2281 35.8102C35.1211 35.9704 34.969 36.0952 34.791 36.169C34.6131 36.2427 34.4172 36.262 34.2283 36.2244C34.0394 36.1868 33.8658 36.094 33.7296 35.9578C33.5934 35.8216 33.5006 35.6481 33.4631 35.4591C33.4255 35.2702 33.4448 35.0744 33.5185 34.8964C33.5922 34.7184 33.717 34.5663 33.8772 34.4593C34.0374 34.3523 34.2257 34.2952 34.4183 34.2952C34.6766 34.2952 34.9244 34.3978 35.107 34.5804C35.2897 34.7631 35.3923 35.0108 35.3923 35.2691Z" fill="#50E6C9"/>
<path d="M39.4206 35.2691C39.4206 35.5274 39.318 35.7752 39.1353 35.9578C38.9527 36.1405 38.7049 36.2431 38.4466 36.2431C38.1883 36.2431 37.9406 36.1405 37.7579 35.9578C37.5753 35.7752 37.4727 35.5274 37.4727 35.2691C37.4727 35.0108 37.5753 34.7631 37.7579 34.5804C37.9406 34.3978 38.1883 34.2952 38.4466 34.2952C38.7049 34.2952 38.9527 34.3978 39.1353 34.5804C39.318 34.7631 39.4206 35.0108 39.4206 35.2691Z" fill="#50E6C9"/>
<path d="M43.4567 35.2691C43.4567 35.4618 43.3996 35.6501 43.2926 35.8102C43.1856 35.9704 43.0335 36.0952 42.8555 36.169C42.6775 36.2427 42.4817 36.262 42.2927 36.2244C42.1038 36.1868 41.9303 36.094 41.7941 35.9578C41.6579 35.8216 41.5651 35.6481 41.5275 35.4591C41.4899 35.2702 41.5092 35.0744 41.5829 34.8964C41.6566 34.7184 41.7815 34.5663 41.9416 34.4593C42.1018 34.3523 42.2901 34.2952 42.4828 34.2952C42.7411 34.2952 42.9888 34.3978 43.1715 34.5804C43.3541 34.7631 43.4567 35.0108 43.4567 35.2691Z" fill="#50E6C9"/>
<path d="M47.4929 35.2691C47.4929 35.4618 47.4357 35.6501 47.3287 35.8102C47.2217 35.9704 47.0696 36.0952 46.8916 36.169C46.7136 36.2427 46.5178 36.262 46.3289 36.2244C46.1399 36.1868 45.9664 36.094 45.8302 35.9578C45.694 35.8216 45.6012 35.6481 45.5636 35.4591C45.5261 35.2702 45.5453 35.0744 45.6191 34.8964C45.6928 34.7184 45.8176 34.5663 45.9778 34.4593C46.1379 34.3523 46.3263 34.2952 46.5189 34.2952C46.7772 34.2952 47.0249 34.3978 47.2076 34.5804C47.3902 34.7631 47.4929 35.0108 47.4929 35.2691Z" fill="#50E6C9"/>
<path d="M51.529 35.2691C51.529 35.4618 51.4719 35.6501 51.3648 35.8102C51.2578 35.9704 51.1057 36.0952 50.9277 36.169C50.7498 36.2427 50.5539 36.262 50.365 36.2244C50.1761 36.1868 50.0025 36.094 49.8663 35.9578C49.7301 35.8216 49.6374 35.6481 49.5998 35.4591C49.5622 35.2702 49.5815 35.0744 49.6552 34.8964C49.7289 34.7184 49.8537 34.5663 50.0139 34.4593C50.1741 34.3523 50.3624 34.2952 50.555 34.2952C50.8133 34.2952 51.0611 34.3978 51.2437 34.5804C51.4264 34.7631 51.529 35.0108 51.529 35.2691Z" fill="#50E6C9"/>
<path d="M3.11981 39.3053C3.11981 39.4979 3.06269 39.6862 2.95567 39.8464C2.84864 40.0065 2.69654 40.1314 2.51857 40.2051C2.3406 40.2788 2.14477 40.2981 1.95583 40.2605C1.7669 40.2229 1.59336 40.1302 1.45715 39.994C1.32093 39.8578 1.22817 39.6842 1.19059 39.4953C1.15301 39.3063 1.1723 39.1105 1.24602 38.9325C1.31973 38.7546 1.44457 38.6025 1.60474 38.4954C1.7649 38.3884 1.95322 38.3313 2.14585 38.3313C2.27375 38.3313 2.4004 38.3565 2.51857 38.4054C2.63674 38.4544 2.7441 38.5261 2.83454 38.6166C2.92498 38.707 2.99673 38.8144 3.04568 38.9325C3.09463 39.0507 3.11981 39.1774 3.11981 39.3053Z" fill="#50E6C9"/>
<path d="M7.15594 39.3053C7.15594 39.4979 7.09882 39.6862 6.9918 39.8464C6.88478 40.0065 6.73267 40.1314 6.5547 40.2051C6.37673 40.2788 6.1809 40.2981 5.99197 40.2605C5.80304 40.2229 5.62948 40.1302 5.49327 39.994C5.35706 39.8578 5.2643 39.6842 5.22672 39.4953C5.18914 39.3063 5.20843 39.1105 5.28215 38.9325C5.35587 38.7546 5.4807 38.6025 5.64087 38.4954C5.80104 38.3884 5.98935 38.3313 6.18198 38.3313C6.30988 38.3313 6.43654 38.3565 6.5547 38.4054C6.67287 38.4544 6.78024 38.5261 6.87068 38.6166C6.96112 38.707 7.03287 38.8144 7.08181 38.9325C7.13076 39.0507 7.15594 39.1774 7.15594 39.3053Z" fill="#50E6C9"/>
<path d="M11.1843 39.3053C11.1843 39.4979 11.1271 39.6862 11.0201 39.8464C10.9131 40.0065 10.761 40.1314 10.583 40.2051C10.405 40.2788 10.2092 40.2981 10.0203 40.2605C9.83136 40.2229 9.65781 40.1302 9.52159 39.994C9.38538 39.8578 9.29262 39.6842 9.25504 39.4953C9.21746 39.3063 9.23675 39.1105 9.31047 38.9325C9.38419 38.7546 9.50902 38.6025 9.66919 38.4954C9.82936 38.3884 10.0177 38.3313 10.2103 38.3313C10.3382 38.3313 10.4648 38.3565 10.583 38.4054C10.7012 38.4544 10.8086 38.5261 10.899 38.6166C10.9894 38.707 11.0612 38.8144 11.1101 38.9325C11.1591 39.0507 11.1843 39.1774 11.1843 39.3053Z" fill="#50E6C9"/>
<path d="M15.2204 39.3053C15.2204 39.4979 15.1633 39.6862 15.0563 39.8464C14.9492 40.0065 14.7971 40.1314 14.6191 40.2051C14.4412 40.2788 14.2454 40.2981 14.0564 40.2605C13.8675 40.2229 13.6939 40.1302 13.5577 39.994C13.4215 39.8578 13.3288 39.6842 13.2912 39.4953C13.2536 39.3063 13.2729 39.1105 13.3466 38.9325C13.4203 38.7546 13.5452 38.6025 13.7053 38.4954C13.8655 38.3884 14.0538 38.3313 14.2464 38.3313C14.3743 38.3313 14.501 38.3565 14.6191 38.4054C14.7373 38.4544 14.8447 38.5261 14.9351 38.6166C15.0256 38.707 15.0973 38.8144 15.1463 38.9325C15.1952 39.0507 15.2204 39.1774 15.2204 39.3053Z" fill="#50E6C9"/>
<path d="M19.2565 39.3053C19.2565 39.4979 19.1994 39.6862 19.0924 39.8464C18.9854 40.0065 18.8332 40.1314 18.6553 40.2051C18.4773 40.2788 18.2815 40.2981 18.0926 40.2605C17.9036 40.2229 17.7301 40.1302 17.5939 39.994C17.4576 39.8578 17.3649 39.6842 17.3273 39.4953C17.2897 39.3063 17.309 39.1105 17.3827 38.9325C17.4565 38.7546 17.5813 38.6025 17.7415 38.4954C17.9016 38.3884 18.0899 38.3313 18.2826 38.3313C18.4105 38.3313 18.5371 38.3565 18.6553 38.4054C18.7734 38.4544 18.8808 38.5261 18.9713 38.6166C19.0617 38.707 19.1334 38.8144 19.1824 38.9325C19.2313 39.0507 19.2565 39.1774 19.2565 39.3053Z" fill="#50E6C9"/>
<path d="M23.2927 39.3053C23.2926 39.4994 23.2345 39.6889 23.126 39.8497C23.0174 40.0105 22.8633 40.1352 22.6834 40.2079C22.5035 40.2805 22.306 40.2978 22.1162 40.2575C21.9264 40.2171 21.753 40.121 21.6182 39.9815C21.4834 39.842 21.3934 39.6654 21.3596 39.4743C21.3258 39.2832 21.3499 39.0865 21.4287 38.9092C21.5075 38.7319 21.6375 38.5822 21.8019 38.4792C21.9664 38.3763 22.1578 38.3248 22.3517 38.3314C22.6043 38.3399 22.8436 38.4463 23.0192 38.6281C23.1947 38.8098 23.2928 39.0526 23.2927 39.3053Z" fill="#50E6C9"/>
<path d="M27.3034 39.3053C27.3034 39.4979 27.2463 39.6862 27.1393 39.8464C27.0322 40.0065 26.8801 40.1314 26.7022 40.2051C26.5242 40.2788 26.3284 40.2981 26.1394 40.2605C25.9505 40.2229 25.7769 40.1302 25.6407 39.994C25.5045 39.8578 25.4118 39.6842 25.3742 39.4953C25.3366 39.3063 25.3559 39.1105 25.4296 38.9325C25.5033 38.7546 25.6282 38.6025 25.7883 38.4954C25.9485 38.3884 26.1368 38.3313 26.3294 38.3313C26.4573 38.3313 26.584 38.3565 26.7022 38.4054C26.8203 38.4544 26.9277 38.5261 27.0181 38.6166C27.1086 38.707 27.1803 38.8144 27.2293 38.9325C27.2782 39.0507 27.3034 39.1774 27.3034 39.3053Z" fill="#50E6C9"/>
<path d="M31.3561 39.3053C31.3561 39.4979 31.299 39.6862 31.192 39.8464C31.085 40.0065 30.9329 40.1314 30.7549 40.2051C30.5769 40.2788 30.3811 40.2981 30.1922 40.2605C30.0032 40.2229 29.8297 40.1302 29.6935 39.994C29.5573 39.8578 29.4645 39.6842 29.4269 39.4953C29.3893 39.3063 29.4086 39.1105 29.4823 38.9325C29.5561 38.7546 29.6809 38.6025 29.8411 38.4954C30.0012 38.3884 30.1895 38.3313 30.3822 38.3313C30.5101 38.3313 30.6367 38.3565 30.7549 38.4054C30.8731 38.4544 30.9804 38.5261 31.0709 38.6166C31.1613 38.707 31.2331 38.8144 31.282 38.9325C31.3309 39.0507 31.3561 39.1774 31.3561 39.3053Z" fill="#50E6C9"/>
<path d="M35.3923 39.3053C35.3923 39.4979 35.3352 39.6862 35.2281 39.8464C35.1211 40.0065 34.969 40.1314 34.791 40.2051C34.6131 40.2788 34.4172 40.2981 34.2283 40.2605C34.0394 40.2229 33.8658 40.1302 33.7296 39.994C33.5934 39.8578 33.5006 39.6842 33.4631 39.4953C33.4255 39.3063 33.4448 39.1105 33.5185 38.9325C33.5922 38.7546 33.717 38.6025 33.8772 38.4954C34.0374 38.3884 34.2257 38.3313 34.4183 38.3313C34.5462 38.3313 34.6729 38.3565 34.791 38.4054C34.9092 38.4544 35.0166 38.5261 35.107 38.6166C35.1974 38.707 35.2692 38.8144 35.3181 38.9325C35.3671 39.0507 35.3923 39.1774 35.3923 39.3053Z" fill="#50E6C9"/>
<path d="M39.4206 39.3053C39.4206 39.4979 39.3635 39.6862 39.2565 39.8464C39.1494 40.0065 38.9973 40.1314 38.8194 40.2051C38.6414 40.2788 38.4455 40.2981 38.2566 40.2605C38.0677 40.2229 37.8941 40.1302 37.7579 39.994C37.6217 39.8578 37.529 39.6842 37.4914 39.4953C37.4538 39.3063 37.4731 39.1105 37.5468 38.9325C37.6205 38.7546 37.7453 38.6025 37.9055 38.4954C38.0657 38.3884 38.254 38.3313 38.4466 38.3313C38.5745 38.3313 38.7012 38.3565 38.8194 38.4054C38.9375 38.4544 39.0449 38.5261 39.1353 38.6166C39.2258 38.707 39.2975 38.8144 39.3465 38.9325C39.3954 39.0507 39.4206 39.1774 39.4206 39.3053Z" fill="#50E6C9"/>
<path d="M43.4567 39.3053C43.4567 39.4979 43.3996 39.6862 43.2926 39.8464C43.1856 40.0065 43.0335 40.1314 42.8555 40.2051C42.6775 40.2788 42.4817 40.2981 42.2927 40.2605C42.1038 40.2229 41.9303 40.1302 41.7941 39.994C41.6579 39.8578 41.5651 39.6842 41.5275 39.4953C41.4899 39.3063 41.5092 39.1105 41.5829 38.9325C41.6566 38.7546 41.7815 38.6025 41.9416 38.4954C42.1018 38.3884 42.2901 38.3313 42.4828 38.3313C42.6107 38.3313 42.7373 38.3565 42.8555 38.4054C42.9737 38.4544 43.081 38.5261 43.1715 38.6166C43.2619 38.707 43.3336 38.8144 43.3826 38.9325C43.4315 39.0507 43.4567 39.1774 43.4567 39.3053Z" fill="#50E6C9"/>
<path d="M47.4929 39.3053C47.4929 39.4979 47.4357 39.6862 47.3287 39.8464C47.2217 40.0065 47.0696 40.1314 46.8916 40.2051C46.7136 40.2788 46.5178 40.2981 46.3289 40.2605C46.1399 40.2229 45.9664 40.1302 45.8302 39.994C45.694 39.8578 45.6012 39.6842 45.5636 39.4953C45.5261 39.3063 45.5453 39.1105 45.6191 38.9325C45.6928 38.7546 45.8176 38.6025 45.9778 38.4954C46.1379 38.3884 46.3263 38.3313 46.5189 38.3313C46.6468 38.3313 46.7734 38.3565 46.8916 38.4054C47.0098 38.4544 47.1171 38.5261 47.2076 38.6166C47.298 38.707 47.3698 38.8144 47.4187 38.9325C47.4677 39.0507 47.4929 39.1774 47.4929 39.3053Z" fill="#50E6C9"/>
<path d="M51.529 39.3053C51.529 39.4979 51.4719 39.6862 51.3648 39.8464C51.2578 40.0065 51.1057 40.1314 50.9277 40.2051C50.7498 40.2788 50.5539 40.2981 50.365 40.2605C50.1761 40.2229 50.0025 40.1302 49.8663 39.994C49.7301 39.8578 49.6374 39.6842 49.5998 39.4953C49.5622 39.3063 49.5815 39.1105 49.6552 38.9325C49.7289 38.7546 49.8537 38.6025 50.0139 38.4954C50.1741 38.3884 50.3624 38.3313 50.555 38.3313C50.6829 38.3313 50.8096 38.3565 50.9277 38.4054C51.0459 38.4544 51.1533 38.5261 51.2437 38.6166C51.3342 38.707 51.4059 38.8144 51.4548 38.9325C51.5038 39.0507 51.529 39.1774 51.529 39.3053Z" fill="#50E6C9"/>
<path d="M3.11981 43.3414C3.11981 43.534 3.06269 43.7223 2.95567 43.8825C2.84864 44.0427 2.69654 44.1675 2.51857 44.2412C2.3406 44.3149 2.14477 44.3342 1.95583 44.2967C1.7669 44.2591 1.59336 44.1663 1.45715 44.0301C1.32093 43.8939 1.22817 43.7203 1.19059 43.5314C1.15301 43.3425 1.1723 43.1466 1.24602 42.9687C1.31973 42.7907 1.44457 42.6386 1.60474 42.5316C1.7649 42.4246 1.95322 42.3674 2.14585 42.3674C2.27375 42.3674 2.4004 42.3926 2.51857 42.4416C2.63674 42.4905 2.7441 42.5623 2.83454 42.6527C2.92498 42.7431 2.99673 42.8505 3.04568 42.9687C3.09463 43.0868 3.11981 43.2135 3.11981 43.3414Z" fill="#50E6C9"/>
<path d="M7.15594 43.3414C7.15594 43.534 7.09882 43.7223 6.9918 43.8825C6.88478 44.0427 6.73267 44.1675 6.5547 44.2412C6.37673 44.3149 6.1809 44.3342 5.99197 44.2967C5.80304 44.2591 5.62948 44.1663 5.49327 44.0301C5.35706 43.8939 5.2643 43.7203 5.22672 43.5314C5.18914 43.3425 5.20843 43.1466 5.28215 42.9687C5.35587 42.7907 5.4807 42.6386 5.64087 42.5316C5.80104 42.4246 5.98935 42.3674 6.18198 42.3674C6.44029 42.3674 6.68802 42.47 6.87068 42.6527C7.05333 42.8354 7.15594 43.0831 7.15594 43.3414Z" fill="#50E6C9"/>
<path d="M11.1843 43.3414C11.1843 43.534 11.1271 43.7223 11.0201 43.8825C10.9131 44.0427 10.761 44.1675 10.583 44.2412C10.405 44.3149 10.2092 44.3342 10.0203 44.2967C9.83136 44.2591 9.65781 44.1663 9.52159 44.0301C9.38538 43.8939 9.29262 43.7203 9.25504 43.5314C9.21746 43.3425 9.23675 43.1466 9.31047 42.9687C9.38419 42.7907 9.50902 42.6386 9.66919 42.5316C9.82936 42.4246 10.0177 42.3674 10.2103 42.3674C10.4686 42.3674 10.7163 42.47 10.899 42.6527C11.0817 42.8354 11.1843 43.0831 11.1843 43.3414Z" fill="#50E6C9"/>
<path d="M15.2204 43.3414C15.2204 43.534 15.1633 43.7223 15.0563 43.8825C14.9492 44.0427 14.7971 44.1675 14.6191 44.2412C14.4412 44.3149 14.2454 44.3342 14.0564 44.2967C13.8675 44.2591 13.6939 44.1663 13.5577 44.0301C13.4215 43.8939 13.3288 43.7203 13.2912 43.5314C13.2536 43.3425 13.2729 43.1466 13.3466 42.9687C13.4203 42.7907 13.5452 42.6386 13.7053 42.5316C13.8655 42.4246 14.0538 42.3674 14.2464 42.3674C14.5047 42.3674 14.7525 42.47 14.9351 42.6527C15.1178 42.8354 15.2204 43.0831 15.2204 43.3414Z" fill="#50E6C9"/>
<path d="M19.2565 43.3414C19.2565 43.534 19.1994 43.7223 19.0924 43.8825C18.9854 44.0427 18.8332 44.1675 18.6553 44.2412C18.4773 44.3149 18.2815 44.3342 18.0926 44.2967C17.9036 44.2591 17.7301 44.1663 17.5939 44.0301C17.4576 43.8939 17.3649 43.7203 17.3273 43.5314C17.2897 43.3425 17.309 43.1466 17.3827 42.9687C17.4565 42.7907 17.5813 42.6386 17.7415 42.5316C17.9016 42.4246 18.0899 42.3674 18.2826 42.3674C18.5409 42.3674 18.7886 42.47 18.9713 42.6527C19.1539 42.8354 19.2565 43.0831 19.2565 43.3414Z" fill="#50E6C9"/>
<path d="M23.2927 43.3415C23.2926 43.5355 23.2345 43.725 23.126 43.8859C23.0174 44.0467 22.8633 44.1714 22.6834 44.244C22.5035 44.3167 22.306 44.3339 22.1162 44.2936C21.9264 44.2533 21.753 44.1572 21.6182 44.0176C21.4834 43.8781 21.3934 43.7015 21.3596 43.5104C21.3258 43.3194 21.3499 43.1226 21.4287 42.9453C21.5075 42.768 21.6375 42.6183 21.8019 42.5154C21.9664 42.4124 22.1578 42.3609 22.3517 42.3675C22.6043 42.3761 22.8436 42.4825 23.0192 42.6642C23.1947 42.8459 23.2928 43.0888 23.2927 43.3415Z" fill="#50E6C9"/>
<path d="M27.3034 43.3414C27.3034 43.534 27.2463 43.7223 27.1393 43.8825C27.0322 44.0427 26.8801 44.1675 26.7022 44.2412C26.5242 44.3149 26.3284 44.3342 26.1394 44.2967C25.9505 44.2591 25.7769 44.1663 25.6407 44.0301C25.5045 43.8939 25.4118 43.7203 25.3742 43.5314C25.3366 43.3425 25.3559 43.1466 25.4296 42.9687C25.5033 42.7907 25.6282 42.6386 25.7883 42.5316C25.9485 42.4246 26.1368 42.3674 26.3294 42.3674C26.5878 42.3674 26.8355 42.47 27.0181 42.6527C27.2008 42.8354 27.3034 43.0831 27.3034 43.3414Z" fill="#50E6C9"/>
<path d="M31.3561 43.3414C31.3561 43.534 31.299 43.7223 31.192 43.8825C31.085 44.0427 30.9329 44.1675 30.7549 44.2412C30.5769 44.3149 30.3811 44.3342 30.1922 44.2967C30.0032 44.2591 29.8297 44.1663 29.6935 44.0301C29.5573 43.8939 29.4645 43.7203 29.4269 43.5314C29.3893 43.3425 29.4086 43.1466 29.4823 42.9687C29.5561 42.7907 29.6809 42.6386 29.8411 42.5316C30.0012 42.4246 30.1895 42.3674 30.3822 42.3674C30.5101 42.3674 30.6367 42.3926 30.7549 42.4416C30.8731 42.4905 30.9804 42.5623 31.0709 42.6527C31.1613 42.7431 31.2331 42.8505 31.282 42.9687C31.3309 43.0868 31.3561 43.2135 31.3561 43.3414Z" fill="#50E6C9"/>
<path d="M35.3923 43.3414C35.3923 43.534 35.3352 43.7223 35.2281 43.8825C35.1211 44.0427 34.969 44.1675 34.791 44.2412C34.6131 44.3149 34.4172 44.3342 34.2283 44.2967C34.0394 44.2591 33.8658 44.1663 33.7296 44.0301C33.5934 43.8939 33.5006 43.7203 33.4631 43.5314C33.4255 43.3425 33.4448 43.1466 33.5185 42.9687C33.5922 42.7907 33.717 42.6386 33.8772 42.5316C34.0374 42.4246 34.2257 42.3674 34.4183 42.3674C34.6766 42.3674 34.9244 42.47 35.107 42.6527C35.2897 42.8354 35.3923 43.0831 35.3923 43.3414Z" fill="#50E6C9"/>
<path d="M39.4206 43.3414C39.4206 43.534 39.3635 43.7223 39.2565 43.8825C39.1494 44.0427 38.9973 44.1675 38.8194 44.2412C38.6414 44.3149 38.4455 44.3342 38.2566 44.2967C38.0677 44.2591 37.8941 44.1663 37.7579 44.0301C37.6217 43.8939 37.529 43.7203 37.4914 43.5314C37.4538 43.3425 37.4731 43.1466 37.5468 42.9687C37.6205 42.7907 37.7453 42.6386 37.9055 42.5316C38.0657 42.4246 38.254 42.3674 38.4466 42.3674C38.7049 42.3674 38.9527 42.47 39.1353 42.6527C39.318 42.8354 39.4206 43.0831 39.4206 43.3414Z" fill="#50E6C9"/>
<path d="M43.4567 43.3414C43.4567 43.534 43.3996 43.7223 43.2926 43.8825C43.1856 44.0427 43.0335 44.1675 42.8555 44.2412C42.6775 44.3149 42.4817 44.3342 42.2927 44.2967C42.1038 44.2591 41.9303 44.1663 41.7941 44.0301C41.6579 43.8939 41.5651 43.7203 41.5275 43.5314C41.4899 43.3425 41.5092 43.1466 41.5829 42.9687C41.6566 42.7907 41.7815 42.6386 41.9416 42.5316C42.1018 42.4246 42.2901 42.3674 42.4828 42.3674C42.7411 42.3674 42.9888 42.47 43.1715 42.6527C43.3541 42.8354 43.4567 43.0831 43.4567 43.3414Z" fill="#50E6C9"/>
<path d="M47.4929 43.3414C47.4929 43.534 47.4357 43.7223 47.3287 43.8825C47.2217 44.0427 47.0696 44.1675 46.8916 44.2412C46.7136 44.3149 46.5178 44.3342 46.3289 44.2967C46.1399 44.2591 45.9664 44.1663 45.8302 44.0301C45.694 43.8939 45.6012 43.7203 45.5636 43.5314C45.5261 43.3425 45.5453 43.1466 45.6191 42.9687C45.6928 42.7907 45.8176 42.6386 45.9778 42.5316C46.1379 42.4246 46.3263 42.3674 46.5189 42.3674C46.7772 42.3674 47.0249 42.47 47.2076 42.6527C47.3902 42.8354 47.4929 43.0831 47.4929 43.3414Z" fill="#50E6C9"/>
<path d="M51.529 43.3414C51.529 43.534 51.4719 43.7223 51.3648 43.8825C51.2578 44.0427 51.1057 44.1675 50.9277 44.2412C50.7498 44.3149 50.5539 44.3342 50.365 44.2967C50.1761 44.2591 50.0025 44.1663 49.8663 44.0301C49.7301 43.8939 49.6374 43.7203 49.5998 43.5314C49.5622 43.3425 49.5815 43.1466 49.6552 42.9687C49.7289 42.7907 49.8537 42.6386 50.0139 42.5316C50.1741 42.4246 50.3624 42.3674 50.555 42.3674C50.8133 42.3674 51.0611 42.47 51.2437 42.6527C51.4264 42.8354 51.529 43.0831 51.529 43.3414Z" fill="#50E6C9"/>
<path d="M3.11925 47.3776C3.11277 47.5687 3.05018 47.7536 2.9393 47.9094C2.82841 48.0652 2.67414 48.1849 2.49569 48.2535C2.31725 48.3222 2.12255 48.3369 1.93584 48.2956C1.74914 48.2544 1.57869 48.1591 1.44576 48.0217C1.31283 47.8843 1.2233 47.7107 1.18832 47.5228C1.15333 47.3348 1.17445 47.1407 1.24904 46.9646C1.32363 46.7886 1.44839 46.6384 1.60776 46.5327C1.76714 46.4271 1.95409 46.3707 2.14529 46.3706C2.27602 46.3705 2.40542 46.3968 2.52579 46.4478C2.64617 46.4988 2.75504 46.5735 2.84592 46.6674C2.93681 46.7614 3.00785 46.8727 3.0548 46.9947C3.10176 47.1167 3.12368 47.2469 3.11925 47.3776Z" fill="#50E6C9"/>
<path d="M7.15636 47.3776C7.14988 47.5687 7.08729 47.7536 6.97641 47.9094C6.86552 48.0652 6.71124 48.1849 6.5328 48.2535C6.35436 48.3222 6.15965 48.3369 5.97295 48.2956C5.78624 48.2544 5.6158 48.1591 5.48287 48.0217C5.34994 47.8843 5.26041 47.7107 5.22542 47.5228C5.19044 47.3348 5.21157 47.1407 5.28615 46.9646C5.36074 46.7886 5.4855 46.6384 5.64487 46.5327C5.80425 46.4271 5.99119 46.3707 6.1824 46.3706C6.31313 46.3705 6.44253 46.3968 6.5629 46.4478C6.68327 46.4988 6.79214 46.5735 6.88303 46.6674C6.97392 46.7614 7.04495 46.8727 7.09191 46.9947C7.13887 47.1167 7.16079 47.2469 7.15636 47.3776Z" fill="#50E6C9"/>
<path d="M11.1837 47.3776C11.1772 47.5687 11.1146 47.7536 11.0038 47.9094C10.8929 48.0652 10.7386 48.1849 10.5601 48.2535C10.3817 48.3222 10.187 48.3369 10.0003 48.2956C9.81359 48.2544 9.64314 48.1591 9.51022 48.0217C9.37729 47.8843 9.28775 47.7107 9.25277 47.5228C9.21779 47.3348 9.2389 47.1407 9.31349 46.9646C9.38808 46.7886 9.51284 46.6384 9.67222 46.5327C9.83159 46.4271 10.0185 46.3707 10.2097 46.3706C10.3405 46.3705 10.4699 46.3968 10.5902 46.4478C10.7106 46.4988 10.8195 46.5735 10.9104 46.6674C11.0013 46.7614 11.0723 46.8727 11.1193 46.9947C11.1662 47.1167 11.1881 47.2469 11.1837 47.3776Z" fill="#50E6C9"/>
<path d="M15.2198 47.3776C15.2134 47.5687 15.1508 47.7536 15.0399 47.9094C14.929 48.0652 14.7747 48.1849 14.5963 48.2535C14.4178 48.3222 14.2231 48.3369 14.0364 48.2956C13.8497 48.2544 13.6793 48.1591 13.5463 48.0217C13.4134 47.8843 13.3239 47.7107 13.2889 47.5228C13.2539 47.3348 13.275 47.1407 13.3496 46.9646C13.4242 46.7886 13.549 46.6384 13.7084 46.5327C13.8677 46.4271 14.0547 46.3707 14.2459 46.3706C14.3766 46.3705 14.506 46.3968 14.6264 46.4478C14.7468 46.4988 14.8556 46.5735 14.9465 46.6674C15.0374 46.7614 15.1084 46.8727 15.1554 46.9947C15.2023 47.1167 15.2243 47.2469 15.2198 47.3776Z" fill="#50E6C9"/>
<path d="M19.256 47.3776C19.2495 47.5687 19.1869 47.7536 19.076 47.9094C18.9651 48.0652 18.8109 48.1849 18.6324 48.2535C18.454 48.3222 18.2593 48.3369 18.0726 48.2956C17.8859 48.2544 17.7154 48.1591 17.5825 48.0217C17.4496 47.8843 17.36 47.7107 17.325 47.5228C17.2901 47.3348 17.3112 47.1407 17.3858 46.9646C17.4603 46.7886 17.5851 46.6384 17.7445 46.5327C17.9039 46.4271 18.0908 46.3707 18.282 46.3706C18.4127 46.3705 18.5421 46.3968 18.6625 46.4478C18.7829 46.4988 18.8918 46.5735 18.9826 46.6674C19.0735 46.7614 19.1446 46.8727 19.1915 46.9947C19.2385 47.1167 19.2604 47.2469 19.256 47.3776Z" fill="#50E6C9"/>
<path d="M23.2927 47.3775C23.2927 47.6358 23.1901 47.8836 23.0074 48.0662C22.8247 48.2489 22.577 48.3515 22.3187 48.3515C22.0604 48.3515 21.8126 48.2489 21.63 48.0662C21.4473 47.8836 21.3447 47.6358 21.3447 47.3775C21.3447 47.1192 21.4473 46.8715 21.63 46.6888C21.8126 46.5062 22.0604 46.4036 22.3187 46.4036C22.577 46.4036 22.8247 46.5062 23.0074 46.6888C23.1901 46.8715 23.2927 47.1192 23.2927 47.3775Z" fill="#50E6C9"/>
<path d="M27.3038 47.3777C27.2973 47.5695 27.2342 47.7551 27.1226 47.9112C27.011 48.0673 26.8557 48.1869 26.6763 48.255C26.4969 48.3232 26.3014 48.3368 26.1143 48.2943C25.9272 48.2517 25.7568 48.1548 25.6246 48.0157C25.4923 47.8766 25.4041 47.7016 25.371 47.5126C25.3379 47.3235 25.3614 47.129 25.4385 46.9532C25.5156 46.7775 25.6429 46.6285 25.8044 46.5248C25.966 46.4212 26.1545 46.3676 26.3464 46.3707C26.4757 46.3729 26.6033 46.4007 26.7218 46.4527C26.8402 46.5047 26.9471 46.5797 27.0362 46.6735C27.1254 46.7672 27.1949 46.8778 27.2409 46.9987C27.2868 47.1196 27.3082 47.2484 27.3038 47.3777Z" fill="#50E6C9"/>
<path d="M31.3575 47.3776C31.3511 47.5687 31.2885 47.7536 31.1776 47.9094C31.0667 48.0652 30.9124 48.1849 30.734 48.2535C30.5555 48.3222 30.3608 48.3369 30.1741 48.2956C29.9874 48.2544 29.817 48.1591 29.684 48.0217C29.5511 47.8843 29.4616 47.7107 29.4266 47.5228C29.3916 47.3348 29.4127 47.1407 29.4873 46.9646C29.5619 46.7886 29.6867 46.6384 29.846 46.5327C30.0054 46.4271 30.1924 46.3707 30.3836 46.3706C30.5143 46.3705 30.6437 46.3968 30.7641 46.4478C30.8844 46.4988 30.9933 46.5735 31.0842 46.6674C31.1751 46.7614 31.2461 46.8727 31.2931 46.9947C31.34 47.1167 31.362 47.2469 31.3575 47.3776Z" fill="#50E6C9"/>
<path d="M35.3927 47.3776C35.3862 47.5687 35.3236 47.7536 35.2127 47.9094C35.1019 48.0652 34.9476 48.1849 34.7691 48.2535C34.5907 48.3222 34.396 48.3369 34.2093 48.2956C34.0226 48.2544 33.8521 48.1591 33.7192 48.0217C33.5863 47.8843 33.4967 47.7107 33.4618 47.5228C33.4268 47.3348 33.4479 47.1407 33.5225 46.9646C33.5971 46.7886 33.7218 46.6384 33.8812 46.5327C34.0406 46.4271 34.2275 46.3707 34.4187 46.3706C34.5494 46.3705 34.6788 46.3968 34.7992 46.4478C34.9196 46.4988 35.0285 46.5735 35.1194 46.6674C35.2102 46.7614 35.2813 46.8727 35.3282 46.9947C35.3752 47.1167 35.3971 47.2469 35.3927 47.3776Z" fill="#50E6C9"/>
<path d="M39.42 47.3776C39.4135 47.5687 39.351 47.7536 39.2401 47.9094C39.1292 48.0652 38.9749 48.1849 38.7965 48.2535C38.618 48.3222 38.4233 48.3369 38.2366 48.2956C38.0499 48.2544 37.8795 48.1591 37.7465 48.0217C37.6136 47.8843 37.5241 47.7107 37.4891 47.5228C37.4541 47.3348 37.4752 47.1407 37.5498 46.9646C37.6244 46.7886 37.7492 46.6384 37.9085 46.5327C38.0679 46.4271 38.2549 46.3707 38.4461 46.3706C38.5768 46.3705 38.7062 46.3968 38.8266 46.4478C38.9469 46.4988 39.0558 46.5735 39.1467 46.6674C39.2376 46.7614 39.3086 46.8727 39.3556 46.9947C39.4026 47.1167 39.4245 47.2469 39.42 47.3776Z" fill="#50E6C9"/>
<path d="M43.4581 47.3776C43.4516 47.5687 43.3891 47.7536 43.2782 47.9094C43.1673 48.0652 43.013 48.1849 42.8346 48.2535C42.6561 48.3222 42.4614 48.3369 42.2747 48.2956C42.088 48.2544 41.9176 48.1591 41.7846 48.0217C41.6517 47.8843 41.5622 47.7107 41.5272 47.5228C41.4922 47.3348 41.5133 47.1407 41.5879 46.9646C41.6625 46.7886 41.7873 46.6384 41.9466 46.5327C42.106 46.4271 42.293 46.3707 42.4842 46.3706C42.6149 46.3705 42.7443 46.3968 42.8647 46.4478C42.985 46.4988 43.0939 46.5735 43.1848 46.6674C43.2757 46.7614 43.3467 46.8727 43.3937 46.9947C43.4406 47.1167 43.4626 47.2469 43.4581 47.3776Z" fill="#50E6C9"/>
<path d="M47.4933 47.3776C47.4868 47.5687 47.4242 47.7536 47.3133 47.9094C47.2024 48.0652 47.0482 48.1849 46.8697 48.2535C46.6913 48.3222 46.4966 48.3369 46.3099 48.2956C46.1232 48.2544 45.9527 48.1591 45.8198 48.0217C45.6869 47.8843 45.5973 47.7107 45.5623 47.5228C45.5274 47.3348 45.5485 47.1407 45.6231 46.9646C45.6977 46.7886 45.8224 46.6384 45.9818 46.5327C46.1412 46.4271 46.3281 46.3707 46.5193 46.3706C46.65 46.3705 46.7794 46.3968 46.8998 46.4478C47.0202 46.4988 47.1291 46.5735 47.2199 46.6674C47.3108 46.7614 47.3819 46.8727 47.4288 46.9947C47.4758 47.1167 47.4977 47.2469 47.4933 47.3776Z" fill="#50E6C9"/>
<path d="M51.529 47.3775C51.529 47.6358 51.4264 47.8836 51.2437 48.0662C51.0611 48.2489 50.8133 48.3515 50.555 48.3515C50.2967 48.3515 50.049 48.2489 49.8663 48.0662C49.6837 47.8836 49.5811 47.6358 49.5811 47.3775C49.5811 47.1192 49.6837 46.8715 49.8663 46.6888C50.049 46.5062 50.2967 46.4036 50.555 46.4036C50.8133 46.4036 51.0611 46.5062 51.2437 46.6888C51.4264 46.8715 51.529 47.1192 51.529 47.3775Z" fill="#50E6C9"/>
<path d="M3.11981 51.4056C3.11981 51.5982 3.06269 51.7865 2.95567 51.9467C2.84864 52.1069 2.69654 52.2317 2.51857 52.3054C2.3406 52.3792 2.14477 52.3984 1.95583 52.3609C1.7669 52.3233 1.59336 52.2305 1.45715 52.0943C1.32093 51.9581 1.22817 51.7846 1.19059 51.5956C1.15301 51.4067 1.1723 51.2109 1.24602 51.0329C1.31973 50.8549 1.44457 50.7028 1.60474 50.5958C1.7649 50.4888 1.95322 50.4316 2.14585 50.4316C2.27375 50.4316 2.4004 50.4568 2.51857 50.5058C2.63674 50.5547 2.7441 50.6265 2.83454 50.7169C2.92498 50.8074 2.99673 50.9147 3.04568 51.0329C3.09463 51.1511 3.11981 51.2777 3.11981 51.4056Z" fill="#50E6C9"/>
<path d="M7.15594 51.4056C7.15594 51.5982 7.09882 51.7865 6.9918 51.9467C6.88478 52.1069 6.73267 52.2317 6.5547 52.3054C6.37673 52.3792 6.1809 52.3984 5.99197 52.3609C5.80304 52.3233 5.62948 52.2305 5.49327 52.0943C5.35706 51.9581 5.2643 51.7846 5.22672 51.5956C5.18914 51.4067 5.20843 51.2109 5.28215 51.0329C5.35587 50.8549 5.4807 50.7028 5.64087 50.5958C5.80104 50.4888 5.98935 50.4316 6.18198 50.4316C6.44029 50.4316 6.68802 50.5343 6.87068 50.7169C7.05333 50.8996 7.15594 51.1473 7.15594 51.4056Z" fill="#50E6C9"/>
<path d="M11.1843 51.4056C11.1843 51.5982 11.1271 51.7865 11.0201 51.9467C10.9131 52.1069 10.761 52.2317 10.583 52.3054C10.405 52.3792 10.2092 52.3984 10.0203 52.3609C9.83136 52.3233 9.65781 52.2305 9.52159 52.0943C9.38538 51.9581 9.29262 51.7846 9.25504 51.5956C9.21746 51.4067 9.23675 51.2109 9.31047 51.0329C9.38419 50.8549 9.50902 50.7028 9.66919 50.5958C9.82936 50.4888 10.0177 50.4316 10.2103 50.4316C10.4686 50.4316 10.7163 50.5343 10.899 50.7169C11.0817 50.8996 11.1843 51.1473 11.1843 51.4056Z" fill="#50E6C9"/>
<path d="M15.2204 51.4056C15.2204 51.5982 15.1633 51.7865 15.0563 51.9467C14.9492 52.1069 14.7971 52.2317 14.6191 52.3054C14.4412 52.3792 14.2454 52.3984 14.0564 52.3609C13.8675 52.3233 13.6939 52.2305 13.5577 52.0943C13.4215 51.9581 13.3288 51.7846 13.2912 51.5956C13.2536 51.4067 13.2729 51.2109 13.3466 51.0329C13.4203 50.8549 13.5452 50.7028 13.7053 50.5958C13.8655 50.4888 14.0538 50.4316 14.2464 50.4316C14.5047 50.4316 14.7525 50.5343 14.9351 50.7169C15.1178 50.8996 15.2204 51.1473 15.2204 51.4056Z" fill="#50E6C9"/>
<path d="M19.2565 51.4056C19.2565 51.5982 19.1994 51.7865 19.0924 51.9467C18.9854 52.1069 18.8332 52.2317 18.6553 52.3054C18.4773 52.3792 18.2815 52.3984 18.0926 52.3609C17.9036 52.3233 17.7301 52.2305 17.5939 52.0943C17.4576 51.9581 17.3649 51.7846 17.3273 51.5956C17.2897 51.4067 17.309 51.2109 17.3827 51.0329C17.4565 50.8549 17.5813 50.7028 17.7415 50.5958C17.9016 50.4888 18.0899 50.4316 18.2826 50.4316C18.5409 50.4316 18.7886 50.5343 18.9713 50.7169C19.1539 50.8996 19.2565 51.1473 19.2565 51.4056Z" fill="#50E6C9"/>
<path d="M23.2927 51.4057C23.2926 51.5997 23.2345 51.7893 23.126 51.9501C23.0174 52.1109 22.8633 52.2356 22.6834 52.3082C22.5035 52.3809 22.306 52.3981 22.1162 52.3578C21.9264 52.3175 21.753 52.2214 21.6182 52.0818C21.4834 51.9423 21.3934 51.7657 21.3596 51.5746C21.3258 51.3836 21.3499 51.1868 21.4287 51.0095C21.5075 50.8322 21.6375 50.6825 21.8019 50.5796C21.9664 50.4766 22.1578 50.4251 22.3517 50.4317C22.6043 50.4403 22.8436 50.5467 23.0192 50.7284C23.1947 50.9101 23.2928 51.153 23.2927 51.4057Z" fill="#50E6C9"/>
<path d="M27.3034 51.4056C27.3034 51.5982 27.2463 51.7865 27.1393 51.9467C27.0322 52.1069 26.8801 52.2317 26.7022 52.3054C26.5242 52.3792 26.3284 52.3984 26.1394 52.3609C25.9505 52.3233 25.7769 52.2305 25.6407 52.0943C25.5045 51.9581 25.4118 51.7846 25.3742 51.5956C25.3366 51.4067 25.3559 51.2109 25.4296 51.0329C25.5033 50.8549 25.6282 50.7028 25.7883 50.5958C25.9485 50.4888 26.1368 50.4316 26.3294 50.4316C26.5878 50.4316 26.8355 50.5343 27.0181 50.7169C27.2008 50.8996 27.3034 51.1473 27.3034 51.4056Z" fill="#50E6C9"/>
<path d="M31.3561 51.4056C31.3561 51.5982 31.299 51.7865 31.192 51.9467C31.085 52.1069 30.9329 52.2317 30.7549 52.3054C30.5769 52.3792 30.3811 52.3984 30.1922 52.3609C30.0032 52.3233 29.8297 52.2305 29.6935 52.0943C29.5573 51.9581 29.4645 51.7846 29.4269 51.5956C29.3893 51.4067 29.4086 51.2109 29.4823 51.0329C29.5561 50.8549 29.6809 50.7028 29.8411 50.5958C30.0012 50.4888 30.1895 50.4316 30.3822 50.4316C30.5101 50.4316 30.6367 50.4568 30.7549 50.5058C30.8731 50.5547 30.9804 50.6265 31.0709 50.7169C31.1613 50.8074 31.2331 50.9147 31.282 51.0329C31.3309 51.1511 31.3561 51.2777 31.3561 51.4056Z" fill="#50E6C9"/>
<path d="M35.3923 51.4056C35.3923 51.5982 35.3352 51.7865 35.2281 51.9467C35.1211 52.1069 34.969 52.2317 34.791 52.3054C34.6131 52.3792 34.4172 52.3984 34.2283 52.3609C34.0394 52.3233 33.8658 52.2305 33.7296 52.0943C33.5934 51.9581 33.5006 51.7846 33.4631 51.5956C33.4255 51.4067 33.4448 51.2109 33.5185 51.0329C33.5922 50.8549 33.717 50.7028 33.8772 50.5958C34.0374 50.4888 34.2257 50.4316 34.4183 50.4316C34.6766 50.4316 34.9244 50.5343 35.107 50.7169C35.2897 50.8996 35.3923 51.1473 35.3923 51.4056Z" fill="#50E6C9"/>
<path d="M39.4206 51.4056C39.4206 51.5982 39.3635 51.7865 39.2565 51.9467C39.1494 52.1069 38.9973 52.2317 38.8194 52.3054C38.6414 52.3792 38.4455 52.3984 38.2566 52.3609C38.0677 52.3233 37.8941 52.2305 37.7579 52.0943C37.6217 51.9581 37.529 51.7846 37.4914 51.5956C37.4538 51.4067 37.4731 51.2109 37.5468 51.0329C37.6205 50.8549 37.7453 50.7028 37.9055 50.5958C38.0657 50.4888 38.254 50.4316 38.4466 50.4316C38.7049 50.4316 38.9527 50.5343 39.1353 50.7169C39.318 50.8996 39.4206 51.1473 39.4206 51.4056Z" fill="#50E6C9"/>
<path d="M43.4567 51.4056C43.4567 51.5982 43.3996 51.7865 43.2926 51.9467C43.1856 52.1069 43.0335 52.2317 42.8555 52.3054C42.6775 52.3792 42.4817 52.3984 42.2927 52.3609C42.1038 52.3233 41.9303 52.2305 41.7941 52.0943C41.6579 51.9581 41.5651 51.7846 41.5275 51.5956C41.4899 51.4067 41.5092 51.2109 41.5829 51.0329C41.6566 50.8549 41.7815 50.7028 41.9416 50.5958C42.1018 50.4888 42.2901 50.4316 42.4828 50.4316C42.7411 50.4316 42.9888 50.5343 43.1715 50.7169C43.3541 50.8996 43.4567 51.1473 43.4567 51.4056Z" fill="#50E6C9"/>
<path d="M47.4929 51.4056C47.4929 51.5982 47.4357 51.7865 47.3287 51.9467C47.2217 52.1069 47.0696 52.2317 46.8916 52.3054C46.7136 52.3792 46.5178 52.3984 46.3289 52.3609C46.1399 52.3233 45.9664 52.2305 45.8302 52.0943C45.694 51.9581 45.6012 51.7846 45.5636 51.5956C45.5261 51.4067 45.5453 51.2109 45.6191 51.0329C45.6928 50.8549 45.8176 50.7028 45.9778 50.5958C46.1379 50.4888 46.3263 50.4316 46.5189 50.4316C46.7772 50.4316 47.0249 50.5343 47.2076 50.7169C47.3902 50.8996 47.4929 51.1473 47.4929 51.4056Z" fill="#50E6C9"/>
<path d="M51.529 51.4056C51.529 51.5982 51.4719 51.7865 51.3648 51.9467C51.2578 52.1069 51.1057 52.2317 50.9277 52.3054C50.7498 52.3792 50.5539 52.3984 50.365 52.3609C50.1761 52.3233 50.0025 52.2305 49.8663 52.0943C49.7301 51.9581 49.6374 51.7846 49.5998 51.5956C49.5622 51.4067 49.5815 51.2109 49.6552 51.0329C49.7289 50.8549 49.8537 50.7028 50.0139 50.5958C50.1741 50.4888 50.3624 50.4316 50.555 50.4316C50.8133 50.4316 51.0611 50.5343 51.2437 50.7169C51.4264 50.8996 51.529 51.1473 51.529 51.4056Z" fill="#50E6C9"/>
</g>
</svg>
