<svg width="72" height="71" viewBox="0 0 72 71" fill="none" xmlns="http://www.w3.org/2000/svg">
<path d="M22.6466 56.0868L22.0505 3.131C22.0473 2.73257 22.147 2.3399 22.3398 1.99106C22.5327 1.64222 22.8123 1.34903 23.1514 1.13993C23.4905 0.930828 23.8777 0.812896 24.2754 0.797566C24.6731 0.782237 25.0679 0.870029 25.4214 1.05243L69.081 23.2295C69.4338 23.4097 69.7343 23.6778 69.9534 24.0081C70.1726 24.3383 70.3031 24.7196 70.3325 25.1152C70.3618 25.5109 70.289 25.9076 70.121 26.2672C69.953 26.6269 69.6955 26.9373 69.3732 27.1688L26.2835 57.9342C25.9406 58.1777 25.5378 58.3229 25.1188 58.3541C24.6998 58.3852 24.2805 58.3012 23.906 58.111C23.5316 57.9208 23.2164 57.6317 22.9944 57.275C22.7725 56.9182 22.6522 56.5074 22.6466 56.0868Z" fill="#004D9A"/>
</svg>
