<svg width="272" height="269" viewBox="0 0 272 269" fill="none" xmlns="http://www.w3.org/2000/svg">
<path d="M187.247 56.8816L184.039 256.92C184.01 258.425 183.593 259.897 182.829 261.195C182.065 262.492 180.979 263.57 179.677 264.325C178.374 265.08 176.9 265.485 175.397 265.502C173.893 265.519 172.412 265.147 171.095 264.422L8.50978 176.174C7.19604 175.457 6.08916 174.414 5.29557 173.144C4.50197 171.874 4.04838 170.421 3.97836 168.924C3.90834 167.427 4.22425 165.936 4.89574 164.596C5.56723 163.255 6.57171 162.109 7.81259 161.268L173.703 49.5306C175.023 48.6463 176.559 48.1395 178.144 48.065C179.73 47.9905 181.305 48.3511 182.699 49.1079C184.094 49.8647 185.254 50.9888 186.056 52.3589C186.857 53.729 187.269 55.2929 187.247 56.8816Z" fill="#004D9A"/>
</svg>
