<svg width="51" height="52" viewBox="0 0 51 52" fill="none" xmlns="http://www.w3.org/2000/svg">
<mask id="mask0" mask-type="alpha" maskUnits="userSpaceOnUse" x="0" y="0" width="51" height="52">
<path d="M1.3439 23.793L46.7115 0.269631C47.0919 0.0777862 47.5156 -0.0144043 47.9421 0.0018259C48.3686 0.0180561 48.7839 0.142165 49.1484 0.36236C49.513 0.582555 49.8147 0.89153 50.0249 1.25992C50.2351 1.62832 50.3469 2.0439 50.3496 2.46719V49.5139C50.3502 49.9413 50.2395 50.3617 50.0282 50.7342C49.8169 51.1067 49.5123 51.4189 49.1437 51.6404C48.7752 51.862 48.3552 51.9854 47.9244 51.9988C47.4936 52.0122 47.0667 51.915 46.6848 51.7168L1.3439 28.1934C0.938721 27.9833 0.599293 27.6672 0.36245 27.2793C0.125607 26.8914 0.000400543 26.4466 0.000400543 25.9932C0.000400543 25.5398 0.125607 25.095 0.36245 24.7071C0.599293 24.3192 0.938721 24.0031 1.3439 23.793Z" fill="#50E6C9"/>
</mask>
<g mask="url(#mask0)">
<path d="M48.2038 3.97821C47.6659 3.97821 47.2298 3.54215 47.2298 3.00424C47.2298 2.46633 47.6659 2.03027 48.2038 2.03027C48.7417 2.03027 49.1777 2.46633 49.1777 3.00424C49.1777 3.54215 48.7417 3.97821 48.2038 3.97821Z" fill="#50E6C9"/>
<path d="M43.1946 3.00424C43.1946 3.19687 43.2518 3.38518 43.3588 3.54535C43.4658 3.70552 43.6179 3.83036 43.7959 3.90407C43.9739 3.97779 44.1697 3.99708 44.3586 3.95949C44.5476 3.92191 44.7211 3.82916 44.8573 3.69294C44.9935 3.55673 45.0863 3.38319 45.1239 3.19426C45.1614 3.00532 45.1422 2.80949 45.0684 2.63152C44.9947 2.45355 44.8699 2.30144 44.7097 2.19442C44.5495 2.0874 44.3612 2.03027 44.1686 2.03027C43.9103 2.03027 43.6626 2.13289 43.4799 2.31554C43.2973 2.4982 43.1946 2.74593 43.1946 3.00424Z" fill="#50E6C9"/>
<path d="M39.1673 3.00424C39.1673 3.19687 39.2244 3.38518 39.3314 3.54535C39.4385 3.70552 39.5906 3.83036 39.7686 3.90407C39.9465 3.97779 40.1423 3.99708 40.3313 3.95949C40.5202 3.92191 40.6938 3.82916 40.83 3.69294C40.9662 3.55673 41.0589 3.38319 41.0965 3.19426C41.1341 3.00532 41.1148 2.80949 41.0411 2.63152C40.9674 2.45355 40.8425 2.30144 40.6824 2.19442C40.5222 2.0874 40.3339 2.03027 40.1413 2.03027C39.883 2.03027 39.6352 2.13289 39.4526 2.31554C39.2699 2.4982 39.1673 2.74593 39.1673 3.00424Z" fill="#50E6C9"/>
<path d="M35.1302 3.00424C35.1302 3.19687 35.1873 3.38518 35.2943 3.54535C35.4014 3.70552 35.5535 3.83036 35.7314 3.90407C35.9094 3.97779 36.1052 3.99708 36.2942 3.95949C36.4831 3.92191 36.6566 3.82916 36.7929 3.69294C36.9291 3.55673 37.0218 3.38319 37.0594 3.19426C37.097 3.00532 37.0777 2.80949 37.004 2.63152C36.9303 2.45355 36.8054 2.30144 36.6453 2.19442C36.4851 2.0874 36.2968 2.03027 36.1042 2.03027C35.8459 2.03027 35.5981 2.13289 35.4155 2.31554C35.2328 2.4982 35.1302 2.74593 35.1302 3.00424Z" fill="#50E6C9"/>
<path d="M31.095 3.00424C31.095 3.19687 31.1522 3.38518 31.2592 3.54535C31.3662 3.70552 31.5183 3.83036 31.6963 3.90407C31.8743 3.97779 32.0701 3.99708 32.259 3.95949C32.4479 3.92191 32.6215 3.82916 32.7577 3.69294C32.8939 3.55673 32.9867 3.38319 33.0243 3.19426C33.0618 3.00532 33.0425 2.80949 32.9688 2.63152C32.8951 2.45355 32.7703 2.30144 32.6101 2.19442C32.4499 2.0874 32.2616 2.03027 32.069 2.03027C31.8107 2.03027 31.563 2.13289 31.3803 2.31554C31.1976 2.4982 31.095 2.74593 31.095 3.00424Z" fill="#50E6C9"/>
<path d="M27.0579 3.00431C27.058 3.19833 27.1161 3.38789 27.2246 3.54869C27.3332 3.7095 27.4873 3.83422 27.6672 3.90687C27.8471 3.97951 28.0446 3.99678 28.2344 3.95644C28.4242 3.91611 28.5975 3.82001 28.7324 3.68048C28.8672 3.54095 28.9572 3.36433 28.991 3.17328C29.0248 2.98222 29.0007 2.78544 28.9219 2.60815C28.8431 2.43086 28.7131 2.28114 28.5487 2.1782C28.3842 2.07525 28.1928 2.02377 27.9989 2.03035C27.7463 2.03891 27.507 2.14529 27.3314 2.32703C27.1558 2.50876 27.0578 2.75162 27.0579 3.00431Z" fill="#50E6C9"/>
<path d="M23.0462 3.00424C23.0462 3.19687 23.1033 3.38518 23.2104 3.54535C23.3174 3.70552 23.4695 3.83036 23.6475 3.90407C23.8254 3.97779 24.0213 3.99708 24.2102 3.95949C24.3991 3.92191 24.5727 3.82916 24.7089 3.69294C24.8451 3.55673 24.9378 3.38319 24.9754 3.19426C25.013 3.00532 24.9937 2.80949 24.92 2.63152C24.8463 2.45355 24.7214 2.30144 24.5613 2.19442C24.4011 2.0874 24.2128 2.03027 24.0202 2.03027C23.7619 2.03027 23.5141 2.13289 23.3315 2.31554C23.1488 2.4982 23.0462 2.74593 23.0462 3.00424Z" fill="#50E6C9"/>
<path d="M18.9935 3.00424C18.9935 3.19687 19.0506 3.38518 19.1576 3.54535C19.2646 3.70552 19.4167 3.83036 19.5947 3.90407C19.7727 3.97779 19.9685 3.99708 20.1575 3.95949C20.3464 3.92191 20.5199 3.82916 20.6561 3.69294C20.7923 3.55673 20.8851 3.38319 20.9227 3.19426C20.9603 3.00532 20.941 2.80949 20.8673 2.63152C20.7936 2.45355 20.6687 2.30144 20.5085 2.19442C20.3484 2.0874 20.1601 2.03027 19.9674 2.03027C19.8395 2.03027 19.7129 2.05547 19.5947 2.10441C19.4766 2.15336 19.3692 2.2251 19.2787 2.31554C19.1883 2.40598 19.1166 2.51335 19.0676 2.63152C19.0187 2.74969 18.9935 2.87634 18.9935 3.00424Z" fill="#50E6C9"/>
<path d="M14.9583 3.00424C14.9583 3.19687 15.0154 3.38518 15.1225 3.54535C15.2295 3.70552 15.3816 3.83036 15.5596 3.90407C15.7375 3.97779 15.9334 3.99708 16.1223 3.95949C16.3112 3.92191 16.4848 3.82916 16.621 3.69294C16.7572 3.55673 16.85 3.38319 16.8875 3.19426C16.9251 3.00532 16.9058 2.80949 16.8321 2.63152C16.7584 2.45355 16.6336 2.30144 16.4734 2.19442C16.3132 2.0874 16.1249 2.03027 15.9323 2.03027C15.674 2.03027 15.4262 2.13289 15.2436 2.31554C15.0609 2.4982 14.9583 2.74593 14.9583 3.00424Z" fill="#50E6C9"/>
<path d="M10.929 3.00424C10.929 3.19687 10.9861 3.38518 11.0932 3.54535C11.2002 3.70552 11.3523 3.83036 11.5303 3.90407C11.7082 3.97779 11.9041 3.99708 12.093 3.95949C12.2819 3.92191 12.4555 3.82916 12.5917 3.69294C12.7279 3.55673 12.8207 3.38319 12.8582 3.19426C12.8958 3.00532 12.8765 2.80949 12.8028 2.63152C12.7291 2.45355 12.6043 2.30144 12.4441 2.19442C12.2839 2.0874 12.0956 2.03027 11.903 2.03027C11.6447 2.03027 11.3969 2.13289 11.2143 2.31554C11.0316 2.4982 10.929 2.74593 10.929 3.00424Z" fill="#50E6C9"/>
<path d="M6.89385 3.00424C6.89385 3.19687 6.95097 3.38518 7.05799 3.54535C7.16501 3.70552 7.31713 3.83036 7.4951 3.90407C7.67307 3.97779 7.86891 3.99708 8.05784 3.95949C8.24677 3.92191 8.42031 3.82916 8.55652 3.69294C8.69273 3.55673 8.7855 3.38319 8.82308 3.19426C8.86066 3.00532 8.84137 2.80949 8.76765 2.63152C8.69394 2.45355 8.5691 2.30144 8.40894 2.19442C8.24877 2.0874 8.06046 2.03027 7.86782 2.03027C7.60951 2.03027 7.36178 2.13289 7.17913 2.31554C6.99647 2.4982 6.89385 2.74593 6.89385 3.00424Z" fill="#50E6C9"/>
<path d="M2.8587 3.00424C2.8587 3.19687 2.91583 3.38518 3.02285 3.54535C3.12987 3.70552 3.28198 3.83036 3.45995 3.90407C3.63792 3.97779 3.83376 3.99708 4.02269 3.95949C4.21162 3.92191 4.38516 3.82916 4.52137 3.69294C4.65758 3.55673 4.75034 3.38319 4.78792 3.19426C4.8255 3.00532 4.80622 2.80949 4.73251 2.63152C4.65879 2.45355 4.53396 2.30144 4.37379 2.19442C4.21362 2.0874 4.02531 2.03027 3.83268 2.03027C3.57436 2.03027 3.32664 2.13289 3.14398 2.31554C2.96133 2.4982 2.8587 2.74593 2.8587 3.00424Z" fill="#50E6C9"/>
<path d="M-1.17841 3.00424C-1.17841 3.19687 -1.12128 3.38518 -1.01426 3.54535C-0.907241 3.70552 -0.755125 3.83036 -0.577156 3.90407C-0.399186 3.97779 -0.20335 3.99708 -0.0144185 3.95949C0.174513 3.92191 0.348051 3.82916 0.484263 3.69294C0.620475 3.55673 0.713233 3.38319 0.750814 3.19426C0.788395 3.00532 0.769115 2.80949 0.695398 2.63152C0.621681 2.45355 0.496848 2.30144 0.33668 2.19442C0.176512 2.0874 -0.0117998 2.03027 -0.204433 2.03027C-0.462745 2.03027 -0.710474 2.13289 -0.893128 2.31554C-1.07578 2.4982 -1.17841 2.74593 -1.17841 3.00424Z" fill="#50E6C9"/>
<path d="M47.2298 7.03232C47.2298 7.22495 47.2869 7.41326 47.3939 7.57342C47.501 7.73359 47.6531 7.85843 47.831 7.93215C48.009 8.00587 48.2048 8.02515 48.3938 7.98757C48.5827 7.94999 48.7563 7.85723 48.8925 7.72102C49.0287 7.5848 49.1214 7.41126 49.159 7.22233C49.1966 7.0334 49.1773 6.83757 49.1036 6.6596C49.0299 6.48163 48.905 6.32952 48.7449 6.22249C48.5847 6.11547 48.3964 6.05835 48.2038 6.05835C48.0759 6.05835 47.9492 6.08354 47.831 6.13249C47.7129 6.18143 47.6055 6.25318 47.5151 6.34362C47.4246 6.43406 47.3529 6.54143 47.3039 6.6596C47.255 6.77777 47.2298 6.90441 47.2298 7.03232Z" fill="#50E6C9"/>
<path d="M43.1946 7.03232C43.1946 7.22495 43.2518 7.41326 43.3588 7.57342C43.4658 7.73359 43.6179 7.85843 43.7959 7.93215C43.9739 8.00587 44.1697 8.02515 44.3586 7.98757C44.5476 7.94999 44.7211 7.85723 44.8573 7.72102C44.9935 7.5848 45.0863 7.41126 45.1239 7.22233C45.1614 7.0334 45.1422 6.83757 45.0684 6.6596C44.9947 6.48163 44.8699 6.32952 44.7097 6.22249C44.5495 6.11547 44.3612 6.05835 44.1686 6.05835C43.9103 6.05835 43.6626 6.16096 43.4799 6.34362C43.2973 6.52627 43.1946 6.77401 43.1946 7.03232Z" fill="#50E6C9"/>
<path d="M39.1673 7.03235C39.1673 7.22499 39.2244 7.41329 39.3314 7.57346C39.4385 7.73363 39.5906 7.85847 39.7686 7.93218C39.9465 8.0059 40.1423 8.02519 40.3313 7.98761C40.5202 7.95003 40.6938 7.85726 40.83 7.72105C40.9662 7.58484 41.0589 7.4113 41.0965 7.22236C41.1341 7.03343 41.1148 6.8376 41.0411 6.65963C40.9674 6.48166 40.8425 6.32955 40.6824 6.22253C40.5222 6.11551 40.3339 6.05839 40.1413 6.05839C40.0131 6.05728 39.8859 6.08172 39.7673 6.13028C39.6486 6.17884 39.5408 6.25054 39.4501 6.3412C39.3594 6.43186 39.2878 6.53967 39.2392 6.65833C39.1906 6.777 39.1662 6.90414 39.1673 7.03235Z" fill="#50E6C9"/>
<path d="M35.1302 7.03232C35.1302 7.22495 35.1873 7.41326 35.2943 7.57342C35.4014 7.73359 35.5535 7.85843 35.7314 7.93215C35.9094 8.00587 36.1052 8.02515 36.2942 7.98757C36.4831 7.94999 36.6566 7.85723 36.7929 7.72102C36.9291 7.5848 37.0218 7.41126 37.0594 7.22233C37.097 7.0334 37.0777 6.83757 37.004 6.6596C36.9303 6.48163 36.8054 6.32952 36.6453 6.22249C36.4851 6.11547 36.2968 6.05835 36.1042 6.05835C35.8459 6.05835 35.5981 6.16096 35.4155 6.34362C35.2328 6.52627 35.1302 6.77401 35.1302 7.03232Z" fill="#50E6C9"/>
<path d="M31.095 7.03232C31.095 7.22495 31.1522 7.41326 31.2592 7.57342C31.3662 7.73359 31.5183 7.85843 31.6963 7.93215C31.8743 8.00587 32.0701 8.02515 32.259 7.98757C32.4479 7.94999 32.6215 7.85723 32.7577 7.72102C32.8939 7.5848 32.9867 7.41126 33.0243 7.22233C33.0618 7.0334 33.0425 6.83757 32.9688 6.6596C32.8951 6.48163 32.7703 6.32952 32.6101 6.22249C32.4499 6.11547 32.2616 6.05835 32.069 6.05835C31.8107 6.05835 31.563 6.16096 31.3803 6.34362C31.1976 6.52627 31.095 6.77401 31.095 7.03232Z" fill="#50E6C9"/>
<path d="M27.0579 7.03239C27.058 7.22641 27.1161 7.41597 27.2246 7.57677C27.3332 7.73758 27.4873 7.8623 27.6672 7.93494C27.8471 8.00759 28.0446 8.02485 28.2344 7.98452C28.4242 7.94418 28.5975 7.84809 28.7324 7.70855C28.8672 7.56902 28.9572 7.39241 28.991 7.20135C29.0248 7.0103 29.0007 6.81351 28.9219 6.63622C28.8431 6.45893 28.7131 6.30922 28.5487 6.20628C28.3842 6.10333 28.1928 6.05184 27.9989 6.05842C27.7463 6.06699 27.507 6.17337 27.3314 6.3551C27.1558 6.53684 27.0578 6.7797 27.0579 7.03239Z" fill="#50E6C9"/>
<path d="M23.0462 7.03232C23.0462 7.22495 23.1033 7.41326 23.2104 7.57342C23.3174 7.73359 23.4695 7.85843 23.6475 7.93215C23.8254 8.00587 24.0213 8.02515 24.2102 7.98757C24.3991 7.94999 24.5727 7.85723 24.7089 7.72102C24.8451 7.5848 24.9378 7.41126 24.9754 7.22233C25.013 7.0334 24.9937 6.83757 24.92 6.6596C24.8463 6.48163 24.7214 6.32952 24.5613 6.22249C24.4011 6.11547 24.2128 6.05835 24.0202 6.05835C23.7619 6.05835 23.5141 6.16096 23.3315 6.34362C23.1488 6.52627 23.0462 6.77401 23.0462 7.03232Z" fill="#50E6C9"/>
<path d="M18.9935 7.03232C18.9935 7.22495 19.0506 7.41326 19.1576 7.57342C19.2646 7.73359 19.4167 7.85843 19.5947 7.93215C19.7727 8.00587 19.9685 8.02515 20.1575 7.98757C20.3464 7.94999 20.5199 7.85723 20.6561 7.72102C20.7923 7.5848 20.8851 7.41126 20.9227 7.22233C20.9603 7.0334 20.941 6.83757 20.8673 6.6596C20.7936 6.48163 20.6687 6.32952 20.5085 6.22249C20.3484 6.11547 20.1601 6.05835 19.9674 6.05835C19.8395 6.05835 19.7129 6.08354 19.5947 6.13249C19.4766 6.18143 19.3692 6.25318 19.2787 6.34362C19.1883 6.43406 19.1166 6.54143 19.0676 6.6596C19.0187 6.77777 18.9935 6.90441 18.9935 7.03232Z" fill="#50E6C9"/>
<path d="M14.9583 7.03232C14.9583 7.22495 15.0154 7.41326 15.1225 7.57342C15.2295 7.73359 15.3816 7.85843 15.5596 7.93215C15.7375 8.00587 15.9334 8.02515 16.1223 7.98757C16.3112 7.94999 16.4848 7.85723 16.621 7.72102C16.7572 7.5848 16.85 7.41126 16.8875 7.22233C16.9251 7.0334 16.9058 6.83757 16.8321 6.6596C16.7584 6.48163 16.6336 6.32952 16.4734 6.22249C16.3132 6.11547 16.1249 6.05835 15.9323 6.05835C15.674 6.05835 15.4262 6.16096 15.2436 6.34362C15.0609 6.52627 14.9583 6.77401 14.9583 7.03232Z" fill="#50E6C9"/>
<path d="M10.929 7.03232C10.929 7.29063 11.0316 7.53836 11.2143 7.72102C11.3969 7.90367 11.6447 8.00629 11.903 8.00629C12.1613 8.00629 12.409 7.90367 12.5917 7.72102C12.7743 7.53836 12.877 7.29063 12.877 7.03232C12.877 6.77401 12.7743 6.52627 12.5917 6.34362C12.409 6.16096 12.1613 6.05835 11.903 6.05835C11.6447 6.05835 11.3969 6.16096 11.2143 6.34362C11.0316 6.52627 10.929 6.77401 10.929 7.03232Z" fill="#50E6C9"/>
<path d="M6.89385 7.03232C6.89385 7.22495 6.95097 7.41326 7.05799 7.57342C7.16501 7.73359 7.31713 7.85843 7.4951 7.93215C7.67307 8.00587 7.86891 8.02515 8.05784 7.98757C8.24677 7.94999 8.42031 7.85723 8.55652 7.72102C8.69273 7.5848 8.7855 7.41126 8.82308 7.22233C8.86066 7.0334 8.84137 6.83757 8.76765 6.6596C8.69394 6.48163 8.5691 6.32952 8.40894 6.22249C8.24877 6.11547 8.06046 6.05835 7.86782 6.05835C7.60951 6.05835 7.36178 6.16096 7.17913 6.34362C6.99647 6.52627 6.89385 6.77401 6.89385 7.03232Z" fill="#50E6C9"/>
<path d="M2.8587 7.03232C2.8587 7.22495 2.91583 7.41326 3.02285 7.57342C3.12987 7.73359 3.28198 7.85843 3.45995 7.93215C3.63792 8.00587 3.83376 8.02515 4.02269 7.98757C4.21162 7.94999 4.38516 7.85723 4.52137 7.72102C4.65758 7.5848 4.75034 7.41126 4.78792 7.22233C4.8255 7.0334 4.80622 6.83757 4.73251 6.6596C4.65879 6.48163 4.53396 6.32952 4.37379 6.22249C4.21362 6.11547 4.02531 6.05835 3.83268 6.05835C3.57436 6.05835 3.32664 6.16096 3.14398 6.34362C2.96133 6.52627 2.8587 6.77401 2.8587 7.03232Z" fill="#50E6C9"/>
<path d="M-1.17841 7.03232C-1.17841 7.22495 -1.12128 7.41326 -1.01426 7.57342C-0.907241 7.73359 -0.755125 7.85843 -0.577156 7.93215C-0.399186 8.00587 -0.20335 8.02515 -0.0144185 7.98757C0.174513 7.94999 0.348051 7.85723 0.484263 7.72102C0.620475 7.5848 0.713233 7.41126 0.750814 7.22233C0.788395 7.0334 0.769115 6.83757 0.695398 6.6596C0.621681 6.48163 0.496848 6.32952 0.33668 6.22249C0.176512 6.11547 -0.0117998 6.05835 -0.204433 6.05835C-0.462745 6.05835 -0.710474 6.16096 -0.893128 6.34362C-1.07578 6.52627 -1.17841 6.77401 -1.17841 7.03232Z" fill="#50E6C9"/>
<path d="M47.2298 11.0685C47.2298 11.2611 47.2869 11.4494 47.3939 11.6096C47.501 11.7697 47.6531 11.8946 47.831 11.9683C48.009 12.042 48.2048 12.0613 48.3938 12.0237C48.5827 11.9861 48.7563 11.8934 48.8925 11.7571C49.0287 11.6209 49.1214 11.4474 49.159 11.2585C49.1966 11.0695 49.1773 10.8737 49.1036 10.6957C49.0299 10.5178 48.905 10.3656 48.7449 10.2586C48.5847 10.1516 48.3964 10.0945 48.2038 10.0945C48.0759 10.0945 47.9492 10.1197 47.831 10.1686C47.7129 10.2176 47.6055 10.2893 47.5151 10.3798C47.4246 10.4702 47.3529 10.5776 47.3039 10.6957C47.255 10.8139 47.2298 10.9405 47.2298 11.0685Z" fill="#50E6C9"/>
<path d="M43.1946 11.0685C43.1946 11.2611 43.2518 11.4494 43.3588 11.6096C43.4658 11.7697 43.6179 11.8946 43.7959 11.9683C43.9739 12.042 44.1697 12.0613 44.3586 12.0237C44.5476 11.9861 44.7211 11.8934 44.8573 11.7571C44.9935 11.6209 45.0863 11.4474 45.1239 11.2585C45.1614 11.0695 45.1422 10.8737 45.0684 10.6957C44.9947 10.5178 44.8699 10.3656 44.7097 10.2586C44.5495 10.1516 44.3612 10.0945 44.1686 10.0945C43.9103 10.0945 43.6626 10.1971 43.4799 10.3798C43.2973 10.5624 43.1946 10.8101 43.1946 11.0685Z" fill="#50E6C9"/>
<path d="M39.1673 11.0685C39.1673 11.2611 39.2244 11.4494 39.3314 11.6096C39.4385 11.7697 39.5906 11.8946 39.7686 11.9683C39.9465 12.042 40.1423 12.0613 40.3313 12.0237C40.5202 11.9861 40.6938 11.8934 40.83 11.7571C40.9662 11.6209 41.0589 11.4474 41.0965 11.2585C41.1341 11.0695 41.1148 10.8737 41.0411 10.6957C40.9674 10.5178 40.8425 10.3656 40.6824 10.2586C40.5222 10.1516 40.3339 10.0945 40.1413 10.0945C39.883 10.0945 39.6352 10.1971 39.4526 10.3798C39.2699 10.5624 39.1673 10.8101 39.1673 11.0685Z" fill="#50E6C9"/>
<path d="M35.1302 11.0685C35.1302 11.2611 35.1873 11.4494 35.2943 11.6096C35.4014 11.7697 35.5535 11.8946 35.7314 11.9683C35.9094 12.042 36.1052 12.0613 36.2942 12.0237C36.4831 11.9861 36.6566 11.8934 36.7929 11.7571C36.9291 11.6209 37.0218 11.4474 37.0594 11.2585C37.097 11.0695 37.0777 10.8737 37.004 10.6957C36.9303 10.5178 36.8054 10.3656 36.6453 10.2586C36.4851 10.1516 36.2968 10.0945 36.1042 10.0945C35.8459 10.0945 35.5981 10.1971 35.4155 10.3798C35.2328 10.5624 35.1302 10.8101 35.1302 11.0685Z" fill="#50E6C9"/>
<path d="M31.095 11.0685C31.095 11.2611 31.1522 11.4494 31.2592 11.6096C31.3662 11.7697 31.5183 11.8946 31.6963 11.9683C31.8743 12.042 32.0701 12.0613 32.259 12.0237C32.4479 11.9861 32.6215 11.8934 32.7577 11.7571C32.8939 11.6209 32.9867 11.4474 33.0243 11.2585C33.0618 11.0695 33.0425 10.8737 32.9688 10.6957C32.8951 10.5178 32.7703 10.3656 32.6101 10.2586C32.4499 10.1516 32.2616 10.0945 32.069 10.0945C31.8107 10.0945 31.563 10.1971 31.3803 10.3798C31.1976 10.5624 31.095 10.8101 31.095 11.0685Z" fill="#50E6C9"/>
<path d="M27.0579 11.0685C27.058 11.2625 27.1161 11.4521 27.2246 11.6129C27.3332 11.7737 27.4873 11.8984 27.6672 11.9711C27.8471 12.0437 28.0446 12.061 28.2344 12.0207C28.4242 11.9803 28.5975 11.8842 28.7324 11.7447C28.8672 11.6052 28.9572 11.4285 28.991 11.2375C29.0248 11.0464 29.0007 10.8496 28.9219 10.6724C28.8431 10.4951 28.7131 10.3454 28.5487 10.2424C28.3842 10.1395 28.1928 10.088 27.9989 10.0946C27.7463 10.1031 27.507 10.2095 27.3314 10.3912C27.1558 10.573 27.0578 10.8158 27.0579 11.0685Z" fill="#50E6C9"/>
<path d="M23.0462 11.0685C23.0462 11.2611 23.1033 11.4494 23.2104 11.6096C23.3174 11.7697 23.4695 11.8946 23.6475 11.9683C23.8254 12.042 24.0213 12.0613 24.2102 12.0237C24.3991 11.9861 24.5727 11.8934 24.7089 11.7571C24.8451 11.6209 24.9378 11.4474 24.9754 11.2585C25.013 11.0695 24.9937 10.8737 24.92 10.6957C24.8463 10.5178 24.7214 10.3656 24.5613 10.2586C24.4011 10.1516 24.2128 10.0945 24.0202 10.0945C23.7619 10.0945 23.5141 10.1971 23.3315 10.3798C23.1488 10.5624 23.0462 10.8101 23.0462 11.0685Z" fill="#50E6C9"/>
<path d="M18.9935 11.0685C18.9935 11.2611 19.0506 11.4494 19.1576 11.6096C19.2646 11.7697 19.4167 11.8946 19.5947 11.9683C19.7727 12.042 19.9685 12.0613 20.1575 12.0237C20.3464 11.9861 20.5199 11.8934 20.6561 11.7571C20.7923 11.6209 20.8851 11.4474 20.9227 11.2585C20.9603 11.0695 20.941 10.8737 20.8673 10.6957C20.7936 10.5178 20.6687 10.3656 20.5085 10.2586C20.3484 10.1516 20.1601 10.0945 19.9674 10.0945C19.8395 10.0945 19.7129 10.1197 19.5947 10.1686C19.4766 10.2176 19.3692 10.2893 19.2787 10.3798C19.1883 10.4702 19.1166 10.5776 19.0676 10.6957C19.0187 10.8139 18.9935 10.9405 18.9935 11.0685Z" fill="#50E6C9"/>
<path d="M14.9583 11.0685C14.9583 11.2611 15.0154 11.4494 15.1225 11.6096C15.2295 11.7697 15.3816 11.8946 15.5596 11.9683C15.7375 12.042 15.9334 12.0613 16.1223 12.0237C16.3112 11.9861 16.4848 11.8934 16.621 11.7571C16.7572 11.6209 16.85 11.4474 16.8875 11.2585C16.9251 11.0695 16.9058 10.8737 16.8321 10.6957C16.7584 10.5178 16.6336 10.3656 16.4734 10.2586C16.3132 10.1516 16.1249 10.0945 15.9323 10.0945C15.674 10.0945 15.4262 10.1971 15.2436 10.3798C15.0609 10.5624 14.9583 10.8101 14.9583 11.0685Z" fill="#50E6C9"/>
<path d="M10.929 11.0685C10.929 11.2611 10.9861 11.4494 11.0932 11.6096C11.2002 11.7697 11.3523 11.8946 11.5303 11.9683C11.7082 12.042 11.9041 12.0613 12.093 12.0237C12.2819 11.9861 12.4555 11.8934 12.5917 11.7571C12.7279 11.6209 12.8207 11.4474 12.8582 11.2585C12.8958 11.0695 12.8765 10.8737 12.8028 10.6957C12.7291 10.5178 12.6043 10.3656 12.4441 10.2586C12.2839 10.1516 12.0956 10.0945 11.903 10.0945C11.6447 10.0945 11.3969 10.1971 11.2143 10.3798C11.0316 10.5624 10.929 10.8101 10.929 11.0685Z" fill="#50E6C9"/>
<path d="M6.89385 11.0685C6.89385 11.2611 6.95097 11.4494 7.05799 11.6096C7.16501 11.7697 7.31713 11.8946 7.4951 11.9683C7.67307 12.042 7.86891 12.0613 8.05784 12.0237C8.24677 11.9861 8.42031 11.8934 8.55652 11.7571C8.69273 11.6209 8.7855 11.4474 8.82308 11.2585C8.86066 11.0695 8.84137 10.8737 8.76765 10.6957C8.69394 10.5178 8.5691 10.3656 8.40894 10.2586C8.24877 10.1516 8.06046 10.0945 7.86782 10.0945C7.60951 10.0945 7.36178 10.1971 7.17913 10.3798C6.99647 10.5624 6.89385 10.8101 6.89385 11.0685Z" fill="#50E6C9"/>
<path d="M2.8587 11.0685C2.8587 11.2611 2.91583 11.4494 3.02285 11.6096C3.12987 11.7697 3.28198 11.8946 3.45995 11.9683C3.63792 12.042 3.83376 12.0613 4.02269 12.0237C4.21162 11.9861 4.38516 11.8934 4.52137 11.7571C4.65758 11.6209 4.75034 11.4474 4.78792 11.2585C4.8255 11.0695 4.80622 10.8737 4.73251 10.6957C4.65879 10.5178 4.53396 10.3656 4.37379 10.2586C4.21362 10.1516 4.02531 10.0945 3.83268 10.0945C3.57436 10.0945 3.32664 10.1971 3.14398 10.3798C2.96133 10.5624 2.8587 10.8101 2.8587 11.0685Z" fill="#50E6C9"/>
<path d="M-1.17841 11.0685C-1.17841 11.2611 -1.12128 11.4494 -1.01426 11.6096C-0.907241 11.7697 -0.755125 11.8946 -0.577156 11.9683C-0.399186 12.042 -0.20335 12.0613 -0.0144185 12.0237C0.174513 11.9861 0.348051 11.8934 0.484263 11.7571C0.620475 11.6209 0.713233 11.4474 0.750814 11.2585C0.788395 11.0695 0.769115 10.8737 0.695398 10.6957C0.621681 10.5178 0.496848 10.3656 0.33668 10.2586C0.176512 10.1516 -0.0117998 10.0945 -0.204433 10.0945C-0.462745 10.0945 -0.710474 10.1971 -0.893128 10.3798C-1.07578 10.5624 -1.17841 10.8101 -1.17841 11.0685Z" fill="#50E6C9"/>
<path d="M47.2298 15.1046C47.2298 15.2972 47.2869 15.4855 47.3939 15.6457C47.501 15.8059 47.6531 15.9307 47.831 16.0044C48.009 16.0781 48.2048 16.0974 48.3938 16.0598C48.5827 16.0223 48.7563 15.9295 48.8925 15.7933C49.0287 15.6571 49.1214 15.4835 49.159 15.2946C49.1966 15.1057 49.1773 14.9098 49.1036 14.7319C49.0299 14.5539 48.905 14.4018 48.7449 14.2948C48.5847 14.1877 48.3964 14.1306 48.2038 14.1306C48.0759 14.1306 47.9492 14.1558 47.831 14.2048C47.7129 14.2537 47.6055 14.3254 47.5151 14.4159C47.4246 14.5063 47.3529 14.6137 47.3039 14.7319C47.255 14.85 47.2298 14.9767 47.2298 15.1046Z" fill="#50E6C9"/>
<path d="M43.1946 15.1046C43.1946 15.2972 43.2518 15.4855 43.3588 15.6457C43.4658 15.8059 43.6179 15.9307 43.7959 16.0044C43.9739 16.0781 44.1697 16.0974 44.3586 16.0598C44.5476 16.0223 44.7211 15.9295 44.8573 15.7933C44.9935 15.6571 45.0863 15.4835 45.1239 15.2946C45.1614 15.1057 45.1422 14.9098 45.0684 14.7319C44.9947 14.5539 44.8699 14.4018 44.7097 14.2948C44.5495 14.1877 44.3612 14.1306 44.1686 14.1306C43.9103 14.1306 43.6626 14.2332 43.4799 14.4159C43.2973 14.5985 43.1946 14.8463 43.1946 15.1046Z" fill="#50E6C9"/>
<path d="M39.1673 15.1046C39.1673 15.2972 39.2244 15.4855 39.3314 15.6457C39.4385 15.8059 39.5906 15.9307 39.7686 16.0044C39.9465 16.0781 40.1423 16.0974 40.3313 16.0598C40.5202 16.0223 40.6938 15.9295 40.83 15.7933C40.9662 15.6571 41.0589 15.4835 41.0965 15.2946C41.1341 15.1057 41.1148 14.9098 41.0411 14.7319C40.9674 14.5539 40.8425 14.4018 40.6824 14.2948C40.5222 14.1877 40.3339 14.1306 40.1413 14.1306C39.883 14.1306 39.6352 14.2332 39.4526 14.4159C39.2699 14.5985 39.1673 14.8463 39.1673 15.1046Z" fill="#50E6C9"/>
<path d="M35.1302 15.1046C35.1302 15.2972 35.1873 15.4855 35.2943 15.6457C35.4014 15.8059 35.5535 15.9307 35.7314 16.0044C35.9094 16.0781 36.1052 16.0974 36.2942 16.0598C36.4831 16.0223 36.6566 15.9295 36.7929 15.7933C36.9291 15.6571 37.0218 15.4835 37.0594 15.2946C37.097 15.1057 37.0777 14.9098 37.004 14.7319C36.9303 14.5539 36.8054 14.4018 36.6453 14.2948C36.4851 14.1877 36.2968 14.1306 36.1042 14.1306C35.8459 14.1306 35.5981 14.2332 35.4155 14.4159C35.2328 14.5985 35.1302 14.8463 35.1302 15.1046Z" fill="#50E6C9"/>
<path d="M31.095 15.1046C31.095 15.2972 31.1522 15.4855 31.2592 15.6457C31.3662 15.8059 31.5183 15.9307 31.6963 16.0044C31.8743 16.0781 32.0701 16.0974 32.259 16.0598C32.4479 16.0223 32.6215 15.9295 32.7577 15.7933C32.8939 15.6571 32.9867 15.4835 33.0243 15.2946C33.0618 15.1057 33.0425 14.9098 32.9688 14.7319C32.8951 14.5539 32.7703 14.4018 32.6101 14.2948C32.4499 14.1877 32.2616 14.1306 32.069 14.1306C31.8107 14.1306 31.563 14.2332 31.3803 14.4159C31.1976 14.5985 31.095 14.8463 31.095 15.1046Z" fill="#50E6C9"/>
<path d="M27.0579 15.1047C27.058 15.2987 27.1161 15.4882 27.2246 15.649C27.3332 15.8098 27.4873 15.9346 27.6672 16.0072C27.8471 16.0799 28.0446 16.0971 28.2344 16.0568C28.4242 16.0164 28.5975 15.9204 28.7324 15.7808C28.8672 15.6413 28.9572 15.4647 28.991 15.2736C29.0248 15.0826 29.0007 14.8858 28.9219 14.7085C28.8431 14.5312 28.7131 14.3815 28.5487 14.2785C28.3842 14.1756 28.1928 14.1241 27.9989 14.1307C27.7463 14.1393 27.507 14.2456 27.3314 14.4274C27.1558 14.6091 27.0578 14.852 27.0579 15.1047Z" fill="#50E6C9"/>
<path d="M23.0462 15.1046C23.0462 15.2972 23.1033 15.4855 23.2104 15.6457C23.3174 15.8059 23.4695 15.9307 23.6475 16.0044C23.8254 16.0781 24.0213 16.0974 24.2102 16.0598C24.3991 16.0223 24.5727 15.9295 24.7089 15.7933C24.8451 15.6571 24.9378 15.4835 24.9754 15.2946C25.013 15.1057 24.9937 14.9098 24.92 14.7319C24.8463 14.5539 24.7214 14.4018 24.5613 14.2948C24.4011 14.1877 24.2128 14.1306 24.0202 14.1306C23.7619 14.1306 23.5141 14.2332 23.3315 14.4159C23.1488 14.5985 23.0462 14.8463 23.0462 15.1046Z" fill="#50E6C9"/>
<path d="M18.9935 15.1046C18.9935 15.2972 19.0506 15.4855 19.1576 15.6457C19.2646 15.8059 19.4167 15.9307 19.5947 16.0044C19.7727 16.0781 19.9685 16.0974 20.1575 16.0598C20.3464 16.0223 20.5199 15.9295 20.6561 15.7933C20.7923 15.6571 20.8851 15.4835 20.9227 15.2946C20.9603 15.1057 20.941 14.9098 20.8673 14.7319C20.7936 14.5539 20.6687 14.4018 20.5085 14.2948C20.3484 14.1877 20.1601 14.1306 19.9674 14.1306C19.8395 14.1306 19.7129 14.1558 19.5947 14.2048C19.4766 14.2537 19.3692 14.3254 19.2787 14.4159C19.1883 14.5063 19.1166 14.6137 19.0676 14.7319C19.0187 14.85 18.9935 14.9767 18.9935 15.1046Z" fill="#50E6C9"/>
<path d="M14.9583 15.1046C14.9583 15.2972 15.0154 15.4855 15.1225 15.6457C15.2295 15.8059 15.3816 15.9307 15.5596 16.0044C15.7375 16.0781 15.9334 16.0974 16.1223 16.0598C16.3112 16.0223 16.4848 15.9295 16.621 15.7933C16.7572 15.6571 16.85 15.4835 16.8875 15.2946C16.9251 15.1057 16.9058 14.9098 16.8321 14.7319C16.7584 14.5539 16.6336 14.4018 16.4734 14.2948C16.3132 14.1877 16.1249 14.1306 15.9323 14.1306C15.674 14.1306 15.4262 14.2332 15.2436 14.4159C15.0609 14.5985 14.9583 14.8463 14.9583 15.1046Z" fill="#50E6C9"/>
<path d="M10.929 15.1046C10.929 15.2972 10.9861 15.4855 11.0932 15.6457C11.2002 15.8059 11.3523 15.9307 11.5303 16.0044C11.7082 16.0781 11.9041 16.0974 12.093 16.0598C12.2819 16.0223 12.4555 15.9295 12.5917 15.7933C12.7279 15.6571 12.8207 15.4835 12.8582 15.2946C12.8958 15.1057 12.8765 14.9098 12.8028 14.7319C12.7291 14.5539 12.6043 14.4018 12.4441 14.2948C12.2839 14.1877 12.0956 14.1306 11.903 14.1306C11.6447 14.1306 11.3969 14.2332 11.2143 14.4159C11.0316 14.5985 10.929 14.8463 10.929 15.1046Z" fill="#50E6C9"/>
<path d="M6.89385 15.1046C6.89385 15.2972 6.95097 15.4855 7.05799 15.6457C7.16501 15.8059 7.31713 15.9307 7.4951 16.0044C7.67307 16.0781 7.86891 16.0974 8.05784 16.0598C8.24677 16.0223 8.42031 15.9295 8.55652 15.7933C8.69273 15.6571 8.7855 15.4835 8.82308 15.2946C8.86066 15.1057 8.84137 14.9098 8.76765 14.7319C8.69394 14.5539 8.5691 14.4018 8.40894 14.2948C8.24877 14.1877 8.06046 14.1306 7.86782 14.1306C7.60951 14.1306 7.36178 14.2332 7.17913 14.4159C6.99647 14.5985 6.89385 14.8463 6.89385 15.1046Z" fill="#50E6C9"/>
<path d="M2.8587 15.1046C2.8587 15.2972 2.91583 15.4855 3.02285 15.6457C3.12987 15.8059 3.28198 15.9307 3.45995 16.0044C3.63792 16.0781 3.83376 16.0974 4.02269 16.0598C4.21162 16.0223 4.38516 15.9295 4.52137 15.7933C4.65758 15.6571 4.75034 15.4835 4.78792 15.2946C4.8255 15.1057 4.80622 14.9098 4.73251 14.7319C4.65879 14.5539 4.53396 14.4018 4.37379 14.2948C4.21362 14.1877 4.02531 14.1306 3.83268 14.1306C3.57436 14.1306 3.32664 14.2332 3.14398 14.4159C2.96133 14.5985 2.8587 14.8463 2.8587 15.1046Z" fill="#50E6C9"/>
<path d="M-1.17841 15.1046C-1.17841 15.2972 -1.12128 15.4855 -1.01426 15.6457C-0.907241 15.8059 -0.755125 15.9307 -0.577156 16.0044C-0.399186 16.0781 -0.20335 16.0974 -0.0144185 16.0598C0.174513 16.0223 0.348051 15.9295 0.484263 15.7933C0.620475 15.6571 0.713233 15.4835 0.750814 15.2946C0.788395 15.1057 0.769115 14.9098 0.695398 14.7319C0.621681 14.5539 0.496848 14.4018 0.33668 14.2948C0.176512 14.1877 -0.0117998 14.1306 -0.204433 14.1306C-0.462745 14.1306 -0.710474 14.2332 -0.893128 14.4159C-1.07578 14.5985 -1.17841 14.8463 -1.17841 15.1046Z" fill="#50E6C9"/>
<path d="M47.2298 19.1327C47.2298 19.3253 47.2869 19.5136 47.3939 19.6738C47.501 19.8339 47.6531 19.9588 47.831 20.0325C48.009 20.1062 48.2048 20.1255 48.3938 20.0879C48.5827 20.0503 48.7563 19.9576 48.8925 19.8214C49.0287 19.6851 49.1214 19.5116 49.159 19.3227C49.1966 19.1337 49.1773 18.9379 49.1036 18.7599C49.0299 18.582 48.905 18.4299 48.7449 18.3228C48.5847 18.2158 48.3964 18.1587 48.2038 18.1587C48.0759 18.1587 47.9492 18.1839 47.831 18.2328C47.7129 18.2818 47.6055 18.3535 47.5151 18.444C47.4246 18.5344 47.3529 18.6418 47.3039 18.7599C47.255 18.8781 47.2298 19.0048 47.2298 19.1327Z" fill="#50E6C9"/>
<path d="M43.1946 19.1327C43.1946 19.3253 43.2518 19.5136 43.3588 19.6738C43.4658 19.8339 43.6179 19.9588 43.7959 20.0325C43.9739 20.1062 44.1697 20.1255 44.3586 20.0879C44.5476 20.0503 44.7211 19.9576 44.8573 19.8214C44.9935 19.6851 45.0863 19.5116 45.1239 19.3227C45.1614 19.1337 45.1422 18.9379 45.0684 18.7599C44.9947 18.582 44.8699 18.4299 44.7097 18.3228C44.5495 18.2158 44.3612 18.1587 44.1686 18.1587C43.9103 18.1587 43.6626 18.2613 43.4799 18.444C43.2973 18.6266 43.1946 18.8743 43.1946 19.1327Z" fill="#50E6C9"/>
<path d="M39.1673 19.1327C39.1673 19.3253 39.2244 19.5136 39.3314 19.6738C39.4385 19.8339 39.5906 19.9588 39.7686 20.0325C39.9465 20.1062 40.1423 20.1255 40.3313 20.0879C40.5202 20.0503 40.6938 19.9576 40.83 19.8214C40.9662 19.6851 41.0589 19.5116 41.0965 19.3227C41.1341 19.1337 41.1148 18.9379 41.0411 18.7599C40.9674 18.582 40.8425 18.4299 40.6824 18.3228C40.5222 18.2158 40.3339 18.1587 40.1413 18.1587C39.883 18.1587 39.6352 18.2613 39.4526 18.444C39.2699 18.6266 39.1673 18.8743 39.1673 19.1327Z" fill="#50E6C9"/>
<path d="M35.1302 19.1327C35.1302 19.3253 35.1873 19.5136 35.2943 19.6738C35.4014 19.8339 35.5535 19.9588 35.7314 20.0325C35.9094 20.1062 36.1052 20.1255 36.2942 20.0879C36.4831 20.0503 36.6566 19.9576 36.7929 19.8214C36.9291 19.6851 37.0218 19.5116 37.0594 19.3227C37.097 19.1337 37.0777 18.9379 37.004 18.7599C36.9303 18.582 36.8054 18.4299 36.6453 18.3228C36.4851 18.2158 36.2968 18.1587 36.1042 18.1587C35.8459 18.1587 35.5981 18.2613 35.4155 18.444C35.2328 18.6266 35.1302 18.8743 35.1302 19.1327Z" fill="#50E6C9"/>
<path d="M31.095 19.1327C31.095 19.3253 31.1522 19.5136 31.2592 19.6738C31.3662 19.8339 31.5183 19.9588 31.6963 20.0325C31.8743 20.1062 32.0701 20.1255 32.259 20.0879C32.4479 20.0503 32.6215 19.9576 32.7577 19.8214C32.8939 19.6851 32.9867 19.5116 33.0243 19.3227C33.0618 19.1337 33.0425 18.9379 32.9688 18.7599C32.8951 18.582 32.7703 18.4299 32.6101 18.3228C32.4499 18.2158 32.2616 18.1587 32.069 18.1587C31.8107 18.1587 31.563 18.2613 31.3803 18.444C31.1976 18.6266 31.095 18.8743 31.095 19.1327Z" fill="#50E6C9"/>
<path d="M27.0579 19.1327C27.0579 19.391 27.1605 19.6387 27.3432 19.8214C27.5258 20.004 27.7736 20.1066 28.0319 20.1066C28.2902 20.1066 28.5379 20.004 28.7206 19.8214C28.9032 19.6387 29.0059 19.391 29.0059 19.1327C29.0059 18.8743 28.9032 18.6266 28.7206 18.444C28.5379 18.2613 28.2902 18.1587 28.0319 18.1587C27.7736 18.1587 27.5258 18.2613 27.3432 18.444C27.1605 18.6266 27.0579 18.8743 27.0579 19.1327Z" fill="#50E6C9"/>
<path d="M23.0462 19.1327C23.0462 19.3253 23.1033 19.5136 23.2104 19.6738C23.3174 19.8339 23.4695 19.9588 23.6475 20.0325C23.8254 20.1062 24.0213 20.1255 24.2102 20.0879C24.3991 20.0503 24.5727 19.9576 24.7089 19.8214C24.8451 19.6851 24.9378 19.5116 24.9754 19.3227C25.013 19.1337 24.9937 18.9379 24.92 18.7599C24.8463 18.582 24.7214 18.4299 24.5613 18.3228C24.4011 18.2158 24.2128 18.1587 24.0202 18.1587C23.7619 18.1587 23.5141 18.2613 23.3315 18.444C23.1488 18.6266 23.0462 18.8743 23.0462 19.1327Z" fill="#50E6C9"/>
<path d="M18.9935 19.1327C18.9935 19.3253 19.0506 19.5136 19.1576 19.6738C19.2646 19.8339 19.4167 19.9588 19.5947 20.0325C19.7727 20.1062 19.9685 20.1255 20.1575 20.0879C20.3464 20.0503 20.5199 19.9576 20.6561 19.8214C20.7923 19.6851 20.8851 19.5116 20.9227 19.3227C20.9603 19.1337 20.941 18.9379 20.8673 18.7599C20.7936 18.582 20.6687 18.4299 20.5085 18.3228C20.3484 18.2158 20.1601 18.1587 19.9674 18.1587C19.8395 18.1587 19.7129 18.1839 19.5947 18.2328C19.4766 18.2818 19.3692 18.3535 19.2787 18.444C19.1883 18.5344 19.1166 18.6418 19.0676 18.7599C19.0187 18.8781 18.9935 19.0048 18.9935 19.1327Z" fill="#50E6C9"/>
<path d="M14.9583 19.1327C14.9583 19.3253 15.0154 19.5136 15.1225 19.6738C15.2295 19.8339 15.3816 19.9588 15.5596 20.0325C15.7375 20.1062 15.9334 20.1255 16.1223 20.0879C16.3112 20.0503 16.4848 19.9576 16.621 19.8214C16.7572 19.6851 16.85 19.5116 16.8875 19.3227C16.9251 19.1337 16.9058 18.9379 16.8321 18.7599C16.7584 18.582 16.6336 18.4299 16.4734 18.3228C16.3132 18.2158 16.1249 18.1587 15.9323 18.1587C15.674 18.1587 15.4262 18.2613 15.2436 18.444C15.0609 18.6266 14.9583 18.8743 14.9583 19.1327Z" fill="#50E6C9"/>
<path d="M10.929 19.1327C10.929 19.3253 10.9861 19.5136 11.0932 19.6738C11.2002 19.8339 11.3523 19.9588 11.5303 20.0325C11.7082 20.1062 11.9041 20.1255 12.093 20.0879C12.2819 20.0503 12.4555 19.9576 12.5917 19.8214C12.7279 19.6851 12.8207 19.5116 12.8582 19.3227C12.8958 19.1337 12.8765 18.9379 12.8028 18.7599C12.7291 18.582 12.6043 18.4299 12.4441 18.3228C12.2839 18.2158 12.0956 18.1587 11.903 18.1587C11.6447 18.1587 11.3969 18.2613 11.2143 18.444C11.0316 18.6266 10.929 18.8743 10.929 19.1327Z" fill="#50E6C9"/>
<path d="M6.89385 19.1327C6.89385 19.3253 6.95097 19.5136 7.05799 19.6738C7.16501 19.8339 7.31713 19.9588 7.4951 20.0325C7.67307 20.1062 7.86891 20.1255 8.05784 20.0879C8.24677 20.0503 8.42031 19.9576 8.55652 19.8214C8.69273 19.6851 8.7855 19.5116 8.82308 19.3227C8.86066 19.1337 8.84137 18.9379 8.76765 18.7599C8.69394 18.582 8.5691 18.4299 8.40894 18.3228C8.24877 18.2158 8.06046 18.1587 7.86782 18.1587C7.60951 18.1587 7.36178 18.2613 7.17913 18.444C6.99647 18.6266 6.89385 18.8743 6.89385 19.1327Z" fill="#50E6C9"/>
<path d="M2.8587 19.1327C2.8587 19.3253 2.91583 19.5136 3.02285 19.6738C3.12987 19.8339 3.28198 19.9588 3.45995 20.0325C3.63792 20.1062 3.83376 20.1255 4.02269 20.0879C4.21162 20.0503 4.38516 19.9576 4.52137 19.8214C4.65758 19.6851 4.75034 19.5116 4.78792 19.3227C4.8255 19.1337 4.80622 18.9379 4.73251 18.7599C4.65879 18.582 4.53396 18.4299 4.37379 18.3228C4.21362 18.2158 4.02531 18.1587 3.83268 18.1587C3.57436 18.1587 3.32664 18.2613 3.14398 18.444C2.96133 18.6266 2.8587 18.8743 2.8587 19.1327Z" fill="#50E6C9"/>
<path d="M-1.17819 19.1327C-1.19065 19.2675 -1.17483 19.4035 -1.13175 19.532C-1.08868 19.6604 -1.01928 19.7784 -0.928011 19.8785C-0.83674 19.9786 -0.725604 20.0585 -0.601686 20.1132C-0.477769 20.1679 -0.3438 20.1962 -0.208346 20.1962C-0.0728911 20.1962 0.0610776 20.1679 0.184995 20.1132C0.308912 20.0585 0.420062 19.9786 0.511332 19.8785C0.602603 19.7784 0.671986 19.6604 0.715062 19.532C0.758138 19.4035 0.773954 19.2675 0.761498 19.1327C0.761498 18.8743 0.658886 18.6266 0.476231 18.444C0.293577 18.2613 0.0458484 18.1587 -0.212464 18.1587C-0.470777 18.1587 -0.718518 18.2613 -0.901172 18.444C-1.08383 18.6266 -1.18644 18.8743 -1.18644 19.1327H-1.17819Z" fill="#50E6C9"/>
<path d="M47.2298 23.1688C47.2298 23.3614 47.2869 23.5497 47.3939 23.7099C47.501 23.8701 47.6531 23.9949 47.831 24.0686C48.009 24.1423 48.2048 24.1616 48.3938 24.124C48.5827 24.0865 48.7563 23.9937 48.8925 23.8575C49.0287 23.7213 49.1214 23.5477 49.159 23.3588C49.1966 23.1699 49.1773 22.974 49.1036 22.7961C49.0299 22.6181 48.905 22.466 48.7449 22.359C48.5847 22.2519 48.3964 22.1948 48.2038 22.1948C48.0759 22.1948 47.9492 22.22 47.831 22.269C47.7129 22.3179 47.6055 22.3897 47.5151 22.4801C47.4246 22.5705 47.3529 22.6779 47.3039 22.7961C47.255 22.9142 47.2298 23.0409 47.2298 23.1688Z" fill="#50E6C9"/>
<path d="M43.1946 23.1688C43.1946 23.3614 43.2518 23.5497 43.3588 23.7099C43.4658 23.8701 43.6179 23.9949 43.7959 24.0686C43.9739 24.1423 44.1697 24.1616 44.3586 24.124C44.5476 24.0865 44.7211 23.9937 44.8573 23.8575C44.9935 23.7213 45.0863 23.5477 45.1239 23.3588C45.1614 23.1699 45.1422 22.974 45.0684 22.7961C44.9947 22.6181 44.8699 22.466 44.7097 22.359C44.5495 22.2519 44.3612 22.1948 44.1686 22.1948C43.9103 22.1948 43.6626 22.2974 43.4799 22.4801C43.2973 22.6627 43.1946 22.9105 43.1946 23.1688Z" fill="#50E6C9"/>
<path d="M39.1673 23.1688C39.1673 23.3614 39.2244 23.5497 39.3314 23.7099C39.4385 23.8701 39.5906 23.9949 39.7686 24.0686C39.9465 24.1423 40.1423 24.1616 40.3313 24.124C40.5202 24.0865 40.6938 23.9937 40.83 23.8575C40.9662 23.7213 41.0589 23.5477 41.0965 23.3588C41.1341 23.1699 41.1148 22.974 41.0411 22.7961C40.9674 22.6181 40.8425 22.466 40.6824 22.359C40.5222 22.2519 40.3339 22.1948 40.1413 22.1948C39.883 22.1948 39.6352 22.2974 39.4526 22.4801C39.2699 22.6627 39.1673 22.9105 39.1673 23.1688Z" fill="#50E6C9"/>
<path d="M35.1302 23.1688C35.1302 23.3614 35.1873 23.5497 35.2943 23.7099C35.4014 23.8701 35.5535 23.9949 35.7314 24.0686C35.9094 24.1423 36.1052 24.1616 36.2942 24.124C36.4831 24.0865 36.6566 23.9937 36.7929 23.8575C36.9291 23.7213 37.0218 23.5477 37.0594 23.3588C37.097 23.1699 37.0777 22.974 37.004 22.7961C36.9303 22.6181 36.8054 22.466 36.6453 22.359C36.4851 22.2519 36.2968 22.1948 36.1042 22.1948C35.8459 22.1948 35.5981 22.2974 35.4155 22.4801C35.2328 22.6627 35.1302 22.9105 35.1302 23.1688Z" fill="#50E6C9"/>
<path d="M31.095 23.1688C31.095 23.3614 31.1522 23.5497 31.2592 23.7099C31.3662 23.8701 31.5183 23.9949 31.6963 24.0686C31.8743 24.1423 32.0701 24.1616 32.259 24.124C32.4479 24.0865 32.6215 23.9937 32.7577 23.8575C32.8939 23.7213 32.9867 23.5477 33.0243 23.3588C33.0618 23.1699 33.0425 22.974 32.9688 22.7961C32.8951 22.6181 32.7703 22.466 32.6101 22.359C32.4499 22.2519 32.2616 22.1948 32.069 22.1948C31.8107 22.1948 31.563 22.2974 31.3803 22.4801C31.1976 22.6627 31.095 22.9105 31.095 23.1688Z" fill="#50E6C9"/>
<path d="M27.0579 23.1686C27.058 23.3626 27.1161 23.5522 27.2246 23.713C27.3332 23.8738 27.4873 23.9985 27.6672 24.0712C27.8471 24.1438 28.0446 24.1611 28.2344 24.1207C28.4242 24.0804 28.5975 23.9843 28.7324 23.8448C28.8672 23.7053 28.9572 23.5286 28.991 23.3376C29.0248 23.1465 29.0007 22.9497 28.9219 22.7725C28.8431 22.5952 28.7131 22.4455 28.5487 22.3425C28.3842 22.2396 28.1928 22.1881 27.9989 22.1947C27.7463 22.2032 27.507 22.3096 27.3314 22.4913C27.1558 22.6731 27.0578 22.9159 27.0579 23.1686Z" fill="#50E6C9"/>
<path d="M23.0462 23.1688C23.0462 23.3614 23.1033 23.5497 23.2104 23.7099C23.3174 23.8701 23.4695 23.9949 23.6475 24.0686C23.8254 24.1423 24.0213 24.1616 24.2102 24.124C24.3991 24.0865 24.5727 23.9937 24.7089 23.8575C24.8451 23.7213 24.9378 23.5477 24.9754 23.3588C25.013 23.1699 24.9937 22.974 24.92 22.7961C24.8463 22.6181 24.7214 22.466 24.5613 22.359C24.4011 22.2519 24.2128 22.1948 24.0202 22.1948C23.7619 22.1948 23.5141 22.2974 23.3315 22.4801C23.1488 22.6627 23.0462 22.9105 23.0462 23.1688Z" fill="#50E6C9"/>
<path d="M18.9935 23.1688C18.9935 23.3614 19.0506 23.5497 19.1576 23.7099C19.2646 23.8701 19.4167 23.9949 19.5947 24.0686C19.7727 24.1423 19.9685 24.1616 20.1575 24.124C20.3464 24.0865 20.5199 23.9937 20.6561 23.8575C20.7923 23.7213 20.8851 23.5477 20.9227 23.3588C20.9603 23.1699 20.941 22.974 20.8673 22.7961C20.7936 22.6181 20.6687 22.466 20.5085 22.359C20.3484 22.2519 20.1601 22.1948 19.9674 22.1948C19.8395 22.1948 19.7129 22.22 19.5947 22.269C19.4766 22.3179 19.3692 22.3897 19.2787 22.4801C19.1883 22.5705 19.1166 22.6779 19.0676 22.7961C19.0187 22.9142 18.9935 23.0409 18.9935 23.1688Z" fill="#50E6C9"/>
<path d="M14.9583 23.1688C14.9583 23.3614 15.0154 23.5497 15.1225 23.7099C15.2295 23.8701 15.3816 23.9949 15.5596 24.0686C15.7375 24.1423 15.9334 24.1616 16.1223 24.124C16.3112 24.0865 16.4848 23.9937 16.621 23.8575C16.7572 23.7213 16.85 23.5477 16.8875 23.3588C16.9251 23.1699 16.9058 22.974 16.8321 22.7961C16.7584 22.6181 16.6336 22.466 16.4734 22.359C16.3132 22.2519 16.1249 22.1948 15.9323 22.1948C15.674 22.1948 15.4262 22.2974 15.2436 22.4801C15.0609 22.6627 14.9583 22.9105 14.9583 23.1688Z" fill="#50E6C9"/>
<path d="M10.929 23.1688C10.929 23.3614 10.9861 23.5497 11.0932 23.7099C11.2002 23.8701 11.3523 23.9949 11.5303 24.0686C11.7082 24.1423 11.9041 24.1616 12.093 24.124C12.2819 24.0865 12.4555 23.9937 12.5917 23.8575C12.7279 23.7213 12.8207 23.5477 12.8582 23.3588C12.8958 23.1699 12.8765 22.974 12.8028 22.7961C12.7291 22.6181 12.6043 22.466 12.4441 22.359C12.2839 22.2519 12.0956 22.1948 11.903 22.1948C11.6447 22.1948 11.3969 22.2974 11.2143 22.4801C11.0316 22.6627 10.929 22.9105 10.929 23.1688Z" fill="#50E6C9"/>
<path d="M6.89385 23.1688C6.89385 23.3614 6.95097 23.5497 7.05799 23.7099C7.16501 23.8701 7.31713 23.9949 7.4951 24.0686C7.67307 24.1423 7.86891 24.1616 8.05784 24.124C8.24677 24.0865 8.42031 23.9937 8.55652 23.8575C8.69273 23.7213 8.7855 23.5477 8.82308 23.3588C8.86066 23.1699 8.84137 22.974 8.76765 22.7961C8.69394 22.6181 8.5691 22.466 8.40894 22.359C8.24877 22.2519 8.06046 22.1948 7.86782 22.1948C7.60951 22.1948 7.36178 22.2974 7.17913 22.4801C6.99647 22.6627 6.89385 22.9105 6.89385 23.1688Z" fill="#50E6C9"/>
<path d="M2.8587 23.1688C2.8587 23.3614 2.91583 23.5497 3.02285 23.7099C3.12987 23.8701 3.28198 23.9949 3.45995 24.0686C3.63792 24.1423 3.83376 24.1616 4.02269 24.124C4.21162 24.0865 4.38516 23.9937 4.52137 23.8575C4.65758 23.7213 4.75034 23.5477 4.78792 23.3588C4.8255 23.1699 4.80622 22.974 4.73251 22.7961C4.65879 22.6181 4.53396 22.466 4.37379 22.359C4.21362 22.2519 4.02531 22.1948 3.83268 22.1948C3.57436 22.1948 3.32664 22.2974 3.14398 22.4801C2.96133 22.6627 2.8587 22.9105 2.8587 23.1688Z" fill="#50E6C9"/>
<path d="M-1.17841 23.1688C-1.17841 23.3614 -1.12128 23.5497 -1.01426 23.7099C-0.907241 23.8701 -0.755125 23.9949 -0.577156 24.0686C-0.399186 24.1423 -0.20335 24.1616 -0.0144185 24.124C0.174513 24.0865 0.348051 23.9937 0.484263 23.8575C0.620475 23.7213 0.713233 23.5477 0.750814 23.3588C0.788395 23.1699 0.769115 22.974 0.695398 22.7961C0.621681 22.6181 0.496848 22.466 0.33668 22.359C0.176512 22.2519 -0.0117998 22.1948 -0.204433 22.1948C-0.462745 22.1948 -0.710474 22.2974 -0.893128 22.4801C-1.07578 22.6627 -1.17841 22.9105 -1.17841 23.1688Z" fill="#50E6C9"/>
<path d="M47.2298 27.2049C47.2298 27.3976 47.2869 27.5859 47.3939 27.746C47.501 27.9062 47.6531 28.031 47.831 28.1048C48.009 28.1785 48.2048 28.1978 48.3938 28.1602C48.5827 28.1226 48.7563 28.0298 48.8925 27.8936C49.0287 27.7574 49.1214 27.5839 49.159 27.3949C49.1966 27.206 49.1773 27.0102 49.1036 26.8322C49.0299 26.6542 48.905 26.5021 48.7449 26.3951C48.5847 26.2881 48.3964 26.231 48.2038 26.231C48.0759 26.231 47.9492 26.2561 47.831 26.3051C47.7129 26.354 47.6055 26.4258 47.5151 26.5162C47.4246 26.6067 47.3529 26.714 47.3039 26.8322C47.255 26.9504 47.2298 27.077 47.2298 27.2049Z" fill="#50E6C9"/>
<path d="M43.1946 27.2049C43.1946 27.3976 43.2518 27.5859 43.3588 27.746C43.4658 27.9062 43.6179 28.031 43.7959 28.1048C43.9739 28.1785 44.1697 28.1978 44.3586 28.1602C44.5476 28.1226 44.7211 28.0298 44.8573 27.8936C44.9935 27.7574 45.0863 27.5839 45.1239 27.3949C45.1614 27.206 45.1422 27.0102 45.0684 26.8322C44.9947 26.6542 44.8699 26.5021 44.7097 26.3951C44.5495 26.2881 44.3612 26.231 44.1686 26.231C43.9103 26.231 43.6626 26.3336 43.4799 26.5162C43.2973 26.6989 43.1946 26.9466 43.1946 27.2049Z" fill="#50E6C9"/>
<path d="M39.1673 27.2049C39.1673 27.3976 39.2244 27.5859 39.3314 27.746C39.4385 27.9062 39.5906 28.031 39.7686 28.1048C39.9465 28.1785 40.1423 28.1978 40.3313 28.1602C40.5202 28.1226 40.6938 28.0298 40.83 27.8936C40.9662 27.7574 41.0589 27.5839 41.0965 27.3949C41.1341 27.206 41.1148 27.0102 41.0411 26.8322C40.9674 26.6542 40.8425 26.5021 40.6824 26.3951C40.5222 26.2881 40.3339 26.231 40.1413 26.231C39.883 26.231 39.6352 26.3336 39.4526 26.5162C39.2699 26.6989 39.1673 26.9466 39.1673 27.2049Z" fill="#50E6C9"/>
<path d="M35.1302 27.2049C35.1302 27.3976 35.1873 27.5859 35.2943 27.746C35.4014 27.9062 35.5535 28.031 35.7314 28.1048C35.9094 28.1785 36.1052 28.1978 36.2942 28.1602C36.4831 28.1226 36.6566 28.0298 36.7929 27.8936C36.9291 27.7574 37.0218 27.5839 37.0594 27.3949C37.097 27.206 37.0777 27.0102 37.004 26.8322C36.9303 26.6542 36.8054 26.5021 36.6453 26.3951C36.4851 26.2881 36.2968 26.231 36.1042 26.231C35.8459 26.231 35.5981 26.3336 35.4155 26.5162C35.2328 26.6989 35.1302 26.9466 35.1302 27.2049Z" fill="#50E6C9"/>
<path d="M31.095 27.2049C31.095 27.3976 31.1522 27.5859 31.2592 27.746C31.3662 27.9062 31.5183 28.031 31.6963 28.1048C31.8743 28.1785 32.0701 28.1978 32.259 28.1602C32.4479 28.1226 32.6215 28.0298 32.7577 27.8936C32.8939 27.7574 32.9867 27.5839 33.0243 27.3949C33.0618 27.206 33.0425 27.0102 32.9688 26.8322C32.8951 26.6542 32.7703 26.5021 32.6101 26.3951C32.4499 26.2881 32.2616 26.231 32.069 26.231C31.8107 26.231 31.563 26.3336 31.3803 26.5162C31.1976 26.6989 31.095 26.9466 31.095 27.2049Z" fill="#50E6C9"/>
<path d="M27.0579 27.205C27.058 27.399 27.1161 27.5886 27.2246 27.7494C27.3332 27.9102 27.4873 28.0349 27.6672 28.1076C27.8471 28.1802 28.0446 28.1975 28.2344 28.1571C28.4242 28.1168 28.5975 28.0207 28.7324 27.8812C28.8672 27.7416 28.9572 27.565 28.991 27.374C29.0248 27.1829 29.0007 26.9861 28.9219 26.8088C28.8431 26.6315 28.7131 26.4818 28.5487 26.3789C28.3842 26.2759 28.1928 26.2245 27.9989 26.231C27.7463 26.2396 27.507 26.346 27.3314 26.5277C27.1558 26.7094 27.0578 26.9523 27.0579 27.205Z" fill="#50E6C9"/>
<path d="M23.0462 27.2049C23.0462 27.3976 23.1033 27.5859 23.2104 27.746C23.3174 27.9062 23.4695 28.031 23.6475 28.1048C23.8254 28.1785 24.0213 28.1978 24.2102 28.1602C24.3991 28.1226 24.5727 28.0298 24.7089 27.8936C24.8451 27.7574 24.9378 27.5839 24.9754 27.3949C25.013 27.206 24.9937 27.0102 24.92 26.8322C24.8463 26.6542 24.7214 26.5021 24.5613 26.3951C24.4011 26.2881 24.2128 26.231 24.0202 26.231C23.7619 26.231 23.5141 26.3336 23.3315 26.5162C23.1488 26.6989 23.0462 26.9466 23.0462 27.2049Z" fill="#50E6C9"/>
<path d="M18.9935 27.2049C18.9935 27.3976 19.0506 27.5859 19.1576 27.746C19.2646 27.9062 19.4167 28.031 19.5947 28.1048C19.7727 28.1785 19.9685 28.1978 20.1575 28.1602C20.3464 28.1226 20.5199 28.0298 20.6561 27.8936C20.7923 27.7574 20.8851 27.5839 20.9227 27.3949C20.9603 27.206 20.941 27.0102 20.8673 26.8322C20.7936 26.6542 20.6687 26.5021 20.5085 26.3951C20.3484 26.2881 20.1601 26.231 19.9674 26.231C19.8395 26.231 19.7129 26.2561 19.5947 26.3051C19.4766 26.354 19.3692 26.4258 19.2787 26.5162C19.1883 26.6067 19.1166 26.714 19.0676 26.8322C19.0187 26.9504 18.9935 27.077 18.9935 27.2049Z" fill="#50E6C9"/>
<path d="M14.9583 27.2049C14.9583 27.3976 15.0154 27.5859 15.1225 27.746C15.2295 27.9062 15.3816 28.031 15.5596 28.1048C15.7375 28.1785 15.9334 28.1978 16.1223 28.1602C16.3112 28.1226 16.4848 28.0298 16.621 27.8936C16.7572 27.7574 16.85 27.5839 16.8875 27.3949C16.9251 27.206 16.9058 27.0102 16.8321 26.8322C16.7584 26.6542 16.6336 26.5021 16.4734 26.3951C16.3132 26.2881 16.1249 26.231 15.9323 26.231C15.674 26.231 15.4262 26.3336 15.2436 26.5162C15.0609 26.6989 14.9583 26.9466 14.9583 27.2049Z" fill="#50E6C9"/>
<path d="M10.929 27.2049C10.929 27.3976 10.9861 27.5859 11.0932 27.746C11.2002 27.9062 11.3523 28.031 11.5303 28.1048C11.7082 28.1785 11.9041 28.1978 12.093 28.1602C12.2819 28.1226 12.4555 28.0298 12.5917 27.8936C12.7279 27.7574 12.8207 27.5839 12.8582 27.3949C12.8958 27.206 12.8765 27.0102 12.8028 26.8322C12.7291 26.6542 12.6043 26.5021 12.4441 26.3951C12.2839 26.2881 12.0956 26.231 11.903 26.231C11.6447 26.231 11.3969 26.3336 11.2143 26.5162C11.0316 26.6989 10.929 26.9466 10.929 27.2049Z" fill="#50E6C9"/>
<path d="M6.89385 27.2049C6.89385 27.3976 6.95097 27.5859 7.05799 27.746C7.16501 27.9062 7.31713 28.031 7.4951 28.1048C7.67307 28.1785 7.86891 28.1978 8.05784 28.1602C8.24677 28.1226 8.42031 28.0298 8.55652 27.8936C8.69273 27.7574 8.7855 27.5839 8.82308 27.3949C8.86066 27.206 8.84137 27.0102 8.76765 26.8322C8.69394 26.6542 8.5691 26.5021 8.40894 26.3951C8.24877 26.2881 8.06046 26.231 7.86782 26.231C7.60951 26.231 7.36178 26.3336 7.17913 26.5162C6.99647 26.6989 6.89385 26.9466 6.89385 27.2049Z" fill="#50E6C9"/>
<path d="M2.8587 27.2049C2.8587 27.3976 2.91583 27.5859 3.02285 27.746C3.12987 27.9062 3.28198 28.031 3.45995 28.1048C3.63792 28.1785 3.83376 28.1978 4.02269 28.1602C4.21162 28.1226 4.38516 28.0298 4.52137 27.8936C4.65758 27.7574 4.75034 27.5839 4.78792 27.3949C4.8255 27.206 4.80622 27.0102 4.73251 26.8322C4.65879 26.6542 4.53396 26.5021 4.37379 26.3951C4.21362 26.2881 4.02531 26.231 3.83268 26.231C3.57436 26.231 3.32664 26.3336 3.14398 26.5162C2.96133 26.6989 2.8587 26.9466 2.8587 27.2049Z" fill="#50E6C9"/>
<path d="M-1.17841 27.2049C-1.17841 27.3976 -1.12128 27.5859 -1.01426 27.746C-0.907241 27.9062 -0.755125 28.031 -0.577156 28.1048C-0.399186 28.1785 -0.20335 28.1978 -0.0144185 28.1602C0.174513 28.1226 0.348051 28.0298 0.484263 27.8936C0.620475 27.7574 0.713233 27.5839 0.750814 27.3949C0.788395 27.206 0.769115 27.0102 0.695398 26.8322C0.621681 26.6542 0.496848 26.5021 0.33668 26.3951C0.176512 26.2881 -0.0117998 26.231 -0.204433 26.231C-0.462745 26.231 -0.710474 26.3336 -0.893128 26.5162C-1.07578 26.6989 -1.17841 26.9466 -1.17841 27.2049Z" fill="#50E6C9"/>
<path d="M47.2298 31.2413C47.2298 31.4339 47.2869 31.6222 47.3939 31.7824C47.501 31.9426 47.6531 32.0674 47.831 32.1411C48.009 32.2149 48.2048 32.2341 48.3938 32.1966C48.5827 32.159 48.7563 32.0662 48.8925 31.93C49.0287 31.7938 49.1214 31.6202 49.159 31.4313C49.1966 31.2424 49.1773 31.0466 49.1036 30.8686C49.0299 30.6906 48.905 30.5385 48.7449 30.4315C48.5847 30.3245 48.3964 30.2673 48.2038 30.2673C48.0759 30.2673 47.9492 30.2925 47.831 30.3415C47.7129 30.3904 47.6055 30.4622 47.5151 30.5526C47.4246 30.643 47.3529 30.7504 47.3039 30.8686C47.255 30.9868 47.2298 31.1134 47.2298 31.2413Z" fill="#50E6C9"/>
<path d="M43.1946 31.2413C43.1946 31.4339 43.2518 31.6222 43.3588 31.7824C43.4658 31.9426 43.6179 32.0674 43.7959 32.1411C43.9739 32.2149 44.1697 32.2341 44.3586 32.1966C44.5476 32.159 44.7211 32.0662 44.8573 31.93C44.9935 31.7938 45.0863 31.6202 45.1239 31.4313C45.1614 31.2424 45.1422 31.0466 45.0684 30.8686C44.9947 30.6906 44.8699 30.5385 44.7097 30.4315C44.5495 30.3245 44.3612 30.2673 44.1686 30.2673C43.9103 30.2673 43.6626 30.37 43.4799 30.5526C43.2973 30.7353 43.1946 30.983 43.1946 31.2413Z" fill="#50E6C9"/>
<path d="M39.1673 31.2413C39.1673 31.4339 39.2244 31.6222 39.3314 31.7824C39.4385 31.9426 39.5906 32.0674 39.7686 32.1411C39.9465 32.2149 40.1423 32.2341 40.3313 32.1966C40.5202 32.159 40.6938 32.0662 40.83 31.93C40.9662 31.7938 41.0589 31.6202 41.0965 31.4313C41.1341 31.2424 41.1148 31.0466 41.0411 30.8686C40.9674 30.6906 40.8425 30.5385 40.6824 30.4315C40.5222 30.3245 40.3339 30.2673 40.1413 30.2673C39.883 30.2673 39.6352 30.37 39.4526 30.5526C39.2699 30.7353 39.1673 30.983 39.1673 31.2413Z" fill="#50E6C9"/>
<path d="M35.1302 31.2413C35.1302 31.4339 35.1873 31.6222 35.2943 31.7824C35.4014 31.9426 35.5535 32.0674 35.7314 32.1411C35.9094 32.2149 36.1052 32.2341 36.2942 32.1966C36.4831 32.159 36.6566 32.0662 36.7929 31.93C36.9291 31.7938 37.0218 31.6202 37.0594 31.4313C37.097 31.2424 37.0777 31.0466 37.004 30.8686C36.9303 30.6906 36.8054 30.5385 36.6453 30.4315C36.4851 30.3245 36.2968 30.2673 36.1042 30.2673C35.8459 30.2673 35.5981 30.37 35.4155 30.5526C35.2328 30.7353 35.1302 30.983 35.1302 31.2413Z" fill="#50E6C9"/>
<path d="M31.095 31.2413C31.095 31.4339 31.1522 31.6222 31.2592 31.7824C31.3662 31.9426 31.5183 32.0674 31.6963 32.1411C31.8743 32.2149 32.0701 32.2341 32.259 32.1966C32.4479 32.159 32.6215 32.0662 32.7577 31.93C32.8939 31.7938 32.9867 31.6202 33.0243 31.4313C33.0618 31.2424 33.0425 31.0466 32.9688 30.8686C32.8951 30.6906 32.7703 30.5385 32.6101 30.4315C32.4499 30.3245 32.2616 30.2673 32.069 30.2673C31.8107 30.2673 31.563 30.37 31.3803 30.5526C31.1976 30.7353 31.095 30.983 31.095 31.2413Z" fill="#50E6C9"/>
<path d="M27.0579 31.2411C27.058 31.4351 27.1161 31.6247 27.2246 31.7855C27.3332 31.9463 27.4873 32.071 27.6672 32.1437C27.8471 32.2163 28.0446 32.2336 28.2344 32.1933C28.4242 32.1529 28.5975 32.0568 28.7324 31.9173C28.8672 31.7778 28.9572 31.6011 28.991 31.4101C29.0248 31.219 29.0007 31.0223 28.9219 30.845C28.8431 30.6677 28.7131 30.518 28.5487 30.415C28.3842 30.3121 28.1928 30.2606 27.9989 30.2672C27.7463 30.2757 27.507 30.3821 27.3314 30.5638C27.1558 30.7456 27.0578 30.9884 27.0579 31.2411Z" fill="#50E6C9"/>
<path d="M23.0462 31.2413C23.0462 31.4339 23.1033 31.6222 23.2104 31.7824C23.3174 31.9426 23.4695 32.0674 23.6475 32.1411C23.8254 32.2149 24.0213 32.2341 24.2102 32.1966C24.3991 32.159 24.5727 32.0662 24.7089 31.93C24.8451 31.7938 24.9378 31.6202 24.9754 31.4313C25.013 31.2424 24.9937 31.0466 24.92 30.8686C24.8463 30.6906 24.7214 30.5385 24.5613 30.4315C24.4011 30.3245 24.2128 30.2673 24.0202 30.2673C23.7619 30.2673 23.5141 30.37 23.3315 30.5526C23.1488 30.7353 23.0462 30.983 23.0462 31.2413Z" fill="#50E6C9"/>
<path d="M18.9935 31.2413C18.9935 31.4339 19.0506 31.6222 19.1576 31.7824C19.2646 31.9426 19.4167 32.0674 19.5947 32.1411C19.7727 32.2149 19.9685 32.2341 20.1575 32.1966C20.3464 32.159 20.5199 32.0662 20.6561 31.93C20.7923 31.7938 20.8851 31.6202 20.9227 31.4313C20.9603 31.2424 20.941 31.0466 20.8673 30.8686C20.7936 30.6906 20.6687 30.5385 20.5085 30.4315C20.3484 30.3245 20.1601 30.2673 19.9674 30.2673C19.8395 30.2673 19.7129 30.2925 19.5947 30.3415C19.4766 30.3904 19.3692 30.4622 19.2787 30.5526C19.1883 30.643 19.1166 30.7504 19.0676 30.8686C19.0187 30.9868 18.9935 31.1134 18.9935 31.2413Z" fill="#50E6C9"/>
<path d="M14.9583 31.2413C14.9583 31.4339 15.0154 31.6222 15.1225 31.7824C15.2295 31.9426 15.3816 32.0674 15.5596 32.1411C15.7375 32.2149 15.9334 32.2341 16.1223 32.1966C16.3112 32.159 16.4848 32.0662 16.621 31.93C16.7572 31.7938 16.85 31.6202 16.8875 31.4313C16.9251 31.2424 16.9058 31.0466 16.8321 30.8686C16.7584 30.6906 16.6336 30.5385 16.4734 30.4315C16.3132 30.3245 16.1249 30.2673 15.9323 30.2673C15.674 30.2673 15.4262 30.37 15.2436 30.5526C15.0609 30.7353 14.9583 30.983 14.9583 31.2413Z" fill="#50E6C9"/>
<path d="M10.929 31.2413C10.929 31.4339 10.9861 31.6222 11.0932 31.7824C11.2002 31.9426 11.3523 32.0674 11.5303 32.1411C11.7082 32.2149 11.9041 32.2341 12.093 32.1966C12.2819 32.159 12.4555 32.0662 12.5917 31.93C12.7279 31.7938 12.8207 31.6202 12.8582 31.4313C12.8958 31.2424 12.8765 31.0466 12.8028 30.8686C12.7291 30.6906 12.6043 30.5385 12.4441 30.4315C12.2839 30.3245 12.0956 30.2673 11.903 30.2673C11.6447 30.2673 11.3969 30.37 11.2143 30.5526C11.0316 30.7353 10.929 30.983 10.929 31.2413Z" fill="#50E6C9"/>
<path d="M6.89385 31.2413C6.89385 31.4339 6.95097 31.6222 7.05799 31.7824C7.16501 31.9426 7.31713 32.0674 7.4951 32.1411C7.67307 32.2149 7.86891 32.2341 8.05784 32.1966C8.24677 32.159 8.42031 32.0662 8.55652 31.93C8.69273 31.7938 8.7855 31.6202 8.82308 31.4313C8.86066 31.2424 8.84137 31.0466 8.76765 30.8686C8.69394 30.6906 8.5691 30.5385 8.40894 30.4315C8.24877 30.3245 8.06046 30.2673 7.86782 30.2673C7.60951 30.2673 7.36178 30.37 7.17913 30.5526C6.99647 30.7353 6.89385 30.983 6.89385 31.2413Z" fill="#50E6C9"/>
<path d="M2.8587 31.2413C2.8587 31.4339 2.91583 31.6222 3.02285 31.7824C3.12987 31.9426 3.28198 32.0674 3.45995 32.1411C3.63792 32.2149 3.83376 32.2341 4.02269 32.1966C4.21162 32.159 4.38516 32.0662 4.52137 31.93C4.65758 31.7938 4.75034 31.6202 4.78792 31.4313C4.8255 31.2424 4.80622 31.0466 4.73251 30.8686C4.65879 30.6906 4.53396 30.5385 4.37379 30.4315C4.21362 30.3245 4.02531 30.2673 3.83268 30.2673C3.57436 30.2673 3.32664 30.37 3.14398 30.5526C2.96133 30.7353 2.8587 30.983 2.8587 31.2413Z" fill="#50E6C9"/>
<path d="M-1.17841 31.2413C-1.17841 31.4339 -1.12128 31.6222 -1.01426 31.7824C-0.907241 31.9426 -0.755125 32.0674 -0.577156 32.1411C-0.399186 32.2149 -0.20335 32.2341 -0.0144185 32.1966C0.174513 32.159 0.348051 32.0662 0.484263 31.93C0.620475 31.7938 0.713233 31.6202 0.750814 31.4313C0.788395 31.2424 0.769115 31.0466 0.695398 30.8686C0.621681 30.6906 0.496848 30.5385 0.33668 30.4315C0.176512 30.3245 -0.0117998 30.2673 -0.204433 30.2673C-0.462745 30.2673 -0.710474 30.37 -0.893128 30.5526C-1.07578 30.7353 -1.17841 30.983 -1.17841 31.2413Z" fill="#50E6C9"/>
<path d="M47.2298 35.2691C47.2298 35.4618 47.2869 35.6501 47.3939 35.8102C47.501 35.9704 47.6531 36.0952 47.831 36.169C48.009 36.2427 48.2048 36.262 48.3938 36.2244C48.5827 36.1868 48.7563 36.094 48.8925 35.9578C49.0287 35.8216 49.1214 35.6481 49.159 35.4591C49.1966 35.2702 49.1773 35.0744 49.1036 34.8964C49.0299 34.7184 48.905 34.5663 48.7449 34.4593C48.5847 34.3523 48.3964 34.2952 48.2038 34.2952C48.0759 34.2952 47.9492 34.3204 47.831 34.3693C47.7129 34.4183 47.6055 34.49 47.5151 34.5804C47.4246 34.6709 47.3529 34.7782 47.3039 34.8964C47.255 35.0146 47.2298 35.1412 47.2298 35.2691Z" fill="#50E6C9"/>
<path d="M43.1946 35.2691C43.1946 35.4618 43.2518 35.6501 43.3588 35.8102C43.4658 35.9704 43.6179 36.0952 43.7959 36.169C43.9739 36.2427 44.1697 36.262 44.3586 36.2244C44.5476 36.1868 44.7211 36.094 44.8573 35.9578C44.9935 35.8216 45.0863 35.6481 45.1239 35.4591C45.1614 35.2702 45.1422 35.0744 45.0684 34.8964C44.9947 34.7184 44.8699 34.5663 44.7097 34.4593C44.5495 34.3523 44.3612 34.2952 44.1686 34.2952C43.9103 34.2952 43.6626 34.3978 43.4799 34.5804C43.2973 34.7631 43.1946 35.0108 43.1946 35.2691Z" fill="#50E6C9"/>
<path d="M39.1673 35.2689C39.1673 35.4616 39.2244 35.6499 39.3314 35.81C39.4385 35.9702 39.5906 36.095 39.7686 36.1688C39.9465 36.2425 40.1423 36.2618 40.3313 36.2242C40.5202 36.1866 40.6938 36.0938 40.83 35.9576C40.9662 35.8214 41.0589 35.6479 41.0965 35.4589C41.1341 35.27 41.1148 35.0742 41.0411 34.8962C40.9674 34.7182 40.8425 34.5661 40.6824 34.4591C40.5222 34.3521 40.3339 34.295 40.1413 34.295C40.0131 34.2939 39.8859 34.3183 39.7673 34.3669C39.6486 34.4154 39.5408 34.4871 39.4501 34.5778C39.3594 34.6684 39.2878 34.7762 39.2392 34.8949C39.1906 35.0136 39.1662 35.1407 39.1673 35.2689Z" fill="#50E6C9"/>
<path d="M35.1302 35.2691C35.1302 35.4618 35.1873 35.6501 35.2943 35.8102C35.4014 35.9704 35.5535 36.0952 35.7314 36.169C35.9094 36.2427 36.1052 36.262 36.2942 36.2244C36.4831 36.1868 36.6566 36.094 36.7929 35.9578C36.9291 35.8216 37.0218 35.6481 37.0594 35.4591C37.097 35.2702 37.0777 35.0744 37.004 34.8964C36.9303 34.7184 36.8054 34.5663 36.6453 34.4593C36.4851 34.3523 36.2968 34.2952 36.1042 34.2952C35.8459 34.2952 35.5981 34.3978 35.4155 34.5804C35.2328 34.7631 35.1302 35.0108 35.1302 35.2691Z" fill="#50E6C9"/>
<path d="M31.095 35.2691C31.095 35.4618 31.1522 35.6501 31.2592 35.8102C31.3662 35.9704 31.5183 36.0952 31.6963 36.169C31.8743 36.2427 32.0701 36.262 32.259 36.2244C32.4479 36.1868 32.6215 36.094 32.7577 35.9578C32.8939 35.8216 32.9867 35.6481 33.0243 35.4591C33.0618 35.2702 33.0425 35.0744 32.9688 34.8964C32.8951 34.7184 32.7703 34.5663 32.6101 34.4593C32.4499 34.3523 32.2616 34.2952 32.069 34.2952C31.8107 34.2952 31.563 34.3978 31.3803 34.5804C31.1976 34.7631 31.095 35.0108 31.095 35.2691Z" fill="#50E6C9"/>
<path d="M27.0579 35.2692C27.058 35.4632 27.1161 35.6528 27.2246 35.8136C27.3332 35.9744 27.4873 36.0991 27.6672 36.1718C27.8471 36.2444 28.0446 36.2617 28.2344 36.2213C28.4242 36.181 28.5975 36.0849 28.7324 35.9454C28.8672 35.8058 28.9572 35.6292 28.991 35.4382C29.0248 35.2471 29.0007 35.0503 28.9219 34.873C28.8431 34.6957 28.7131 34.546 28.5487 34.4431C28.3842 34.3401 28.1928 34.2887 27.9989 34.2952C27.7463 34.3038 27.507 34.4102 27.3314 34.5919C27.1558 34.7737 27.0578 35.0165 27.0579 35.2692Z" fill="#50E6C9"/>
<path d="M23.0462 35.2691C23.0462 35.4618 23.1033 35.6501 23.2104 35.8102C23.3174 35.9704 23.4695 36.0952 23.6475 36.169C23.8254 36.2427 24.0213 36.262 24.2102 36.2244C24.3991 36.1868 24.5727 36.094 24.7089 35.9578C24.8451 35.8216 24.9378 35.6481 24.9754 35.4591C25.013 35.2702 24.9937 35.0744 24.92 34.8964C24.8463 34.7184 24.7214 34.5663 24.5613 34.4593C24.4011 34.3523 24.2128 34.2952 24.0202 34.2952C23.7619 34.2952 23.5141 34.3978 23.3315 34.5804C23.1488 34.7631 23.0462 35.0108 23.0462 35.2691Z" fill="#50E6C9"/>
<path d="M18.9935 35.2691C18.9935 35.4618 19.0506 35.6501 19.1576 35.8102C19.2646 35.9704 19.4167 36.0952 19.5947 36.169C19.7727 36.2427 19.9685 36.262 20.1575 36.2244C20.3464 36.1868 20.5199 36.094 20.6561 35.9578C20.7923 35.8216 20.8851 35.6481 20.9227 35.4591C20.9603 35.2702 20.941 35.0744 20.8673 34.8964C20.7936 34.7184 20.6687 34.5663 20.5085 34.4593C20.3484 34.3523 20.1601 34.2952 19.9674 34.2952C19.8395 34.2952 19.7129 34.3204 19.5947 34.3693C19.4766 34.4183 19.3692 34.49 19.2787 34.5804C19.1883 34.6709 19.1166 34.7782 19.0676 34.8964C19.0187 35.0146 18.9935 35.1412 18.9935 35.2691Z" fill="#50E6C9"/>
<path d="M14.9583 35.2691C14.9583 35.4618 15.0154 35.6501 15.1225 35.8102C15.2295 35.9704 15.3816 36.0952 15.5596 36.169C15.7375 36.2427 15.9334 36.262 16.1223 36.2244C16.3112 36.1868 16.4848 36.094 16.621 35.9578C16.7572 35.8216 16.85 35.6481 16.8875 35.4591C16.9251 35.2702 16.9058 35.0744 16.8321 34.8964C16.7584 34.7184 16.6336 34.5663 16.4734 34.4593C16.3132 34.3523 16.1249 34.2952 15.9323 34.2952C15.674 34.2952 15.4262 34.3978 15.2436 34.5804C15.0609 34.7631 14.9583 35.0108 14.9583 35.2691Z" fill="#50E6C9"/>
<path d="M10.929 35.2691C10.929 35.5274 11.0316 35.7752 11.2143 35.9578C11.3969 36.1405 11.6447 36.2431 11.903 36.2431C12.1613 36.2431 12.409 36.1405 12.5917 35.9578C12.7743 35.7752 12.877 35.5274 12.877 35.2691C12.877 35.0108 12.7743 34.7631 12.5917 34.5804C12.409 34.3978 12.1613 34.2952 11.903 34.2952C11.6447 34.2952 11.3969 34.3978 11.2143 34.5804C11.0316 34.7631 10.929 35.0108 10.929 35.2691Z" fill="#50E6C9"/>
<path d="M6.89385 35.2691C6.89385 35.4618 6.95097 35.6501 7.05799 35.8102C7.16501 35.9704 7.31713 36.0952 7.4951 36.169C7.67307 36.2427 7.86891 36.262 8.05784 36.2244C8.24677 36.1868 8.42031 36.094 8.55652 35.9578C8.69273 35.8216 8.7855 35.6481 8.82308 35.4591C8.86066 35.2702 8.84137 35.0744 8.76765 34.8964C8.69394 34.7184 8.5691 34.5663 8.40894 34.4593C8.24877 34.3523 8.06046 34.2952 7.86782 34.2952C7.60951 34.2952 7.36178 34.3978 7.17913 34.5804C6.99647 34.7631 6.89385 35.0108 6.89385 35.2691Z" fill="#50E6C9"/>
<path d="M2.8587 35.2691C2.8587 35.4618 2.91583 35.6501 3.02285 35.8102C3.12987 35.9704 3.28198 36.0952 3.45995 36.169C3.63792 36.2427 3.83376 36.262 4.02269 36.2244C4.21162 36.1868 4.38516 36.094 4.52137 35.9578C4.65758 35.8216 4.75034 35.6481 4.78792 35.4591C4.8255 35.2702 4.80622 35.0744 4.73251 34.8964C4.65879 34.7184 4.53396 34.5663 4.37379 34.4593C4.21362 34.3523 4.02531 34.2952 3.83268 34.2952C3.57436 34.2952 3.32664 34.3978 3.14398 34.5804C2.96133 34.7631 2.8587 35.0108 2.8587 35.2691Z" fill="#50E6C9"/>
<path d="M-1.17841 35.2691C-1.17841 35.4618 -1.12128 35.6501 -1.01426 35.8102C-0.907241 35.9704 -0.755125 36.0952 -0.577156 36.169C-0.399186 36.2427 -0.20335 36.262 -0.0144185 36.2244C0.174513 36.1868 0.348051 36.094 0.484263 35.9578C0.620475 35.8216 0.713233 35.6481 0.750814 35.4591C0.788395 35.2702 0.769115 35.0744 0.695398 34.8964C0.621681 34.7184 0.496848 34.5663 0.33668 34.4593C0.176512 34.3523 -0.0117998 34.2952 -0.204433 34.2952C-0.462745 34.2952 -0.710474 34.3978 -0.893128 34.5804C-1.07578 34.7631 -1.17841 35.0108 -1.17841 35.2691Z" fill="#50E6C9"/>
<path d="M47.2298 39.3053C47.2298 39.4979 47.2869 39.6862 47.3939 39.8464C47.501 40.0065 47.6531 40.1314 47.831 40.2051C48.009 40.2788 48.2048 40.2981 48.3938 40.2605C48.5827 40.2229 48.7563 40.1302 48.8925 39.994C49.0287 39.8578 49.1214 39.6842 49.159 39.4953C49.1966 39.3063 49.1773 39.1105 49.1036 38.9325C49.0299 38.7546 48.905 38.6025 48.7449 38.4954C48.5847 38.3884 48.3964 38.3313 48.2038 38.3313C48.0759 38.3313 47.9492 38.3565 47.831 38.4054C47.7129 38.4544 47.6055 38.5261 47.5151 38.6166C47.4246 38.707 47.3529 38.8144 47.3039 38.9325C47.255 39.0507 47.2298 39.1774 47.2298 39.3053Z" fill="#50E6C9"/>
<path d="M43.1946 39.3053C43.1946 39.4979 43.2518 39.6862 43.3588 39.8464C43.4658 40.0065 43.6179 40.1314 43.7959 40.2051C43.9739 40.2788 44.1697 40.2981 44.3586 40.2605C44.5476 40.2229 44.7211 40.1302 44.8573 39.994C44.9935 39.8578 45.0863 39.6842 45.1239 39.4953C45.1614 39.3063 45.1422 39.1105 45.0684 38.9325C44.9947 38.7546 44.8699 38.6025 44.7097 38.4954C44.5495 38.3884 44.3612 38.3313 44.1686 38.3313C44.0407 38.3313 43.914 38.3565 43.7959 38.4054C43.6777 38.4544 43.5704 38.5261 43.4799 38.6166C43.3895 38.707 43.3177 38.8144 43.2688 38.9325C43.2198 39.0507 43.1946 39.1774 43.1946 39.3053Z" fill="#50E6C9"/>
<path d="M39.1673 39.3053C39.1673 39.4979 39.2244 39.6862 39.3314 39.8464C39.4385 40.0065 39.5906 40.1314 39.7686 40.2051C39.9465 40.2788 40.1423 40.2981 40.3313 40.2605C40.5202 40.2229 40.6938 40.1302 40.83 39.994C40.9662 39.8578 41.0589 39.6842 41.0965 39.4953C41.1341 39.3063 41.1148 39.1105 41.0411 38.9325C40.9674 38.7546 40.8425 38.6025 40.6824 38.4954C40.5222 38.3884 40.3339 38.3313 40.1413 38.3313C40.0134 38.3313 39.8867 38.3565 39.7686 38.4054C39.6504 38.4544 39.543 38.5261 39.4526 38.6166C39.3621 38.707 39.2904 38.8144 39.2414 38.9325C39.1925 39.0507 39.1673 39.1774 39.1673 39.3053Z" fill="#50E6C9"/>
<path d="M35.1302 39.3053C35.1302 39.4979 35.1873 39.6862 35.2943 39.8464C35.4014 40.0065 35.5535 40.1314 35.7314 40.2051C35.9094 40.2788 36.1052 40.2981 36.2942 40.2605C36.4831 40.2229 36.6566 40.1302 36.7929 39.994C36.9291 39.8578 37.0218 39.6842 37.0594 39.4953C37.097 39.3063 37.0777 39.1105 37.004 38.9325C36.9303 38.7546 36.8054 38.6025 36.6453 38.4954C36.4851 38.3884 36.2968 38.3313 36.1042 38.3313C35.9763 38.3313 35.8496 38.3565 35.7314 38.4054C35.6133 38.4544 35.5059 38.5261 35.4155 38.6166C35.325 38.707 35.2533 38.8144 35.2043 38.9325C35.1554 39.0507 35.1302 39.1774 35.1302 39.3053Z" fill="#50E6C9"/>
<path d="M31.095 39.3053C31.095 39.4979 31.1522 39.6862 31.2592 39.8464C31.3662 40.0065 31.5183 40.1314 31.6963 40.2051C31.8743 40.2788 32.0701 40.2981 32.259 40.2605C32.4479 40.2229 32.6215 40.1302 32.7577 39.994C32.8939 39.8578 32.9867 39.6842 33.0243 39.4953C33.0618 39.3063 33.0425 39.1105 32.9688 38.9325C32.8951 38.7546 32.7703 38.6025 32.6101 38.4954C32.4499 38.3884 32.2616 38.3313 32.069 38.3313C31.9411 38.3313 31.8145 38.3565 31.6963 38.4054C31.5781 38.4544 31.4707 38.5261 31.3803 38.6166C31.2899 38.707 31.2181 38.8144 31.1692 38.9325C31.1202 39.0507 31.095 39.1774 31.095 39.3053Z" fill="#50E6C9"/>
<path d="M27.0579 39.3053C27.058 39.4994 27.1161 39.6889 27.2246 39.8497C27.3332 40.0105 27.4873 40.1352 27.6672 40.2079C27.8471 40.2805 28.0446 40.2978 28.2344 40.2575C28.4242 40.2171 28.5975 40.121 28.7324 39.9815C28.8672 39.842 28.9572 39.6654 28.991 39.4743C29.0248 39.2832 29.0007 39.0865 28.9219 38.9092C28.8431 38.7319 28.7131 38.5822 28.5487 38.4792C28.3842 38.3763 28.1928 38.3248 27.9989 38.3314C27.7463 38.3399 27.507 38.4463 27.3314 38.6281C27.1558 38.8098 27.0578 39.0526 27.0579 39.3053Z" fill="#50E6C9"/>
<path d="M23.0462 39.3053C23.0462 39.4979 23.1033 39.6862 23.2104 39.8464C23.3174 40.0065 23.4695 40.1314 23.6475 40.2051C23.8254 40.2788 24.0213 40.2981 24.2102 40.2605C24.3991 40.2229 24.5727 40.1302 24.7089 39.994C24.8451 39.8578 24.9378 39.6842 24.9754 39.4953C25.013 39.3063 24.9937 39.1105 24.92 38.9325C24.8463 38.7546 24.7214 38.6025 24.5613 38.4954C24.4011 38.3884 24.2128 38.3313 24.0202 38.3313C23.8923 38.3313 23.7656 38.3565 23.6475 38.4054C23.5293 38.4544 23.4219 38.5261 23.3315 38.6166C23.241 38.707 23.1693 38.8144 23.1203 38.9325C23.0714 39.0507 23.0462 39.1774 23.0462 39.3053Z" fill="#50E6C9"/>
<path d="M18.9935 39.3053C18.9935 39.4979 19.0506 39.6862 19.1576 39.8464C19.2646 40.0065 19.4167 40.1314 19.5947 40.2051C19.7727 40.2788 19.9685 40.2981 20.1575 40.2605C20.3464 40.2229 20.5199 40.1302 20.6561 39.994C20.7923 39.8578 20.8851 39.6842 20.9227 39.4953C20.9603 39.3063 20.941 39.1105 20.8673 38.9325C20.7936 38.7546 20.6687 38.6025 20.5085 38.4954C20.3484 38.3884 20.1601 38.3313 19.9674 38.3313C19.8395 38.3313 19.7129 38.3565 19.5947 38.4054C19.4766 38.4544 19.3692 38.5261 19.2787 38.6166C19.1883 38.707 19.1166 38.8144 19.0676 38.9325C19.0187 39.0507 18.9935 39.1774 18.9935 39.3053Z" fill="#50E6C9"/>
<path d="M14.9583 39.3053C14.9583 39.4979 15.0154 39.6862 15.1225 39.8464C15.2295 40.0065 15.3816 40.1314 15.5596 40.2051C15.7375 40.2788 15.9334 40.2981 16.1223 40.2605C16.3112 40.2229 16.4848 40.1302 16.621 39.994C16.7572 39.8578 16.85 39.6842 16.8875 39.4953C16.9251 39.3063 16.9058 39.1105 16.8321 38.9325C16.7584 38.7546 16.6336 38.6025 16.4734 38.4954C16.3132 38.3884 16.1249 38.3313 15.9323 38.3313C15.8044 38.3313 15.6777 38.3565 15.5596 38.4054C15.4414 38.4544 15.334 38.5261 15.2436 38.6166C15.1531 38.707 15.0814 38.8144 15.0325 38.9325C14.9835 39.0507 14.9583 39.1774 14.9583 39.3053Z" fill="#50E6C9"/>
<path d="M10.929 39.3053C10.929 39.4979 10.9861 39.6862 11.0932 39.8464C11.2002 40.0065 11.3523 40.1314 11.5303 40.2051C11.7082 40.2788 11.9041 40.2981 12.093 40.2605C12.2819 40.2229 12.4555 40.1302 12.5917 39.994C12.7279 39.8578 12.8207 39.6842 12.8582 39.4953C12.8958 39.3063 12.8765 39.1105 12.8028 38.9325C12.7291 38.7546 12.6043 38.6025 12.4441 38.4954C12.2839 38.3884 12.0956 38.3313 11.903 38.3313C11.7751 38.3313 11.6484 38.3565 11.5303 38.4054C11.4121 38.4544 11.3047 38.5261 11.2143 38.6166C11.1238 38.707 11.0521 38.8144 11.0031 38.9325C10.9542 39.0507 10.929 39.1774 10.929 39.3053Z" fill="#50E6C9"/>
<path d="M6.89385 39.3053C6.89385 39.4979 6.95097 39.6862 7.05799 39.8464C7.16501 40.0065 7.31713 40.1314 7.4951 40.2051C7.67307 40.2788 7.86891 40.2981 8.05784 40.2605C8.24677 40.2229 8.42031 40.1302 8.55652 39.994C8.69273 39.8578 8.7855 39.6842 8.82308 39.4953C8.86066 39.3063 8.84137 39.1105 8.76765 38.9325C8.69394 38.7546 8.5691 38.6025 8.40894 38.4954C8.24877 38.3884 8.06046 38.3313 7.86782 38.3313C7.73992 38.3313 7.61327 38.3565 7.4951 38.4054C7.37693 38.4544 7.26957 38.5261 7.17913 38.6166C7.08869 38.707 7.01694 38.8144 6.96799 38.9325C6.91905 39.0507 6.89385 39.1774 6.89385 39.3053Z" fill="#50E6C9"/>
<path d="M2.8587 39.3053C2.8587 39.4979 2.91583 39.6862 3.02285 39.8464C3.12987 40.0065 3.28198 40.1314 3.45995 40.2051C3.63792 40.2788 3.83376 40.2981 4.02269 40.2605C4.21162 40.2229 4.38516 40.1302 4.52137 39.994C4.65758 39.8578 4.75034 39.6842 4.78792 39.4953C4.8255 39.3063 4.80622 39.1105 4.73251 38.9325C4.65879 38.7546 4.53396 38.6025 4.37379 38.4954C4.21362 38.3884 4.02531 38.3313 3.83268 38.3313C3.70477 38.3313 3.57812 38.3565 3.45995 38.4054C3.34179 38.4544 3.23442 38.5261 3.14398 38.6166C3.05354 38.707 2.98179 38.8144 2.93285 38.9325C2.8839 39.0507 2.8587 39.1774 2.8587 39.3053Z" fill="#50E6C9"/>
<path d="M-1.17841 39.3053C-1.17841 39.4979 -1.12128 39.6862 -1.01426 39.8464C-0.907241 40.0065 -0.755125 40.1314 -0.577156 40.2051C-0.399186 40.2788 -0.20335 40.2981 -0.0144185 40.2605C0.174513 40.2229 0.348051 40.1302 0.484263 39.994C0.620475 39.8578 0.713233 39.6842 0.750814 39.4953C0.788395 39.3063 0.769115 39.1105 0.695398 38.9325C0.621681 38.7546 0.496848 38.6025 0.33668 38.4954C0.176512 38.3884 -0.0117998 38.3313 -0.204433 38.3313C-0.332336 38.3313 -0.458989 38.3565 -0.577156 38.4054C-0.695323 38.4544 -0.802687 38.5261 -0.893128 38.6166C-0.983569 38.707 -1.05532 38.8144 -1.10426 38.9325C-1.15321 39.0507 -1.17841 39.1774 -1.17841 39.3053Z" fill="#50E6C9"/>
<path d="M47.2298 43.3414C47.2298 43.534 47.2869 43.7223 47.3939 43.8825C47.501 44.0427 47.6531 44.1675 47.831 44.2412C48.009 44.3149 48.2048 44.3342 48.3938 44.2967C48.5827 44.2591 48.7563 44.1663 48.8925 44.0301C49.0287 43.8939 49.1214 43.7203 49.159 43.5314C49.1966 43.3425 49.1773 43.1466 49.1036 42.9687C49.0299 42.7907 48.905 42.6386 48.7449 42.5316C48.5847 42.4246 48.3964 42.3674 48.2038 42.3674C48.0759 42.3674 47.9492 42.3926 47.831 42.4416C47.7129 42.4905 47.6055 42.5623 47.5151 42.6527C47.4246 42.7431 47.3529 42.8505 47.3039 42.9687C47.255 43.0868 47.2298 43.2135 47.2298 43.3414Z" fill="#50E6C9"/>
<path d="M43.1946 43.3414C43.1946 43.534 43.2518 43.7223 43.3588 43.8825C43.4658 44.0427 43.6179 44.1675 43.7959 44.2412C43.9739 44.3149 44.1697 44.3342 44.3586 44.2967C44.5476 44.2591 44.7211 44.1663 44.8573 44.0301C44.9935 43.8939 45.0863 43.7203 45.1239 43.5314C45.1614 43.3425 45.1422 43.1466 45.0684 42.9687C44.9947 42.7907 44.8699 42.6386 44.7097 42.5316C44.5495 42.4246 44.3612 42.3674 44.1686 42.3674C43.9103 42.3674 43.6626 42.47 43.4799 42.6527C43.2973 42.8354 43.1946 43.0831 43.1946 43.3414Z" fill="#50E6C9"/>
<path d="M39.1673 43.3414C39.1673 43.534 39.2244 43.7223 39.3314 43.8825C39.4385 44.0427 39.5906 44.1675 39.7686 44.2412C39.9465 44.3149 40.1423 44.3342 40.3313 44.2967C40.5202 44.2591 40.6938 44.1663 40.83 44.0301C40.9662 43.8939 41.0589 43.7203 41.0965 43.5314C41.1341 43.3425 41.1148 43.1466 41.0411 42.9687C40.9674 42.7907 40.8425 42.6386 40.6824 42.5316C40.5222 42.4246 40.3339 42.3674 40.1413 42.3674C39.883 42.3674 39.6352 42.47 39.4526 42.6527C39.2699 42.8354 39.1673 43.0831 39.1673 43.3414Z" fill="#50E6C9"/>
<path d="M35.1302 43.3414C35.1302 43.534 35.1873 43.7223 35.2943 43.8825C35.4014 44.0427 35.5535 44.1675 35.7314 44.2412C35.9094 44.3149 36.1052 44.3342 36.2942 44.2967C36.4831 44.2591 36.6566 44.1663 36.7929 44.0301C36.9291 43.8939 37.0218 43.7203 37.0594 43.5314C37.097 43.3425 37.0777 43.1466 37.004 42.9687C36.9303 42.7907 36.8054 42.6386 36.6453 42.5316C36.4851 42.4246 36.2968 42.3674 36.1042 42.3674C35.8459 42.3674 35.5981 42.47 35.4155 42.6527C35.2328 42.8354 35.1302 43.0831 35.1302 43.3414Z" fill="#50E6C9"/>
<path d="M31.095 43.3414C31.095 43.534 31.1522 43.7223 31.2592 43.8825C31.3662 44.0427 31.5183 44.1675 31.6963 44.2412C31.8743 44.3149 32.0701 44.3342 32.259 44.2967C32.4479 44.2591 32.6215 44.1663 32.7577 44.0301C32.8939 43.8939 32.9867 43.7203 33.0243 43.5314C33.0618 43.3425 33.0425 43.1466 32.9688 42.9687C32.8951 42.7907 32.7703 42.6386 32.6101 42.5316C32.4499 42.4246 32.2616 42.3674 32.069 42.3674C31.8107 42.3674 31.563 42.47 31.3803 42.6527C31.1976 42.8354 31.095 43.0831 31.095 43.3414Z" fill="#50E6C9"/>
<path d="M27.0579 43.3415C27.058 43.5355 27.1161 43.725 27.2246 43.8859C27.3332 44.0467 27.4873 44.1714 27.6672 44.244C27.8471 44.3167 28.0446 44.3339 28.2344 44.2936C28.4242 44.2533 28.5975 44.1572 28.7324 44.0176C28.8672 43.8781 28.9572 43.7015 28.991 43.5104C29.0248 43.3194 29.0007 43.1226 28.9219 42.9453C28.8431 42.768 28.7131 42.6183 28.5487 42.5154C28.3842 42.4124 28.1928 42.3609 27.9989 42.3675C27.7463 42.3761 27.507 42.4825 27.3314 42.6642C27.1558 42.8459 27.0578 43.0888 27.0579 43.3415Z" fill="#50E6C9"/>
<path d="M23.0462 43.3414C23.0462 43.534 23.1033 43.7223 23.2104 43.8825C23.3174 44.0427 23.4695 44.1675 23.6475 44.2412C23.8254 44.3149 24.0213 44.3342 24.2102 44.2967C24.3991 44.2591 24.5727 44.1663 24.7089 44.0301C24.8451 43.8939 24.9378 43.7203 24.9754 43.5314C25.013 43.3425 24.9937 43.1466 24.92 42.9687C24.8463 42.7907 24.7214 42.6386 24.5613 42.5316C24.4011 42.4246 24.2128 42.3674 24.0202 42.3674C23.7619 42.3674 23.5141 42.47 23.3315 42.6527C23.1488 42.8354 23.0462 43.0831 23.0462 43.3414Z" fill="#50E6C9"/>
<path d="M18.9935 43.3414C18.9935 43.534 19.0506 43.7223 19.1576 43.8825C19.2646 44.0427 19.4167 44.1675 19.5947 44.2412C19.7727 44.3149 19.9685 44.3342 20.1575 44.2967C20.3464 44.2591 20.5199 44.1663 20.6561 44.0301C20.7923 43.8939 20.8851 43.7203 20.9227 43.5314C20.9603 43.3425 20.941 43.1466 20.8673 42.9687C20.7936 42.7907 20.6687 42.6386 20.5085 42.5316C20.3484 42.4246 20.1601 42.3674 19.9674 42.3674C19.8395 42.3674 19.7129 42.3926 19.5947 42.4416C19.4766 42.4905 19.3692 42.5623 19.2787 42.6527C19.1883 42.7431 19.1166 42.8505 19.0676 42.9687C19.0187 43.0868 18.9935 43.2135 18.9935 43.3414Z" fill="#50E6C9"/>
<path d="M14.9583 43.3414C14.9583 43.534 15.0154 43.7223 15.1225 43.8825C15.2295 44.0427 15.3816 44.1675 15.5596 44.2412C15.7375 44.3149 15.9334 44.3342 16.1223 44.2967C16.3112 44.2591 16.4848 44.1663 16.621 44.0301C16.7572 43.8939 16.85 43.7203 16.8875 43.5314C16.9251 43.3425 16.9058 43.1466 16.8321 42.9687C16.7584 42.7907 16.6336 42.6386 16.4734 42.5316C16.3132 42.4246 16.1249 42.3674 15.9323 42.3674C15.674 42.3674 15.4262 42.47 15.2436 42.6527C15.0609 42.8354 14.9583 43.0831 14.9583 43.3414Z" fill="#50E6C9"/>
<path d="M10.929 43.3414C10.929 43.534 10.9861 43.7223 11.0932 43.8825C11.2002 44.0427 11.3523 44.1675 11.5303 44.2412C11.7082 44.3149 11.9041 44.3342 12.093 44.2967C12.2819 44.2591 12.4555 44.1663 12.5917 44.0301C12.7279 43.8939 12.8207 43.7203 12.8582 43.5314C12.8958 43.3425 12.8765 43.1466 12.8028 42.9687C12.7291 42.7907 12.6043 42.6386 12.4441 42.5316C12.2839 42.4246 12.0956 42.3674 11.903 42.3674C11.6447 42.3674 11.3969 42.47 11.2143 42.6527C11.0316 42.8354 10.929 43.0831 10.929 43.3414Z" fill="#50E6C9"/>
<path d="M6.89385 43.3414C6.89385 43.534 6.95097 43.7223 7.05799 43.8825C7.16501 44.0427 7.31713 44.1675 7.4951 44.2412C7.67307 44.3149 7.86891 44.3342 8.05784 44.2967C8.24677 44.2591 8.42031 44.1663 8.55652 44.0301C8.69273 43.8939 8.7855 43.7203 8.82308 43.5314C8.86066 43.3425 8.84137 43.1466 8.76765 42.9687C8.69394 42.7907 8.5691 42.6386 8.40894 42.5316C8.24877 42.4246 8.06046 42.3674 7.86782 42.3674C7.60951 42.3674 7.36178 42.47 7.17913 42.6527C6.99647 42.8354 6.89385 43.0831 6.89385 43.3414Z" fill="#50E6C9"/>
<path d="M2.8587 43.3414C2.8587 43.534 2.91583 43.7223 3.02285 43.8825C3.12987 44.0427 3.28198 44.1675 3.45995 44.2412C3.63792 44.3149 3.83376 44.3342 4.02269 44.2967C4.21162 44.2591 4.38516 44.1663 4.52137 44.0301C4.65758 43.8939 4.75034 43.7203 4.78792 43.5314C4.8255 43.3425 4.80622 43.1466 4.73251 42.9687C4.65879 42.7907 4.53396 42.6386 4.37379 42.5316C4.21362 42.4246 4.02531 42.3674 3.83268 42.3674C3.57436 42.3674 3.32664 42.47 3.14398 42.6527C2.96133 42.8354 2.8587 43.0831 2.8587 43.3414Z" fill="#50E6C9"/>
<path d="M-1.17841 43.3414C-1.17841 43.534 -1.12128 43.7223 -1.01426 43.8825C-0.907241 44.0427 -0.755125 44.1675 -0.577156 44.2412C-0.399186 44.3149 -0.20335 44.3342 -0.0144185 44.2967C0.174513 44.2591 0.348051 44.1663 0.484263 44.0301C0.620475 43.8939 0.713233 43.7203 0.750814 43.5314C0.788395 43.3425 0.769115 43.1466 0.695398 42.9687C0.621681 42.7907 0.496848 42.6386 0.33668 42.5316C0.176512 42.4246 -0.0117998 42.3674 -0.204433 42.3674C-0.462745 42.3674 -0.710474 42.47 -0.893128 42.6527C-1.07578 42.8354 -1.17841 43.0831 -1.17841 43.3414Z" fill="#50E6C9"/>
<path d="M47.2304 47.3776C47.2368 47.5687 47.2994 47.7536 47.4103 47.9094C47.5212 48.0652 47.6755 48.1849 47.8539 48.2535C48.0324 48.3222 48.2271 48.3369 48.4138 48.2956C48.6005 48.2544 48.7709 48.1591 48.9038 48.0217C49.0368 47.8843 49.1263 47.7107 49.1613 47.5228C49.1963 47.3348 49.1752 47.1407 49.1006 46.9646C49.026 46.7886 48.9012 46.6384 48.7418 46.5327C48.5825 46.4271 48.3955 46.3707 48.2043 46.3706C48.0736 46.3705 47.9442 46.3968 47.8238 46.4478C47.7034 46.4988 47.5946 46.5735 47.5037 46.6674C47.4128 46.7614 47.3418 46.8727 47.2948 46.9947C47.2478 47.1167 47.2259 47.2469 47.2304 47.3776Z" fill="#50E6C9"/>
<path d="M43.1952 47.3776C43.2017 47.5687 43.2643 47.7536 43.3752 47.9094C43.486 48.0652 43.6403 48.1849 43.8188 48.2535C43.9972 48.3222 44.1919 48.3369 44.3786 48.2956C44.5653 48.2544 44.7358 48.1591 44.8687 48.0217C45.0016 47.8843 45.0912 47.7107 45.1261 47.5228C45.1611 47.3348 45.14 47.1407 45.0654 46.9646C44.9908 46.7886 44.8661 46.6384 44.7067 46.5327C44.5473 46.4271 44.3604 46.3707 44.1692 46.3706C44.0384 46.3705 43.909 46.3968 43.7887 46.4478C43.6683 46.4988 43.5594 46.5735 43.4685 46.6674C43.3776 46.7614 43.3066 46.8727 43.2597 46.9947C43.2127 47.1167 43.1908 47.2469 43.1952 47.3776Z" fill="#50E6C9"/>
<path d="M39.1679 47.3776C39.1743 47.5687 39.2369 47.7536 39.3478 47.9094C39.4587 48.0652 39.613 48.1849 39.7914 48.2535C39.9699 48.3222 40.1646 48.3369 40.3513 48.2956C40.538 48.2544 40.7084 48.1591 40.8413 48.0217C40.9743 47.8843 41.0638 47.7107 41.0988 47.5228C41.1338 47.3348 41.1127 47.1407 41.0381 46.9646C40.9635 46.7886 40.8387 46.6384 40.6793 46.5327C40.52 46.4271 40.333 46.3707 40.1418 46.3706C40.0111 46.3705 39.8817 46.3968 39.7613 46.4478C39.6409 46.4988 39.5321 46.5735 39.4412 46.6674C39.3503 46.7614 39.2793 46.8727 39.2323 46.9947C39.1853 47.1167 39.1634 47.2469 39.1679 47.3776Z" fill="#50E6C9"/>
<path d="M35.1307 47.3776C35.1372 47.5687 35.1998 47.7536 35.3107 47.9094C35.4216 48.0652 35.5759 48.1849 35.7543 48.2535C35.9327 48.3222 36.1275 48.3369 36.3142 48.2956C36.5009 48.2544 36.6713 48.1591 36.8042 48.0217C36.9372 47.8843 37.0267 47.7107 37.0617 47.5228C37.0967 47.3348 37.0756 47.1407 37.001 46.9646C36.9264 46.7886 36.8016 46.6384 36.6422 46.5327C36.4829 46.4271 36.2959 46.3707 36.1047 46.3706C35.974 46.3705 35.8446 46.3968 35.7242 46.4478C35.6038 46.4988 35.495 46.5735 35.4041 46.6674C35.3132 46.7614 35.2422 46.8727 35.1952 46.9947C35.1482 47.1167 35.1263 47.2469 35.1307 47.3776Z" fill="#50E6C9"/>
<path d="M31.0936 47.3776C31.1001 47.5687 31.1627 47.7536 31.2736 47.9094C31.3845 48.0652 31.5388 48.1849 31.7172 48.2535C31.8956 48.3222 32.0903 48.3369 32.277 48.2956C32.4638 48.2544 32.6342 48.1591 32.7671 48.0217C32.9001 47.8843 32.9896 47.7107 33.0246 47.5228C33.0596 47.3348 33.0384 47.1407 32.9639 46.9646C32.8893 46.7886 32.7645 46.6384 32.6051 46.5327C32.4457 46.4271 32.2588 46.3707 32.0676 46.3706C31.9369 46.3705 31.8075 46.3968 31.6871 46.4478C31.5667 46.4988 31.4579 46.5735 31.367 46.6674C31.2761 46.7614 31.205 46.8727 31.1581 46.9947C31.1111 47.1167 31.0892 47.2469 31.0936 47.3776Z" fill="#50E6C9"/>
<path d="M27.0579 47.3775C27.0579 47.6358 27.1605 47.8836 27.3432 48.0662C27.5258 48.2489 27.7736 48.3515 28.0319 48.3515C28.2902 48.3515 28.5379 48.2489 28.7206 48.0662C28.9032 47.8836 29.0059 47.6358 29.0059 47.3775C29.0059 47.1192 28.9032 46.8715 28.7206 46.6888C28.5379 46.5062 28.2902 46.4036 28.0319 46.4036C27.7736 46.4036 27.5258 46.5062 27.3432 46.6888C27.1605 46.8715 27.0579 47.1192 27.0579 47.3775Z" fill="#50E6C9"/>
<path d="M23.0468 47.3777C23.0533 47.5695 23.1163 47.7551 23.228 47.9112C23.3396 48.0673 23.4949 48.1869 23.6743 48.255C23.8537 48.3232 24.0492 48.3368 24.2363 48.2943C24.4234 48.2517 24.5938 48.1548 24.726 48.0157C24.8582 47.8766 24.9464 47.7016 24.9795 47.5126C25.0126 47.3235 24.9892 47.129 24.9121 46.9532C24.835 46.7775 24.7077 46.6285 24.5461 46.5248C24.3846 46.4212 24.1961 46.3676 24.0042 46.3707C23.8749 46.3729 23.7473 46.4007 23.6288 46.4527C23.5104 46.5047 23.4035 46.5797 23.3143 46.6735C23.2252 46.7672 23.1556 46.8778 23.1097 46.9987C23.0638 47.1196 23.0424 47.2484 23.0468 47.3777Z" fill="#50E6C9"/>
<path d="M18.994 47.3776C19.0005 47.5687 19.0631 47.7536 19.174 47.9094C19.2849 48.0652 19.4391 48.1849 19.6176 48.2535C19.796 48.3222 19.9907 48.3369 20.1775 48.2956C20.3642 48.2544 20.5346 48.1591 20.6675 48.0217C20.8004 47.8843 20.89 47.7107 20.925 47.5228C20.9599 47.3348 20.9388 47.1407 20.8642 46.9646C20.7897 46.7886 20.6649 46.6384 20.5055 46.5327C20.3461 46.4271 20.1592 46.3707 19.968 46.3706C19.8373 46.3705 19.7079 46.3968 19.5875 46.4478C19.4671 46.4988 19.3582 46.5735 19.2674 46.6674C19.1765 46.7614 19.1054 46.8727 19.0585 46.9947C19.0115 47.1167 18.9896 47.2469 18.994 47.3776Z" fill="#50E6C9"/>
<path d="M14.9589 47.3776C14.9654 47.5687 15.0279 47.7536 15.1388 47.9094C15.2497 48.0652 15.404 48.1849 15.5824 48.2535C15.7609 48.3222 15.9556 48.3369 16.1423 48.2956C16.329 48.2544 16.4994 48.1591 16.6324 48.0217C16.7653 47.8843 16.8548 47.7107 16.8898 47.5228C16.9248 47.3348 16.9037 47.1407 16.8291 46.9646C16.7545 46.7886 16.6297 46.6384 16.4704 46.5327C16.311 46.4271 16.1241 46.3707 15.9328 46.3706C15.8021 46.3705 15.6727 46.3968 15.5523 46.4478C15.432 46.4988 15.3231 46.5735 15.2322 46.6674C15.1413 46.7614 15.0703 46.8727 15.0233 46.9947C14.9764 47.1167 14.9544 47.2469 14.9589 47.3776Z" fill="#50E6C9"/>
<path d="M10.9296 47.3776C10.9361 47.5687 10.9986 47.7536 11.1095 47.9094C11.2204 48.0652 11.3747 48.1849 11.5531 48.2535C11.7316 48.3222 11.9263 48.3369 12.113 48.2956C12.2997 48.2544 12.4701 48.1591 12.6031 48.0217C12.736 47.8843 12.8255 47.7107 12.8605 47.5228C12.8955 47.3348 12.8744 47.1407 12.7998 46.9646C12.7252 46.7886 12.6004 46.6384 12.4411 46.5327C12.2817 46.4271 12.0947 46.3707 11.9035 46.3706C11.7728 46.3705 11.6434 46.3968 11.523 46.4478C11.4027 46.4988 11.2938 46.5735 11.2029 46.6674C11.112 46.7614 11.041 46.8727 10.994 46.9947C10.9471 47.1167 10.9251 47.2469 10.9296 47.3776Z" fill="#50E6C9"/>
<path d="M6.89246 47.3776C6.89894 47.5687 6.96152 47.7536 7.07241 47.9094C7.18329 48.0652 7.33757 48.1849 7.51601 48.2535C7.69446 48.3222 7.88917 48.3369 8.07588 48.2956C8.26259 48.2544 8.43302 48.1591 8.56595 48.0217C8.69888 47.8843 8.78842 47.7107 8.8234 47.5228C8.85839 47.3348 8.83726 47.1407 8.76267 46.9646C8.68808 46.7886 8.56333 46.6384 8.40396 46.5327C8.24458 46.4271 8.05764 46.3707 7.86643 46.3706C7.7357 46.3705 7.6063 46.3968 7.48593 46.4478C7.36555 46.4988 7.25668 46.5735 7.1658 46.6674C7.07491 46.7614 7.00386 46.8727 6.9569 46.9947C6.90995 47.1167 6.88803 47.2469 6.89246 47.3776Z" fill="#50E6C9"/>
<path d="M2.8573 47.3776C2.86378 47.5687 2.92637 47.7536 3.03725 47.9094C3.14814 48.0652 3.30242 48.1849 3.48086 48.2535C3.6593 48.3222 3.85402 48.3369 4.04072 48.2956C4.22743 48.2544 4.39786 48.1591 4.53079 48.0217C4.66372 47.8843 4.75327 47.7107 4.78825 47.5228C4.82323 47.3348 4.80211 47.1407 4.72752 46.9646C4.65293 46.7886 4.52817 46.6384 4.3688 46.5327C4.20942 46.4271 4.02248 46.3707 3.83128 46.3706C3.70055 46.3705 3.57114 46.3968 3.45077 46.4478C3.3304 46.4988 3.22153 46.5735 3.13064 46.6674C3.03975 46.7614 2.96871 46.8727 2.92175 46.9947C2.87479 47.1167 2.85287 47.2469 2.8573 47.3776Z" fill="#50E6C9"/>
<path d="M-1.17841 47.3775C-1.17841 47.6358 -1.07578 47.8836 -0.893126 48.0662C-0.710472 48.2489 -0.462743 48.3515 -0.204431 48.3515C0.0538815 48.3515 0.30161 48.2489 0.484265 48.0662C0.666919 47.8836 0.769531 47.6358 0.769531 47.3775C0.769531 47.1192 0.666919 46.8715 0.484265 46.6888C0.30161 46.5062 0.0538815 46.4036 -0.204431 46.4036C-0.462743 46.4036 -0.710472 46.5062 -0.893126 46.6888C-1.07578 46.8715 -1.17841 47.1192 -1.17841 47.3775Z" fill="#50E6C9"/>
<path d="M47.2298 51.4056C47.2298 51.5982 47.2869 51.7865 47.3939 51.9467C47.501 52.1069 47.6531 52.2317 47.831 52.3054C48.009 52.3792 48.2048 52.3984 48.3938 52.3609C48.5827 52.3233 48.7563 52.2305 48.8925 52.0943C49.0287 51.9581 49.1214 51.7846 49.159 51.5956C49.1966 51.4067 49.1773 51.2109 49.1036 51.0329C49.0299 50.8549 48.905 50.7028 48.7449 50.5958C48.5847 50.4888 48.3964 50.4316 48.2038 50.4316C48.0759 50.4316 47.9492 50.4568 47.831 50.5058C47.7129 50.5547 47.6055 50.6265 47.5151 50.7169C47.4246 50.8074 47.3529 50.9147 47.3039 51.0329C47.255 51.1511 47.2298 51.2777 47.2298 51.4056Z" fill="#50E6C9"/>
<path d="M43.1946 51.4056C43.1946 51.5982 43.2518 51.7865 43.3588 51.9467C43.4658 52.1069 43.6179 52.2317 43.7959 52.3054C43.9739 52.3792 44.1697 52.3984 44.3586 52.3609C44.5476 52.3233 44.7211 52.2305 44.8573 52.0943C44.9935 51.9581 45.0863 51.7846 45.1239 51.5956C45.1614 51.4067 45.1422 51.2109 45.0684 51.0329C44.9947 50.8549 44.8699 50.7028 44.7097 50.5958C44.5495 50.4888 44.3612 50.4316 44.1686 50.4316C43.9103 50.4316 43.6626 50.5343 43.4799 50.7169C43.2973 50.8996 43.1946 51.1473 43.1946 51.4056Z" fill="#50E6C9"/>
<path d="M39.1673 51.4056C39.1673 51.5982 39.2244 51.7865 39.3314 51.9467C39.4385 52.1069 39.5906 52.2317 39.7686 52.3054C39.9465 52.3792 40.1423 52.3984 40.3313 52.3609C40.5202 52.3233 40.6938 52.2305 40.83 52.0943C40.9662 51.9581 41.0589 51.7846 41.0965 51.5956C41.1341 51.4067 41.1148 51.2109 41.0411 51.0329C40.9674 50.8549 40.8425 50.7028 40.6824 50.5958C40.5222 50.4888 40.3339 50.4316 40.1413 50.4316C39.883 50.4316 39.6352 50.5343 39.4526 50.7169C39.2699 50.8996 39.1673 51.1473 39.1673 51.4056Z" fill="#50E6C9"/>
<path d="M35.1302 51.4056C35.1302 51.5982 35.1873 51.7865 35.2943 51.9467C35.4014 52.1069 35.5535 52.2317 35.7314 52.3054C35.9094 52.3792 36.1052 52.3984 36.2942 52.3609C36.4831 52.3233 36.6566 52.2305 36.7929 52.0943C36.9291 51.9581 37.0218 51.7846 37.0594 51.5956C37.097 51.4067 37.0777 51.2109 37.004 51.0329C36.9303 50.8549 36.8054 50.7028 36.6453 50.5958C36.4851 50.4888 36.2968 50.4316 36.1042 50.4316C35.8459 50.4316 35.5981 50.5343 35.4155 50.7169C35.2328 50.8996 35.1302 51.1473 35.1302 51.4056Z" fill="#50E6C9"/>
<path d="M31.095 51.4056C31.095 51.5982 31.1522 51.7865 31.2592 51.9467C31.3662 52.1069 31.5183 52.2317 31.6963 52.3054C31.8743 52.3792 32.0701 52.3984 32.259 52.3609C32.4479 52.3233 32.6215 52.2305 32.7577 52.0943C32.8939 51.9581 32.9867 51.7846 33.0243 51.5956C33.0618 51.4067 33.0425 51.2109 32.9688 51.0329C32.8951 50.8549 32.7703 50.7028 32.6101 50.5958C32.4499 50.4888 32.2616 50.4316 32.069 50.4316C31.8107 50.4316 31.563 50.5343 31.3803 50.7169C31.1976 50.8996 31.095 51.1473 31.095 51.4056Z" fill="#50E6C9"/>
<path d="M27.0579 51.4057C27.058 51.5997 27.1161 51.7893 27.2246 51.9501C27.3332 52.1109 27.4873 52.2356 27.6672 52.3082C27.8471 52.3809 28.0446 52.3981 28.2344 52.3578C28.4242 52.3175 28.5975 52.2214 28.7324 52.0818C28.8672 51.9423 28.9572 51.7657 28.991 51.5746C29.0248 51.3836 29.0007 51.1868 28.9219 51.0095C28.8431 50.8322 28.7131 50.6825 28.5487 50.5796C28.3842 50.4766 28.1928 50.4251 27.9989 50.4317C27.7463 50.4403 27.507 50.5467 27.3314 50.7284C27.1558 50.9101 27.0578 51.153 27.0579 51.4057Z" fill="#50E6C9"/>
<path d="M23.0462 51.4056C23.0462 51.5982 23.1033 51.7865 23.2104 51.9467C23.3174 52.1069 23.4695 52.2317 23.6475 52.3054C23.8254 52.3792 24.0213 52.3984 24.2102 52.3609C24.3991 52.3233 24.5727 52.2305 24.7089 52.0943C24.8451 51.9581 24.9378 51.7846 24.9754 51.5956C25.013 51.4067 24.9937 51.2109 24.92 51.0329C24.8463 50.8549 24.7214 50.7028 24.5613 50.5958C24.4011 50.4888 24.2128 50.4316 24.0202 50.4316C23.7619 50.4316 23.5141 50.5343 23.3315 50.7169C23.1488 50.8996 23.0462 51.1473 23.0462 51.4056Z" fill="#50E6C9"/>
<path d="M18.9935 51.4056C18.9935 51.5982 19.0506 51.7865 19.1576 51.9467C19.2646 52.1069 19.4167 52.2317 19.5947 52.3054C19.7727 52.3792 19.9685 52.3984 20.1575 52.3609C20.3464 52.3233 20.5199 52.2305 20.6561 52.0943C20.7923 51.9581 20.8851 51.7846 20.9227 51.5956C20.9603 51.4067 20.941 51.2109 20.8673 51.0329C20.7936 50.8549 20.6687 50.7028 20.5085 50.5958C20.3484 50.4888 20.1601 50.4316 19.9674 50.4316C19.8395 50.4316 19.7129 50.4568 19.5947 50.5058C19.4766 50.5547 19.3692 50.6265 19.2787 50.7169C19.1883 50.8074 19.1166 50.9147 19.0676 51.0329C19.0187 51.1511 18.9935 51.2777 18.9935 51.4056Z" fill="#50E6C9"/>
<path d="M14.9583 51.4056C14.9583 51.5982 15.0154 51.7865 15.1225 51.9467C15.2295 52.1069 15.3816 52.2317 15.5596 52.3054C15.7375 52.3792 15.9334 52.3984 16.1223 52.3609C16.3112 52.3233 16.4848 52.2305 16.621 52.0943C16.7572 51.9581 16.85 51.7846 16.8875 51.5956C16.9251 51.4067 16.9058 51.2109 16.8321 51.0329C16.7584 50.8549 16.6336 50.7028 16.4734 50.5958C16.3132 50.4888 16.1249 50.4316 15.9323 50.4316C15.674 50.4316 15.4262 50.5343 15.2436 50.7169C15.0609 50.8996 14.9583 51.1473 14.9583 51.4056Z" fill="#50E6C9"/>
<path d="M10.929 51.4056C10.929 51.5982 10.9861 51.7865 11.0932 51.9467C11.2002 52.1069 11.3523 52.2317 11.5303 52.3054C11.7082 52.3792 11.9041 52.3984 12.093 52.3609C12.2819 52.3233 12.4555 52.2305 12.5917 52.0943C12.7279 51.9581 12.8207 51.7846 12.8582 51.5956C12.8958 51.4067 12.8765 51.2109 12.8028 51.0329C12.7291 50.8549 12.6043 50.7028 12.4441 50.5958C12.2839 50.4888 12.0956 50.4316 11.903 50.4316C11.6447 50.4316 11.3969 50.5343 11.2143 50.7169C11.0316 50.8996 10.929 51.1473 10.929 51.4056Z" fill="#50E6C9"/>
<path d="M6.89385 51.4056C6.89385 51.5982 6.95097 51.7865 7.05799 51.9467C7.16501 52.1069 7.31713 52.2317 7.4951 52.3054C7.67307 52.3792 7.86891 52.3984 8.05784 52.3609C8.24677 52.3233 8.42031 52.2305 8.55652 52.0943C8.69273 51.9581 8.7855 51.7846 8.82308 51.5956C8.86066 51.4067 8.84137 51.2109 8.76765 51.0329C8.69394 50.8549 8.5691 50.7028 8.40894 50.5958C8.24877 50.4888 8.06046 50.4316 7.86782 50.4316C7.60951 50.4316 7.36178 50.5343 7.17913 50.7169C6.99647 50.8996 6.89385 51.1473 6.89385 51.4056Z" fill="#50E6C9"/>
<path d="M2.8587 51.4056C2.8587 51.5982 2.91583 51.7865 3.02285 51.9467C3.12987 52.1069 3.28198 52.2317 3.45995 52.3054C3.63792 52.3792 3.83376 52.3984 4.02269 52.3609C4.21162 52.3233 4.38516 52.2305 4.52137 52.0943C4.65758 51.9581 4.75034 51.7846 4.78792 51.5956C4.8255 51.4067 4.80622 51.2109 4.73251 51.0329C4.65879 50.8549 4.53396 50.7028 4.37379 50.5958C4.21362 50.4888 4.02531 50.4316 3.83268 50.4316C3.57436 50.4316 3.32664 50.5343 3.14398 50.7169C2.96133 50.8996 2.8587 51.1473 2.8587 51.4056Z" fill="#50E6C9"/>
<path d="M-1.17841 51.4056C-1.17841 51.5982 -1.12128 51.7865 -1.01426 51.9467C-0.907241 52.1069 -0.755125 52.2317 -0.577156 52.3054C-0.399186 52.3792 -0.20335 52.3984 -0.0144185 52.3609C0.174513 52.3233 0.348051 52.2305 0.484263 52.0943C0.620475 51.9581 0.713233 51.7846 0.750814 51.5956C0.788395 51.4067 0.769115 51.2109 0.695398 51.0329C0.621681 50.8549 0.496848 50.7028 0.33668 50.5958C0.176512 50.4888 -0.0117998 50.4316 -0.204433 50.4316C-0.462745 50.4316 -0.710474 50.5343 -0.893128 50.7169C-1.07578 50.8996 -1.17841 51.1473 -1.17841 51.4056Z" fill="#50E6C9"/>
</g>
</svg>
