<svg width="120" height="119" viewBox="0 0 120 119" fill="none" xmlns="http://www.w3.org/2000/svg">
<path d="M3.39258 71.0902C3.83325 70.2572 4.48218 69.5344 5.33935 68.9217L73.7115 21.801C75.585 20.5267 77.9611 20.3177 80.0436 21.4194C82.1261 22.5211 83.3454 24.4988 83.291 26.8688L82.8082 109.904C82.7599 112.011 81.7133 113.989 79.7907 115.104C77.8681 116.22 75.7064 116.275 73.728 115.229L5.73445 79.2589C3.86021 78.2674 2.58584 76.3939 2.42593 74.177C2.71344 73.1297 2.89683 72.0273 3.39258 71.0902ZM81.1738 112.238C81.5594 111.509 81.6817 110.774 81.6998 109.984L82.1826 26.9487C82.2249 25.1054 81.2629 23.3971 79.5969 22.5158C77.9309 21.6344 76.0324 21.6962 74.4773 22.8725L6.10518 69.9932C4.66022 70.9612 3.88298 72.6823 3.95085 74.3174C4.06776 76.1117 5.0358 77.5567 6.59767 78.3829L74.5912 114.353C76.1531 115.179 77.9474 115.062 79.4414 114.253C80.1393 113.69 80.7883 112.967 81.1738 112.238Z" fill="#333033"/>
</svg>
