<svg width="71" height="73" viewBox="0 0 71 73" fill="none" xmlns="http://www.w3.org/2000/svg">
<mask id="mask0" mask-type="alpha" maskUnits="userSpaceOnUse" x="0" y="0" width="71" height="73">
<path d="M69.1189 33.3117L5.60144 0.3775C5.06874 0.108906 4.47564 -0.020167 3.87848 0.00255638C3.28132 0.0252797 2.69994 0.19904 2.18956 0.507327C1.67918 0.815614 1.25675 1.2482 0.96241 1.76397C0.668066 2.27975 0.511578 2.86159 0.507816 3.45422V69.3226C0.507025 69.921 0.66202 70.5095 0.957796 71.0311C1.25357 71.5527 1.68011 71.9897 2.19613 72.2999C2.71215 72.61 3.30017 72.7829 3.90328 72.8016C4.50639 72.8203 5.10416 72.6843 5.63873 72.4067L69.1189 39.4725C69.6862 39.1784 70.1614 38.7358 70.493 38.1927C70.8246 37.6497 70.9999 37.027 70.9999 36.3921C70.9999 35.7573 70.8246 35.1346 70.493 34.5915C70.1614 34.0485 69.6862 33.6059 69.1189 33.3117Z" fill="white"/>
</mask>
<g mask="url(#mask0)">
<path d="M3.51205 5.57001C4.26516 5.57001 4.87567 4.9595 4.87567 4.20639C4.87567 3.45329 4.26516 2.84277 3.51205 2.84277C2.75895 2.84277 2.14844 3.45329 2.14844 4.20639C2.14844 4.9595 2.75895 5.57001 3.51205 5.57001Z" fill="#004D9A"/>
<path d="M10.5261 4.20639C10.5261 4.47609 10.4461 4.73973 10.2962 4.96398C10.1464 5.18822 9.93346 5.363 9.68429 5.46621C9.43512 5.56942 9.16094 5.59642 8.89642 5.54381C8.6319 5.49119 8.38892 5.36132 8.19822 5.17062C8.00751 4.97991 7.87764 4.73694 7.82503 4.47242C7.77241 4.20791 7.79942 3.93373 7.90263 3.68456C8.00584 3.43539 8.18061 3.22242 8.40486 3.07259C8.62911 2.92275 8.89275 2.84277 9.16245 2.84277C9.52411 2.84277 9.87094 2.98644 10.1267 3.24217C10.3824 3.4979 10.5261 3.84474 10.5261 4.20639Z" fill="#004D9A"/>
<path d="M16.1667 4.20639C16.1667 4.47609 16.0867 4.73973 15.9369 4.96398C15.787 5.18822 15.5741 5.363 15.3249 5.46621C15.0757 5.56942 14.8016 5.59642 14.537 5.54381C14.2725 5.49119 14.0295 5.36132 13.8388 5.17062C13.6481 4.97991 13.5183 4.73694 13.4657 4.47242C13.413 4.20791 13.44 3.93373 13.5433 3.68456C13.6465 3.43539 13.8212 3.22242 14.0455 3.07259C14.2697 2.92275 14.5334 2.84277 14.8031 2.84277C15.1647 2.84277 15.5116 2.98644 15.7673 3.24217C16.023 3.4979 16.1667 3.84474 16.1667 4.20639Z" fill="#004D9A"/>
<path d="M21.8171 4.20639C21.8171 4.47609 21.7371 4.73973 21.5873 4.96398C21.4374 5.18822 21.2245 5.363 20.9753 5.46621C20.7261 5.56942 20.452 5.59642 20.1874 5.54381C19.9229 5.49119 19.6799 5.36132 19.4892 5.17062C19.2985 4.97991 19.1687 4.73694 19.116 4.47242C19.0634 4.20791 19.0904 3.93373 19.1936 3.68456C19.2969 3.43539 19.4716 3.22242 19.6959 3.07259C19.9201 2.92275 20.1838 2.84277 20.4534 2.84277C20.8151 2.84277 21.162 2.98644 21.4177 3.24217C21.6734 3.4979 21.8171 3.84474 21.8171 4.20639Z" fill="#004D9A"/>
<path d="M27.4675 4.20639C27.4675 4.47609 27.3875 4.73973 27.2377 4.96398C27.0878 5.18822 26.8748 5.363 26.6257 5.46621C26.3765 5.56942 26.1023 5.59642 25.8378 5.54381C25.5733 5.49119 25.3303 5.36132 25.1396 5.17062C24.9489 4.97991 24.8191 4.73694 24.7664 4.47242C24.7138 4.20791 24.7408 3.93373 24.844 3.68456C24.9472 3.43539 25.122 3.22242 25.3463 3.07259C25.5705 2.92275 25.8342 2.84277 26.1039 2.84277C26.4655 2.84277 26.8123 2.98644 27.0681 3.24217C27.3238 3.4979 27.4675 3.84474 27.4675 4.20639Z" fill="#004D9A"/>
<path d="M33.1198 4.20669C33.1197 4.47832 33.0384 4.74372 32.8864 4.96885C32.7344 5.19399 32.5187 5.36861 32.2668 5.47032C32.0149 5.57203 31.7384 5.5962 31.4727 5.53973C31.207 5.48326 30.9642 5.34872 30.7755 5.15336C30.5868 4.95801 30.4607 4.71073 30.4134 4.44324C30.3661 4.17576 30.3998 3.90024 30.5101 3.65203C30.6205 3.40381 30.8024 3.1942 31.0327 3.05007C31.2629 2.90594 31.5309 2.83386 31.8024 2.84307C32.156 2.85506 32.4911 3.00401 32.7369 3.25844C32.9827 3.51288 33.12 3.8529 33.1198 4.20669Z" fill="#004D9A"/>
<path d="M38.735 4.20639C38.735 4.47609 38.6551 4.73973 38.5052 4.96398C38.3554 5.18822 38.1424 5.363 37.8933 5.46621C37.6441 5.56942 37.3699 5.59642 37.1054 5.54381C36.8409 5.49119 36.5979 5.36132 36.4072 5.17062C36.2165 4.97991 36.0866 4.73694 36.034 4.47242C35.9814 4.20791 36.0084 3.93373 36.1116 3.68456C36.2148 3.43539 36.3896 3.22242 36.6138 3.07259C36.8381 2.92275 37.1017 2.84277 37.3714 2.84277C37.7331 2.84277 38.0799 2.98644 38.3357 3.24217C38.5914 3.4979 38.735 3.84474 38.735 4.20639Z" fill="#004D9A"/>
<path d="M44.4089 4.20639C44.4089 4.47609 44.3289 4.73973 44.1791 4.96398C44.0292 5.18822 43.8163 5.363 43.5671 5.46621C43.3179 5.56942 43.0437 5.59642 42.7792 5.54381C42.5147 5.49119 42.2717 5.36132 42.081 5.17062C41.8903 4.97991 41.7605 4.73694 41.7078 4.47242C41.6552 4.20791 41.6822 3.93373 41.7854 3.68456C41.8886 3.43539 42.0634 3.22242 42.2877 3.07259C42.5119 2.92275 42.7756 2.84277 43.0453 2.84277C43.2243 2.84277 43.4016 2.87805 43.5671 2.94658C43.7325 3.0151 43.8829 3.11555 44.0095 3.24217C44.1361 3.36879 44.2365 3.51912 44.3051 3.68456C44.3736 3.85 44.4089 4.02732 44.4089 4.20639Z" fill="#004D9A"/>
<path d="M50.0593 4.20639C50.0593 4.47609 49.9793 4.73973 49.8295 4.96398C49.6796 5.18822 49.4666 5.363 49.2175 5.46621C48.9683 5.56942 48.6941 5.59642 48.4296 5.54381C48.1651 5.49119 47.9221 5.36132 47.7314 5.17062C47.5407 4.97991 47.4109 4.73694 47.3582 4.47242C47.3056 4.20791 47.3326 3.93373 47.4358 3.68456C47.539 3.43539 47.7138 3.22242 47.9381 3.07259C48.1623 2.92275 48.4259 2.84277 48.6956 2.84277C49.0573 2.84277 49.4041 2.98644 49.6599 3.24217C49.9156 3.4979 50.0593 3.84474 50.0593 4.20639Z" fill="#004D9A"/>
<path d="M55.6999 4.20639C55.6999 4.47609 55.6199 4.73973 55.4701 4.96398C55.3203 5.18822 55.1073 5.363 54.8581 5.46621C54.6089 5.56942 54.3348 5.59642 54.0702 5.54381C53.8057 5.49119 53.5628 5.36132 53.3721 5.17062C53.1814 4.97991 53.0515 4.73694 52.9989 4.47242C52.9462 4.20791 52.9733 3.93373 53.0765 3.68456C53.1797 3.43539 53.3544 3.22242 53.5787 3.07259C53.8029 2.92275 54.0666 2.84277 54.3363 2.84277C54.6979 2.84277 55.0448 2.98644 55.3005 3.24217C55.5562 3.4979 55.6999 3.84474 55.6999 4.20639Z" fill="#004D9A"/>
<path d="M61.3503 4.20639C61.3503 4.47609 61.2703 4.73973 61.1205 4.96398C60.9706 5.18822 60.7577 5.363 60.5085 5.46621C60.2593 5.56942 59.9852 5.59642 59.7206 5.54381C59.4561 5.49119 59.2132 5.36132 59.0225 5.17062C58.8317 4.97991 58.7019 4.73694 58.6492 4.47242C58.5966 4.20791 58.6236 3.93373 58.7269 3.68456C58.8301 3.43539 59.0048 3.22242 59.2291 3.07259C59.4533 2.92275 59.717 2.84277 59.9867 2.84277C60.3483 2.84277 60.6952 2.98644 60.9509 3.24217C61.2066 3.4979 61.3503 3.84474 61.3503 4.20639Z" fill="#004D9A"/>
<path d="M67.0007 4.20639C67.0007 4.47609 66.9207 4.73973 66.7709 4.96398C66.621 5.18822 66.4081 5.363 66.1589 5.46621C65.9097 5.56942 65.6355 5.59642 65.371 5.54381C65.1065 5.49119 64.8635 5.36132 64.6728 5.17062C64.4821 4.97991 64.3523 4.73694 64.2996 4.47242C64.247 4.20791 64.274 3.93373 64.3772 3.68456C64.4804 3.43539 64.6552 3.22242 64.8795 3.07259C65.1037 2.92275 65.3674 2.84277 65.637 2.84277C65.9987 2.84277 66.3455 2.98644 66.6013 3.24217C66.857 3.4979 67.0007 3.84474 67.0007 4.20639Z" fill="#004D9A"/>
<path d="M72.653 4.20639C72.653 4.47609 72.573 4.73973 72.4232 4.96398C72.2734 5.18822 72.0604 5.363 71.8112 5.46621C71.5621 5.56942 71.2879 5.59642 71.0234 5.54381C70.7588 5.49119 70.5159 5.36132 70.3252 5.17062C70.1345 4.97991 70.0046 4.73694 69.952 4.47242C69.8994 4.20791 69.9264 3.93373 70.0296 3.68456C70.1328 3.43539 70.3076 3.22242 70.5318 3.07259C70.756 2.92275 71.0197 2.84277 71.2894 2.84277C71.651 2.84277 71.9979 2.98644 72.2536 3.24217C72.5093 3.4979 72.653 3.84474 72.653 4.20639Z" fill="#004D9A"/>
<path d="M4.87567 9.84604C4.87567 10.1157 4.79569 10.3794 4.64586 10.6036C4.49602 10.8279 4.28307 11.0027 4.0339 11.1059C3.78473 11.2091 3.51055 11.2361 3.24603 11.1835C2.98151 11.1308 2.73854 11.001 2.54784 10.8103C2.35713 10.6196 2.22725 10.3766 2.17464 10.1121C2.12202 9.84755 2.14903 9.57338 2.25224 9.32421C2.35545 9.07504 2.53022 8.86207 2.75447 8.71224C2.97872 8.5624 3.24236 8.48242 3.51206 8.48242C3.69113 8.48242 3.86846 8.51769 4.0339 8.58622C4.19934 8.65475 4.34965 8.75519 4.47628 8.88182C4.6029 9.00844 4.70335 9.15877 4.77188 9.32421C4.84041 9.48965 4.87567 9.66697 4.87567 9.84604Z" fill="#004D9A"/>
<path d="M10.5261 9.84604C10.5261 10.1157 10.4461 10.3794 10.2962 10.6036C10.1464 10.8279 9.93346 11.0027 9.68429 11.1059C9.43512 11.2091 9.16094 11.2361 8.89642 11.1835C8.6319 11.1308 8.38892 11.001 8.19822 10.8103C8.00751 10.6196 7.87764 10.3766 7.82503 10.1121C7.77241 9.84755 7.79942 9.57338 7.90263 9.32421C8.00584 9.07504 8.18061 8.86207 8.40486 8.71224C8.62911 8.5624 8.89275 8.48242 9.16245 8.48242C9.52411 8.48242 9.87094 8.62609 10.1267 8.88182C10.3824 9.13755 10.5261 9.48439 10.5261 9.84604Z" fill="#004D9A"/>
<path d="M16.1667 9.84609C16.1667 10.1158 16.0867 10.3794 15.9369 10.6037C15.787 10.8279 15.5741 11.0027 15.3249 11.1059C15.0757 11.2091 14.8016 11.2361 14.537 11.1835C14.2725 11.1309 14.0295 11.001 13.8388 10.8103C13.6481 10.6196 13.5183 10.3766 13.4657 10.1121C13.413 9.8476 13.44 9.57343 13.5433 9.32426C13.6465 9.07509 13.8212 8.86212 14.0455 8.71228C14.2697 8.56245 14.5334 8.48247 14.8031 8.48247C14.9826 8.48093 15.1606 8.51515 15.3267 8.58313C15.4928 8.65111 15.6438 8.7515 15.7707 8.87843C15.8977 9.00537 15.998 9.1563 16.066 9.32244C16.134 9.48857 16.1682 9.66659 16.1667 9.84609Z" fill="#004D9A"/>
<path d="M21.8171 9.84604C21.8171 10.1157 21.7371 10.3794 21.5873 10.6036C21.4374 10.8279 21.2245 11.0027 20.9753 11.1059C20.7261 11.2091 20.452 11.2361 20.1874 11.1835C19.9229 11.1308 19.6799 11.001 19.4892 10.8103C19.2985 10.6196 19.1687 10.3766 19.116 10.1121C19.0634 9.84755 19.0904 9.57338 19.1936 9.32421C19.2969 9.07504 19.4716 8.86207 19.6959 8.71224C19.9201 8.5624 20.1838 8.48242 20.4534 8.48242C20.8151 8.48242 21.162 8.62609 21.4177 8.88182C21.6734 9.13755 21.8171 9.48439 21.8171 9.84604Z" fill="#004D9A"/>
<path d="M27.4675 9.84604C27.4675 10.1157 27.3875 10.3794 27.2377 10.6036C27.0878 10.8279 26.8748 11.0027 26.6257 11.1059C26.3765 11.2091 26.1023 11.2361 25.8378 11.1835C25.5733 11.1308 25.3303 11.001 25.1396 10.8103C24.9489 10.6196 24.8191 10.3766 24.7664 10.1121C24.7138 9.84755 24.7408 9.57338 24.844 9.32421C24.9472 9.07504 25.122 8.86207 25.3463 8.71224C25.5705 8.5624 25.8342 8.48242 26.1039 8.48242C26.4655 8.48242 26.8123 8.62609 27.0681 8.88182C27.3238 9.13755 27.4675 9.48439 27.4675 9.84604Z" fill="#004D9A"/>
<path d="M33.1198 9.84585C33.1197 10.1175 33.0384 10.3829 32.8864 10.608C32.7344 10.8332 32.5187 11.0078 32.2668 11.1095C32.0149 11.2112 31.7384 11.2354 31.4727 11.1789C31.207 11.1224 30.9642 10.9879 30.7755 10.7925C30.5868 10.5972 30.4607 10.3499 30.4134 10.0824C30.3661 9.81492 30.3998 9.5394 30.5101 9.29119C30.6205 9.04297 30.8024 8.83336 31.0327 8.68923C31.2629 8.5451 31.5309 8.47302 31.8024 8.48223C32.156 8.49422 32.4911 8.64317 32.7369 8.89761C32.9827 9.15204 33.12 9.49206 33.1198 9.84585Z" fill="#004D9A"/>
<path d="M38.735 9.84604C38.735 10.1157 38.6551 10.3794 38.5052 10.6036C38.3554 10.8279 38.1424 11.0027 37.8933 11.1059C37.6441 11.2091 37.3699 11.2361 37.1054 11.1835C36.8409 11.1308 36.5979 11.001 36.4072 10.8103C36.2165 10.6196 36.0866 10.3766 36.034 10.1121C35.9814 9.84755 36.0084 9.57338 36.1116 9.32421C36.2148 9.07504 36.3896 8.86207 36.6138 8.71224C36.8381 8.5624 37.1017 8.48242 37.3714 8.48242C37.7331 8.48242 38.0799 8.62609 38.3357 8.88182C38.5914 9.13755 38.735 9.48439 38.735 9.84604Z" fill="#004D9A"/>
<path d="M44.4089 9.84604C44.4089 10.1157 44.3289 10.3794 44.1791 10.6036C44.0292 10.8279 43.8163 11.0027 43.5671 11.1059C43.3179 11.2091 43.0437 11.2361 42.7792 11.1835C42.5147 11.1308 42.2717 11.001 42.081 10.8103C41.8903 10.6196 41.7605 10.3766 41.7078 10.1121C41.6552 9.84755 41.6822 9.57338 41.7854 9.32421C41.8886 9.07504 42.0634 8.86207 42.2877 8.71224C42.5119 8.5624 42.7756 8.48242 43.0453 8.48242C43.2243 8.48242 43.4016 8.51769 43.5671 8.58622C43.7325 8.65475 43.8829 8.75519 44.0095 8.88182C44.1361 9.00844 44.2365 9.15877 44.3051 9.32421C44.3736 9.48965 44.4089 9.66697 44.4089 9.84604Z" fill="#004D9A"/>
<path d="M50.0593 9.84604C50.0593 10.1157 49.9793 10.3794 49.8295 10.6036C49.6796 10.8279 49.4666 11.0027 49.2175 11.1059C48.9683 11.2091 48.6941 11.2361 48.4296 11.1835C48.1651 11.1308 47.9221 11.001 47.7314 10.8103C47.5407 10.6196 47.4109 10.3766 47.3582 10.1121C47.3056 9.84755 47.3326 9.57338 47.4358 9.32421C47.539 9.07504 47.7138 8.86207 47.9381 8.71224C48.1623 8.5624 48.4259 8.48242 48.6956 8.48242C49.0573 8.48242 49.4041 8.62609 49.6599 8.88182C49.9156 9.13755 50.0593 9.48439 50.0593 9.84604Z" fill="#004D9A"/>
<path d="M55.6999 9.84604C55.6999 10.2077 55.5562 10.5545 55.3005 10.8103C55.0448 11.066 54.6979 11.2097 54.3363 11.2097C53.9746 11.2097 53.6278 11.066 53.372 10.8103C53.1163 10.5545 52.9727 10.2077 52.9727 9.84604C52.9727 9.48439 53.1163 9.13755 53.372 8.88182C53.6278 8.62609 53.9746 8.48242 54.3363 8.48242C54.6979 8.48242 55.0448 8.62609 55.3005 8.88182C55.5562 9.13755 55.6999 9.48439 55.6999 9.84604Z" fill="#004D9A"/>
<path d="M61.3503 9.84604C61.3503 10.1157 61.2703 10.3794 61.1205 10.6036C60.9706 10.8279 60.7577 11.0027 60.5085 11.1059C60.2593 11.2091 59.9852 11.2361 59.7206 11.1835C59.4561 11.1308 59.2132 11.001 59.0225 10.8103C58.8317 10.6196 58.7019 10.3766 58.6492 10.1121C58.5966 9.84755 58.6236 9.57338 58.7269 9.32421C58.8301 9.07504 59.0048 8.86207 59.2291 8.71224C59.4533 8.5624 59.717 8.48242 59.9867 8.48242C60.3483 8.48242 60.6952 8.62609 60.9509 8.88182C61.2066 9.13755 61.3503 9.48439 61.3503 9.84604Z" fill="#004D9A"/>
<path d="M67.0007 9.84604C67.0007 10.1157 66.9207 10.3794 66.7709 10.6036C66.621 10.8279 66.4081 11.0027 66.1589 11.1059C65.9097 11.2091 65.6355 11.2361 65.371 11.1835C65.1065 11.1308 64.8635 11.001 64.6728 10.8103C64.4821 10.6196 64.3523 10.3766 64.2996 10.1121C64.247 9.84755 64.274 9.57338 64.3772 9.32421C64.4804 9.07504 64.6552 8.86207 64.8795 8.71224C65.1037 8.5624 65.3674 8.48242 65.637 8.48242C65.9987 8.48242 66.3455 8.62609 66.6013 8.88182C66.857 9.13755 67.0007 9.48439 67.0007 9.84604Z" fill="#004D9A"/>
<path d="M72.653 9.84604C72.653 10.1157 72.573 10.3794 72.4232 10.6036C72.2734 10.8279 72.0604 11.0027 71.8112 11.1059C71.5621 11.2091 71.2879 11.2361 71.0234 11.1835C70.7588 11.1308 70.5159 11.001 70.3252 10.8103C70.1345 10.6196 70.0046 10.3766 69.952 10.1121C69.8994 9.84755 69.9264 9.57338 70.0296 9.32421C70.1328 9.07504 70.3076 8.86207 70.5318 8.71224C70.756 8.5624 71.0197 8.48242 71.2894 8.48242C71.651 8.48242 71.9979 8.62609 72.2536 8.88182C72.5093 9.13755 72.653 9.48439 72.653 9.84604Z" fill="#004D9A"/>
<path d="M4.87567 15.4969C4.87567 15.7666 4.79569 16.0303 4.64586 16.2545C4.49602 16.4788 4.28307 16.6535 4.0339 16.7567C3.78473 16.8599 3.51055 16.8869 3.24603 16.8343C2.98151 16.7817 2.73854 16.6518 2.54784 16.4611C2.35713 16.2704 2.22725 16.0275 2.17464 15.7629C2.12202 15.4984 2.14903 15.2243 2.25224 14.9751C2.35545 14.7259 2.53022 14.513 2.75447 14.3631C2.97872 14.2133 3.24236 14.1333 3.51206 14.1333C3.69113 14.1333 3.86846 14.1686 4.0339 14.2371C4.19934 14.3056 4.34965 14.4061 4.47628 14.5327C4.6029 14.6593 4.70335 14.8096 4.77188 14.9751C4.84041 15.1405 4.87567 15.3178 4.87567 15.4969Z" fill="#004D9A"/>
<path d="M10.5261 15.4969C10.5261 15.7666 10.4461 16.0303 10.2962 16.2545C10.1464 16.4788 9.93346 16.6535 9.68429 16.7567C9.43512 16.8599 9.16094 16.8869 8.89642 16.8343C8.6319 16.7817 8.38892 16.6518 8.19822 16.4611C8.00751 16.2704 7.87764 16.0275 7.82503 15.7629C7.77241 15.4984 7.79942 15.2243 7.90263 14.9751C8.00584 14.7259 8.18061 14.513 8.40486 14.3631C8.62911 14.2133 8.89275 14.1333 9.16245 14.1333C9.52411 14.1333 9.87094 14.277 10.1267 14.5327C10.3824 14.7884 10.5261 15.1353 10.5261 15.4969Z" fill="#004D9A"/>
<path d="M16.1667 15.4969C16.1667 15.7666 16.0867 16.0303 15.9369 16.2545C15.787 16.4788 15.5741 16.6535 15.3249 16.7567C15.0757 16.8599 14.8016 16.8869 14.537 16.8343C14.2725 16.7817 14.0295 16.6518 13.8388 16.4611C13.6481 16.2704 13.5183 16.0275 13.4657 15.7629C13.413 15.4984 13.44 15.2243 13.5433 14.9751C13.6465 14.7259 13.8212 14.513 14.0455 14.3631C14.2697 14.2133 14.5334 14.1333 14.8031 14.1333C15.1647 14.1333 15.5116 14.277 15.7673 14.5327C16.023 14.7884 16.1667 15.1353 16.1667 15.4969Z" fill="#004D9A"/>
<path d="M21.8171 15.4969C21.8171 15.7666 21.7371 16.0303 21.5873 16.2545C21.4374 16.4788 21.2245 16.6535 20.9753 16.7567C20.7261 16.8599 20.452 16.8869 20.1874 16.8343C19.9229 16.7817 19.6799 16.6518 19.4892 16.4611C19.2985 16.2704 19.1687 16.0275 19.116 15.7629C19.0634 15.4984 19.0904 15.2243 19.1936 14.9751C19.2969 14.7259 19.4716 14.513 19.6959 14.3631C19.9201 14.2133 20.1838 14.1333 20.4534 14.1333C20.8151 14.1333 21.162 14.277 21.4177 14.5327C21.6734 14.7884 21.8171 15.1353 21.8171 15.4969Z" fill="#004D9A"/>
<path d="M27.4675 15.4969C27.4675 15.7666 27.3875 16.0303 27.2377 16.2545C27.0878 16.4788 26.8748 16.6535 26.6257 16.7567C26.3765 16.8599 26.1023 16.8869 25.8378 16.8343C25.5733 16.7817 25.3303 16.6518 25.1396 16.4611C24.9489 16.2704 24.8191 16.0275 24.7664 15.7629C24.7138 15.4984 24.7408 15.2243 24.844 14.9751C24.9472 14.7259 25.122 14.513 25.3463 14.3631C25.5705 14.2133 25.8342 14.1333 26.1039 14.1333C26.4655 14.1333 26.8123 14.277 27.0681 14.5327C27.3238 14.7884 27.4675 15.1353 27.4675 15.4969Z" fill="#004D9A"/>
<path d="M33.1198 15.4967C33.1197 15.7684 33.0384 16.0338 32.8864 16.2589C32.7344 16.484 32.5187 16.6586 32.2668 16.7604C32.0149 16.8621 31.7384 16.8862 31.4727 16.8298C31.207 16.7733 30.9642 16.6388 30.7755 16.4434C30.5868 16.248 30.4607 16.0008 30.4134 15.7333C30.3661 15.4658 30.3998 15.1903 30.5101 14.9421C30.6205 14.6938 30.8024 14.4842 31.0327 14.3401C31.2629 14.196 31.5309 14.1239 31.8024 14.1331C32.156 14.1451 32.4911 14.294 32.7369 14.5485C32.9827 14.8029 33.12 15.1429 33.1198 15.4967Z" fill="#004D9A"/>
<path d="M38.735 15.4969C38.735 15.7666 38.6551 16.0303 38.5052 16.2545C38.3554 16.4788 38.1424 16.6535 37.8933 16.7567C37.6441 16.8599 37.3699 16.8869 37.1054 16.8343C36.8409 16.7817 36.5979 16.6518 36.4072 16.4611C36.2165 16.2704 36.0866 16.0275 36.034 15.7629C35.9814 15.4984 36.0084 15.2243 36.1116 14.9751C36.2148 14.7259 36.3896 14.513 36.6138 14.3631C36.8381 14.2133 37.1017 14.1333 37.3714 14.1333C37.7331 14.1333 38.0799 14.277 38.3357 14.5327C38.5914 14.7884 38.735 15.1353 38.735 15.4969Z" fill="#004D9A"/>
<path d="M44.4089 15.4969C44.4089 15.7666 44.3289 16.0303 44.1791 16.2545C44.0292 16.4788 43.8163 16.6535 43.5671 16.7567C43.3179 16.8599 43.0437 16.8869 42.7792 16.8343C42.5147 16.7817 42.2717 16.6518 42.081 16.4611C41.8903 16.2704 41.7605 16.0275 41.7078 15.7629C41.6552 15.4984 41.6822 15.2243 41.7854 14.9751C41.8886 14.7259 42.0634 14.513 42.2877 14.3631C42.5119 14.2133 42.7756 14.1333 43.0453 14.1333C43.2243 14.1333 43.4016 14.1686 43.5671 14.2371C43.7325 14.3056 43.8829 14.4061 44.0095 14.5327C44.1361 14.6593 44.2365 14.8096 44.3051 14.9751C44.3736 15.1405 44.4089 15.3178 44.4089 15.4969Z" fill="#004D9A"/>
<path d="M50.0593 15.4969C50.0593 15.7666 49.9793 16.0303 49.8295 16.2545C49.6796 16.4788 49.4666 16.6535 49.2175 16.7567C48.9683 16.8599 48.6941 16.8869 48.4296 16.8343C48.1651 16.7817 47.9221 16.6518 47.7314 16.4611C47.5407 16.2704 47.4109 16.0275 47.3582 15.7629C47.3056 15.4984 47.3326 15.2243 47.4358 14.9751C47.539 14.7259 47.7138 14.513 47.9381 14.3631C48.1623 14.2133 48.4259 14.1333 48.6956 14.1333C49.0573 14.1333 49.4041 14.277 49.6599 14.5327C49.9156 14.7884 50.0593 15.1353 50.0593 15.4969Z" fill="#004D9A"/>
<path d="M55.6999 15.4969C55.6999 15.7666 55.6199 16.0303 55.4701 16.2545C55.3203 16.4788 55.1073 16.6535 54.8581 16.7567C54.6089 16.8599 54.3348 16.8869 54.0702 16.8343C53.8057 16.7817 53.5628 16.6518 53.3721 16.4611C53.1814 16.2704 53.0515 16.0275 52.9989 15.7629C52.9462 15.4984 52.9733 15.2243 53.0765 14.9751C53.1797 14.7259 53.3544 14.513 53.5787 14.3631C53.8029 14.2133 54.0666 14.1333 54.3363 14.1333C54.6979 14.1333 55.0448 14.277 55.3005 14.5327C55.5562 14.7884 55.6999 15.1353 55.6999 15.4969Z" fill="#004D9A"/>
<path d="M61.3503 15.4969C61.3503 15.7666 61.2703 16.0303 61.1205 16.2545C60.9706 16.4788 60.7577 16.6535 60.5085 16.7567C60.2593 16.8599 59.9852 16.8869 59.7206 16.8343C59.4561 16.7817 59.2132 16.6518 59.0225 16.4611C58.8317 16.2704 58.7019 16.0275 58.6492 15.7629C58.5966 15.4984 58.6236 15.2243 58.7269 14.9751C58.8301 14.7259 59.0048 14.513 59.2291 14.3631C59.4533 14.2133 59.717 14.1333 59.9867 14.1333C60.3483 14.1333 60.6952 14.277 60.9509 14.5327C61.2066 14.7884 61.3503 15.1353 61.3503 15.4969Z" fill="#004D9A"/>
<path d="M67.0007 15.4969C67.0007 15.7666 66.9207 16.0303 66.7709 16.2545C66.621 16.4788 66.4081 16.6535 66.1589 16.7567C65.9097 16.8599 65.6355 16.8869 65.371 16.8343C65.1065 16.7817 64.8635 16.6518 64.6728 16.4611C64.4821 16.2704 64.3523 16.0275 64.2996 15.7629C64.247 15.4984 64.274 15.2243 64.3772 14.9751C64.4804 14.7259 64.6552 14.513 64.8795 14.3631C65.1037 14.2133 65.3674 14.1333 65.637 14.1333C65.9987 14.1333 66.3455 14.277 66.6013 14.5327C66.857 14.7884 67.0007 15.1353 67.0007 15.4969Z" fill="#004D9A"/>
<path d="M72.653 15.4969C72.653 15.7666 72.573 16.0303 72.4232 16.2545C72.2734 16.4788 72.0604 16.6535 71.8112 16.7567C71.5621 16.8599 71.2879 16.8869 71.0234 16.8343C70.7588 16.7817 70.5159 16.6518 70.3252 16.4611C70.1345 16.2704 70.0046 16.0275 69.952 15.7629C69.8994 15.4984 69.9264 15.2243 70.0296 14.9751C70.1328 14.7259 70.3076 14.513 70.5318 14.3631C70.756 14.2133 71.0197 14.1333 71.2894 14.1333C71.651 14.1333 71.9979 14.277 72.2536 14.5327C72.5093 14.7884 72.653 15.1353 72.653 15.4969Z" fill="#004D9A"/>
<path d="M4.87567 21.1478C4.87567 21.4175 4.79569 21.6811 4.64586 21.9054C4.49602 22.1296 4.28307 22.3044 4.0339 22.4076C3.78473 22.5108 3.51055 22.5378 3.24603 22.4852C2.98151 22.4326 2.73854 22.3027 2.54784 22.112C2.35713 21.9213 2.22725 21.6783 2.17464 21.4138C2.12202 21.1493 2.14903 20.8751 2.25224 20.626C2.35545 20.3768 2.53022 20.1638 2.75447 20.014C2.97872 19.8642 3.24236 19.7842 3.51206 19.7842C3.69113 19.7842 3.86846 19.8195 4.0339 19.888C4.19934 19.9565 4.34965 20.057 4.47628 20.1836C4.6029 20.3102 4.70335 20.4605 4.77188 20.626C4.84041 20.7914 4.87567 20.9687 4.87567 21.1478Z" fill="#004D9A"/>
<path d="M10.5261 21.1478C10.5261 21.4175 10.4461 21.6811 10.2962 21.9054C10.1464 22.1296 9.93346 22.3044 9.68429 22.4076C9.43512 22.5108 9.16094 22.5378 8.89642 22.4852C8.6319 22.4326 8.38892 22.3027 8.19822 22.112C8.00751 21.9213 7.87764 21.6783 7.82503 21.4138C7.77241 21.1493 7.79942 20.8751 7.90263 20.626C8.00584 20.3768 8.18061 20.1638 8.40486 20.014C8.62911 19.8642 8.89275 19.7842 9.16245 19.7842C9.52411 19.7842 9.87094 19.9278 10.1267 20.1836C10.3824 20.4393 10.5261 20.7861 10.5261 21.1478Z" fill="#004D9A"/>
<path d="M16.1667 21.1478C16.1667 21.4175 16.0867 21.6811 15.9369 21.9054C15.787 22.1296 15.5741 22.3044 15.3249 22.4076C15.0757 22.5108 14.8016 22.5378 14.537 22.4852C14.2725 22.4326 14.0295 22.3027 13.8388 22.112C13.6481 21.9213 13.5183 21.6783 13.4657 21.4138C13.413 21.1493 13.44 20.8751 13.5433 20.626C13.6465 20.3768 13.8212 20.1638 14.0455 20.014C14.2697 19.8642 14.5334 19.7842 14.8031 19.7842C15.1647 19.7842 15.5116 19.9278 15.7673 20.1836C16.023 20.4393 16.1667 20.7861 16.1667 21.1478Z" fill="#004D9A"/>
<path d="M21.8171 21.1478C21.8171 21.4175 21.7371 21.6811 21.5873 21.9054C21.4374 22.1296 21.2245 22.3044 20.9753 22.4076C20.7261 22.5108 20.452 22.5378 20.1874 22.4852C19.9229 22.4326 19.6799 22.3027 19.4892 22.112C19.2985 21.9213 19.1687 21.6783 19.116 21.4138C19.0634 21.1493 19.0904 20.8751 19.1936 20.626C19.2969 20.3768 19.4716 20.1638 19.6959 20.014C19.9201 19.8642 20.1838 19.7842 20.4534 19.7842C20.8151 19.7842 21.162 19.9278 21.4177 20.1836C21.6734 20.4393 21.8171 20.7861 21.8171 21.1478Z" fill="#004D9A"/>
<path d="M27.4675 21.1478C27.4675 21.4175 27.3875 21.6811 27.2377 21.9054C27.0878 22.1296 26.8748 22.3044 26.6257 22.4076C26.3765 22.5108 26.1023 22.5378 25.8378 22.4852C25.5733 22.4326 25.3303 22.3027 25.1396 22.112C24.9489 21.9213 24.8191 21.6783 24.7664 21.4138C24.7138 21.1493 24.7408 20.8751 24.844 20.626C24.9472 20.3768 25.122 20.1638 25.3463 20.014C25.5705 19.8642 25.8342 19.7842 26.1039 19.7842C26.4655 19.7842 26.8123 19.9278 27.0681 20.1836C27.3238 20.4393 27.4675 20.7861 27.4675 21.1478Z" fill="#004D9A"/>
<path d="M33.1198 21.1476C33.1197 21.4192 33.0384 21.6846 32.8864 21.9098C32.7344 22.1349 32.5187 22.3095 32.2668 22.4112C32.0149 22.5129 31.7384 22.5371 31.4727 22.4806C31.207 22.4242 30.9642 22.2896 30.7755 22.0943C30.5868 21.8989 30.4607 21.6516 30.4134 21.3842C30.3661 21.1167 30.3998 20.8412 30.5101 20.5929C30.6205 20.3447 30.8024 20.1351 31.0327 19.991C31.2629 19.8469 31.5309 19.7748 31.8024 19.784C32.156 19.796 32.4911 19.9449 32.7369 20.1994C32.9827 20.4538 33.12 20.7938 33.1198 21.1476Z" fill="#004D9A"/>
<path d="M38.735 21.1478C38.735 21.4175 38.6551 21.6811 38.5052 21.9054C38.3554 22.1296 38.1424 22.3044 37.8933 22.4076C37.6441 22.5108 37.3699 22.5378 37.1054 22.4852C36.8409 22.4326 36.5979 22.3027 36.4072 22.112C36.2165 21.9213 36.0866 21.6783 36.034 21.4138C35.9814 21.1493 36.0084 20.8751 36.1116 20.626C36.2148 20.3768 36.3896 20.1638 36.6138 20.014C36.8381 19.8642 37.1017 19.7842 37.3714 19.7842C37.7331 19.7842 38.0799 19.9278 38.3357 20.1836C38.5914 20.4393 38.735 20.7861 38.735 21.1478Z" fill="#004D9A"/>
<path d="M44.4089 21.1478C44.4089 21.4175 44.3289 21.6811 44.1791 21.9054C44.0292 22.1296 43.8163 22.3044 43.5671 22.4076C43.3179 22.5108 43.0437 22.5378 42.7792 22.4852C42.5147 22.4326 42.2717 22.3027 42.081 22.112C41.8903 21.9213 41.7605 21.6783 41.7078 21.4138C41.6552 21.1493 41.6822 20.8751 41.7854 20.626C41.8886 20.3768 42.0634 20.1638 42.2877 20.014C42.5119 19.8642 42.7756 19.7842 43.0453 19.7842C43.2243 19.7842 43.4016 19.8195 43.5671 19.888C43.7325 19.9565 43.8829 20.057 44.0095 20.1836C44.1361 20.3102 44.2365 20.4605 44.3051 20.626C44.3736 20.7914 44.4089 20.9687 44.4089 21.1478Z" fill="#004D9A"/>
<path d="M50.0593 21.1478C50.0593 21.4175 49.9793 21.6811 49.8295 21.9054C49.6796 22.1296 49.4666 22.3044 49.2175 22.4076C48.9683 22.5108 48.6941 22.5378 48.4296 22.4852C48.1651 22.4326 47.9221 22.3027 47.7314 22.112C47.5407 21.9213 47.4109 21.6783 47.3582 21.4138C47.3056 21.1493 47.3326 20.8751 47.4358 20.626C47.539 20.3768 47.7138 20.1638 47.9381 20.014C48.1623 19.8642 48.4259 19.7842 48.6956 19.7842C49.0573 19.7842 49.4041 19.9278 49.6599 20.1836C49.9156 20.4393 50.0593 20.7861 50.0593 21.1478Z" fill="#004D9A"/>
<path d="M55.6999 21.1478C55.6999 21.4175 55.6199 21.6811 55.4701 21.9054C55.3203 22.1296 55.1073 22.3044 54.8581 22.4076C54.6089 22.5108 54.3348 22.5378 54.0702 22.4852C53.8057 22.4326 53.5628 22.3027 53.3721 22.112C53.1814 21.9213 53.0515 21.6783 52.9989 21.4138C52.9462 21.1493 52.9733 20.8751 53.0765 20.626C53.1797 20.3768 53.3544 20.1638 53.5787 20.014C53.8029 19.8642 54.0666 19.7842 54.3363 19.7842C54.6979 19.7842 55.0448 19.9278 55.3005 20.1836C55.5562 20.4393 55.6999 20.7861 55.6999 21.1478Z" fill="#004D9A"/>
<path d="M61.3503 21.1478C61.3503 21.4175 61.2703 21.6811 61.1205 21.9054C60.9706 22.1296 60.7577 22.3044 60.5085 22.4076C60.2593 22.5108 59.9852 22.5378 59.7206 22.4852C59.4561 22.4326 59.2132 22.3027 59.0225 22.112C58.8317 21.9213 58.7019 21.6783 58.6492 21.4138C58.5966 21.1493 58.6236 20.8751 58.7269 20.626C58.8301 20.3768 59.0048 20.1638 59.2291 20.014C59.4533 19.8642 59.717 19.7842 59.9867 19.7842C60.3483 19.7842 60.6952 19.9278 60.9509 20.1836C61.2066 20.4393 61.3503 20.7861 61.3503 21.1478Z" fill="#004D9A"/>
<path d="M67.0007 21.1478C67.0007 21.4175 66.9207 21.6811 66.7709 21.9054C66.621 22.1296 66.4081 22.3044 66.1589 22.4076C65.9097 22.5108 65.6355 22.5378 65.371 22.4852C65.1065 22.4326 64.8635 22.3027 64.6728 22.112C64.4821 21.9213 64.3523 21.6783 64.2996 21.4138C64.247 21.1493 64.274 20.8751 64.3772 20.626C64.4804 20.3768 64.6552 20.1638 64.8795 20.014C65.1037 19.8642 65.3674 19.7842 65.637 19.7842C65.9987 19.7842 66.3455 19.9278 66.6013 20.1836C66.857 20.4393 67.0007 20.7861 67.0007 21.1478Z" fill="#004D9A"/>
<path d="M72.653 21.1478C72.653 21.4175 72.573 21.6811 72.4232 21.9054C72.2734 22.1296 72.0604 22.3044 71.8112 22.4076C71.5621 22.5108 71.2879 22.5378 71.0234 22.4852C70.7588 22.4326 70.5159 22.3027 70.3252 22.112C70.1345 21.9213 70.0046 21.6783 69.952 21.4138C69.8994 21.1493 69.9264 20.8751 70.0296 20.626C70.1328 20.3768 70.3076 20.1638 70.5318 20.014C70.756 19.8642 71.0197 19.7842 71.2894 19.7842C71.651 19.7842 71.9979 19.9278 72.2536 20.1836C72.5093 20.4393 72.653 20.7861 72.653 21.1478Z" fill="#004D9A"/>
<path d="M4.87567 26.787C4.87567 27.0567 4.79569 27.3203 4.64586 27.5445C4.49602 27.7688 4.28307 27.9436 4.0339 28.0468C3.78473 28.15 3.51055 28.177 3.24603 28.1244C2.98151 28.0718 2.73854 27.9419 2.54784 27.7512C2.35713 27.5605 2.22725 27.3175 2.17464 27.053C2.12202 26.7885 2.14903 26.5143 2.25224 26.2651C2.35545 26.016 2.53022 25.803 2.75447 25.6532C2.97872 25.5033 3.24236 25.4233 3.51206 25.4233C3.69113 25.4233 3.86846 25.4586 4.0339 25.5271C4.19934 25.5957 4.34965 25.6961 4.47628 25.8227C4.6029 25.9494 4.70335 26.0997 4.77188 26.2651C4.84041 26.4306 4.87567 26.6079 4.87567 26.787Z" fill="#004D9A"/>
<path d="M10.5261 26.787C10.5261 27.0567 10.4461 27.3203 10.2962 27.5445C10.1464 27.7688 9.93346 27.9436 9.68429 28.0468C9.43512 28.15 9.16094 28.177 8.89642 28.1244C8.6319 28.0718 8.38892 27.9419 8.19822 27.7512C8.00751 27.5605 7.87764 27.3175 7.82503 27.053C7.77241 26.7885 7.79942 26.5143 7.90263 26.2651C8.00584 26.016 8.18061 25.803 8.40486 25.6532C8.62911 25.5033 8.89275 25.4233 9.16245 25.4233C9.52411 25.4233 9.87094 25.567 10.1267 25.8227C10.3824 26.0785 10.5261 26.4253 10.5261 26.787Z" fill="#004D9A"/>
<path d="M16.1667 26.787C16.1667 27.0567 16.0867 27.3203 15.9369 27.5445C15.787 27.7688 15.5741 27.9436 15.3249 28.0468C15.0757 28.15 14.8016 28.177 14.537 28.1244C14.2725 28.0718 14.0295 27.9419 13.8388 27.7512C13.6481 27.5605 13.5183 27.3175 13.4657 27.053C13.413 26.7885 13.44 26.5143 13.5433 26.2651C13.6465 26.016 13.8212 25.803 14.0455 25.6532C14.2697 25.5033 14.5334 25.4233 14.8031 25.4233C15.1647 25.4233 15.5116 25.567 15.7673 25.8227C16.023 26.0785 16.1667 26.4253 16.1667 26.787Z" fill="#004D9A"/>
<path d="M21.8171 26.787C21.8171 27.0567 21.7371 27.3203 21.5873 27.5445C21.4374 27.7688 21.2245 27.9436 20.9753 28.0468C20.7261 28.15 20.452 28.177 20.1874 28.1244C19.9229 28.0718 19.6799 27.9419 19.4892 27.7512C19.2985 27.5605 19.1687 27.3175 19.116 27.053C19.0634 26.7885 19.0904 26.5143 19.1936 26.2651C19.2969 26.016 19.4716 25.803 19.6959 25.6532C19.9201 25.5033 20.1838 25.4233 20.4534 25.4233C20.8151 25.4233 21.162 25.567 21.4177 25.8227C21.6734 26.0785 21.8171 26.4253 21.8171 26.787Z" fill="#004D9A"/>
<path d="M27.4675 26.787C27.4675 27.0567 27.3875 27.3203 27.2377 27.5445C27.0878 27.7688 26.8748 27.9436 26.6257 28.0468C26.3765 28.15 26.1023 28.177 25.8378 28.1244C25.5733 28.0718 25.3303 27.9419 25.1396 27.7512C24.9489 27.5605 24.8191 27.3175 24.7664 27.053C24.7138 26.7885 24.7408 26.5143 24.844 26.2651C24.9472 26.016 25.122 25.803 25.3463 25.6532C25.5705 25.5033 25.8342 25.4233 26.1039 25.4233C26.4655 25.4233 26.8123 25.567 27.0681 25.8227C27.3238 26.0785 27.4675 26.4253 27.4675 26.787Z" fill="#004D9A"/>
<path d="M33.1198 26.787C33.1198 27.1486 32.9761 27.4955 32.7204 27.7512C32.4647 28.0069 32.1179 28.1506 31.7562 28.1506C31.3946 28.1506 31.0477 28.0069 30.792 27.7512C30.5362 27.4955 30.3926 27.1486 30.3926 26.787C30.3926 26.4253 30.5362 26.0785 30.792 25.8227C31.0477 25.567 31.3946 25.4233 31.7562 25.4233C32.1179 25.4233 32.4647 25.567 32.7204 25.8227C32.9761 26.0785 33.1198 26.4253 33.1198 26.787Z" fill="#004D9A"/>
<path d="M38.735 26.787C38.735 27.0567 38.6551 27.3203 38.5052 27.5445C38.3554 27.7688 38.1424 27.9436 37.8933 28.0468C37.6441 28.15 37.3699 28.177 37.1054 28.1244C36.8409 28.0718 36.5979 27.9419 36.4072 27.7512C36.2165 27.5605 36.0866 27.3175 36.034 27.053C35.9814 26.7885 36.0084 26.5143 36.1116 26.2651C36.2148 26.016 36.3896 25.803 36.6138 25.6532C36.8381 25.5033 37.1017 25.4233 37.3714 25.4233C37.7331 25.4233 38.0799 25.567 38.3357 25.8227C38.5914 26.0785 38.735 26.4253 38.735 26.787Z" fill="#004D9A"/>
<path d="M44.4089 26.787C44.4089 27.0567 44.3289 27.3203 44.1791 27.5445C44.0292 27.7688 43.8163 27.9436 43.5671 28.0468C43.3179 28.15 43.0437 28.177 42.7792 28.1244C42.5147 28.0718 42.2717 27.9419 42.081 27.7512C41.8903 27.5605 41.7605 27.3175 41.7078 27.053C41.6552 26.7885 41.6822 26.5143 41.7854 26.2651C41.8886 26.016 42.0634 25.803 42.2877 25.6532C42.5119 25.5033 42.7756 25.4233 43.0453 25.4233C43.2243 25.4233 43.4016 25.4586 43.5671 25.5271C43.7325 25.5957 43.8829 25.6961 44.0095 25.8227C44.1361 25.9494 44.2365 26.0997 44.3051 26.2651C44.3736 26.4306 44.4089 26.6079 44.4089 26.787Z" fill="#004D9A"/>
<path d="M50.0593 26.787C50.0593 27.0567 49.9793 27.3203 49.8295 27.5445C49.6796 27.7688 49.4666 27.9436 49.2175 28.0468C48.9683 28.15 48.6941 28.177 48.4296 28.1244C48.1651 28.0718 47.9221 27.9419 47.7314 27.7512C47.5407 27.5605 47.4109 27.3175 47.3582 27.053C47.3056 26.7885 47.3326 26.5143 47.4358 26.2651C47.539 26.016 47.7138 25.803 47.9381 25.6532C48.1623 25.5033 48.4259 25.4233 48.6956 25.4233C49.0573 25.4233 49.4041 25.567 49.6599 25.8227C49.9156 26.0785 50.0593 26.4253 50.0593 26.787Z" fill="#004D9A"/>
<path d="M55.6999 26.787C55.6999 27.0567 55.6199 27.3203 55.4701 27.5445C55.3203 27.7688 55.1073 27.9436 54.8581 28.0468C54.6089 28.15 54.3348 28.177 54.0702 28.1244C53.8057 28.0718 53.5628 27.9419 53.3721 27.7512C53.1814 27.5605 53.0515 27.3175 52.9989 27.053C52.9462 26.7885 52.9733 26.5143 53.0765 26.2651C53.1797 26.016 53.3544 25.803 53.5787 25.6532C53.8029 25.5033 54.0666 25.4233 54.3363 25.4233C54.6979 25.4233 55.0448 25.567 55.3005 25.8227C55.5562 26.0785 55.6999 26.4253 55.6999 26.787Z" fill="#004D9A"/>
<path d="M61.3503 26.787C61.3503 27.0567 61.2703 27.3203 61.1205 27.5445C60.9706 27.7688 60.7577 27.9436 60.5085 28.0468C60.2593 28.15 59.9852 28.177 59.7206 28.1244C59.4561 28.0718 59.2132 27.9419 59.0225 27.7512C58.8317 27.5605 58.7019 27.3175 58.6492 27.053C58.5966 26.7885 58.6236 26.5143 58.7269 26.2651C58.8301 26.016 59.0048 25.803 59.2291 25.6532C59.4533 25.5033 59.717 25.4233 59.9867 25.4233C60.3483 25.4233 60.6952 25.567 60.9509 25.8227C61.2066 26.0785 61.3503 26.4253 61.3503 26.787Z" fill="#004D9A"/>
<path d="M67.0007 26.787C67.0007 27.0567 66.9207 27.3203 66.7709 27.5445C66.621 27.7688 66.4081 27.9436 66.1589 28.0468C65.9097 28.15 65.6355 28.177 65.371 28.1244C65.1065 28.0718 64.8635 27.9419 64.6728 27.7512C64.4821 27.5605 64.3523 27.3175 64.2996 27.053C64.247 26.7885 64.274 26.5143 64.3772 26.2651C64.4804 26.016 64.6552 25.803 64.8795 25.6532C65.1037 25.5033 65.3674 25.4233 65.637 25.4233C65.9987 25.4233 66.3455 25.567 66.6013 25.8227C66.857 26.0785 67.0007 26.4253 67.0007 26.787Z" fill="#004D9A"/>
<path d="M72.6512 26.787C72.6686 26.9758 72.6464 27.1662 72.5861 27.346C72.5258 27.5258 72.4287 27.691 72.3009 27.8312C72.1731 27.9713 72.0175 28.0832 71.844 28.1598C71.6705 28.2364 71.483 28.276 71.2933 28.276C71.1037 28.276 70.9161 28.2364 70.7426 28.1598C70.5691 28.0832 70.4135 27.9713 70.2857 27.8312C70.1579 27.691 70.0608 27.5258 70.0005 27.346C69.9402 27.1662 69.918 26.9758 69.9355 26.787C69.9355 26.4253 70.0791 26.0785 70.3349 25.8227C70.5906 25.567 70.9374 25.4233 71.2991 25.4233C71.6607 25.4233 72.0076 25.567 72.2633 25.8227C72.519 26.0785 72.6627 26.4253 72.6627 26.787H72.6512Z" fill="#004D9A"/>
<path d="M4.87567 32.4378C4.87567 32.7075 4.79569 32.9712 4.64586 33.1954C4.49602 33.4197 4.28307 33.5944 4.0339 33.6977C3.78473 33.8009 3.51055 33.8279 3.24603 33.7753C2.98151 33.7226 2.73854 33.5928 2.54784 33.4021C2.35713 33.2114 2.22725 32.9684 2.17464 32.7039C2.12202 32.4394 2.14903 32.1652 2.25224 31.916C2.35545 31.6668 2.53022 31.4539 2.75447 31.304C2.97872 31.1542 3.24236 31.0742 3.51206 31.0742C3.69113 31.0742 3.86846 31.1095 4.0339 31.178C4.19934 31.2465 4.34965 31.347 4.47628 31.4736C4.6029 31.6002 4.70335 31.7506 4.77188 31.916C4.84041 32.0814 4.87567 32.2588 4.87567 32.4378Z" fill="#004D9A"/>
<path d="M10.5261 32.4378C10.5261 32.7075 10.4461 32.9712 10.2962 33.1954C10.1464 33.4197 9.93346 33.5944 9.68429 33.6977C9.43512 33.8009 9.16094 33.8279 8.89642 33.7753C8.6319 33.7226 8.38892 33.5928 8.19822 33.4021C8.00751 33.2114 7.87764 32.9684 7.82503 32.7039C7.77241 32.4394 7.79942 32.1652 7.90263 31.916C8.00584 31.6668 8.18061 31.4539 8.40486 31.304C8.62911 31.1542 8.89275 31.0742 9.16245 31.0742C9.52411 31.0742 9.87094 31.2179 10.1267 31.4736C10.3824 31.7293 10.5261 32.0762 10.5261 32.4378Z" fill="#004D9A"/>
<path d="M16.1667 32.4378C16.1667 32.7075 16.0867 32.9712 15.9369 33.1954C15.787 33.4197 15.5741 33.5944 15.3249 33.6977C15.0757 33.8009 14.8016 33.8279 14.537 33.7753C14.2725 33.7226 14.0295 33.5928 13.8388 33.4021C13.6481 33.2114 13.5183 32.9684 13.4657 32.7039C13.413 32.4394 13.44 32.1652 13.5433 31.916C13.6465 31.6668 13.8212 31.4539 14.0455 31.304C14.2697 31.1542 14.5334 31.0742 14.8031 31.0742C15.1647 31.0742 15.5116 31.2179 15.7673 31.4736C16.023 31.7293 16.1667 32.0762 16.1667 32.4378Z" fill="#004D9A"/>
<path d="M21.8171 32.4378C21.8171 32.7075 21.7371 32.9712 21.5873 33.1954C21.4374 33.4197 21.2245 33.5944 20.9753 33.6977C20.7261 33.8009 20.452 33.8279 20.1874 33.7753C19.9229 33.7226 19.6799 33.5928 19.4892 33.4021C19.2985 33.2114 19.1687 32.9684 19.116 32.7039C19.0634 32.4394 19.0904 32.1652 19.1936 31.916C19.2969 31.6668 19.4716 31.4539 19.6959 31.304C19.9201 31.1542 20.1838 31.0742 20.4534 31.0742C20.8151 31.0742 21.162 31.2179 21.4177 31.4736C21.6734 31.7293 21.8171 32.0762 21.8171 32.4378Z" fill="#004D9A"/>
<path d="M27.4675 32.4378C27.4675 32.7075 27.3875 32.9712 27.2377 33.1954C27.0878 33.4197 26.8748 33.5944 26.6257 33.6977C26.3765 33.8009 26.1023 33.8279 25.8378 33.7753C25.5733 33.7226 25.3303 33.5928 25.1396 33.4021C24.9489 33.2114 24.8191 32.9684 24.7664 32.7039C24.7138 32.4394 24.7408 32.1652 24.844 31.916C24.9472 31.6668 25.122 31.4539 25.3463 31.304C25.5705 31.1542 25.8342 31.0742 26.1039 31.0742C26.4655 31.0742 26.8123 31.2179 27.0681 31.4736C27.3238 31.7293 27.4675 32.0762 27.4675 32.4378Z" fill="#004D9A"/>
<path d="M33.1198 32.4381C33.1197 32.7098 33.0384 32.9752 32.8864 33.2003C32.7344 33.4254 32.5187 33.6001 32.2668 33.7018C32.0149 33.8035 31.7384 33.8276 31.4727 33.7712C31.207 33.7147 30.9642 33.5802 30.7755 33.3848C30.5868 33.1894 30.4607 32.9422 30.4134 32.6747C30.3661 32.4072 30.3998 32.1317 30.5101 31.8835C30.6205 31.6353 30.8024 31.4256 31.0327 31.2815C31.2629 31.1374 31.5309 31.0653 31.8024 31.0745C32.156 31.0865 32.4911 31.2355 32.7369 31.4899C32.9827 31.7443 33.12 32.0843 33.1198 32.4381Z" fill="#004D9A"/>
<path d="M38.735 32.4378C38.735 32.7075 38.6551 32.9712 38.5052 33.1954C38.3554 33.4197 38.1424 33.5944 37.8933 33.6977C37.6441 33.8009 37.3699 33.8279 37.1054 33.7753C36.8409 33.7226 36.5979 33.5928 36.4072 33.4021C36.2165 33.2114 36.0866 32.9684 36.034 32.7039C35.9814 32.4394 36.0084 32.1652 36.1116 31.916C36.2148 31.6668 36.3896 31.4539 36.6138 31.304C36.8381 31.1542 37.1017 31.0742 37.3714 31.0742C37.7331 31.0742 38.0799 31.2179 38.3357 31.4736C38.5914 31.7293 38.735 32.0762 38.735 32.4378Z" fill="#004D9A"/>
<path d="M44.4089 32.4378C44.4089 32.7075 44.3289 32.9712 44.1791 33.1954C44.0292 33.4197 43.8163 33.5944 43.5671 33.6977C43.3179 33.8009 43.0437 33.8279 42.7792 33.7753C42.5147 33.7226 42.2717 33.5928 42.081 33.4021C41.8903 33.2114 41.7605 32.9684 41.7078 32.7039C41.6552 32.4394 41.6822 32.1652 41.7854 31.916C41.8886 31.6668 42.0634 31.4539 42.2877 31.304C42.5119 31.1542 42.7756 31.0742 43.0453 31.0742C43.2243 31.0742 43.4016 31.1095 43.5671 31.178C43.7325 31.2465 43.8829 31.347 44.0095 31.4736C44.1361 31.6002 44.2365 31.7506 44.3051 31.916C44.3736 32.0814 44.4089 32.2588 44.4089 32.4378Z" fill="#004D9A"/>
<path d="M50.0593 32.4378C50.0593 32.7075 49.9793 32.9712 49.8295 33.1954C49.6796 33.4197 49.4666 33.5944 49.2175 33.6977C48.9683 33.8009 48.6941 33.8279 48.4296 33.7753C48.1651 33.7226 47.9221 33.5928 47.7314 33.4021C47.5407 33.2114 47.4109 32.9684 47.3582 32.7039C47.3056 32.4394 47.3326 32.1652 47.4358 31.916C47.539 31.6668 47.7138 31.4539 47.9381 31.304C48.1623 31.1542 48.4259 31.0742 48.6956 31.0742C49.0573 31.0742 49.4041 31.2179 49.6599 31.4736C49.9156 31.7293 50.0593 32.0762 50.0593 32.4378Z" fill="#004D9A"/>
<path d="M55.6999 32.4378C55.6999 32.7075 55.6199 32.9712 55.4701 33.1954C55.3203 33.4197 55.1073 33.5944 54.8581 33.6977C54.6089 33.8009 54.3348 33.8279 54.0702 33.7753C53.8057 33.7226 53.5628 33.5928 53.3721 33.4021C53.1814 33.2114 53.0515 32.9684 52.9989 32.7039C52.9462 32.4394 52.9733 32.1652 53.0765 31.916C53.1797 31.6668 53.3544 31.4539 53.5787 31.304C53.8029 31.1542 54.0666 31.0742 54.3363 31.0742C54.6979 31.0742 55.0448 31.2179 55.3005 31.4736C55.5562 31.7293 55.6999 32.0762 55.6999 32.4378Z" fill="#004D9A"/>
<path d="M61.3503 32.4378C61.3503 32.7075 61.2703 32.9712 61.1205 33.1954C60.9706 33.4197 60.7577 33.5944 60.5085 33.6977C60.2593 33.8009 59.9852 33.8279 59.7206 33.7753C59.4561 33.7226 59.2132 33.5928 59.0225 33.4021C58.8317 33.2114 58.7019 32.9684 58.6492 32.7039C58.5966 32.4394 58.6236 32.1652 58.7269 31.916C58.8301 31.6668 59.0048 31.4539 59.2291 31.304C59.4533 31.1542 59.717 31.0742 59.9867 31.0742C60.3483 31.0742 60.6952 31.2179 60.9509 31.4736C61.2066 31.7293 61.3503 32.0762 61.3503 32.4378Z" fill="#004D9A"/>
<path d="M67.0007 32.4378C67.0007 32.7075 66.9207 32.9712 66.7709 33.1954C66.621 33.4197 66.4081 33.5944 66.1589 33.6977C65.9097 33.8009 65.6355 33.8279 65.371 33.7753C65.1065 33.7226 64.8635 33.5928 64.6728 33.4021C64.4821 33.2114 64.3523 32.9684 64.2996 32.7039C64.247 32.4394 64.274 32.1652 64.3772 31.916C64.4804 31.6668 64.6552 31.4539 64.8795 31.304C65.1037 31.1542 65.3674 31.0742 65.637 31.0742C65.9987 31.0742 66.3455 31.2179 66.6013 31.4736C66.857 31.7293 67.0007 32.0762 67.0007 32.4378Z" fill="#004D9A"/>
<path d="M72.653 32.4378C72.653 32.7075 72.573 32.9712 72.4232 33.1954C72.2734 33.4197 72.0604 33.5944 71.8112 33.6977C71.5621 33.8009 71.2879 33.8279 71.0234 33.7753C70.7588 33.7226 70.5159 33.5928 70.3252 33.4021C70.1345 33.2114 70.0046 32.9684 69.952 32.7039C69.8994 32.4394 69.9264 32.1652 70.0296 31.916C70.1328 31.6668 70.3076 31.4539 70.5318 31.304C70.756 31.1542 71.0197 31.0742 71.2894 31.0742C71.651 31.0742 71.9979 31.2179 72.2536 31.4736C72.5093 31.7293 72.653 32.0762 72.653 32.4378Z" fill="#004D9A"/>
<path d="M4.87567 38.0892C4.87567 38.3589 4.79569 38.6225 4.64586 38.8468C4.49602 39.071 4.28307 39.2458 4.0339 39.349C3.78473 39.4522 3.51055 39.4792 3.24603 39.4266C2.98151 39.374 2.73854 39.2441 2.54784 39.0534C2.35713 38.8627 2.22725 38.6198 2.17464 38.3552C2.12202 38.0907 2.14903 37.8165 2.25224 37.5674C2.35545 37.3182 2.53022 37.1052 2.75447 36.9554C2.97872 36.8056 3.24236 36.7256 3.51206 36.7256C3.69113 36.7256 3.86846 36.7609 4.0339 36.8294C4.19934 36.8979 4.34965 36.9984 4.47628 37.125C4.6029 37.2516 4.70335 37.4019 4.77188 37.5674C4.84041 37.7328 4.87567 37.9101 4.87567 38.0892Z" fill="#004D9A"/>
<path d="M10.5261 38.0892C10.5261 38.3589 10.4461 38.6225 10.2962 38.8468C10.1464 39.071 9.93346 39.2458 9.68429 39.349C9.43512 39.4522 9.16094 39.4792 8.89642 39.4266C8.6319 39.374 8.38892 39.2441 8.19822 39.0534C8.00751 38.8627 7.87764 38.6198 7.82503 38.3552C7.77241 38.0907 7.79942 37.8165 7.90263 37.5674C8.00584 37.3182 8.18061 37.1052 8.40486 36.9554C8.62911 36.8056 8.89275 36.7256 9.16245 36.7256C9.52411 36.7256 9.87094 36.8693 10.1267 37.125C10.3824 37.3807 10.5261 37.7275 10.5261 38.0892Z" fill="#004D9A"/>
<path d="M16.1667 38.0892C16.1667 38.3589 16.0867 38.6225 15.9369 38.8468C15.787 39.071 15.5741 39.2458 15.3249 39.349C15.0757 39.4522 14.8016 39.4792 14.537 39.4266C14.2725 39.374 14.0295 39.2441 13.8388 39.0534C13.6481 38.8627 13.5183 38.6198 13.4657 38.3552C13.413 38.0907 13.44 37.8165 13.5433 37.5674C13.6465 37.3182 13.8212 37.1052 14.0455 36.9554C14.2697 36.8056 14.5334 36.7256 14.8031 36.7256C15.1647 36.7256 15.5116 36.8693 15.7673 37.125C16.023 37.3807 16.1667 37.7275 16.1667 38.0892Z" fill="#004D9A"/>
<path d="M21.8171 38.0892C21.8171 38.3589 21.7371 38.6225 21.5873 38.8468C21.4374 39.071 21.2245 39.2458 20.9753 39.349C20.7261 39.4522 20.452 39.4792 20.1874 39.4266C19.9229 39.374 19.6799 39.2441 19.4892 39.0534C19.2985 38.8627 19.1687 38.6198 19.116 38.3552C19.0634 38.0907 19.0904 37.8165 19.1936 37.5674C19.2969 37.3182 19.4716 37.1052 19.6959 36.9554C19.9201 36.8056 20.1838 36.7256 20.4534 36.7256C20.8151 36.7256 21.162 36.8693 21.4177 37.125C21.6734 37.3807 21.8171 37.7275 21.8171 38.0892Z" fill="#004D9A"/>
<path d="M27.4675 38.0892C27.4675 38.3589 27.3875 38.6225 27.2377 38.8468C27.0878 39.071 26.8748 39.2458 26.6257 39.349C26.3765 39.4522 26.1023 39.4792 25.8378 39.4266C25.5733 39.374 25.3303 39.2441 25.1396 39.0534C24.9489 38.8627 24.8191 38.6198 24.7664 38.3552C24.7138 38.0907 24.7408 37.8165 24.844 37.5674C24.9472 37.3182 25.122 37.1052 25.3463 36.9554C25.5705 36.8056 25.8342 36.7256 26.1039 36.7256C26.4655 36.7256 26.8123 36.8693 27.0681 37.125C27.3238 37.3807 27.4675 37.7275 27.4675 38.0892Z" fill="#004D9A"/>
<path d="M33.1198 38.089C33.1197 38.3606 33.0384 38.626 32.8864 38.8512C32.7344 39.0763 32.5187 39.2509 32.2668 39.3526C32.0149 39.4544 31.7384 39.4785 31.4727 39.4221C31.207 39.3656 30.9642 39.231 30.7755 39.0357C30.5868 38.8403 30.4607 38.5931 30.4134 38.3256C30.3661 38.0581 30.3998 37.7826 30.5101 37.5344C30.6205 37.2861 30.8024 37.0765 31.0327 36.9324C31.2629 36.7883 31.5309 36.7162 31.8024 36.7254C32.156 36.7374 32.4911 36.8863 32.7369 37.1408C32.9827 37.3952 33.12 37.7352 33.1198 38.089Z" fill="#004D9A"/>
<path d="M38.735 38.0892C38.735 38.3589 38.6551 38.6225 38.5052 38.8468C38.3554 39.071 38.1424 39.2458 37.8933 39.349C37.6441 39.4522 37.3699 39.4792 37.1054 39.4266C36.8409 39.374 36.5979 39.2441 36.4072 39.0534C36.2165 38.8627 36.0866 38.6198 36.034 38.3552C35.9814 38.0907 36.0084 37.8165 36.1116 37.5674C36.2148 37.3182 36.3896 37.1052 36.6138 36.9554C36.8381 36.8056 37.1017 36.7256 37.3714 36.7256C37.7331 36.7256 38.0799 36.8693 38.3357 37.125C38.5914 37.3807 38.735 37.7275 38.735 38.0892Z" fill="#004D9A"/>
<path d="M44.4089 38.0892C44.4089 38.3589 44.3289 38.6225 44.1791 38.8468C44.0292 39.071 43.8163 39.2458 43.5671 39.349C43.3179 39.4522 43.0437 39.4792 42.7792 39.4266C42.5147 39.374 42.2717 39.2441 42.081 39.0534C41.8903 38.8627 41.7605 38.6198 41.7078 38.3552C41.6552 38.0907 41.6822 37.8165 41.7854 37.5674C41.8886 37.3182 42.0634 37.1052 42.2877 36.9554C42.5119 36.8056 42.7756 36.7256 43.0453 36.7256C43.2243 36.7256 43.4016 36.7609 43.5671 36.8294C43.7325 36.8979 43.8829 36.9984 44.0095 37.125C44.1361 37.2516 44.2365 37.4019 44.3051 37.5674C44.3736 37.7328 44.4089 37.9101 44.4089 38.0892Z" fill="#004D9A"/>
<path d="M50.0593 38.0892C50.0593 38.3589 49.9793 38.6225 49.8295 38.8468C49.6796 39.071 49.4666 39.2458 49.2175 39.349C48.9683 39.4522 48.6941 39.4792 48.4296 39.4266C48.1651 39.374 47.9221 39.2441 47.7314 39.0534C47.5407 38.8627 47.4109 38.6198 47.3582 38.3552C47.3056 38.0907 47.3326 37.8165 47.4358 37.5674C47.539 37.3182 47.7138 37.1052 47.9381 36.9554C48.1623 36.8056 48.4259 36.7256 48.6956 36.7256C49.0573 36.7256 49.4041 36.8693 49.6599 37.125C49.9156 37.3807 50.0593 37.7275 50.0593 38.0892Z" fill="#004D9A"/>
<path d="M55.6999 38.0892C55.6999 38.3589 55.6199 38.6225 55.4701 38.8468C55.3203 39.071 55.1073 39.2458 54.8581 39.349C54.6089 39.4522 54.3348 39.4792 54.0702 39.4266C53.8057 39.374 53.5628 39.2441 53.3721 39.0534C53.1814 38.8627 53.0515 38.6198 52.9989 38.3552C52.9462 38.0907 52.9733 37.8165 53.0765 37.5674C53.1797 37.3182 53.3544 37.1052 53.5787 36.9554C53.8029 36.8056 54.0666 36.7256 54.3363 36.7256C54.6979 36.7256 55.0448 36.8693 55.3005 37.125C55.5562 37.3807 55.6999 37.7275 55.6999 38.0892Z" fill="#004D9A"/>
<path d="M61.3503 38.0892C61.3503 38.3589 61.2703 38.6225 61.1205 38.8468C60.9706 39.071 60.7577 39.2458 60.5085 39.349C60.2593 39.4522 59.9852 39.4792 59.7206 39.4266C59.4561 39.374 59.2132 39.2441 59.0225 39.0534C58.8317 38.8627 58.7019 38.6198 58.6492 38.3552C58.5966 38.0907 58.6236 37.8165 58.7269 37.5674C58.8301 37.3182 59.0048 37.1052 59.2291 36.9554C59.4533 36.8056 59.717 36.7256 59.9867 36.7256C60.3483 36.7256 60.6952 36.8693 60.9509 37.125C61.2066 37.3807 61.3503 37.7275 61.3503 38.0892Z" fill="#004D9A"/>
<path d="M67.0007 38.0892C67.0007 38.3589 66.9207 38.6225 66.7709 38.8468C66.621 39.071 66.4081 39.2458 66.1589 39.349C65.9097 39.4522 65.6355 39.4792 65.371 39.4266C65.1065 39.374 64.8635 39.2441 64.6728 39.0534C64.4821 38.8627 64.3523 38.6198 64.2996 38.3552C64.247 38.0907 64.274 37.8165 64.3772 37.5674C64.4804 37.3182 64.6552 37.1052 64.8795 36.9554C65.1037 36.8056 65.3674 36.7256 65.637 36.7256C65.9987 36.7256 66.3455 36.8693 66.6013 37.125C66.857 37.3807 67.0007 37.7275 67.0007 38.0892Z" fill="#004D9A"/>
<path d="M72.653 38.0892C72.653 38.3589 72.573 38.6225 72.4232 38.8468C72.2734 39.071 72.0604 39.2458 71.8112 39.349C71.5621 39.4522 71.2879 39.4792 71.0234 39.4266C70.7588 39.374 70.5159 39.2441 70.3252 39.0534C70.1345 38.8627 70.0046 38.6198 69.952 38.3552C69.8994 38.0907 69.9264 37.8165 70.0296 37.5674C70.1328 37.3182 70.3076 37.1052 70.5318 36.9554C70.756 36.8056 71.0197 36.7256 71.2894 36.7256C71.651 36.7256 71.9979 36.8693 72.2536 37.125C72.5093 37.3807 72.653 37.7275 72.653 38.0892Z" fill="#004D9A"/>
<path d="M4.87567 43.7401C4.87567 44.0098 4.79569 44.2734 4.64586 44.4977C4.49602 44.7219 4.28307 44.8967 4.0339 44.9999C3.78473 45.1031 3.51055 45.1301 3.24603 45.0775C2.98151 45.0249 2.73854 44.895 2.54784 44.7043C2.35713 44.5136 2.22725 44.2706 2.17464 44.0061C2.12202 43.7416 2.14903 43.4674 2.25224 43.2183C2.35545 42.9691 2.53022 42.7561 2.75447 42.6063C2.97872 42.4564 3.24236 42.3765 3.51206 42.3765C3.69113 42.3765 3.86846 42.4117 4.0339 42.4803C4.19934 42.5488 4.34965 42.6492 4.47628 42.7759C4.6029 42.9025 4.70335 43.0528 4.77188 43.2183C4.84041 43.3837 4.87567 43.561 4.87567 43.7401Z" fill="#004D9A"/>
<path d="M10.5261 43.7401C10.5261 44.0098 10.4461 44.2734 10.2962 44.4977C10.1464 44.7219 9.93346 44.8967 9.68429 44.9999C9.43512 45.1031 9.16094 45.1301 8.89642 45.0775C8.6319 45.0249 8.38892 44.895 8.19822 44.7043C8.00751 44.5136 7.87764 44.2706 7.82503 44.0061C7.77241 43.7416 7.79942 43.4674 7.90263 43.2183C8.00584 42.9691 8.18061 42.7561 8.40486 42.6063C8.62911 42.4564 8.89275 42.3765 9.16245 42.3765C9.52411 42.3765 9.87094 42.5201 10.1267 42.7759C10.3824 43.0316 10.5261 43.3784 10.5261 43.7401Z" fill="#004D9A"/>
<path d="M16.1667 43.7401C16.1667 44.0098 16.0867 44.2734 15.9369 44.4977C15.787 44.7219 15.5741 44.8967 15.3249 44.9999C15.0757 45.1031 14.8016 45.1301 14.537 45.0775C14.2725 45.0249 14.0295 44.895 13.8388 44.7043C13.6481 44.5136 13.5183 44.2706 13.4657 44.0061C13.413 43.7416 13.44 43.4674 13.5433 43.2183C13.6465 42.9691 13.8212 42.7561 14.0455 42.6063C14.2697 42.4564 14.5334 42.3765 14.8031 42.3765C15.1647 42.3765 15.5116 42.5201 15.7673 42.7759C16.023 43.0316 16.1667 43.3784 16.1667 43.7401Z" fill="#004D9A"/>
<path d="M21.8171 43.7401C21.8171 44.0098 21.7371 44.2734 21.5873 44.4977C21.4374 44.7219 21.2245 44.8967 20.9753 44.9999C20.7261 45.1031 20.452 45.1301 20.1874 45.0775C19.9229 45.0249 19.6799 44.895 19.4892 44.7043C19.2985 44.5136 19.1687 44.2706 19.116 44.0061C19.0634 43.7416 19.0904 43.4674 19.1936 43.2183C19.2969 42.9691 19.4716 42.7561 19.6959 42.6063C19.9201 42.4564 20.1838 42.3765 20.4534 42.3765C20.8151 42.3765 21.162 42.5201 21.4177 42.7759C21.6734 43.0316 21.8171 43.3784 21.8171 43.7401Z" fill="#004D9A"/>
<path d="M27.4675 43.7401C27.4675 44.0098 27.3875 44.2734 27.2377 44.4977C27.0878 44.7219 26.8748 44.8967 26.6257 44.9999C26.3765 45.1031 26.1023 45.1301 25.8378 45.0775C25.5733 45.0249 25.3303 44.895 25.1396 44.7043C24.9489 44.5136 24.8191 44.2706 24.7664 44.0061C24.7138 43.7416 24.7408 43.4674 24.844 43.2183C24.9472 42.9691 25.122 42.7561 25.3463 42.6063C25.5705 42.4564 25.8342 42.3765 26.1039 42.3765C26.4655 42.3765 26.8123 42.5201 27.0681 42.7759C27.3238 43.0316 27.4675 43.3784 27.4675 43.7401Z" fill="#004D9A"/>
<path d="M33.1198 43.7399C33.1197 44.0115 33.0384 44.2769 32.8864 44.5021C32.7344 44.7272 32.5187 44.9018 32.2668 45.0035C32.0149 45.1052 31.7384 45.1294 31.4727 45.0729C31.207 45.0165 30.9642 44.8819 30.7755 44.6866C30.5868 44.4912 30.4607 44.2439 30.4134 43.9764C30.3661 43.709 30.3998 43.4334 30.5101 43.1852C30.6205 42.937 30.8024 42.7274 31.0327 42.5833C31.2629 42.4391 31.5309 42.3671 31.8024 42.3763C32.156 42.3883 32.4911 42.5372 32.7369 42.7916C32.9827 43.0461 33.12 43.3861 33.1198 43.7399Z" fill="#004D9A"/>
<path d="M38.735 43.7401C38.735 44.0098 38.6551 44.2734 38.5052 44.4977C38.3554 44.7219 38.1424 44.8967 37.8933 44.9999C37.6441 45.1031 37.3699 45.1301 37.1054 45.0775C36.8409 45.0249 36.5979 44.895 36.4072 44.7043C36.2165 44.5136 36.0866 44.2706 36.034 44.0061C35.9814 43.7416 36.0084 43.4674 36.1116 43.2183C36.2148 42.9691 36.3896 42.7561 36.6138 42.6063C36.8381 42.4564 37.1017 42.3765 37.3714 42.3765C37.7331 42.3765 38.0799 42.5201 38.3357 42.7759C38.5914 43.0316 38.735 43.3784 38.735 43.7401Z" fill="#004D9A"/>
<path d="M44.4089 43.7401C44.4089 44.0098 44.3289 44.2734 44.1791 44.4977C44.0292 44.7219 43.8163 44.8967 43.5671 44.9999C43.3179 45.1031 43.0437 45.1301 42.7792 45.0775C42.5147 45.0249 42.2717 44.895 42.081 44.7043C41.8903 44.5136 41.7605 44.2706 41.7078 44.0061C41.6552 43.7416 41.6822 43.4674 41.7854 43.2183C41.8886 42.9691 42.0634 42.7561 42.2877 42.6063C42.5119 42.4564 42.7756 42.3765 43.0453 42.3765C43.2243 42.3765 43.4016 42.4117 43.5671 42.4803C43.7325 42.5488 43.8829 42.6492 44.0095 42.7759C44.1361 42.9025 44.2365 43.0528 44.3051 43.2183C44.3736 43.3837 44.4089 43.561 44.4089 43.7401Z" fill="#004D9A"/>
<path d="M50.0593 43.7401C50.0593 44.0098 49.9793 44.2734 49.8295 44.4977C49.6796 44.7219 49.4666 44.8967 49.2175 44.9999C48.9683 45.1031 48.6941 45.1301 48.4296 45.0775C48.1651 45.0249 47.9221 44.895 47.7314 44.7043C47.5407 44.5136 47.4109 44.2706 47.3582 44.0061C47.3056 43.7416 47.3326 43.4674 47.4358 43.2183C47.539 42.9691 47.7138 42.7561 47.9381 42.6063C48.1623 42.4564 48.4259 42.3765 48.6956 42.3765C49.0573 42.3765 49.4041 42.5201 49.6599 42.7759C49.9156 43.0316 50.0593 43.3784 50.0593 43.7401Z" fill="#004D9A"/>
<path d="M55.6999 43.7401C55.6999 44.0098 55.6199 44.2734 55.4701 44.4977C55.3203 44.7219 55.1073 44.8967 54.8581 44.9999C54.6089 45.1031 54.3348 45.1301 54.0702 45.0775C53.8057 45.0249 53.5628 44.895 53.3721 44.7043C53.1814 44.5136 53.0515 44.2706 52.9989 44.0061C52.9462 43.7416 52.9733 43.4674 53.0765 43.2183C53.1797 42.9691 53.3544 42.7561 53.5787 42.6063C53.8029 42.4564 54.0666 42.3765 54.3363 42.3765C54.6979 42.3765 55.0448 42.5201 55.3005 42.7759C55.5562 43.0316 55.6999 43.3784 55.6999 43.7401Z" fill="#004D9A"/>
<path d="M61.3503 43.7401C61.3503 44.0098 61.2703 44.2734 61.1205 44.4977C60.9706 44.7219 60.7577 44.8967 60.5085 44.9999C60.2593 45.1031 59.9852 45.1301 59.7206 45.0775C59.4561 45.0249 59.2132 44.895 59.0225 44.7043C58.8317 44.5136 58.7019 44.2706 58.6492 44.0061C58.5966 43.7416 58.6236 43.4674 58.7269 43.2183C58.8301 42.9691 59.0048 42.7561 59.2291 42.6063C59.4533 42.4564 59.717 42.3765 59.9867 42.3765C60.3483 42.3765 60.6952 42.5201 60.9509 42.7759C61.2066 43.0316 61.3503 43.3784 61.3503 43.7401Z" fill="#004D9A"/>
<path d="M67.0007 43.7401C67.0007 44.0098 66.9207 44.2734 66.7709 44.4977C66.621 44.7219 66.4081 44.8967 66.1589 44.9999C65.9097 45.1031 65.6355 45.1301 65.371 45.0775C65.1065 45.0249 64.8635 44.895 64.6728 44.7043C64.4821 44.5136 64.3523 44.2706 64.2996 44.0061C64.247 43.7416 64.274 43.4674 64.3772 43.2183C64.4804 42.9691 64.6552 42.7561 64.8795 42.6063C65.1037 42.4564 65.3674 42.3765 65.637 42.3765C65.9987 42.3765 66.3455 42.5201 66.6013 42.7759C66.857 43.0316 67.0007 43.3784 67.0007 43.7401Z" fill="#004D9A"/>
<path d="M72.653 43.7401C72.653 44.0098 72.573 44.2734 72.4232 44.4977C72.2734 44.7219 72.0604 44.8967 71.8112 44.9999C71.5621 45.1031 71.2879 45.1301 71.0234 45.0775C70.7588 45.0249 70.5159 44.895 70.3252 44.7043C70.1345 44.5136 70.0046 44.2706 69.952 44.0061C69.8994 43.7416 69.9264 43.4674 70.0296 43.2183C70.1328 42.9691 70.3076 42.7561 70.5318 42.6063C70.756 42.4564 71.0197 42.3765 71.2894 42.3765C71.651 42.3765 71.9979 42.5201 72.2536 42.7759C72.5093 43.0316 72.653 43.3784 72.653 43.7401Z" fill="#004D9A"/>
<path d="M4.87567 49.3792C4.87567 49.6489 4.79569 49.9126 4.64586 50.1368C4.49602 50.3611 4.28307 50.5358 4.0339 50.6391C3.78473 50.7423 3.51055 50.7693 3.24603 50.7167C2.98151 50.664 2.73854 50.5342 2.54784 50.3435C2.35713 50.1528 2.22725 49.9098 2.17464 49.6453C2.12202 49.3807 2.14903 49.1066 2.25224 48.8574C2.35545 48.6082 2.53022 48.3953 2.75447 48.2454C2.97872 48.0956 3.24236 48.0156 3.51206 48.0156C3.69113 48.0156 3.86846 48.0509 4.0339 48.1194C4.19934 48.188 4.34965 48.2884 4.47628 48.415C4.6029 48.5416 4.70335 48.692 4.77188 48.8574C4.84041 49.0228 4.87567 49.2002 4.87567 49.3792Z" fill="#004D9A"/>
<path d="M10.5261 49.3792C10.5261 49.6489 10.4461 49.9126 10.2962 50.1368C10.1464 50.3611 9.93346 50.5358 9.68429 50.6391C9.43512 50.7423 9.16094 50.7693 8.89642 50.7167C8.6319 50.664 8.38892 50.5342 8.19822 50.3435C8.00751 50.1528 7.87764 49.9098 7.82503 49.6453C7.77241 49.3807 7.79942 49.1066 7.90263 48.8574C8.00584 48.6082 8.18061 48.3953 8.40486 48.2454C8.62911 48.0956 8.89275 48.0156 9.16245 48.0156C9.52411 48.0156 9.87094 48.1593 10.1267 48.415C10.3824 48.6707 10.5261 49.0176 10.5261 49.3792Z" fill="#004D9A"/>
<path d="M16.1667 49.3793C16.1667 49.649 16.0867 49.9126 15.9369 50.1369C15.787 50.3611 15.5741 50.5359 15.3249 50.6391C15.0757 50.7423 14.8016 50.7693 14.537 50.7167C14.2725 50.6641 14.0295 50.5342 13.8388 50.3435C13.6481 50.1528 13.5183 49.9098 13.4657 49.6453C13.413 49.3808 13.44 49.1066 13.5433 48.8575C13.6465 48.6083 13.8212 48.3953 14.0455 48.2455C14.2697 48.0956 14.5334 48.0157 14.8031 48.0157C14.9826 48.0141 15.1606 48.0484 15.3267 48.1163C15.4928 48.1843 15.6438 48.2847 15.7707 48.4116C15.8977 48.5386 15.998 48.6895 16.066 48.8556C16.134 49.0218 16.1682 49.1998 16.1667 49.3793Z" fill="#004D9A"/>
<path d="M21.8171 49.3792C21.8171 49.6489 21.7371 49.9126 21.5873 50.1368C21.4374 50.3611 21.2245 50.5358 20.9753 50.6391C20.7261 50.7423 20.452 50.7693 20.1874 50.7167C19.9229 50.664 19.6799 50.5342 19.4892 50.3435C19.2985 50.1528 19.1687 49.9098 19.116 49.6453C19.0634 49.3807 19.0904 49.1066 19.1936 48.8574C19.2969 48.6082 19.4716 48.3953 19.6959 48.2454C19.9201 48.0956 20.1838 48.0156 20.4534 48.0156C20.8151 48.0156 21.162 48.1593 21.4177 48.415C21.6734 48.6707 21.8171 49.0176 21.8171 49.3792Z" fill="#004D9A"/>
<path d="M27.4675 49.3792C27.4675 49.6489 27.3875 49.9126 27.2377 50.1368C27.0878 50.3611 26.8748 50.5358 26.6257 50.6391C26.3765 50.7423 26.1023 50.7693 25.8378 50.7167C25.5733 50.664 25.3303 50.5342 25.1396 50.3435C24.9489 50.1528 24.8191 49.9098 24.7664 49.6453C24.7138 49.3807 24.7408 49.1066 24.844 48.8574C24.9472 48.6082 25.122 48.3953 25.3463 48.2454C25.5705 48.0956 25.8342 48.0156 26.1039 48.0156C26.4655 48.0156 26.8123 48.1593 27.0681 48.415C27.3238 48.6707 27.4675 49.0176 27.4675 49.3792Z" fill="#004D9A"/>
<path d="M33.1198 49.379C33.1197 49.6507 33.0384 49.9161 32.8864 50.1412C32.7344 50.3664 32.5187 50.541 32.2668 50.6427C32.0149 50.7444 31.7384 50.7686 31.4727 50.7121C31.207 50.6556 30.9642 50.5211 30.7755 50.3257C30.5868 50.1304 30.4607 49.8831 30.4134 49.6156C30.3661 49.3481 30.3998 49.0726 30.5101 48.8244C30.6205 48.5762 30.8024 48.3666 31.0327 48.2224C31.2629 48.0783 31.5309 48.0062 31.8024 48.0154C32.156 48.0274 32.4911 48.1764 32.7369 48.4308C32.9827 48.6852 33.12 49.0253 33.1198 49.379Z" fill="#004D9A"/>
<path d="M38.735 49.3792C38.735 49.6489 38.6551 49.9126 38.5052 50.1368C38.3554 50.3611 38.1424 50.5358 37.8933 50.6391C37.6441 50.7423 37.3699 50.7693 37.1054 50.7167C36.8409 50.664 36.5979 50.5342 36.4072 50.3435C36.2165 50.1528 36.0866 49.9098 36.034 49.6453C35.9814 49.3807 36.0084 49.1066 36.1116 48.8574C36.2148 48.6082 36.3896 48.3953 36.6138 48.2454C36.8381 48.0956 37.1017 48.0156 37.3714 48.0156C37.7331 48.0156 38.0799 48.1593 38.3357 48.415C38.5914 48.6707 38.735 49.0176 38.735 49.3792Z" fill="#004D9A"/>
<path d="M44.4089 49.3792C44.4089 49.6489 44.3289 49.9126 44.1791 50.1368C44.0292 50.3611 43.8163 50.5358 43.5671 50.6391C43.3179 50.7423 43.0437 50.7693 42.7792 50.7167C42.5147 50.664 42.2717 50.5342 42.081 50.3435C41.8903 50.1528 41.7605 49.9098 41.7078 49.6453C41.6552 49.3807 41.6822 49.1066 41.7854 48.8574C41.8886 48.6082 42.0634 48.3953 42.2877 48.2454C42.5119 48.0956 42.7756 48.0156 43.0453 48.0156C43.2243 48.0156 43.4016 48.0509 43.5671 48.1194C43.7325 48.188 43.8829 48.2884 44.0095 48.415C44.1361 48.5416 44.2365 48.692 44.3051 48.8574C44.3736 49.0228 44.4089 49.2002 44.4089 49.3792Z" fill="#004D9A"/>
<path d="M50.0593 49.3792C50.0593 49.6489 49.9793 49.9126 49.8295 50.1368C49.6796 50.3611 49.4666 50.5358 49.2175 50.6391C48.9683 50.7423 48.6941 50.7693 48.4296 50.7167C48.1651 50.664 47.9221 50.5342 47.7314 50.3435C47.5407 50.1528 47.4109 49.9098 47.3582 49.6453C47.3056 49.3807 47.3326 49.1066 47.4358 48.8574C47.539 48.6082 47.7138 48.3953 47.9381 48.2454C48.1623 48.0956 48.4259 48.0156 48.6956 48.0156C49.0573 48.0156 49.4041 48.1593 49.6599 48.415C49.9156 48.6707 50.0593 49.0176 50.0593 49.3792Z" fill="#004D9A"/>
<path d="M55.6999 49.3792C55.6999 49.7409 55.5562 50.0877 55.3005 50.3435C55.0448 50.5992 54.6979 50.7429 54.3363 50.7429C53.9746 50.7429 53.6278 50.5992 53.372 50.3435C53.1163 50.0877 52.9727 49.7409 52.9727 49.3792C52.9727 49.0176 53.1163 48.6707 53.372 48.415C53.6278 48.1593 53.9746 48.0156 54.3363 48.0156C54.6979 48.0156 55.0448 48.1593 55.3005 48.415C55.5562 48.6707 55.6999 49.0176 55.6999 49.3792Z" fill="#004D9A"/>
<path d="M61.3503 49.3792C61.3503 49.6489 61.2703 49.9126 61.1205 50.1368C60.9706 50.3611 60.7577 50.5358 60.5085 50.6391C60.2593 50.7423 59.9852 50.7693 59.7206 50.7167C59.4561 50.664 59.2132 50.5342 59.0225 50.3435C58.8317 50.1528 58.7019 49.9098 58.6492 49.6453C58.5966 49.3807 58.6236 49.1066 58.7269 48.8574C58.8301 48.6082 59.0048 48.3953 59.2291 48.2454C59.4533 48.0956 59.717 48.0156 59.9867 48.0156C60.3483 48.0156 60.6952 48.1593 60.9509 48.415C61.2066 48.6707 61.3503 49.0176 61.3503 49.3792Z" fill="#004D9A"/>
<path d="M67.0007 49.3792C67.0007 49.6489 66.9207 49.9126 66.7709 50.1368C66.621 50.3611 66.4081 50.5358 66.1589 50.6391C65.9097 50.7423 65.6355 50.7693 65.371 50.7167C65.1065 50.664 64.8635 50.5342 64.6728 50.3435C64.4821 50.1528 64.3523 49.9098 64.2996 49.6453C64.247 49.3807 64.274 49.1066 64.3772 48.8574C64.4804 48.6082 64.6552 48.3953 64.8795 48.2454C65.1037 48.0956 65.3674 48.0156 65.637 48.0156C65.9987 48.0156 66.3455 48.1593 66.6013 48.415C66.857 48.6707 67.0007 49.0176 67.0007 49.3792Z" fill="#004D9A"/>
<path d="M72.653 49.3792C72.653 49.6489 72.573 49.9126 72.4232 50.1368C72.2734 50.3611 72.0604 50.5358 71.8112 50.6391C71.5621 50.7423 71.2879 50.7693 71.0234 50.7167C70.7588 50.664 70.5159 50.5342 70.3252 50.3435C70.1345 50.1528 70.0046 49.9098 69.952 49.6453C69.8994 49.3807 69.9264 49.1066 70.0296 48.8574C70.1328 48.6082 70.3076 48.3953 70.5318 48.2454C70.756 48.0956 71.0197 48.0156 71.2894 48.0156C71.651 48.0156 71.9979 48.1593 72.2536 48.415C72.5093 48.6707 72.653 49.0176 72.653 49.3792Z" fill="#004D9A"/>
<path d="M4.87567 55.0301C4.87567 55.2998 4.79569 55.5635 4.64586 55.7877C4.49602 56.0119 4.28307 56.1867 4.0339 56.2899C3.78473 56.3931 3.51055 56.4202 3.24603 56.3675C2.98151 56.3149 2.73854 56.185 2.54784 55.9943C2.35713 55.8036 2.22725 55.5607 2.17464 55.2961C2.12202 55.0316 2.14903 54.7575 2.25224 54.5083C2.35545 54.2591 2.53022 54.0461 2.75447 53.8963C2.97872 53.7465 3.24236 53.6665 3.51206 53.6665C3.69113 53.6665 3.86846 53.7018 4.0339 53.7703C4.19934 53.8388 4.34965 53.9393 4.47628 54.0659C4.6029 54.1925 4.70335 54.3428 4.77188 54.5083C4.84041 54.6737 4.87567 54.851 4.87567 55.0301Z" fill="#004D9A"/>
<path d="M10.5261 55.0301C10.5261 55.2998 10.4461 55.5635 10.2962 55.7877C10.1464 56.0119 9.93346 56.1867 9.68429 56.2899C9.43512 56.3931 9.16094 56.4202 8.89642 56.3675C8.6319 56.3149 8.38892 56.185 8.19822 55.9943C8.00751 55.8036 7.87764 55.5607 7.82503 55.2961C7.77241 55.0316 7.79942 54.7575 7.90263 54.5083C8.00584 54.2591 8.18061 54.0461 8.40486 53.8963C8.62911 53.7465 8.89275 53.6665 9.16245 53.6665C9.34152 53.6665 9.51885 53.7018 9.68429 53.7703C9.84973 53.8388 10 53.9393 10.1267 54.0659C10.2533 54.1925 10.3537 54.3428 10.4223 54.5083C10.4908 54.6737 10.5261 54.851 10.5261 55.0301Z" fill="#004D9A"/>
<path d="M16.1667 55.0301C16.1667 55.2998 16.0867 55.5635 15.9369 55.7877C15.787 56.0119 15.5741 56.1867 15.3249 56.2899C15.0757 56.3931 14.8016 56.4202 14.537 56.3675C14.2725 56.3149 14.0295 56.185 13.8388 55.9943C13.6481 55.8036 13.5183 55.5607 13.4657 55.2961C13.413 55.0316 13.44 54.7575 13.5433 54.5083C13.6465 54.2591 13.8212 54.0461 14.0455 53.8963C14.2697 53.7465 14.5334 53.6665 14.8031 53.6665C14.9821 53.6665 15.1595 53.7018 15.3249 53.7703C15.4903 53.8388 15.6407 53.9393 15.7673 54.0659C15.8939 54.1925 15.9944 54.3428 16.0629 54.5083C16.1314 54.6737 16.1667 54.851 16.1667 55.0301Z" fill="#004D9A"/>
<path d="M21.8171 55.0301C21.8171 55.2998 21.7371 55.5635 21.5873 55.7877C21.4374 56.0119 21.2245 56.1867 20.9753 56.2899C20.7261 56.3931 20.452 56.4202 20.1874 56.3675C19.9229 56.3149 19.6799 56.185 19.4892 55.9943C19.2985 55.8036 19.1687 55.5607 19.116 55.2961C19.0634 55.0316 19.0904 54.7575 19.1936 54.5083C19.2969 54.2591 19.4716 54.0461 19.6959 53.8963C19.9201 53.7465 20.1838 53.6665 20.4534 53.6665C20.6325 53.6665 20.8098 53.7018 20.9753 53.7703C21.1407 53.8388 21.2911 53.9393 21.4177 54.0659C21.5443 54.1925 21.6447 54.3428 21.7133 54.5083C21.7818 54.6737 21.8171 54.851 21.8171 55.0301Z" fill="#004D9A"/>
<path d="M27.4675 55.0301C27.4675 55.2998 27.3875 55.5635 27.2377 55.7877C27.0878 56.0119 26.8748 56.1867 26.6257 56.2899C26.3765 56.3931 26.1023 56.4202 25.8378 56.3675C25.5733 56.3149 25.3303 56.185 25.1396 55.9943C24.9489 55.8036 24.8191 55.5607 24.7664 55.2961C24.7138 55.0316 24.7408 54.7575 24.844 54.5083C24.9472 54.2591 25.122 54.0461 25.3463 53.8963C25.5705 53.7465 25.8342 53.6665 26.1039 53.6665C26.2829 53.6665 26.4602 53.7018 26.6257 53.7703C26.7911 53.8388 26.9415 53.9393 27.0681 54.0659C27.1947 54.1925 27.2951 54.3428 27.3637 54.5083C27.4322 54.6737 27.4675 54.851 27.4675 55.0301Z" fill="#004D9A"/>
<path d="M33.1198 55.0304C33.1197 55.3021 33.0384 55.5674 32.8864 55.7926C32.7344 56.0177 32.5187 56.1923 32.2668 56.294C32.0149 56.3958 31.7384 56.4199 31.4727 56.3634C31.207 56.307 30.9642 56.1724 30.7755 55.9771C30.5868 55.7817 30.4607 55.5345 30.4134 55.267C30.3661 54.9995 30.3998 54.724 30.5101 54.4758C30.6205 54.2275 30.8024 54.0179 31.0327 53.8738C31.2629 53.7297 31.5309 53.6576 31.8024 53.6668C32.156 53.6788 32.4911 53.8277 32.7369 54.0822C32.9827 54.3366 33.12 54.6766 33.1198 55.0304Z" fill="#004D9A"/>
<path d="M38.735 55.0301C38.735 55.2998 38.6551 55.5635 38.5052 55.7877C38.3554 56.0119 38.1424 56.1867 37.8933 56.2899C37.6441 56.3931 37.3699 56.4202 37.1054 56.3675C36.8409 56.3149 36.5979 56.185 36.4072 55.9943C36.2165 55.8036 36.0866 55.5607 36.034 55.2961C35.9814 55.0316 36.0084 54.7575 36.1116 54.5083C36.2148 54.2591 36.3896 54.0461 36.6138 53.8963C36.8381 53.7465 37.1017 53.6665 37.3714 53.6665C37.5505 53.6665 37.7278 53.7018 37.8933 53.7703C38.0587 53.8388 38.209 53.9393 38.3357 54.0659C38.4623 54.1925 38.5627 54.3428 38.6312 54.5083C38.6998 54.6737 38.735 54.851 38.735 55.0301Z" fill="#004D9A"/>
<path d="M44.4089 55.0301C44.4089 55.2998 44.3289 55.5635 44.1791 55.7877C44.0292 56.0119 43.8163 56.1867 43.5671 56.2899C43.3179 56.3931 43.0437 56.4202 42.7792 56.3675C42.5147 56.3149 42.2717 56.185 42.081 55.9943C41.8903 55.8036 41.7605 55.5607 41.7078 55.2961C41.6552 55.0316 41.6822 54.7575 41.7854 54.5083C41.8886 54.2591 42.0634 54.0461 42.2877 53.8963C42.5119 53.7465 42.7756 53.6665 43.0453 53.6665C43.2243 53.6665 43.4016 53.7018 43.5671 53.7703C43.7325 53.8388 43.8829 53.9393 44.0095 54.0659C44.1361 54.1925 44.2365 54.3428 44.3051 54.5083C44.3736 54.6737 44.4089 54.851 44.4089 55.0301Z" fill="#004D9A"/>
<path d="M50.0593 55.0301C50.0593 55.2998 49.9793 55.5635 49.8295 55.7877C49.6796 56.0119 49.4666 56.1867 49.2175 56.2899C48.9683 56.3931 48.6941 56.4202 48.4296 56.3675C48.1651 56.3149 47.9221 56.185 47.7314 55.9943C47.5407 55.8036 47.4109 55.5607 47.3582 55.2961C47.3056 55.0316 47.3326 54.7575 47.4358 54.5083C47.539 54.2591 47.7138 54.0461 47.9381 53.8963C48.1623 53.7465 48.4259 53.6665 48.6956 53.6665C48.8747 53.6665 49.052 53.7018 49.2175 53.7703C49.3829 53.8388 49.5333 53.9393 49.6599 54.0659C49.7865 54.1925 49.8869 54.3428 49.9555 54.5083C50.024 54.6737 50.0593 54.851 50.0593 55.0301Z" fill="#004D9A"/>
<path d="M55.6999 55.0301C55.6999 55.2998 55.6199 55.5635 55.4701 55.7877C55.3203 56.0119 55.1073 56.1867 54.8581 56.2899C54.6089 56.3931 54.3348 56.4202 54.0702 56.3675C53.8057 56.3149 53.5628 56.185 53.3721 55.9943C53.1814 55.8036 53.0515 55.5607 52.9989 55.2961C52.9462 55.0316 52.9733 54.7575 53.0765 54.5083C53.1797 54.2591 53.3544 54.0461 53.5787 53.8963C53.8029 53.7465 54.0666 53.6665 54.3363 53.6665C54.5154 53.6665 54.6927 53.7018 54.8581 53.7703C55.0236 53.8388 55.1739 53.9393 55.3005 54.0659C55.4271 54.1925 55.5276 54.3428 55.5961 54.5083C55.6646 54.6737 55.6999 54.851 55.6999 55.0301Z" fill="#004D9A"/>
<path d="M61.3503 55.0301C61.3503 55.2998 61.2703 55.5635 61.1205 55.7877C60.9706 56.0119 60.7577 56.1867 60.5085 56.2899C60.2593 56.3931 59.9852 56.4202 59.7206 56.3675C59.4561 56.3149 59.2132 56.185 59.0225 55.9943C58.8317 55.8036 58.7019 55.5607 58.6492 55.2961C58.5966 55.0316 58.6236 54.7575 58.7269 54.5083C58.8301 54.2591 59.0048 54.0461 59.2291 53.8963C59.4533 53.7465 59.717 53.6665 59.9867 53.6665C60.1657 53.6665 60.3431 53.7018 60.5085 53.7703C60.6739 53.8388 60.8243 53.9393 60.9509 54.0659C61.0775 54.1925 61.178 54.3428 61.2465 54.5083C61.315 54.6737 61.3503 54.851 61.3503 55.0301Z" fill="#004D9A"/>
<path d="M67.0007 55.0301C67.0007 55.2998 66.9207 55.5635 66.7709 55.7877C66.621 56.0119 66.4081 56.1867 66.1589 56.2899C65.9097 56.3931 65.6355 56.4202 65.371 56.3675C65.1065 56.3149 64.8635 56.185 64.6728 55.9943C64.4821 55.8036 64.3523 55.5607 64.2996 55.2961C64.247 55.0316 64.274 54.7575 64.3772 54.5083C64.4804 54.2591 64.6552 54.0461 64.8795 53.8963C65.1037 53.7465 65.3674 53.6665 65.637 53.6665C65.8161 53.6665 65.9934 53.7018 66.1589 53.7703C66.3243 53.8388 66.4746 53.9393 66.6013 54.0659C66.7279 54.1925 66.8283 54.3428 66.8969 54.5083C66.9654 54.6737 67.0007 54.851 67.0007 55.0301Z" fill="#004D9A"/>
<path d="M72.653 55.0301C72.653 55.2998 72.573 55.5635 72.4232 55.7877C72.2734 56.0119 72.0604 56.1867 71.8112 56.2899C71.5621 56.3931 71.2879 56.4202 71.0234 56.3675C70.7588 56.3149 70.5159 56.185 70.3252 55.9943C70.1345 55.8036 70.0046 55.5607 69.952 55.2961C69.8994 55.0316 69.9264 54.7575 70.0296 54.5083C70.1328 54.2591 70.3076 54.0461 70.5318 53.8963C70.756 53.7465 71.0197 53.6665 71.2894 53.6665C71.4685 53.6665 71.6458 53.7018 71.8112 53.7703C71.9767 53.8388 72.127 53.9393 72.2536 54.0659C72.3802 54.1925 72.4807 54.3428 72.5492 54.5083C72.6177 54.6737 72.653 54.851 72.653 55.0301Z" fill="#004D9A"/>
<path d="M4.87567 60.681C4.87567 60.9507 4.79569 61.2143 4.64586 61.4386C4.49602 61.6628 4.28307 61.8376 4.0339 61.9408C3.78473 62.044 3.51055 62.071 3.24603 62.0184C2.98151 61.9658 2.73854 61.8359 2.54784 61.6452C2.35713 61.4545 2.22725 61.2115 2.17464 60.947C2.12202 60.6825 2.14903 60.4083 2.25224 60.1592C2.35545 59.91 2.53022 59.697 2.75447 59.5472C2.97872 59.3974 3.24236 59.3174 3.51206 59.3174C3.69113 59.3174 3.86846 59.3527 4.0339 59.4212C4.19934 59.4897 4.34965 59.5902 4.47628 59.7168C4.6029 59.8434 4.70335 59.9937 4.77188 60.1592C4.84041 60.3246 4.87567 60.5019 4.87567 60.681Z" fill="#004D9A"/>
<path d="M10.5261 60.681C10.5261 60.9507 10.4461 61.2143 10.2962 61.4386C10.1464 61.6628 9.93346 61.8376 9.68429 61.9408C9.43512 62.044 9.16094 62.071 8.89642 62.0184C8.6319 61.9658 8.38892 61.8359 8.19822 61.6452C8.00751 61.4545 7.87764 61.2115 7.82503 60.947C7.77241 60.6825 7.79942 60.4083 7.90263 60.1592C8.00584 59.91 8.18061 59.697 8.40486 59.5472C8.62911 59.3974 8.89275 59.3174 9.16245 59.3174C9.52411 59.3174 9.87094 59.461 10.1267 59.7168C10.3824 59.9725 10.5261 60.3193 10.5261 60.681Z" fill="#004D9A"/>
<path d="M16.1667 60.681C16.1667 60.9507 16.0867 61.2143 15.9369 61.4386C15.787 61.6628 15.5741 61.8376 15.3249 61.9408C15.0757 62.044 14.8016 62.071 14.537 62.0184C14.2725 61.9658 14.0295 61.8359 13.8388 61.6452C13.6481 61.4545 13.5183 61.2115 13.4657 60.947C13.413 60.6825 13.44 60.4083 13.5433 60.1592C13.6465 59.91 13.8212 59.697 14.0455 59.5472C14.2697 59.3974 14.5334 59.3174 14.8031 59.3174C15.1647 59.3174 15.5116 59.461 15.7673 59.7168C16.023 59.9725 16.1667 60.3193 16.1667 60.681Z" fill="#004D9A"/>
<path d="M21.8171 60.681C21.8171 60.9507 21.7371 61.2143 21.5873 61.4386C21.4374 61.6628 21.2245 61.8376 20.9753 61.9408C20.7261 62.044 20.452 62.071 20.1874 62.0184C19.9229 61.9658 19.6799 61.8359 19.4892 61.6452C19.2985 61.4545 19.1687 61.2115 19.116 60.947C19.0634 60.6825 19.0904 60.4083 19.1936 60.1592C19.2969 59.91 19.4716 59.697 19.6959 59.5472C19.9201 59.3974 20.1838 59.3174 20.4534 59.3174C20.8151 59.3174 21.162 59.461 21.4177 59.7168C21.6734 59.9725 21.8171 60.3193 21.8171 60.681Z" fill="#004D9A"/>
<path d="M27.4675 60.681C27.4675 60.9507 27.3875 61.2143 27.2377 61.4386C27.0878 61.6628 26.8748 61.8376 26.6257 61.9408C26.3765 62.044 26.1023 62.071 25.8378 62.0184C25.5733 61.9658 25.3303 61.8359 25.1396 61.6452C24.9489 61.4545 24.8191 61.2115 24.7664 60.947C24.7138 60.6825 24.7408 60.4083 24.844 60.1592C24.9472 59.91 25.122 59.697 25.3463 59.5472C25.5705 59.3974 25.8342 59.3174 26.1039 59.3174C26.4655 59.3174 26.8123 59.461 27.0681 59.7168C27.3238 59.9725 27.4675 60.3193 27.4675 60.681Z" fill="#004D9A"/>
<path d="M33.1198 60.6813C33.1197 60.9529 33.0384 61.2183 32.8864 61.4435C32.7344 61.6686 32.5187 61.8432 32.2668 61.9449C32.0149 62.0466 31.7384 62.0708 31.4727 62.0143C31.207 61.9579 30.9642 61.8233 30.7755 61.628C30.5868 61.4326 30.4607 61.1853 30.4134 60.9179C30.3661 60.6504 30.3998 60.3749 30.5101 60.1266C30.6205 59.8784 30.8024 59.6688 31.0327 59.5247C31.2629 59.3806 31.5309 59.3085 31.8024 59.3177C32.156 59.3297 32.4911 59.4786 32.7369 59.7331C32.9827 59.9875 33.12 60.3275 33.1198 60.6813Z" fill="#004D9A"/>
<path d="M38.735 60.681C38.735 60.9507 38.6551 61.2143 38.5052 61.4386C38.3554 61.6628 38.1424 61.8376 37.8933 61.9408C37.6441 62.044 37.3699 62.071 37.1054 62.0184C36.8409 61.9658 36.5979 61.8359 36.4072 61.6452C36.2165 61.4545 36.0866 61.2115 36.034 60.947C35.9814 60.6825 36.0084 60.4083 36.1116 60.1592C36.2148 59.91 36.3896 59.697 36.6138 59.5472C36.8381 59.3974 37.1017 59.3174 37.3714 59.3174C37.7331 59.3174 38.0799 59.461 38.3357 59.7168C38.5914 59.9725 38.735 60.3193 38.735 60.681Z" fill="#004D9A"/>
<path d="M44.4089 60.681C44.4089 60.9507 44.3289 61.2143 44.1791 61.4386C44.0292 61.6628 43.8163 61.8376 43.5671 61.9408C43.3179 62.044 43.0437 62.071 42.7792 62.0184C42.5147 61.9658 42.2717 61.8359 42.081 61.6452C41.8903 61.4545 41.7605 61.2115 41.7078 60.947C41.6552 60.6825 41.6822 60.4083 41.7854 60.1592C41.8886 59.91 42.0634 59.697 42.2877 59.5472C42.5119 59.3974 42.7756 59.3174 43.0453 59.3174C43.2243 59.3174 43.4016 59.3527 43.5671 59.4212C43.7325 59.4897 43.8829 59.5902 44.0095 59.7168C44.1361 59.8434 44.2365 59.9937 44.3051 60.1592C44.3736 60.3246 44.4089 60.5019 44.4089 60.681Z" fill="#004D9A"/>
<path d="M50.0593 60.681C50.0593 60.9507 49.9793 61.2143 49.8295 61.4386C49.6796 61.6628 49.4666 61.8376 49.2175 61.9408C48.9683 62.044 48.6941 62.071 48.4296 62.0184C48.1651 61.9658 47.9221 61.8359 47.7314 61.6452C47.5407 61.4545 47.4109 61.2115 47.3582 60.947C47.3056 60.6825 47.3326 60.4083 47.4358 60.1592C47.539 59.91 47.7138 59.697 47.9381 59.5472C48.1623 59.3974 48.4259 59.3174 48.6956 59.3174C49.0573 59.3174 49.4041 59.461 49.6599 59.7168C49.9156 59.9725 50.0593 60.3193 50.0593 60.681Z" fill="#004D9A"/>
<path d="M55.6999 60.681C55.6999 60.9507 55.6199 61.2143 55.4701 61.4386C55.3203 61.6628 55.1073 61.8376 54.8581 61.9408C54.6089 62.044 54.3348 62.071 54.0702 62.0184C53.8057 61.9658 53.5628 61.8359 53.3721 61.6452C53.1814 61.4545 53.0515 61.2115 52.9989 60.947C52.9462 60.6825 52.9733 60.4083 53.0765 60.1592C53.1797 59.91 53.3544 59.697 53.5787 59.5472C53.8029 59.3974 54.0666 59.3174 54.3363 59.3174C54.6979 59.3174 55.0448 59.461 55.3005 59.7168C55.5562 59.9725 55.6999 60.3193 55.6999 60.681Z" fill="#004D9A"/>
<path d="M61.3503 60.681C61.3503 60.9507 61.2703 61.2143 61.1205 61.4386C60.9706 61.6628 60.7577 61.8376 60.5085 61.9408C60.2593 62.044 59.9852 62.071 59.7206 62.0184C59.4561 61.9658 59.2132 61.8359 59.0225 61.6452C58.8317 61.4545 58.7019 61.2115 58.6492 60.947C58.5966 60.6825 58.6236 60.4083 58.7269 60.1592C58.8301 59.91 59.0048 59.697 59.2291 59.5472C59.4533 59.3974 59.717 59.3174 59.9867 59.3174C60.3483 59.3174 60.6952 59.461 60.9509 59.7168C61.2066 59.9725 61.3503 60.3193 61.3503 60.681Z" fill="#004D9A"/>
<path d="M67.0007 60.681C67.0007 60.9507 66.9207 61.2143 66.7709 61.4386C66.621 61.6628 66.4081 61.8376 66.1589 61.9408C65.9097 62.044 65.6355 62.071 65.371 62.0184C65.1065 61.9658 64.8635 61.8359 64.6728 61.6452C64.4821 61.4545 64.3523 61.2115 64.2996 60.947C64.247 60.6825 64.274 60.4083 64.3772 60.1592C64.4804 59.91 64.6552 59.697 64.8795 59.5472C65.1037 59.3974 65.3674 59.3174 65.637 59.3174C65.9987 59.3174 66.3455 59.461 66.6013 59.7168C66.857 59.9725 67.0007 60.3193 67.0007 60.681Z" fill="#004D9A"/>
<path d="M72.653 60.681C72.653 60.9507 72.573 61.2143 72.4232 61.4386C72.2734 61.6628 72.0604 61.8376 71.8112 61.9408C71.5621 62.044 71.2879 62.071 71.0234 62.0184C70.7588 61.9658 70.5159 61.8359 70.3252 61.6452C70.1345 61.4545 70.0046 61.2115 69.952 60.947C69.8994 60.6825 69.9264 60.4083 70.0296 60.1592C70.1328 59.91 70.3076 59.697 70.5318 59.5472C70.756 59.3974 71.0197 59.3174 71.2894 59.3174C71.651 59.3174 71.9979 59.461 72.2536 59.7168C72.5093 59.9725 72.653 60.3193 72.653 60.681Z" fill="#004D9A"/>
<path d="M4.87489 66.3322C4.86581 66.5997 4.77819 66.8587 4.62294 67.0768C4.4677 67.2949 4.2517 67.4624 4.00187 67.5586C3.75204 67.6547 3.47944 67.6752 3.21804 67.6175C2.95664 67.5598 2.718 67.4264 2.5319 67.234C2.34579 67.0416 2.22043 66.7986 2.17146 66.5355C2.12248 66.2723 2.15204 66.0005 2.25647 65.754C2.3609 65.5075 2.53558 65.2972 2.75871 65.1494C2.98185 65.0015 3.24358 64.9225 3.51128 64.9224C3.69431 64.9223 3.87548 64.959 4.04401 65.0304C4.21254 65.1018 4.36496 65.2064 4.49221 65.338C4.61946 65.4695 4.71891 65.6254 4.78466 65.7962C4.8504 65.967 4.88109 66.1493 4.87489 66.3322Z" fill="#004D9A"/>
<path d="M10.5272 66.3322C10.5182 66.5997 10.4305 66.8587 10.2753 67.0768C10.12 67.2949 9.90404 67.4624 9.65421 67.5586C9.40438 67.6547 9.13178 67.6752 8.87038 67.6175C8.60898 67.5598 8.37035 67.4264 8.18424 67.234C7.99813 67.0416 7.87277 66.7986 7.8238 66.5355C7.77482 66.2723 7.8044 66.0005 7.90882 65.754C8.01325 65.5075 8.18792 65.2972 8.41105 65.1494C8.63419 65.0015 8.89592 64.9225 9.16362 64.9224C9.34665 64.9223 9.52782 64.959 9.69635 65.0304C9.86488 65.1018 10.0173 65.2064 10.1446 65.338C10.2718 65.4695 10.3713 65.6254 10.437 65.7962C10.5027 65.967 10.5334 66.1493 10.5272 66.3322Z" fill="#004D9A"/>
<path d="M16.1659 66.3322C16.1568 66.5997 16.0692 66.8587 15.914 67.0768C15.7587 67.2949 15.5427 67.4624 15.2929 67.5586C15.0431 67.6547 14.7705 67.6752 14.5091 67.6175C14.2477 67.5598 14.009 67.4264 13.8229 67.234C13.6368 67.0416 13.5115 66.7986 13.4625 66.5355C13.4135 66.2723 13.4431 66.0005 13.5475 65.754C13.6519 65.5075 13.8266 65.2972 14.0497 65.1494C14.2729 65.0015 14.5346 64.9225 14.8023 64.9224C14.9853 64.9223 15.1665 64.959 15.335 65.0304C15.5036 65.1018 15.656 65.2064 15.7832 65.338C15.9105 65.4695 16.0099 65.6254 16.0757 65.7962C16.1414 65.967 16.1721 66.1493 16.1659 66.3322Z" fill="#004D9A"/>
<path d="M21.8163 66.3322C21.8072 66.5997 21.7196 66.8587 21.5644 67.0768C21.4091 67.2949 21.1931 67.4624 20.9433 67.5586C20.6934 67.6547 20.4208 67.6752 20.1594 67.6175C19.898 67.5598 19.6594 67.4264 19.4733 67.234C19.2872 67.0416 19.1618 66.7986 19.1129 66.5355C19.0639 66.2723 19.0934 66.0005 19.1979 65.754C19.3023 65.5075 19.477 65.2972 19.7001 65.1494C19.9233 65.0015 20.185 64.9225 20.4527 64.9224C20.6357 64.9223 20.8169 64.959 20.9854 65.0304C21.1539 65.1018 21.3064 65.2064 21.4336 65.338C21.5609 65.4695 21.6603 65.6254 21.7261 65.7962C21.7918 65.967 21.8225 66.1493 21.8163 66.3322Z" fill="#004D9A"/>
<path d="M27.4686 66.3322C27.4596 66.5997 27.3719 66.8587 27.2167 67.0768C27.0614 67.2949 26.8454 67.4624 26.5956 67.5586C26.3458 67.6547 26.0732 67.6752 25.8118 67.6175C25.5504 67.5598 25.3118 67.4264 25.1256 67.234C24.9395 67.0416 24.8142 66.7986 24.7652 66.5355C24.7162 66.2723 24.7458 66.0005 24.8502 65.754C24.9546 65.5075 25.1293 65.2972 25.3525 65.1494C25.5756 65.0015 25.8373 64.9225 26.105 64.9224C26.2881 64.9223 26.4692 64.959 26.6378 65.0304C26.8063 65.1018 26.9587 65.2064 27.086 65.338C27.2132 65.4695 27.3127 65.6254 27.3784 65.7962C27.4442 65.967 27.4748 66.1493 27.4686 66.3322Z" fill="#004D9A"/>
<path d="M33.1198 66.3319C33.1198 66.6935 32.9761 67.0404 32.7204 67.2961C32.4647 67.5518 32.1179 67.6955 31.7562 67.6955C31.3946 67.6955 31.0477 67.5518 30.792 67.2961C30.5362 67.0404 30.3926 66.6935 30.3926 66.3319C30.3926 65.9702 30.5362 65.6234 30.792 65.3677C31.0477 65.1119 31.3946 64.9683 31.7562 64.9683C32.1179 64.9683 32.4647 65.1119 32.7204 65.3677C32.9761 65.6234 33.1198 65.9702 33.1198 66.3319Z" fill="#004D9A"/>
<path d="M38.7362 66.3319C38.7271 66.6004 38.6388 66.8603 38.4825 67.0788C38.3262 67.2973 38.1088 67.4648 37.8577 67.5602C37.6065 67.6556 37.3328 67.6747 37.0708 67.6151C36.8088 67.5555 36.5703 67.4198 36.3852 67.2251C36.2 67.0304 36.0765 66.7853 36.0302 66.5207C35.9839 66.2561 36.0167 65.9836 36.1247 65.7376C36.2326 65.4916 36.4109 65.2829 36.637 65.1378C36.8631 64.9927 37.1271 64.9177 37.3957 64.9221C37.5768 64.925 37.7555 64.964 37.9213 65.0368C38.0871 65.1096 38.2368 65.2146 38.3616 65.3459C38.4864 65.4771 38.5838 65.6319 38.6481 65.8012C38.7124 65.9705 38.7424 66.1509 38.7362 66.3319Z" fill="#004D9A"/>
<path d="M44.41 66.3322C44.401 66.5997 44.3133 66.8587 44.1581 67.0768C44.0029 67.2949 43.7869 67.4624 43.537 67.5586C43.2872 67.6547 43.0146 67.6752 42.7532 67.6175C42.4918 67.5598 42.2532 67.4264 42.0671 67.234C41.8809 67.0416 41.7556 66.7986 41.7066 66.5355C41.6576 66.2723 41.6872 66.0005 41.7916 65.754C41.8961 65.5075 42.0707 65.2972 42.2939 65.1494C42.517 65.0015 42.7787 64.9225 43.0464 64.9224C43.2294 64.9223 43.4106 64.959 43.5792 65.0304C43.7477 65.1018 43.9001 65.2064 44.0274 65.338C44.1546 65.4695 44.2541 65.6254 44.3198 65.7962C44.3856 65.967 44.4162 66.1493 44.41 66.3322Z" fill="#004D9A"/>
<path d="M50.0604 66.3322C50.0514 66.5997 49.9637 66.8587 49.8085 67.0768C49.6532 67.2949 49.4372 67.4624 49.1874 67.5586C48.9376 67.6547 48.665 67.6752 48.4036 67.6175C48.1422 67.5598 47.9036 67.4264 47.7174 67.234C47.5313 67.0416 47.406 66.7986 47.357 66.5355C47.308 66.2723 47.3376 66.0005 47.442 65.754C47.5464 65.5075 47.7211 65.2972 47.9443 65.1494C48.1674 65.0015 48.4291 64.9225 48.6968 64.9224C48.8798 64.9223 49.061 64.959 49.2295 65.0304C49.3981 65.1018 49.5505 65.2064 49.6778 65.338C49.805 65.4695 49.9045 65.6254 49.9702 65.7962C50.036 65.967 50.0666 66.1493 50.0604 66.3322Z" fill="#004D9A"/>
<path d="M55.6991 66.3322C55.69 66.5997 55.6024 66.8587 55.4472 67.0768C55.2919 67.2949 55.0759 67.4624 54.8261 67.5586C54.5763 67.6547 54.3037 67.6752 54.0423 67.6175C53.7809 67.5598 53.5422 67.4264 53.3561 67.234C53.17 67.0416 53.0446 66.7986 52.9957 66.5355C52.9467 66.2723 52.9763 66.0005 53.0807 65.754C53.1851 65.5075 53.3598 65.2972 53.5829 65.1494C53.8061 65.0015 54.0678 64.9225 54.3355 64.9224C54.5185 64.9223 54.6997 64.959 54.8682 65.0304C55.0368 65.1018 55.1892 65.2064 55.3164 65.338C55.4437 65.4695 55.5431 65.6254 55.6089 65.7962C55.6746 65.967 55.7053 66.1493 55.6991 66.3322Z" fill="#004D9A"/>
<path d="M61.3515 66.3322C61.3424 66.5997 61.2548 66.8587 61.0995 67.0768C60.9443 67.2949 60.7283 67.4624 60.4784 67.5586C60.2286 67.6547 59.956 67.6752 59.6946 67.6175C59.4332 67.5598 59.1946 67.4264 59.0085 67.234C58.8224 67.0416 58.697 66.7986 58.648 66.5355C58.599 66.2723 58.6286 66.0005 58.733 65.754C58.8375 65.5075 59.0121 65.2972 59.2353 65.1494C59.4584 65.0015 59.7201 64.9225 59.9878 64.9224C60.1709 64.9223 60.352 64.959 60.5206 65.0304C60.6891 65.1018 60.8415 65.2064 60.9688 65.338C61.096 65.4695 61.1955 65.6254 61.2612 65.7962C61.327 65.967 61.3577 66.1493 61.3515 66.3322Z" fill="#004D9A"/>
<path d="M67.0019 66.3322C66.9928 66.5997 66.9052 66.8587 66.7499 67.0768C66.5947 67.2949 66.3787 67.4624 66.1288 67.5586C65.879 67.6547 65.6064 67.6752 65.345 67.6175C65.0836 67.5598 64.845 67.4264 64.6589 67.234C64.4728 67.0416 64.3474 66.7986 64.2984 66.5355C64.2494 66.2723 64.279 66.0005 64.3834 65.754C64.4879 65.5075 64.6625 65.2972 64.8857 65.1494C65.1088 65.0015 65.3705 64.9225 65.6382 64.9224C65.8213 64.9223 66.0024 64.959 66.171 65.0304C66.3395 65.1018 66.4919 65.2064 66.6192 65.338C66.7464 65.4695 66.8459 65.6254 66.9116 65.7962C66.9774 65.967 67.0081 66.1493 67.0019 66.3322Z" fill="#004D9A"/>
<path d="M72.653 66.3319C72.653 66.6935 72.5093 67.0404 72.2536 67.2961C71.9979 67.5518 71.651 67.6955 71.2894 67.6955C70.9277 67.6955 70.5809 67.5518 70.3252 67.2961C70.0694 67.0404 69.9258 66.6935 69.9258 66.3319C69.9258 65.9702 70.0694 65.6234 70.3252 65.3677C70.5809 65.1119 70.9277 64.9683 71.2894 64.9683C71.651 64.9683 71.9979 65.1119 72.2536 65.3677C72.5093 65.6234 72.653 65.9702 72.653 66.3319Z" fill="#004D9A"/>
<path d="M4.87567 71.9715C4.87567 72.2412 4.79569 72.5049 4.64586 72.7291C4.49602 72.9534 4.28307 73.1281 4.0339 73.2313C3.78473 73.3346 3.51055 73.3616 3.24603 73.3089C2.98151 73.2563 2.73854 73.1265 2.54784 72.9358C2.35713 72.745 2.22725 72.5021 2.17464 72.2376C2.12202 71.973 2.14903 71.6989 2.25224 71.4497C2.35545 71.2005 2.53022 70.9876 2.75447 70.8377C2.97872 70.6879 3.24236 70.6079 3.51206 70.6079C3.69113 70.6079 3.86846 70.6432 4.0339 70.7117C4.19934 70.7802 4.34965 70.8807 4.47628 71.0073C4.6029 71.1339 4.70335 71.2842 4.77188 71.4497C4.84041 71.6151 4.87567 71.7925 4.87567 71.9715Z" fill="#004D9A"/>
<path d="M10.5261 71.9715C10.5261 72.2412 10.4461 72.5049 10.2962 72.7291C10.1464 72.9534 9.93346 73.1281 9.68429 73.2313C9.43512 73.3346 9.16094 73.3616 8.89642 73.3089C8.6319 73.2563 8.38892 73.1265 8.19822 72.9358C8.00751 72.745 7.87764 72.5021 7.82503 72.2376C7.77241 71.973 7.79942 71.6989 7.90263 71.4497C8.00584 71.2005 8.18061 70.9876 8.40486 70.8377C8.62911 70.6879 8.89275 70.6079 9.16245 70.6079C9.52411 70.6079 9.87094 70.7516 10.1267 71.0073C10.3824 71.263 10.5261 71.6099 10.5261 71.9715Z" fill="#004D9A"/>
<path d="M16.1667 71.9715C16.1667 72.2412 16.0867 72.5049 15.9369 72.7291C15.787 72.9534 15.5741 73.1281 15.3249 73.2313C15.0757 73.3346 14.8016 73.3616 14.537 73.3089C14.2725 73.2563 14.0295 73.1265 13.8388 72.9358C13.6481 72.745 13.5183 72.5021 13.4657 72.2376C13.413 71.973 13.44 71.6989 13.5433 71.4497C13.6465 71.2005 13.8212 70.9876 14.0455 70.8377C14.2697 70.6879 14.5334 70.6079 14.8031 70.6079C15.1647 70.6079 15.5116 70.7516 15.7673 71.0073C16.023 71.263 16.1667 71.6099 16.1667 71.9715Z" fill="#004D9A"/>
<path d="M21.8171 71.9715C21.8171 72.2412 21.7371 72.5049 21.5873 72.7291C21.4374 72.9534 21.2245 73.1281 20.9753 73.2313C20.7261 73.3346 20.452 73.3616 20.1874 73.3089C19.9229 73.2563 19.6799 73.1265 19.4892 72.9358C19.2985 72.745 19.1687 72.5021 19.116 72.2376C19.0634 71.973 19.0904 71.6989 19.1936 71.4497C19.2969 71.2005 19.4716 70.9876 19.6959 70.8377C19.9201 70.6879 20.1838 70.6079 20.4534 70.6079C20.8151 70.6079 21.162 70.7516 21.4177 71.0073C21.6734 71.263 21.8171 71.6099 21.8171 71.9715Z" fill="#004D9A"/>
<path d="M27.4675 71.9715C27.4675 72.2412 27.3875 72.5049 27.2377 72.7291C27.0878 72.9534 26.8748 73.1281 26.6257 73.2313C26.3765 73.3346 26.1023 73.3616 25.8378 73.3089C25.5733 73.2563 25.3303 73.1265 25.1396 72.9358C24.9489 72.745 24.8191 72.5021 24.7664 72.2376C24.7138 71.973 24.7408 71.6989 24.844 71.4497C24.9472 71.2005 25.122 70.9876 25.3463 70.8377C25.5705 70.6879 25.8342 70.6079 26.1039 70.6079C26.4655 70.6079 26.8123 70.7516 27.0681 71.0073C27.3238 71.263 27.4675 71.6099 27.4675 71.9715Z" fill="#004D9A"/>
<path d="M33.1198 71.9713C33.1197 72.243 33.0384 72.5084 32.8864 72.7335C32.7344 72.9586 32.5187 73.1333 32.2668 73.235C32.0149 73.3367 31.7384 73.3608 31.4727 73.3044C31.207 73.2479 30.9642 73.1134 30.7755 72.918C30.5868 72.7227 30.4607 72.4754 30.4134 72.2079C30.3661 71.9404 30.3998 71.6649 30.5101 71.4167C30.6205 71.1685 30.8024 70.9589 31.0327 70.8147C31.2629 70.6706 31.5309 70.5985 31.8024 70.6077C32.156 70.6197 32.4911 70.7687 32.7369 71.0231C32.9827 71.2775 33.12 71.6175 33.1198 71.9713Z" fill="#004D9A"/>
<path d="M38.735 71.9715C38.735 72.2412 38.6551 72.5049 38.5052 72.7291C38.3554 72.9534 38.1424 73.1281 37.8933 73.2313C37.6441 73.3346 37.3699 73.3616 37.1054 73.3089C36.8409 73.2563 36.5979 73.1265 36.4072 72.9358C36.2165 72.745 36.0866 72.5021 36.034 72.2376C35.9814 71.973 36.0084 71.6989 36.1116 71.4497C36.2148 71.2005 36.3896 70.9876 36.6138 70.8377C36.8381 70.6879 37.1017 70.6079 37.3714 70.6079C37.7331 70.6079 38.0799 70.7516 38.3357 71.0073C38.5914 71.263 38.735 71.6099 38.735 71.9715Z" fill="#004D9A"/>
<path d="M44.4089 71.9715C44.4089 72.2412 44.3289 72.5049 44.1791 72.7291C44.0292 72.9534 43.8163 73.1281 43.5671 73.2313C43.3179 73.3346 43.0437 73.3616 42.7792 73.3089C42.5147 73.2563 42.2717 73.1265 42.081 72.9358C41.8903 72.745 41.7605 72.5021 41.7078 72.2376C41.6552 71.973 41.6822 71.6989 41.7854 71.4497C41.8886 71.2005 42.0634 70.9876 42.2877 70.8377C42.5119 70.6879 42.7756 70.6079 43.0453 70.6079C43.2243 70.6079 43.4016 70.6432 43.5671 70.7117C43.7325 70.7802 43.8829 70.8807 44.0095 71.0073C44.1361 71.1339 44.2365 71.2842 44.3051 71.4497C44.3736 71.6151 44.4089 71.7925 44.4089 71.9715Z" fill="#004D9A"/>
<path d="M50.0593 71.9715C50.0593 72.2412 49.9793 72.5049 49.8295 72.7291C49.6796 72.9534 49.4666 73.1281 49.2175 73.2313C48.9683 73.3346 48.6941 73.3616 48.4296 73.3089C48.1651 73.2563 47.9221 73.1265 47.7314 72.9358C47.5407 72.745 47.4109 72.5021 47.3582 72.2376C47.3056 71.973 47.3326 71.6989 47.4358 71.4497C47.539 71.2005 47.7138 70.9876 47.9381 70.8377C48.1623 70.6879 48.4259 70.6079 48.6956 70.6079C49.0573 70.6079 49.4041 70.7516 49.6599 71.0073C49.9156 71.263 50.0593 71.6099 50.0593 71.9715Z" fill="#004D9A"/>
<path d="M55.6999 71.9715C55.6999 72.2412 55.6199 72.5049 55.4701 72.7291C55.3203 72.9534 55.1073 73.1281 54.8581 73.2313C54.6089 73.3346 54.3348 73.3616 54.0702 73.3089C53.8057 73.2563 53.5628 73.1265 53.3721 72.9358C53.1814 72.745 53.0515 72.5021 52.9989 72.2376C52.9462 71.973 52.9733 71.6989 53.0765 71.4497C53.1797 71.2005 53.3544 70.9876 53.5787 70.8377C53.8029 70.6879 54.0666 70.6079 54.3363 70.6079C54.6979 70.6079 55.0448 70.7516 55.3005 71.0073C55.5562 71.263 55.6999 71.6099 55.6999 71.9715Z" fill="#004D9A"/>
<path d="M61.3503 71.9715C61.3503 72.2412 61.2703 72.5049 61.1205 72.7291C60.9706 72.9534 60.7577 73.1281 60.5085 73.2313C60.2593 73.3346 59.9852 73.3616 59.7206 73.3089C59.4561 73.2563 59.2132 73.1265 59.0225 72.9358C58.8317 72.745 58.7019 72.5021 58.6492 72.2376C58.5966 71.973 58.6236 71.6989 58.7269 71.4497C58.8301 71.2005 59.0048 70.9876 59.2291 70.8377C59.4533 70.6879 59.717 70.6079 59.9867 70.6079C60.3483 70.6079 60.6952 70.7516 60.9509 71.0073C61.2066 71.263 61.3503 71.6099 61.3503 71.9715Z" fill="#004D9A"/>
<path d="M67.0007 71.9715C67.0007 72.2412 66.9207 72.5049 66.7709 72.7291C66.621 72.9534 66.4081 73.1281 66.1589 73.2313C65.9097 73.3346 65.6355 73.3616 65.371 73.3089C65.1065 73.2563 64.8635 73.1265 64.6728 72.9358C64.4821 72.745 64.3523 72.5021 64.2996 72.2376C64.247 71.973 64.274 71.6989 64.3772 71.4497C64.4804 71.2005 64.6552 70.9876 64.8795 70.8377C65.1037 70.6879 65.3674 70.6079 65.637 70.6079C65.9987 70.6079 66.3455 70.7516 66.6013 71.0073C66.857 71.263 67.0007 71.6099 67.0007 71.9715Z" fill="#004D9A"/>
<path d="M72.653 71.9715C72.653 72.2412 72.573 72.5049 72.4232 72.7291C72.2734 72.9534 72.0604 73.1281 71.8112 73.2313C71.5621 73.3346 71.2879 73.3616 71.0234 73.3089C70.7588 73.2563 70.5159 73.1265 70.3252 72.9358C70.1345 72.745 70.0046 72.5021 69.952 72.2376C69.8994 71.973 69.9264 71.6989 70.0296 71.4497C70.1328 71.2005 70.3076 70.9876 70.5318 70.8377C70.756 70.6879 71.0197 70.6079 71.2894 70.6079C71.651 70.6079 71.9979 70.7516 72.2536 71.0073C72.5093 71.263 72.653 71.6099 72.653 71.9715Z" fill="#004D9A"/>
</g>
</svg>
