<svg width="123" height="176" viewBox="0 0 123 176" fill="none" xmlns="http://www.w3.org/2000/svg">
<path d="M67.2875 36.7683L65.1831 168.012C65.1641 168.999 64.8906 169.966 64.3891 170.817C63.8877 171.668 63.1752 172.376 62.3209 172.871C61.4666 173.366 60.4993 173.632 59.5129 173.643C58.5265 173.654 57.5544 173.41 56.6907 172.934L-49.9807 115.035C-50.8426 114.565 -51.5689 113.88 -52.0895 113.047C-52.6102 112.214 -52.9078 111.261 -52.9537 110.279C-52.9997 109.296 -52.7924 108.318 -52.3519 107.439C-51.9113 106.559 -51.2523 105.807 -50.4381 105.256L58.4017 31.9453C59.2678 31.3651 60.2754 31.0326 61.3157 30.9837C62.3559 30.9348 63.3893 31.1714 64.304 31.6679C65.2188 32.1645 65.9803 32.902 66.5061 33.8009C67.0319 34.6998 67.3021 35.7259 67.2875 36.7683Z" fill="#004D9A"/>
</svg>
