<svg width="123" height="122" viewBox="0 0 123 122" fill="none" xmlns="http://www.w3.org/2000/svg">
<path d="M38.9313 97.1912L37.9083 6.31493C37.9028 5.63119 38.0739 4.95734 38.4049 4.3587C38.7359 3.76006 39.2156 3.25694 39.7975 2.8981C40.3795 2.53927 41.0439 2.33689 41.7264 2.31058C42.4089 2.28427 43.0864 2.43493 43.6931 2.74795L118.616 40.8056C119.222 41.1148 119.737 41.5749 120.113 42.1416C120.49 42.7083 120.714 43.3626 120.764 44.0416C120.814 44.7205 120.689 45.4013 120.401 46.0185C120.113 46.6357 119.671 47.1684 119.118 47.5656L45.1724 100.361C44.584 100.779 43.8929 101.029 43.1738 101.082C42.4548 101.135 41.7351 100.991 41.0926 100.665C40.4501 100.339 39.9091 99.8424 39.5282 99.2302C39.1473 98.618 38.9409 97.9129 38.9313 97.1912Z" fill="#004D9A"/>
</svg>
