<svg width="90" height="88" viewBox="0 0 90 88" fill="none" xmlns="http://www.w3.org/2000/svg">
<path d="M29.3305 70.1691L28.5847 3.91805C28.5807 3.41959 28.7054 2.92833 28.9467 2.49191C29.188 2.05549 29.5377 1.6887 29.962 1.4271C30.3862 1.1655 30.8706 1.01796 31.3682 0.998781C31.8657 0.979603 32.3596 1.08944 32.8019 1.31764L87.4228 29.0626C87.8642 29.288 88.2401 29.6234 88.5143 30.0366C88.7884 30.4497 88.9517 30.9267 88.9885 31.4217C89.0252 31.9167 88.934 32.413 88.7239 32.8629C88.5137 33.3128 88.1915 33.7013 87.7883 33.9908L33.8804 72.4802C33.4514 72.7849 32.9476 72.9666 32.4234 73.0055C31.8992 73.0445 31.3745 72.9394 30.9061 72.7015C30.4377 72.4635 30.0433 72.1019 29.7656 71.6555C29.4879 71.2092 29.3375 70.6952 29.3305 70.1691Z" fill="#50E6C9"/>
</svg>
