<svg width="32" height="31" viewBox="0 0 32 31" fill="none" xmlns="http://www.w3.org/2000/svg">
<path d="M30.0534 8.29258C29.895 7.67957 29.5724 7.1179 29.1183 6.66431C28.6641 6.21073 28.0944 5.88128 27.4667 5.70925C25.1734 5.16675 16.0001 5.16675 16.0001 5.16675C16.0001 5.16675 6.82674 5.16675 4.5334 5.76091C3.90573 5.93295 3.33604 6.26239 2.88187 6.71598C2.42769 7.16957 2.10512 7.73124 1.94674 8.34425C1.52702 10.5989 1.32172 12.8861 1.3334 15.1772C1.31844 17.4854 1.52376 19.7901 1.94674 22.0617C2.12135 22.6557 2.45115 23.196 2.90426 23.6305C3.35738 24.0649 3.9185 24.3788 4.5334 24.5417C6.82674 25.1359 16.0001 25.1359 16.0001 25.1359C16.0001 25.1359 25.1734 25.1359 27.4667 24.5417C28.0944 24.3697 28.6641 24.0403 29.1183 23.5867C29.5724 23.1331 29.895 22.5714 30.0534 21.9584C30.4699 19.7207 30.6752 17.4509 30.6667 15.1772C30.6817 12.8689 30.4764 10.5642 30.0534 8.29258Z" fill="white" stroke="#333033" stroke-width="2" stroke-linecap="round" stroke-linejoin="round"/>
<path d="M13 19.4009L20.6667 15.1771L13 10.9534V19.4009Z" stroke="#333033" stroke-width="2" stroke-linecap="round" stroke-linejoin="round"/>
</svg>
